G75*
%MOIN*%
%OFA0B0*%
%FSLAX25Y25*%
%IPPOS*%
%LPD*%
%AMOC8*
5,1,8,0,0,1.08239X$1,22.5*
%
%ADD10C,0.02300*%
%ADD11R,0.05131X0.04737*%
%ADD12R,0.04737X0.05131*%
%ADD13C,0.20800*%
%ADD14C,0.01000*%
%ADD15R,0.05131X0.03950*%
%ADD16C,0.03300*%
%ADD17R,0.03950X0.04343*%
%ADD18R,0.05524X0.04343*%
%ADD19C,0.04737*%
%ADD20C,0.05000*%
%ADD21C,0.06706*%
D10*
X0089250Y0070250D03*
X0093250Y0070250D03*
X0133750Y0129250D03*
X0133750Y0133250D03*
X0158750Y0133250D03*
X0158750Y0129250D03*
X0206750Y0063250D03*
X0210750Y0063250D03*
X0258750Y0129250D03*
X0258750Y0133250D03*
X0283250Y0133250D03*
X0283250Y0129250D03*
X0324250Y0070750D03*
X0328250Y0070750D03*
X0369250Y0129250D03*
X0369250Y0133250D03*
X0328250Y0197250D03*
X0324250Y0197250D03*
X0324250Y0267750D03*
X0328250Y0267750D03*
X0369250Y0326250D03*
X0369250Y0330250D03*
X0328250Y0394250D03*
X0324250Y0394250D03*
X0283250Y0330250D03*
X0283250Y0326250D03*
X0258750Y0326250D03*
X0258750Y0330250D03*
X0210750Y0399250D03*
X0206750Y0399250D03*
X0158750Y0330250D03*
X0158750Y0326250D03*
X0133750Y0326250D03*
X0133750Y0330250D03*
X0093250Y0267250D03*
X0089250Y0267250D03*
X0048750Y0325750D03*
X0048750Y0329750D03*
X0089250Y0393750D03*
X0093250Y0393750D03*
X0206750Y0260250D03*
X0210750Y0260250D03*
X0210750Y0202250D03*
X0206750Y0202250D03*
X0093250Y0196750D03*
X0089250Y0196750D03*
X0048750Y0132750D03*
X0048750Y0128750D03*
D11*
X0205404Y0133750D03*
X0212096Y0133750D03*
X0318927Y0123711D03*
X0322904Y0113750D03*
X0329596Y0113750D03*
X0329596Y0310750D03*
X0322904Y0310750D03*
X0318927Y0320711D03*
X0212096Y0330750D03*
X0205404Y0330750D03*
D12*
X0193750Y0339904D03*
X0193750Y0346596D03*
X0226250Y0346596D03*
X0226250Y0339904D03*
X0226250Y0149596D03*
X0226250Y0142904D03*
X0193750Y0142904D03*
X0193750Y0149596D03*
D13*
X0208750Y0179750D03*
X0208750Y0104750D03*
X0208750Y0081750D03*
X0176250Y0081750D03*
X0176250Y0104750D03*
X0113750Y0092750D03*
X0068750Y0092750D03*
X0056250Y0050250D03*
X0091250Y0174750D03*
X0056250Y0247250D03*
X0068750Y0289750D03*
X0113750Y0289750D03*
X0176250Y0278750D03*
X0176250Y0301750D03*
X0208750Y0301750D03*
X0208750Y0278750D03*
X0241250Y0278750D03*
X0241250Y0301750D03*
X0303750Y0289750D03*
X0348750Y0289750D03*
X0361250Y0247250D03*
X0326250Y0177750D03*
X0326250Y0154750D03*
X0303750Y0092750D03*
X0348750Y0092750D03*
X0361250Y0050250D03*
X0241250Y0081750D03*
X0241250Y0104750D03*
X0326250Y0351750D03*
X0326250Y0374750D03*
X0208750Y0376750D03*
X0091250Y0371750D03*
D14*
X0091250Y0359550D02*
X0089565Y0359585D01*
X0087901Y0359859D01*
X0086294Y0360367D01*
X0084775Y0361099D01*
X0083376Y0362039D01*
X0082125Y0363169D01*
X0081048Y0364466D01*
X0080166Y0365902D01*
X0079497Y0367450D01*
X0079055Y0369077D01*
X0078850Y0370750D01*
X0078850Y0391150D01*
X0103650Y0391150D01*
X0103650Y0371150D01*
X0103590Y0369551D01*
X0103303Y0367976D01*
X0102797Y0366457D01*
X0102081Y0365026D01*
X0101170Y0363710D01*
X0100082Y0362537D01*
X0098838Y0361529D01*
X0097465Y0360707D01*
X0095989Y0360088D01*
X0094440Y0359684D01*
X0092850Y0359504D01*
X0091250Y0359550D01*
X0086646Y0360256D02*
X0096388Y0360256D01*
X0098379Y0361254D02*
X0084544Y0361254D01*
X0083140Y0362253D02*
X0099732Y0362253D01*
X0100745Y0363251D02*
X0082057Y0363251D01*
X0081227Y0364250D02*
X0101544Y0364250D01*
X0102193Y0365248D02*
X0080567Y0365248D01*
X0080017Y0366247D02*
X0102692Y0366247D01*
X0103060Y0367245D02*
X0079585Y0367245D01*
X0079282Y0368244D02*
X0103352Y0368244D01*
X0103534Y0369242D02*
X0079035Y0369242D01*
X0078913Y0370241D02*
X0103616Y0370241D01*
X0103650Y0371239D02*
X0078850Y0371239D01*
X0078850Y0372238D02*
X0103650Y0372238D01*
X0103650Y0373236D02*
X0078850Y0373236D01*
X0078850Y0374235D02*
X0103650Y0374235D01*
X0103650Y0375233D02*
X0078850Y0375233D01*
X0078850Y0376232D02*
X0103650Y0376232D01*
X0103650Y0377230D02*
X0078850Y0377230D01*
X0078850Y0378229D02*
X0103650Y0378229D01*
X0103650Y0379227D02*
X0078850Y0379227D01*
X0078850Y0380226D02*
X0103650Y0380226D01*
X0103650Y0381224D02*
X0078850Y0381224D01*
X0078850Y0382223D02*
X0103650Y0382223D01*
X0103650Y0383222D02*
X0078850Y0383222D01*
X0078850Y0384220D02*
X0103650Y0384220D01*
X0103650Y0385219D02*
X0078850Y0385219D01*
X0078850Y0386217D02*
X0103650Y0386217D01*
X0103650Y0387216D02*
X0078850Y0387216D01*
X0078850Y0388214D02*
X0103650Y0388214D01*
X0103650Y0389213D02*
X0078850Y0389213D01*
X0078850Y0390211D02*
X0103650Y0390211D01*
X0170035Y0312793D02*
X0171511Y0313412D01*
X0173060Y0313816D01*
X0174650Y0313996D01*
X0176250Y0313950D01*
X0177935Y0313915D01*
X0179599Y0313641D01*
X0181206Y0313133D01*
X0182725Y0312401D01*
X0184124Y0311461D01*
X0185375Y0310331D01*
X0186452Y0309034D01*
X0187334Y0307598D01*
X0188003Y0306050D01*
X0188445Y0304423D01*
X0188650Y0302750D01*
X0188650Y0262350D01*
X0163850Y0262350D01*
X0163850Y0302350D01*
X0163910Y0303949D01*
X0164197Y0305524D01*
X0164703Y0307043D01*
X0165419Y0308474D01*
X0166330Y0309790D01*
X0167418Y0310963D01*
X0168662Y0311971D01*
X0170035Y0312793D01*
X0169257Y0312327D02*
X0182835Y0312327D01*
X0184270Y0311329D02*
X0167869Y0311329D01*
X0166831Y0310330D02*
X0185375Y0310330D01*
X0186205Y0309332D02*
X0166013Y0309332D01*
X0165348Y0308333D02*
X0186883Y0308333D01*
X0187448Y0307335D02*
X0164849Y0307335D01*
X0164467Y0306336D02*
X0187879Y0306336D01*
X0188196Y0305338D02*
X0164163Y0305338D01*
X0163981Y0304339D02*
X0188455Y0304339D01*
X0188577Y0303341D02*
X0163887Y0303341D01*
X0163850Y0302342D02*
X0188650Y0302342D01*
X0188650Y0301344D02*
X0163850Y0301344D01*
X0163850Y0300345D02*
X0188650Y0300345D01*
X0188650Y0299347D02*
X0163850Y0299347D01*
X0163850Y0298348D02*
X0188650Y0298348D01*
X0188650Y0297350D02*
X0163850Y0297350D01*
X0163850Y0296351D02*
X0188650Y0296351D01*
X0188650Y0295353D02*
X0163850Y0295353D01*
X0163850Y0294354D02*
X0188650Y0294354D01*
X0188650Y0293355D02*
X0163850Y0293355D01*
X0163850Y0292357D02*
X0188650Y0292357D01*
X0188650Y0291358D02*
X0163850Y0291358D01*
X0163850Y0290360D02*
X0188650Y0290360D01*
X0188650Y0289361D02*
X0163850Y0289361D01*
X0163850Y0288363D02*
X0188650Y0288363D01*
X0188650Y0287364D02*
X0163850Y0287364D01*
X0163850Y0286366D02*
X0188650Y0286366D01*
X0188650Y0285367D02*
X0163850Y0285367D01*
X0163850Y0284369D02*
X0188650Y0284369D01*
X0188650Y0283370D02*
X0163850Y0283370D01*
X0163850Y0282372D02*
X0188650Y0282372D01*
X0188650Y0281373D02*
X0163850Y0281373D01*
X0163850Y0280375D02*
X0188650Y0280375D01*
X0188650Y0279376D02*
X0163850Y0279376D01*
X0163850Y0278378D02*
X0188650Y0278378D01*
X0188650Y0277379D02*
X0163850Y0277379D01*
X0163850Y0276381D02*
X0188650Y0276381D01*
X0188650Y0275382D02*
X0163850Y0275382D01*
X0163850Y0274384D02*
X0188650Y0274384D01*
X0188650Y0273385D02*
X0163850Y0273385D01*
X0163850Y0272387D02*
X0188650Y0272387D01*
X0188650Y0271388D02*
X0163850Y0271388D01*
X0163850Y0270390D02*
X0188650Y0270390D01*
X0188650Y0269391D02*
X0163850Y0269391D01*
X0163850Y0268393D02*
X0188650Y0268393D01*
X0188650Y0267394D02*
X0163850Y0267394D01*
X0163850Y0266396D02*
X0188650Y0266396D01*
X0188650Y0265397D02*
X0163850Y0265397D01*
X0163850Y0264399D02*
X0188650Y0264399D01*
X0188650Y0263400D02*
X0163850Y0263400D01*
X0163850Y0262402D02*
X0188650Y0262402D01*
X0196350Y0262402D02*
X0221150Y0262402D01*
X0221150Y0262350D02*
X0221150Y0302750D01*
X0220945Y0304423D01*
X0220503Y0306050D01*
X0219834Y0307598D01*
X0218952Y0309034D01*
X0217875Y0310331D01*
X0216624Y0311461D01*
X0215225Y0312401D01*
X0213706Y0313133D01*
X0212099Y0313641D01*
X0210435Y0313915D01*
X0208750Y0313950D01*
X0207150Y0313996D01*
X0205560Y0313816D01*
X0204011Y0313412D01*
X0202535Y0312793D01*
X0201162Y0311971D01*
X0199918Y0310963D01*
X0198830Y0309790D01*
X0197919Y0308474D01*
X0197203Y0307043D01*
X0196697Y0305524D01*
X0196410Y0303949D01*
X0196350Y0302350D01*
X0196350Y0262350D01*
X0221150Y0262350D01*
X0221150Y0263400D02*
X0196350Y0263400D01*
X0196350Y0264399D02*
X0221150Y0264399D01*
X0221150Y0265397D02*
X0196350Y0265397D01*
X0196350Y0266396D02*
X0221150Y0266396D01*
X0221150Y0267394D02*
X0196350Y0267394D01*
X0196350Y0268393D02*
X0221150Y0268393D01*
X0221150Y0269391D02*
X0196350Y0269391D01*
X0196350Y0270390D02*
X0221150Y0270390D01*
X0221150Y0271388D02*
X0196350Y0271388D01*
X0196350Y0272387D02*
X0221150Y0272387D01*
X0221150Y0273385D02*
X0196350Y0273385D01*
X0196350Y0274384D02*
X0221150Y0274384D01*
X0221150Y0275382D02*
X0196350Y0275382D01*
X0196350Y0276381D02*
X0221150Y0276381D01*
X0221150Y0277379D02*
X0196350Y0277379D01*
X0196350Y0278378D02*
X0221150Y0278378D01*
X0221150Y0279376D02*
X0196350Y0279376D01*
X0196350Y0280375D02*
X0221150Y0280375D01*
X0221150Y0281373D02*
X0196350Y0281373D01*
X0196350Y0282372D02*
X0221150Y0282372D01*
X0221150Y0283370D02*
X0196350Y0283370D01*
X0196350Y0284369D02*
X0221150Y0284369D01*
X0221150Y0285367D02*
X0196350Y0285367D01*
X0196350Y0286366D02*
X0221150Y0286366D01*
X0221150Y0287364D02*
X0196350Y0287364D01*
X0196350Y0288363D02*
X0221150Y0288363D01*
X0221150Y0289361D02*
X0196350Y0289361D01*
X0196350Y0290360D02*
X0221150Y0290360D01*
X0221150Y0291358D02*
X0196350Y0291358D01*
X0196350Y0292357D02*
X0221150Y0292357D01*
X0221150Y0293355D02*
X0196350Y0293355D01*
X0196350Y0294354D02*
X0221150Y0294354D01*
X0221150Y0295353D02*
X0196350Y0295353D01*
X0196350Y0296351D02*
X0221150Y0296351D01*
X0221150Y0297350D02*
X0196350Y0297350D01*
X0196350Y0298348D02*
X0221150Y0298348D01*
X0221150Y0299347D02*
X0196350Y0299347D01*
X0196350Y0300345D02*
X0221150Y0300345D01*
X0221150Y0301344D02*
X0196350Y0301344D01*
X0196350Y0302342D02*
X0221150Y0302342D01*
X0221077Y0303341D02*
X0196387Y0303341D01*
X0196481Y0304339D02*
X0220955Y0304339D01*
X0220696Y0305338D02*
X0196663Y0305338D01*
X0196967Y0306336D02*
X0220379Y0306336D01*
X0219948Y0307335D02*
X0197349Y0307335D01*
X0197848Y0308333D02*
X0219383Y0308333D01*
X0218705Y0309332D02*
X0198513Y0309332D01*
X0199331Y0310330D02*
X0217875Y0310330D01*
X0216770Y0311329D02*
X0200369Y0311329D01*
X0201757Y0312327D02*
X0215335Y0312327D01*
X0213096Y0313326D02*
X0203806Y0313326D01*
X0180596Y0313326D02*
X0171306Y0313326D01*
X0125503Y0294050D02*
X0125945Y0292423D01*
X0126150Y0290750D01*
X0126150Y0270350D01*
X0101350Y0270350D01*
X0101350Y0290350D01*
X0101410Y0291949D01*
X0101697Y0293524D01*
X0102203Y0295043D01*
X0102919Y0296474D01*
X0103830Y0297790D01*
X0104918Y0298963D01*
X0106162Y0299971D01*
X0107535Y0300793D01*
X0109011Y0301412D01*
X0110560Y0301816D01*
X0112150Y0301996D01*
X0113750Y0301950D01*
X0115435Y0301915D01*
X0117099Y0301641D01*
X0118706Y0301133D01*
X0120225Y0300401D01*
X0121624Y0299461D01*
X0122875Y0298331D01*
X0123952Y0297034D01*
X0124834Y0295598D01*
X0125503Y0294050D01*
X0125372Y0294354D02*
X0101973Y0294354D01*
X0101666Y0293355D02*
X0125691Y0293355D01*
X0125953Y0292357D02*
X0101484Y0292357D01*
X0101388Y0291358D02*
X0126075Y0291358D01*
X0126150Y0290360D02*
X0101350Y0290360D01*
X0101350Y0289361D02*
X0126150Y0289361D01*
X0126150Y0288363D02*
X0101350Y0288363D01*
X0101350Y0287364D02*
X0126150Y0287364D01*
X0126150Y0286366D02*
X0101350Y0286366D01*
X0101350Y0285367D02*
X0126150Y0285367D01*
X0126150Y0284369D02*
X0101350Y0284369D01*
X0101350Y0283370D02*
X0126150Y0283370D01*
X0126150Y0282372D02*
X0101350Y0282372D01*
X0101350Y0281373D02*
X0126150Y0281373D01*
X0126150Y0280375D02*
X0101350Y0280375D01*
X0101350Y0279376D02*
X0126150Y0279376D01*
X0126150Y0278378D02*
X0101350Y0278378D01*
X0101350Y0277379D02*
X0126150Y0277379D01*
X0126150Y0276381D02*
X0101350Y0276381D01*
X0101350Y0275382D02*
X0126150Y0275382D01*
X0126150Y0274384D02*
X0101350Y0274384D01*
X0101350Y0273385D02*
X0126150Y0273385D01*
X0126150Y0272387D02*
X0101350Y0272387D01*
X0101350Y0271388D02*
X0126150Y0271388D01*
X0126150Y0270390D02*
X0101350Y0270390D01*
X0081150Y0270390D02*
X0056350Y0270390D01*
X0056350Y0270350D02*
X0056350Y0290350D01*
X0056410Y0291949D01*
X0056697Y0293524D01*
X0057203Y0295043D01*
X0057919Y0296474D01*
X0058830Y0297790D01*
X0059918Y0298963D01*
X0061162Y0299971D01*
X0062535Y0300793D01*
X0064011Y0301412D01*
X0065560Y0301816D01*
X0067150Y0301996D01*
X0068750Y0301950D01*
X0070435Y0301915D01*
X0072099Y0301641D01*
X0073706Y0301133D01*
X0075225Y0300401D01*
X0076624Y0299461D01*
X0077875Y0298331D01*
X0078952Y0297034D01*
X0079834Y0295598D01*
X0080503Y0294050D01*
X0080945Y0292423D01*
X0081150Y0290750D01*
X0081150Y0270350D01*
X0056350Y0270350D01*
X0056350Y0271388D02*
X0081150Y0271388D01*
X0081150Y0272387D02*
X0056350Y0272387D01*
X0056350Y0273385D02*
X0081150Y0273385D01*
X0081150Y0274384D02*
X0056350Y0274384D01*
X0056350Y0275382D02*
X0081150Y0275382D01*
X0081150Y0276381D02*
X0056350Y0276381D01*
X0056350Y0277379D02*
X0081150Y0277379D01*
X0081150Y0278378D02*
X0056350Y0278378D01*
X0056350Y0279376D02*
X0081150Y0279376D01*
X0081150Y0280375D02*
X0056350Y0280375D01*
X0056350Y0281373D02*
X0081150Y0281373D01*
X0081150Y0282372D02*
X0056350Y0282372D01*
X0056350Y0283370D02*
X0081150Y0283370D01*
X0081150Y0284369D02*
X0056350Y0284369D01*
X0056350Y0285367D02*
X0081150Y0285367D01*
X0081150Y0286366D02*
X0056350Y0286366D01*
X0056350Y0287364D02*
X0081150Y0287364D01*
X0081150Y0288363D02*
X0056350Y0288363D01*
X0056350Y0289361D02*
X0081150Y0289361D01*
X0081150Y0290360D02*
X0056350Y0290360D01*
X0056388Y0291358D02*
X0081075Y0291358D01*
X0080953Y0292357D02*
X0056484Y0292357D01*
X0056666Y0293355D02*
X0080691Y0293355D01*
X0080372Y0294354D02*
X0056973Y0294354D01*
X0057358Y0295353D02*
X0079940Y0295353D01*
X0079372Y0296351D02*
X0057857Y0296351D01*
X0058525Y0297350D02*
X0078690Y0297350D01*
X0077856Y0298348D02*
X0059348Y0298348D01*
X0060391Y0299347D02*
X0076750Y0299347D01*
X0075308Y0300345D02*
X0061787Y0300345D01*
X0063849Y0301344D02*
X0073040Y0301344D01*
X0102358Y0295353D02*
X0124940Y0295353D01*
X0124372Y0296351D02*
X0102857Y0296351D01*
X0103525Y0297350D02*
X0123690Y0297350D01*
X0122856Y0298348D02*
X0104348Y0298348D01*
X0105391Y0299347D02*
X0121750Y0299347D01*
X0120308Y0300345D02*
X0106787Y0300345D01*
X0108849Y0301344D02*
X0118040Y0301344D01*
X0065375Y0255831D02*
X0066452Y0254534D01*
X0067334Y0253098D01*
X0068003Y0251550D01*
X0068445Y0249923D01*
X0068650Y0248250D01*
X0068650Y0227850D01*
X0043850Y0227850D01*
X0043850Y0247850D01*
X0043910Y0249449D01*
X0044197Y0251024D01*
X0044703Y0252543D01*
X0045419Y0253974D01*
X0046330Y0255290D01*
X0047418Y0256463D01*
X0048662Y0257471D01*
X0050035Y0258293D01*
X0051511Y0258912D01*
X0053060Y0259316D01*
X0054650Y0259496D01*
X0056250Y0259450D01*
X0057935Y0259415D01*
X0059599Y0259141D01*
X0061206Y0258633D01*
X0062725Y0257901D01*
X0064124Y0256961D01*
X0065375Y0255831D01*
X0065723Y0255412D02*
X0046443Y0255412D01*
X0045723Y0254414D02*
X0066527Y0254414D01*
X0067140Y0253415D02*
X0045139Y0253415D01*
X0044661Y0252417D02*
X0067629Y0252417D01*
X0068039Y0251418D02*
X0044328Y0251418D01*
X0044087Y0250420D02*
X0068310Y0250420D01*
X0068506Y0249421D02*
X0043909Y0249421D01*
X0043872Y0248422D02*
X0068629Y0248422D01*
X0068650Y0247424D02*
X0043850Y0247424D01*
X0043850Y0246425D02*
X0068650Y0246425D01*
X0068650Y0245427D02*
X0043850Y0245427D01*
X0043850Y0244428D02*
X0068650Y0244428D01*
X0068650Y0243430D02*
X0043850Y0243430D01*
X0043850Y0242431D02*
X0068650Y0242431D01*
X0068650Y0241433D02*
X0043850Y0241433D01*
X0043850Y0240434D02*
X0068650Y0240434D01*
X0068650Y0239436D02*
X0043850Y0239436D01*
X0043850Y0238437D02*
X0068650Y0238437D01*
X0068650Y0237439D02*
X0043850Y0237439D01*
X0043850Y0236440D02*
X0068650Y0236440D01*
X0068650Y0235442D02*
X0043850Y0235442D01*
X0043850Y0234443D02*
X0068650Y0234443D01*
X0068650Y0233445D02*
X0043850Y0233445D01*
X0043850Y0232446D02*
X0068650Y0232446D01*
X0068650Y0231448D02*
X0043850Y0231448D01*
X0043850Y0230449D02*
X0068650Y0230449D01*
X0068650Y0229451D02*
X0043850Y0229451D01*
X0043850Y0228452D02*
X0068650Y0228452D01*
X0064733Y0256411D02*
X0047369Y0256411D01*
X0048585Y0257409D02*
X0063457Y0257409D01*
X0061674Y0258408D02*
X0050309Y0258408D01*
X0053857Y0259406D02*
X0057991Y0259406D01*
X0078850Y0194150D02*
X0078850Y0173750D01*
X0079055Y0172077D01*
X0079497Y0170450D01*
X0080166Y0168902D01*
X0081048Y0167466D01*
X0082125Y0166169D01*
X0083376Y0165039D01*
X0084775Y0164099D01*
X0086294Y0163367D01*
X0087901Y0162859D01*
X0089565Y0162585D01*
X0091250Y0162550D01*
X0092850Y0162504D01*
X0094440Y0162684D01*
X0095989Y0163088D01*
X0097465Y0163707D01*
X0098838Y0164529D01*
X0100082Y0165537D01*
X0101170Y0166710D01*
X0102081Y0168026D01*
X0102797Y0169457D01*
X0103303Y0170976D01*
X0103590Y0172551D01*
X0103650Y0174150D01*
X0103650Y0194150D01*
X0078850Y0194150D01*
X0078850Y0193504D02*
X0103650Y0193504D01*
X0103650Y0192506D02*
X0078850Y0192506D01*
X0078850Y0191507D02*
X0103650Y0191507D01*
X0103650Y0190509D02*
X0078850Y0190509D01*
X0078850Y0189510D02*
X0103650Y0189510D01*
X0103650Y0188512D02*
X0078850Y0188512D01*
X0078850Y0187513D02*
X0103650Y0187513D01*
X0103650Y0186515D02*
X0078850Y0186515D01*
X0078850Y0185516D02*
X0103650Y0185516D01*
X0103650Y0184518D02*
X0078850Y0184518D01*
X0078850Y0183519D02*
X0103650Y0183519D01*
X0103650Y0182521D02*
X0078850Y0182521D01*
X0078850Y0181522D02*
X0103650Y0181522D01*
X0103650Y0180524D02*
X0078850Y0180524D01*
X0078850Y0179525D02*
X0103650Y0179525D01*
X0103650Y0178527D02*
X0078850Y0178527D01*
X0078850Y0177528D02*
X0103650Y0177528D01*
X0103650Y0176530D02*
X0078850Y0176530D01*
X0078850Y0175531D02*
X0103650Y0175531D01*
X0103650Y0174533D02*
X0078850Y0174533D01*
X0078877Y0173534D02*
X0103627Y0173534D01*
X0103587Y0172536D02*
X0078999Y0172536D01*
X0079202Y0171537D02*
X0103405Y0171537D01*
X0103158Y0170539D02*
X0079473Y0170539D01*
X0079890Y0169540D02*
X0102825Y0169540D01*
X0102339Y0168542D02*
X0080387Y0168542D01*
X0081000Y0167543D02*
X0101747Y0167543D01*
X0101017Y0166545D02*
X0081813Y0166545D01*
X0082815Y0165546D02*
X0100091Y0165546D01*
X0098861Y0164548D02*
X0084108Y0164548D01*
X0085916Y0163549D02*
X0097088Y0163549D01*
X0093261Y0162551D02*
X0091225Y0162551D01*
X0109011Y0104412D02*
X0107535Y0103793D01*
X0106162Y0102971D01*
X0104918Y0101963D01*
X0103830Y0100790D01*
X0102919Y0099474D01*
X0102203Y0098043D01*
X0101697Y0096524D01*
X0101410Y0094949D01*
X0101350Y0093350D01*
X0101350Y0073350D01*
X0126150Y0073350D01*
X0126150Y0093750D01*
X0125945Y0095423D01*
X0125503Y0097050D01*
X0124834Y0098598D01*
X0123952Y0100034D01*
X0122875Y0101331D01*
X0121624Y0102461D01*
X0120225Y0103401D01*
X0118706Y0104133D01*
X0117099Y0104641D01*
X0115435Y0104915D01*
X0113750Y0104950D01*
X0112150Y0104996D01*
X0110560Y0104816D01*
X0109011Y0104412D01*
X0109874Y0104637D02*
X0117112Y0104637D01*
X0119733Y0103638D02*
X0107277Y0103638D01*
X0105753Y0102640D02*
X0121357Y0102640D01*
X0122531Y0101641D02*
X0104620Y0101641D01*
X0103728Y0100643D02*
X0123447Y0100643D01*
X0124192Y0099644D02*
X0103036Y0099644D01*
X0102504Y0098646D02*
X0124805Y0098646D01*
X0125245Y0097647D02*
X0102071Y0097647D01*
X0101738Y0096649D02*
X0125612Y0096649D01*
X0125883Y0095650D02*
X0101538Y0095650D01*
X0101399Y0094652D02*
X0126039Y0094652D01*
X0126150Y0093653D02*
X0101361Y0093653D01*
X0101350Y0092655D02*
X0126150Y0092655D01*
X0126150Y0091656D02*
X0101350Y0091656D01*
X0101350Y0090658D02*
X0126150Y0090658D01*
X0126150Y0089659D02*
X0101350Y0089659D01*
X0101350Y0088661D02*
X0126150Y0088661D01*
X0126150Y0087662D02*
X0101350Y0087662D01*
X0101350Y0086664D02*
X0126150Y0086664D01*
X0126150Y0085665D02*
X0101350Y0085665D01*
X0101350Y0084667D02*
X0126150Y0084667D01*
X0126150Y0083668D02*
X0101350Y0083668D01*
X0101350Y0082670D02*
X0126150Y0082670D01*
X0126150Y0081671D02*
X0101350Y0081671D01*
X0101350Y0080673D02*
X0126150Y0080673D01*
X0126150Y0079674D02*
X0101350Y0079674D01*
X0101350Y0078676D02*
X0126150Y0078676D01*
X0126150Y0077677D02*
X0101350Y0077677D01*
X0101350Y0076679D02*
X0126150Y0076679D01*
X0126150Y0075680D02*
X0101350Y0075680D01*
X0101350Y0074682D02*
X0126150Y0074682D01*
X0126150Y0073683D02*
X0101350Y0073683D01*
X0081150Y0073683D02*
X0056350Y0073683D01*
X0056350Y0073350D02*
X0056350Y0093350D01*
X0056410Y0094949D01*
X0056697Y0096524D01*
X0057203Y0098043D01*
X0057919Y0099474D01*
X0058830Y0100790D01*
X0059918Y0101963D01*
X0061162Y0102971D01*
X0062535Y0103793D01*
X0064011Y0104412D01*
X0065560Y0104816D01*
X0067150Y0104996D01*
X0068750Y0104950D01*
X0070435Y0104915D01*
X0072099Y0104641D01*
X0073706Y0104133D01*
X0075225Y0103401D01*
X0076624Y0102461D01*
X0077875Y0101331D01*
X0078952Y0100034D01*
X0079834Y0098598D01*
X0080503Y0097050D01*
X0080945Y0095423D01*
X0081150Y0093750D01*
X0081150Y0073350D01*
X0056350Y0073350D01*
X0056350Y0074682D02*
X0081150Y0074682D01*
X0081150Y0075680D02*
X0056350Y0075680D01*
X0056350Y0076679D02*
X0081150Y0076679D01*
X0081150Y0077677D02*
X0056350Y0077677D01*
X0056350Y0078676D02*
X0081150Y0078676D01*
X0081150Y0079674D02*
X0056350Y0079674D01*
X0056350Y0080673D02*
X0081150Y0080673D01*
X0081150Y0081671D02*
X0056350Y0081671D01*
X0056350Y0082670D02*
X0081150Y0082670D01*
X0081150Y0083668D02*
X0056350Y0083668D01*
X0056350Y0084667D02*
X0081150Y0084667D01*
X0081150Y0085665D02*
X0056350Y0085665D01*
X0056350Y0086664D02*
X0081150Y0086664D01*
X0081150Y0087662D02*
X0056350Y0087662D01*
X0056350Y0088661D02*
X0081150Y0088661D01*
X0081150Y0089659D02*
X0056350Y0089659D01*
X0056350Y0090658D02*
X0081150Y0090658D01*
X0081150Y0091656D02*
X0056350Y0091656D01*
X0056350Y0092655D02*
X0081150Y0092655D01*
X0081150Y0093653D02*
X0056361Y0093653D01*
X0056399Y0094652D02*
X0081039Y0094652D01*
X0080883Y0095650D02*
X0056538Y0095650D01*
X0056738Y0096649D02*
X0080612Y0096649D01*
X0080245Y0097647D02*
X0057071Y0097647D01*
X0057504Y0098646D02*
X0079805Y0098646D01*
X0079192Y0099644D02*
X0058036Y0099644D01*
X0058728Y0100643D02*
X0078447Y0100643D01*
X0077531Y0101641D02*
X0059620Y0101641D01*
X0060753Y0102640D02*
X0076357Y0102640D01*
X0074733Y0103638D02*
X0062277Y0103638D01*
X0064874Y0104637D02*
X0072112Y0104637D01*
X0059599Y0062141D02*
X0057935Y0062415D01*
X0056250Y0062450D01*
X0054650Y0062496D01*
X0053060Y0062316D01*
X0051511Y0061912D01*
X0050035Y0061293D01*
X0048662Y0060471D01*
X0047418Y0059463D01*
X0046330Y0058290D01*
X0045419Y0056974D01*
X0044703Y0055543D01*
X0044197Y0054024D01*
X0043910Y0052449D01*
X0043850Y0050850D01*
X0043850Y0030850D01*
X0068650Y0030850D01*
X0068650Y0051250D01*
X0068445Y0052923D01*
X0068003Y0054550D01*
X0067334Y0056098D01*
X0066452Y0057534D01*
X0065375Y0058831D01*
X0064124Y0059961D01*
X0062725Y0060901D01*
X0061206Y0061633D01*
X0059599Y0062141D01*
X0060991Y0061701D02*
X0051008Y0061701D01*
X0049048Y0060702D02*
X0063021Y0060702D01*
X0064408Y0059704D02*
X0047715Y0059704D01*
X0046715Y0058705D02*
X0065479Y0058705D01*
X0066309Y0057707D02*
X0045926Y0057707D01*
X0045286Y0056708D02*
X0066960Y0056708D01*
X0067502Y0055710D02*
X0044786Y0055710D01*
X0044426Y0054711D02*
X0067933Y0054711D01*
X0068230Y0053713D02*
X0044140Y0053713D01*
X0043959Y0052714D02*
X0068470Y0052714D01*
X0068593Y0051716D02*
X0043883Y0051716D01*
X0043850Y0050717D02*
X0068650Y0050717D01*
X0068650Y0049719D02*
X0043850Y0049719D01*
X0043850Y0048720D02*
X0068650Y0048720D01*
X0068650Y0047722D02*
X0043850Y0047722D01*
X0043850Y0046723D02*
X0068650Y0046723D01*
X0068650Y0045725D02*
X0043850Y0045725D01*
X0043850Y0044726D02*
X0068650Y0044726D01*
X0068650Y0043728D02*
X0043850Y0043728D01*
X0043850Y0042729D02*
X0068650Y0042729D01*
X0068650Y0041731D02*
X0043850Y0041731D01*
X0043850Y0040732D02*
X0068650Y0040732D01*
X0068650Y0039734D02*
X0043850Y0039734D01*
X0043850Y0038735D02*
X0068650Y0038735D01*
X0068650Y0037737D02*
X0043850Y0037737D01*
X0043850Y0036738D02*
X0068650Y0036738D01*
X0068650Y0035740D02*
X0043850Y0035740D01*
X0043850Y0034741D02*
X0068650Y0034741D01*
X0068650Y0033743D02*
X0043850Y0033743D01*
X0043850Y0032744D02*
X0068650Y0032744D01*
X0068650Y0031746D02*
X0043850Y0031746D01*
X0163850Y0065350D02*
X0163850Y0105350D01*
X0163910Y0106949D01*
X0164197Y0108524D01*
X0164703Y0110043D01*
X0165419Y0111474D01*
X0166330Y0112790D01*
X0167418Y0113963D01*
X0168662Y0114971D01*
X0170035Y0115793D01*
X0171511Y0116412D01*
X0173060Y0116816D01*
X0174650Y0116996D01*
X0176250Y0116950D01*
X0177935Y0116915D01*
X0179599Y0116641D01*
X0181206Y0116133D01*
X0182725Y0115401D01*
X0184124Y0114461D01*
X0185375Y0113331D01*
X0186452Y0112034D01*
X0187334Y0110598D01*
X0188003Y0109050D01*
X0188445Y0107423D01*
X0188650Y0105750D01*
X0188650Y0065350D01*
X0163850Y0065350D01*
X0163850Y0065695D02*
X0188650Y0065695D01*
X0188650Y0066693D02*
X0163850Y0066693D01*
X0163850Y0067692D02*
X0188650Y0067692D01*
X0188650Y0068690D02*
X0163850Y0068690D01*
X0163850Y0069689D02*
X0188650Y0069689D01*
X0188650Y0070687D02*
X0163850Y0070687D01*
X0163850Y0071686D02*
X0188650Y0071686D01*
X0188650Y0072684D02*
X0163850Y0072684D01*
X0163850Y0073683D02*
X0188650Y0073683D01*
X0188650Y0074682D02*
X0163850Y0074682D01*
X0163850Y0075680D02*
X0188650Y0075680D01*
X0188650Y0076679D02*
X0163850Y0076679D01*
X0163850Y0077677D02*
X0188650Y0077677D01*
X0188650Y0078676D02*
X0163850Y0078676D01*
X0163850Y0079674D02*
X0188650Y0079674D01*
X0188650Y0080673D02*
X0163850Y0080673D01*
X0163850Y0081671D02*
X0188650Y0081671D01*
X0188650Y0082670D02*
X0163850Y0082670D01*
X0163850Y0083668D02*
X0188650Y0083668D01*
X0188650Y0084667D02*
X0163850Y0084667D01*
X0163850Y0085665D02*
X0188650Y0085665D01*
X0188650Y0086664D02*
X0163850Y0086664D01*
X0163850Y0087662D02*
X0188650Y0087662D01*
X0188650Y0088661D02*
X0163850Y0088661D01*
X0163850Y0089659D02*
X0188650Y0089659D01*
X0188650Y0090658D02*
X0163850Y0090658D01*
X0163850Y0091656D02*
X0188650Y0091656D01*
X0188650Y0092655D02*
X0163850Y0092655D01*
X0163850Y0093653D02*
X0188650Y0093653D01*
X0188650Y0094652D02*
X0163850Y0094652D01*
X0163850Y0095650D02*
X0188650Y0095650D01*
X0188650Y0096649D02*
X0163850Y0096649D01*
X0163850Y0097647D02*
X0188650Y0097647D01*
X0188650Y0098646D02*
X0163850Y0098646D01*
X0163850Y0099644D02*
X0188650Y0099644D01*
X0188650Y0100643D02*
X0163850Y0100643D01*
X0163850Y0101641D02*
X0188650Y0101641D01*
X0188650Y0102640D02*
X0163850Y0102640D01*
X0163850Y0103638D02*
X0188650Y0103638D01*
X0188650Y0104637D02*
X0163850Y0104637D01*
X0163861Y0105635D02*
X0188650Y0105635D01*
X0188541Y0106634D02*
X0163898Y0106634D01*
X0164035Y0107632D02*
X0188388Y0107632D01*
X0188117Y0108631D02*
X0164232Y0108631D01*
X0164565Y0109629D02*
X0187753Y0109629D01*
X0187316Y0110628D02*
X0164995Y0110628D01*
X0165524Y0111626D02*
X0186703Y0111626D01*
X0185962Y0112625D02*
X0166216Y0112625D01*
X0167103Y0113623D02*
X0185051Y0113623D01*
X0183884Y0114622D02*
X0168231Y0114622D01*
X0169747Y0115620D02*
X0182270Y0115620D01*
X0179669Y0116619D02*
X0172306Y0116619D01*
X0196697Y0108524D02*
X0196410Y0106949D01*
X0196350Y0105350D01*
X0196350Y0065350D01*
X0221150Y0065350D01*
X0221150Y0105750D01*
X0220945Y0107423D01*
X0220503Y0109050D01*
X0219834Y0110598D01*
X0218952Y0112034D01*
X0217875Y0113331D01*
X0216624Y0114461D01*
X0215225Y0115401D01*
X0213706Y0116133D01*
X0212099Y0116641D01*
X0210435Y0116915D01*
X0208750Y0116950D01*
X0207150Y0116996D01*
X0205560Y0116816D01*
X0204011Y0116412D01*
X0202535Y0115793D01*
X0201162Y0114971D01*
X0199918Y0113963D01*
X0198830Y0112790D01*
X0197919Y0111474D01*
X0197203Y0110043D01*
X0196697Y0108524D01*
X0196732Y0108631D02*
X0220617Y0108631D01*
X0220888Y0107632D02*
X0196535Y0107632D01*
X0196398Y0106634D02*
X0221041Y0106634D01*
X0221150Y0105635D02*
X0196361Y0105635D01*
X0196350Y0104637D02*
X0221150Y0104637D01*
X0221150Y0103638D02*
X0196350Y0103638D01*
X0196350Y0102640D02*
X0221150Y0102640D01*
X0221150Y0101641D02*
X0196350Y0101641D01*
X0196350Y0100643D02*
X0221150Y0100643D01*
X0221150Y0099644D02*
X0196350Y0099644D01*
X0196350Y0098646D02*
X0221150Y0098646D01*
X0221150Y0097647D02*
X0196350Y0097647D01*
X0196350Y0096649D02*
X0221150Y0096649D01*
X0221150Y0095650D02*
X0196350Y0095650D01*
X0196350Y0094652D02*
X0221150Y0094652D01*
X0221150Y0093653D02*
X0196350Y0093653D01*
X0196350Y0092655D02*
X0221150Y0092655D01*
X0221150Y0091656D02*
X0196350Y0091656D01*
X0196350Y0090658D02*
X0221150Y0090658D01*
X0221150Y0089659D02*
X0196350Y0089659D01*
X0196350Y0088661D02*
X0221150Y0088661D01*
X0221150Y0087662D02*
X0196350Y0087662D01*
X0196350Y0086664D02*
X0221150Y0086664D01*
X0221150Y0085665D02*
X0196350Y0085665D01*
X0196350Y0084667D02*
X0221150Y0084667D01*
X0221150Y0083668D02*
X0196350Y0083668D01*
X0196350Y0082670D02*
X0221150Y0082670D01*
X0221150Y0081671D02*
X0196350Y0081671D01*
X0196350Y0080673D02*
X0221150Y0080673D01*
X0221150Y0079674D02*
X0196350Y0079674D01*
X0196350Y0078676D02*
X0221150Y0078676D01*
X0221150Y0077677D02*
X0196350Y0077677D01*
X0196350Y0076679D02*
X0221150Y0076679D01*
X0221150Y0075680D02*
X0196350Y0075680D01*
X0196350Y0074682D02*
X0221150Y0074682D01*
X0221150Y0073683D02*
X0196350Y0073683D01*
X0196350Y0072684D02*
X0221150Y0072684D01*
X0221150Y0071686D02*
X0196350Y0071686D01*
X0196350Y0070687D02*
X0221150Y0070687D01*
X0221150Y0069689D02*
X0196350Y0069689D01*
X0196350Y0068690D02*
X0221150Y0068690D01*
X0221150Y0067692D02*
X0196350Y0067692D01*
X0196350Y0066693D02*
X0221150Y0066693D01*
X0221150Y0065695D02*
X0196350Y0065695D01*
X0228850Y0065695D02*
X0253650Y0065695D01*
X0253650Y0065350D02*
X0253650Y0105750D01*
X0253445Y0107423D01*
X0253003Y0109050D01*
X0252334Y0110598D01*
X0251452Y0112034D01*
X0250375Y0113331D01*
X0249124Y0114461D01*
X0247725Y0115401D01*
X0246206Y0116133D01*
X0244599Y0116641D01*
X0242935Y0116915D01*
X0241250Y0116950D01*
X0239650Y0116996D01*
X0238060Y0116816D01*
X0236511Y0116412D01*
X0235035Y0115793D01*
X0233662Y0114971D01*
X0232418Y0113963D01*
X0231330Y0112790D01*
X0230419Y0111474D01*
X0229703Y0110043D01*
X0229197Y0108524D01*
X0228910Y0106949D01*
X0228850Y0105350D01*
X0228850Y0065350D01*
X0253650Y0065350D01*
X0253650Y0066693D02*
X0228850Y0066693D01*
X0228850Y0067692D02*
X0253650Y0067692D01*
X0253650Y0068690D02*
X0228850Y0068690D01*
X0228850Y0069689D02*
X0253650Y0069689D01*
X0253650Y0070687D02*
X0228850Y0070687D01*
X0228850Y0071686D02*
X0253650Y0071686D01*
X0253650Y0072684D02*
X0228850Y0072684D01*
X0228850Y0073683D02*
X0253650Y0073683D01*
X0253650Y0074682D02*
X0228850Y0074682D01*
X0228850Y0075680D02*
X0253650Y0075680D01*
X0253650Y0076679D02*
X0228850Y0076679D01*
X0228850Y0077677D02*
X0253650Y0077677D01*
X0253650Y0078676D02*
X0228850Y0078676D01*
X0228850Y0079674D02*
X0253650Y0079674D01*
X0253650Y0080673D02*
X0228850Y0080673D01*
X0228850Y0081671D02*
X0253650Y0081671D01*
X0253650Y0082670D02*
X0228850Y0082670D01*
X0228850Y0083668D02*
X0253650Y0083668D01*
X0253650Y0084667D02*
X0228850Y0084667D01*
X0228850Y0085665D02*
X0253650Y0085665D01*
X0253650Y0086664D02*
X0228850Y0086664D01*
X0228850Y0087662D02*
X0253650Y0087662D01*
X0253650Y0088661D02*
X0228850Y0088661D01*
X0228850Y0089659D02*
X0253650Y0089659D01*
X0253650Y0090658D02*
X0228850Y0090658D01*
X0228850Y0091656D02*
X0253650Y0091656D01*
X0253650Y0092655D02*
X0228850Y0092655D01*
X0228850Y0093653D02*
X0253650Y0093653D01*
X0253650Y0094652D02*
X0228850Y0094652D01*
X0228850Y0095650D02*
X0253650Y0095650D01*
X0253650Y0096649D02*
X0228850Y0096649D01*
X0228850Y0097647D02*
X0253650Y0097647D01*
X0253650Y0098646D02*
X0228850Y0098646D01*
X0228850Y0099644D02*
X0253650Y0099644D01*
X0253650Y0100643D02*
X0228850Y0100643D01*
X0228850Y0101641D02*
X0253650Y0101641D01*
X0253650Y0102640D02*
X0228850Y0102640D01*
X0228850Y0103638D02*
X0253650Y0103638D01*
X0253650Y0104637D02*
X0228850Y0104637D01*
X0228861Y0105635D02*
X0253650Y0105635D01*
X0253541Y0106634D02*
X0228898Y0106634D01*
X0229035Y0107632D02*
X0253388Y0107632D01*
X0253117Y0108631D02*
X0229232Y0108631D01*
X0229565Y0109629D02*
X0252753Y0109629D01*
X0252316Y0110628D02*
X0229995Y0110628D01*
X0230524Y0111626D02*
X0251703Y0111626D01*
X0250962Y0112625D02*
X0231216Y0112625D01*
X0232103Y0113623D02*
X0250051Y0113623D01*
X0248884Y0114622D02*
X0233231Y0114622D01*
X0234747Y0115620D02*
X0247270Y0115620D01*
X0244669Y0116619D02*
X0237306Y0116619D01*
X0220253Y0109629D02*
X0197065Y0109629D01*
X0197495Y0110628D02*
X0219816Y0110628D01*
X0219203Y0111626D02*
X0198024Y0111626D01*
X0198716Y0112625D02*
X0218462Y0112625D01*
X0217551Y0113623D02*
X0199603Y0113623D01*
X0200731Y0114622D02*
X0216384Y0114622D01*
X0214770Y0115620D02*
X0202247Y0115620D01*
X0204806Y0116619D02*
X0212169Y0116619D01*
X0210350Y0167504D02*
X0208750Y0167550D01*
X0207065Y0167585D01*
X0205401Y0167859D01*
X0203794Y0168367D01*
X0202275Y0169099D01*
X0200876Y0170039D01*
X0199625Y0171169D01*
X0198548Y0172466D01*
X0197666Y0173902D01*
X0196997Y0175450D01*
X0196555Y0177077D01*
X0196350Y0178750D01*
X0196350Y0199150D01*
X0221150Y0199150D01*
X0221150Y0179150D01*
X0221090Y0177551D01*
X0220803Y0175976D01*
X0220297Y0174457D01*
X0219581Y0173026D01*
X0218670Y0171710D01*
X0217582Y0170537D01*
X0216338Y0169529D01*
X0214965Y0168707D01*
X0213489Y0168088D01*
X0211940Y0167684D01*
X0210350Y0167504D01*
X0210696Y0167543D02*
X0208990Y0167543D01*
X0203432Y0168542D02*
X0214570Y0168542D01*
X0216352Y0169540D02*
X0201619Y0169540D01*
X0200323Y0170539D02*
X0217584Y0170539D01*
X0218510Y0171537D02*
X0199319Y0171537D01*
X0198505Y0172536D02*
X0219242Y0172536D01*
X0219836Y0173534D02*
X0197892Y0173534D01*
X0197393Y0174533D02*
X0220322Y0174533D01*
X0220655Y0175531D02*
X0196975Y0175531D01*
X0196704Y0176530D02*
X0220904Y0176530D01*
X0221086Y0177528D02*
X0196500Y0177528D01*
X0196377Y0178527D02*
X0221126Y0178527D01*
X0221150Y0179525D02*
X0196350Y0179525D01*
X0196350Y0180524D02*
X0221150Y0180524D01*
X0221150Y0181522D02*
X0196350Y0181522D01*
X0196350Y0182521D02*
X0221150Y0182521D01*
X0221150Y0183519D02*
X0196350Y0183519D01*
X0196350Y0184518D02*
X0221150Y0184518D01*
X0221150Y0185516D02*
X0196350Y0185516D01*
X0196350Y0186515D02*
X0221150Y0186515D01*
X0221150Y0187513D02*
X0196350Y0187513D01*
X0196350Y0188512D02*
X0221150Y0188512D01*
X0221150Y0189510D02*
X0196350Y0189510D01*
X0196350Y0190509D02*
X0221150Y0190509D01*
X0221150Y0191507D02*
X0196350Y0191507D01*
X0196350Y0192506D02*
X0221150Y0192506D01*
X0221150Y0193504D02*
X0196350Y0193504D01*
X0196350Y0194503D02*
X0221150Y0194503D01*
X0221150Y0195501D02*
X0196350Y0195501D01*
X0196350Y0196500D02*
X0221150Y0196500D01*
X0221150Y0197498D02*
X0196350Y0197498D01*
X0196350Y0198497D02*
X0221150Y0198497D01*
X0228850Y0262350D02*
X0228850Y0302350D01*
X0228910Y0303949D01*
X0229197Y0305524D01*
X0229703Y0307043D01*
X0230419Y0308474D01*
X0231330Y0309790D01*
X0232418Y0310963D01*
X0233662Y0311971D01*
X0235035Y0312793D01*
X0236511Y0313412D01*
X0238060Y0313816D01*
X0239650Y0313996D01*
X0241250Y0313950D01*
X0242935Y0313915D01*
X0244599Y0313641D01*
X0246206Y0313133D01*
X0247725Y0312401D01*
X0249124Y0311461D01*
X0250375Y0310331D01*
X0251452Y0309034D01*
X0252334Y0307598D01*
X0253003Y0306050D01*
X0253445Y0304423D01*
X0253650Y0302750D01*
X0253650Y0262350D01*
X0228850Y0262350D01*
X0228850Y0262402D02*
X0253650Y0262402D01*
X0253650Y0263400D02*
X0228850Y0263400D01*
X0228850Y0264399D02*
X0253650Y0264399D01*
X0253650Y0265397D02*
X0228850Y0265397D01*
X0228850Y0266396D02*
X0253650Y0266396D01*
X0253650Y0267394D02*
X0228850Y0267394D01*
X0228850Y0268393D02*
X0253650Y0268393D01*
X0253650Y0269391D02*
X0228850Y0269391D01*
X0228850Y0270390D02*
X0253650Y0270390D01*
X0253650Y0271388D02*
X0228850Y0271388D01*
X0228850Y0272387D02*
X0253650Y0272387D01*
X0253650Y0273385D02*
X0228850Y0273385D01*
X0228850Y0274384D02*
X0253650Y0274384D01*
X0253650Y0275382D02*
X0228850Y0275382D01*
X0228850Y0276381D02*
X0253650Y0276381D01*
X0253650Y0277379D02*
X0228850Y0277379D01*
X0228850Y0278378D02*
X0253650Y0278378D01*
X0253650Y0279376D02*
X0228850Y0279376D01*
X0228850Y0280375D02*
X0253650Y0280375D01*
X0253650Y0281373D02*
X0228850Y0281373D01*
X0228850Y0282372D02*
X0253650Y0282372D01*
X0253650Y0283370D02*
X0228850Y0283370D01*
X0228850Y0284369D02*
X0253650Y0284369D01*
X0253650Y0285367D02*
X0228850Y0285367D01*
X0228850Y0286366D02*
X0253650Y0286366D01*
X0253650Y0287364D02*
X0228850Y0287364D01*
X0228850Y0288363D02*
X0253650Y0288363D01*
X0253650Y0289361D02*
X0228850Y0289361D01*
X0228850Y0290360D02*
X0253650Y0290360D01*
X0253650Y0291358D02*
X0228850Y0291358D01*
X0228850Y0292357D02*
X0253650Y0292357D01*
X0253650Y0293355D02*
X0228850Y0293355D01*
X0228850Y0294354D02*
X0253650Y0294354D01*
X0253650Y0295353D02*
X0228850Y0295353D01*
X0228850Y0296351D02*
X0253650Y0296351D01*
X0253650Y0297350D02*
X0228850Y0297350D01*
X0228850Y0298348D02*
X0253650Y0298348D01*
X0253650Y0299347D02*
X0228850Y0299347D01*
X0228850Y0300345D02*
X0253650Y0300345D01*
X0253650Y0301344D02*
X0228850Y0301344D01*
X0228850Y0302342D02*
X0253650Y0302342D01*
X0253577Y0303341D02*
X0228887Y0303341D01*
X0228981Y0304339D02*
X0253455Y0304339D01*
X0253196Y0305338D02*
X0229163Y0305338D01*
X0229467Y0306336D02*
X0252879Y0306336D01*
X0252448Y0307335D02*
X0229849Y0307335D01*
X0230348Y0308333D02*
X0251883Y0308333D01*
X0251205Y0309332D02*
X0231013Y0309332D01*
X0231831Y0310330D02*
X0250375Y0310330D01*
X0249270Y0311329D02*
X0232869Y0311329D01*
X0234257Y0312327D02*
X0247835Y0312327D01*
X0245596Y0313326D02*
X0236306Y0313326D01*
X0214965Y0365707D02*
X0213489Y0365088D01*
X0211940Y0364684D01*
X0210350Y0364504D01*
X0208750Y0364550D01*
X0207065Y0364585D01*
X0205401Y0364859D01*
X0203794Y0365367D01*
X0202275Y0366099D01*
X0200876Y0367039D01*
X0199625Y0368169D01*
X0198548Y0369466D01*
X0197666Y0370902D01*
X0196997Y0372450D01*
X0196555Y0374077D01*
X0196350Y0375750D01*
X0196350Y0396150D01*
X0221150Y0396150D01*
X0221150Y0376150D01*
X0221090Y0374551D01*
X0220803Y0372976D01*
X0220297Y0371457D01*
X0219581Y0370026D01*
X0218670Y0368710D01*
X0217582Y0367537D01*
X0216338Y0366529D01*
X0214965Y0365707D01*
X0215867Y0366247D02*
X0202055Y0366247D01*
X0200648Y0367245D02*
X0217222Y0367245D01*
X0218238Y0368244D02*
X0199563Y0368244D01*
X0198733Y0369242D02*
X0219039Y0369242D01*
X0219689Y0370241D02*
X0198072Y0370241D01*
X0197520Y0371239D02*
X0220188Y0371239D01*
X0220557Y0372238D02*
X0197089Y0372238D01*
X0196784Y0373236D02*
X0220851Y0373236D01*
X0221032Y0374235D02*
X0196536Y0374235D01*
X0196413Y0375233D02*
X0221115Y0375233D01*
X0221150Y0376232D02*
X0196350Y0376232D01*
X0196350Y0377230D02*
X0221150Y0377230D01*
X0221150Y0378229D02*
X0196350Y0378229D01*
X0196350Y0379227D02*
X0221150Y0379227D01*
X0221150Y0380226D02*
X0196350Y0380226D01*
X0196350Y0381224D02*
X0221150Y0381224D01*
X0221150Y0382223D02*
X0196350Y0382223D01*
X0196350Y0383222D02*
X0221150Y0383222D01*
X0221150Y0384220D02*
X0196350Y0384220D01*
X0196350Y0385219D02*
X0221150Y0385219D01*
X0221150Y0386217D02*
X0196350Y0386217D01*
X0196350Y0387216D02*
X0221150Y0387216D01*
X0221150Y0388214D02*
X0196350Y0388214D01*
X0196350Y0389213D02*
X0221150Y0389213D01*
X0221150Y0390211D02*
X0196350Y0390211D01*
X0196350Y0391210D02*
X0221150Y0391210D01*
X0221150Y0392208D02*
X0196350Y0392208D01*
X0196350Y0393207D02*
X0221150Y0393207D01*
X0221150Y0394205D02*
X0196350Y0394205D01*
X0196350Y0395204D02*
X0221150Y0395204D01*
X0213871Y0365248D02*
X0204170Y0365248D01*
X0293830Y0297790D02*
X0294918Y0298963D01*
X0296162Y0299971D01*
X0297535Y0300793D01*
X0299011Y0301412D01*
X0300560Y0301816D01*
X0302150Y0301996D01*
X0303750Y0301950D01*
X0305435Y0301915D01*
X0307099Y0301641D01*
X0308706Y0301133D01*
X0310225Y0300401D01*
X0311624Y0299461D01*
X0312875Y0298331D01*
X0313952Y0297034D01*
X0314834Y0295598D01*
X0315503Y0294050D01*
X0315945Y0292423D01*
X0316150Y0290750D01*
X0316150Y0270350D01*
X0291350Y0270350D01*
X0291350Y0290350D01*
X0291410Y0291949D01*
X0291697Y0293524D01*
X0292203Y0295043D01*
X0292919Y0296474D01*
X0293830Y0297790D01*
X0293525Y0297350D02*
X0313690Y0297350D01*
X0314372Y0296351D02*
X0292857Y0296351D01*
X0292358Y0295353D02*
X0314940Y0295353D01*
X0315372Y0294354D02*
X0291973Y0294354D01*
X0291666Y0293355D02*
X0315691Y0293355D01*
X0315953Y0292357D02*
X0291484Y0292357D01*
X0291388Y0291358D02*
X0316075Y0291358D01*
X0316150Y0290360D02*
X0291350Y0290360D01*
X0291350Y0289361D02*
X0316150Y0289361D01*
X0316150Y0288363D02*
X0291350Y0288363D01*
X0291350Y0287364D02*
X0316150Y0287364D01*
X0316150Y0286366D02*
X0291350Y0286366D01*
X0291350Y0285367D02*
X0316150Y0285367D01*
X0316150Y0284369D02*
X0291350Y0284369D01*
X0291350Y0283370D02*
X0316150Y0283370D01*
X0316150Y0282372D02*
X0291350Y0282372D01*
X0291350Y0281373D02*
X0316150Y0281373D01*
X0316150Y0280375D02*
X0291350Y0280375D01*
X0291350Y0279376D02*
X0316150Y0279376D01*
X0316150Y0278378D02*
X0291350Y0278378D01*
X0291350Y0277379D02*
X0316150Y0277379D01*
X0316150Y0276381D02*
X0291350Y0276381D01*
X0291350Y0275382D02*
X0316150Y0275382D01*
X0316150Y0274384D02*
X0291350Y0274384D01*
X0291350Y0273385D02*
X0316150Y0273385D01*
X0316150Y0272387D02*
X0291350Y0272387D01*
X0291350Y0271388D02*
X0316150Y0271388D01*
X0316150Y0270390D02*
X0291350Y0270390D01*
X0294348Y0298348D02*
X0312856Y0298348D01*
X0311750Y0299347D02*
X0295391Y0299347D01*
X0296787Y0300345D02*
X0310308Y0300345D01*
X0308040Y0301344D02*
X0298849Y0301344D01*
X0336697Y0293524D02*
X0337203Y0295043D01*
X0337919Y0296474D01*
X0338830Y0297790D01*
X0339918Y0298963D01*
X0341162Y0299971D01*
X0342535Y0300793D01*
X0344011Y0301412D01*
X0345560Y0301816D01*
X0347150Y0301996D01*
X0348750Y0301950D01*
X0350435Y0301915D01*
X0352099Y0301641D01*
X0353706Y0301133D01*
X0355225Y0300401D01*
X0356624Y0299461D01*
X0357875Y0298331D01*
X0358952Y0297034D01*
X0359834Y0295598D01*
X0360503Y0294050D01*
X0360945Y0292423D01*
X0361150Y0290750D01*
X0361150Y0270350D01*
X0336350Y0270350D01*
X0336350Y0290350D01*
X0336410Y0291949D01*
X0336697Y0293524D01*
X0336666Y0293355D02*
X0360691Y0293355D01*
X0360953Y0292357D02*
X0336484Y0292357D01*
X0336388Y0291358D02*
X0361075Y0291358D01*
X0361150Y0290360D02*
X0336350Y0290360D01*
X0336350Y0289361D02*
X0361150Y0289361D01*
X0361150Y0288363D02*
X0336350Y0288363D01*
X0336350Y0287364D02*
X0361150Y0287364D01*
X0361150Y0286366D02*
X0336350Y0286366D01*
X0336350Y0285367D02*
X0361150Y0285367D01*
X0361150Y0284369D02*
X0336350Y0284369D01*
X0336350Y0283370D02*
X0361150Y0283370D01*
X0361150Y0282372D02*
X0336350Y0282372D01*
X0336350Y0281373D02*
X0361150Y0281373D01*
X0361150Y0280375D02*
X0336350Y0280375D01*
X0336350Y0279376D02*
X0361150Y0279376D01*
X0361150Y0278378D02*
X0336350Y0278378D01*
X0336350Y0277379D02*
X0361150Y0277379D01*
X0361150Y0276381D02*
X0336350Y0276381D01*
X0336350Y0275382D02*
X0361150Y0275382D01*
X0361150Y0274384D02*
X0336350Y0274384D01*
X0336350Y0273385D02*
X0361150Y0273385D01*
X0361150Y0272387D02*
X0336350Y0272387D01*
X0336350Y0271388D02*
X0361150Y0271388D01*
X0361150Y0270390D02*
X0336350Y0270390D01*
X0352369Y0256411D02*
X0369733Y0256411D01*
X0369124Y0256961D02*
X0370375Y0255831D01*
X0371452Y0254534D01*
X0372334Y0253098D01*
X0373003Y0251550D01*
X0373445Y0249923D01*
X0373650Y0248250D01*
X0373650Y0227850D01*
X0348850Y0227850D01*
X0348850Y0247850D01*
X0348910Y0249449D01*
X0349197Y0251024D01*
X0349703Y0252543D01*
X0350419Y0253974D01*
X0351330Y0255290D01*
X0352418Y0256463D01*
X0353662Y0257471D01*
X0355035Y0258293D01*
X0356511Y0258912D01*
X0358060Y0259316D01*
X0359650Y0259496D01*
X0361250Y0259450D01*
X0362935Y0259415D01*
X0364599Y0259141D01*
X0366206Y0258633D01*
X0367725Y0257901D01*
X0369124Y0256961D01*
X0368457Y0257409D02*
X0353585Y0257409D01*
X0355309Y0258408D02*
X0366674Y0258408D01*
X0362991Y0259406D02*
X0358857Y0259406D01*
X0351443Y0255412D02*
X0370723Y0255412D01*
X0371527Y0254414D02*
X0350723Y0254414D01*
X0350139Y0253415D02*
X0372140Y0253415D01*
X0372629Y0252417D02*
X0349661Y0252417D01*
X0349328Y0251418D02*
X0373039Y0251418D01*
X0373310Y0250420D02*
X0349087Y0250420D01*
X0348909Y0249421D02*
X0373506Y0249421D01*
X0373629Y0248422D02*
X0348872Y0248422D01*
X0348850Y0247424D02*
X0373650Y0247424D01*
X0373650Y0246425D02*
X0348850Y0246425D01*
X0348850Y0245427D02*
X0373650Y0245427D01*
X0373650Y0244428D02*
X0348850Y0244428D01*
X0348850Y0243430D02*
X0373650Y0243430D01*
X0373650Y0242431D02*
X0348850Y0242431D01*
X0348850Y0241433D02*
X0373650Y0241433D01*
X0373650Y0240434D02*
X0348850Y0240434D01*
X0348850Y0239436D02*
X0373650Y0239436D01*
X0373650Y0238437D02*
X0348850Y0238437D01*
X0348850Y0237439D02*
X0373650Y0237439D01*
X0373650Y0236440D02*
X0348850Y0236440D01*
X0348850Y0235442D02*
X0373650Y0235442D01*
X0373650Y0234443D02*
X0348850Y0234443D01*
X0348850Y0233445D02*
X0373650Y0233445D01*
X0373650Y0232446D02*
X0348850Y0232446D01*
X0348850Y0231448D02*
X0373650Y0231448D01*
X0373650Y0230449D02*
X0348850Y0230449D01*
X0348850Y0229451D02*
X0373650Y0229451D01*
X0373650Y0228452D02*
X0348850Y0228452D01*
X0338650Y0194150D02*
X0313850Y0194150D01*
X0313850Y0153750D01*
X0314055Y0152077D01*
X0314497Y0150450D01*
X0315166Y0148902D01*
X0316048Y0147466D01*
X0317125Y0146169D01*
X0318376Y0145039D01*
X0319775Y0144099D01*
X0321294Y0143367D01*
X0322901Y0142859D01*
X0324565Y0142585D01*
X0326250Y0142550D01*
X0327850Y0142504D01*
X0329440Y0142684D01*
X0330989Y0143088D01*
X0332465Y0143707D01*
X0333838Y0144529D01*
X0335082Y0145537D01*
X0336170Y0146710D01*
X0337081Y0148026D01*
X0337797Y0149457D01*
X0338303Y0150976D01*
X0338590Y0152551D01*
X0338650Y0154150D01*
X0338650Y0194150D01*
X0338650Y0193504D02*
X0313850Y0193504D01*
X0313850Y0192506D02*
X0338650Y0192506D01*
X0338650Y0191507D02*
X0313850Y0191507D01*
X0313850Y0190509D02*
X0338650Y0190509D01*
X0338650Y0189510D02*
X0313850Y0189510D01*
X0313850Y0188512D02*
X0338650Y0188512D01*
X0338650Y0187513D02*
X0313850Y0187513D01*
X0313850Y0186515D02*
X0338650Y0186515D01*
X0338650Y0185516D02*
X0313850Y0185516D01*
X0313850Y0184518D02*
X0338650Y0184518D01*
X0338650Y0183519D02*
X0313850Y0183519D01*
X0313850Y0182521D02*
X0338650Y0182521D01*
X0338650Y0181522D02*
X0313850Y0181522D01*
X0313850Y0180524D02*
X0338650Y0180524D01*
X0338650Y0179525D02*
X0313850Y0179525D01*
X0313850Y0178527D02*
X0338650Y0178527D01*
X0338650Y0177528D02*
X0313850Y0177528D01*
X0313850Y0176530D02*
X0338650Y0176530D01*
X0338650Y0175531D02*
X0313850Y0175531D01*
X0313850Y0174533D02*
X0338650Y0174533D01*
X0338650Y0173534D02*
X0313850Y0173534D01*
X0313850Y0172536D02*
X0338650Y0172536D01*
X0338650Y0171537D02*
X0313850Y0171537D01*
X0313850Y0170539D02*
X0338650Y0170539D01*
X0338650Y0169540D02*
X0313850Y0169540D01*
X0313850Y0168542D02*
X0338650Y0168542D01*
X0338650Y0167543D02*
X0313850Y0167543D01*
X0313850Y0166545D02*
X0338650Y0166545D01*
X0338650Y0165546D02*
X0313850Y0165546D01*
X0313850Y0164548D02*
X0338650Y0164548D01*
X0338650Y0163549D02*
X0313850Y0163549D01*
X0313850Y0162551D02*
X0338650Y0162551D01*
X0338650Y0161552D02*
X0313850Y0161552D01*
X0313850Y0160553D02*
X0338650Y0160553D01*
X0338650Y0159555D02*
X0313850Y0159555D01*
X0313850Y0158556D02*
X0338650Y0158556D01*
X0338650Y0157558D02*
X0313850Y0157558D01*
X0313850Y0156559D02*
X0338650Y0156559D01*
X0338650Y0155561D02*
X0313850Y0155561D01*
X0313850Y0154562D02*
X0338650Y0154562D01*
X0338628Y0153564D02*
X0313873Y0153564D01*
X0313995Y0152565D02*
X0338590Y0152565D01*
X0338411Y0151567D02*
X0314194Y0151567D01*
X0314465Y0150568D02*
X0338168Y0150568D01*
X0337835Y0149570D02*
X0314877Y0149570D01*
X0315369Y0148571D02*
X0337354Y0148571D01*
X0336768Y0147573D02*
X0315982Y0147573D01*
X0316788Y0146574D02*
X0336044Y0146574D01*
X0335118Y0145576D02*
X0317782Y0145576D01*
X0319063Y0144577D02*
X0333898Y0144577D01*
X0332159Y0143579D02*
X0320854Y0143579D01*
X0324780Y0142580D02*
X0328524Y0142580D01*
X0344011Y0104412D02*
X0345560Y0104816D01*
X0347150Y0104996D01*
X0348750Y0104950D01*
X0350435Y0104915D01*
X0352099Y0104641D01*
X0353706Y0104133D01*
X0355225Y0103401D01*
X0356624Y0102461D01*
X0357875Y0101331D01*
X0358952Y0100034D01*
X0359834Y0098598D01*
X0360503Y0097050D01*
X0360945Y0095423D01*
X0361150Y0093750D01*
X0361150Y0073350D01*
X0336350Y0073350D01*
X0336350Y0093350D01*
X0336410Y0094949D01*
X0336697Y0096524D01*
X0337203Y0098043D01*
X0337919Y0099474D01*
X0338830Y0100790D01*
X0339918Y0101963D01*
X0341162Y0102971D01*
X0342535Y0103793D01*
X0344011Y0104412D01*
X0344874Y0104637D02*
X0352112Y0104637D01*
X0354733Y0103638D02*
X0342277Y0103638D01*
X0340753Y0102640D02*
X0356357Y0102640D01*
X0357531Y0101641D02*
X0339620Y0101641D01*
X0338728Y0100643D02*
X0358447Y0100643D01*
X0359192Y0099644D02*
X0338036Y0099644D01*
X0337504Y0098646D02*
X0359805Y0098646D01*
X0360245Y0097647D02*
X0337071Y0097647D01*
X0336738Y0096649D02*
X0360612Y0096649D01*
X0360883Y0095650D02*
X0336538Y0095650D01*
X0336399Y0094652D02*
X0361039Y0094652D01*
X0361150Y0093653D02*
X0336361Y0093653D01*
X0336350Y0092655D02*
X0361150Y0092655D01*
X0361150Y0091656D02*
X0336350Y0091656D01*
X0336350Y0090658D02*
X0361150Y0090658D01*
X0361150Y0089659D02*
X0336350Y0089659D01*
X0336350Y0088661D02*
X0361150Y0088661D01*
X0361150Y0087662D02*
X0336350Y0087662D01*
X0336350Y0086664D02*
X0361150Y0086664D01*
X0361150Y0085665D02*
X0336350Y0085665D01*
X0336350Y0084667D02*
X0361150Y0084667D01*
X0361150Y0083668D02*
X0336350Y0083668D01*
X0336350Y0082670D02*
X0361150Y0082670D01*
X0361150Y0081671D02*
X0336350Y0081671D01*
X0336350Y0080673D02*
X0361150Y0080673D01*
X0361150Y0079674D02*
X0336350Y0079674D01*
X0336350Y0078676D02*
X0361150Y0078676D01*
X0361150Y0077677D02*
X0336350Y0077677D01*
X0336350Y0076679D02*
X0361150Y0076679D01*
X0361150Y0075680D02*
X0336350Y0075680D01*
X0336350Y0074682D02*
X0361150Y0074682D01*
X0361150Y0073683D02*
X0336350Y0073683D01*
X0352418Y0059463D02*
X0353662Y0060471D01*
X0355035Y0061293D01*
X0356511Y0061912D01*
X0358060Y0062316D01*
X0359650Y0062496D01*
X0361250Y0062450D01*
X0362935Y0062415D01*
X0364599Y0062141D01*
X0366206Y0061633D01*
X0367725Y0060901D01*
X0369124Y0059961D01*
X0370375Y0058831D01*
X0371452Y0057534D01*
X0372334Y0056098D01*
X0373003Y0054550D01*
X0373445Y0052923D01*
X0373650Y0051250D01*
X0373650Y0030850D01*
X0348850Y0030850D01*
X0348850Y0050850D01*
X0348910Y0052449D01*
X0349197Y0054024D01*
X0349703Y0055543D01*
X0350419Y0056974D01*
X0351330Y0058290D01*
X0352418Y0059463D01*
X0352715Y0059704D02*
X0369408Y0059704D01*
X0370479Y0058705D02*
X0351715Y0058705D01*
X0350926Y0057707D02*
X0371309Y0057707D01*
X0371960Y0056708D02*
X0350286Y0056708D01*
X0349786Y0055710D02*
X0372502Y0055710D01*
X0372933Y0054711D02*
X0349426Y0054711D01*
X0349140Y0053713D02*
X0373230Y0053713D01*
X0373470Y0052714D02*
X0348959Y0052714D01*
X0348883Y0051716D02*
X0373593Y0051716D01*
X0373650Y0050717D02*
X0348850Y0050717D01*
X0348850Y0049719D02*
X0373650Y0049719D01*
X0373650Y0048720D02*
X0348850Y0048720D01*
X0348850Y0047722D02*
X0373650Y0047722D01*
X0373650Y0046723D02*
X0348850Y0046723D01*
X0348850Y0045725D02*
X0373650Y0045725D01*
X0373650Y0044726D02*
X0348850Y0044726D01*
X0348850Y0043728D02*
X0373650Y0043728D01*
X0373650Y0042729D02*
X0348850Y0042729D01*
X0348850Y0041731D02*
X0373650Y0041731D01*
X0373650Y0040732D02*
X0348850Y0040732D01*
X0348850Y0039734D02*
X0373650Y0039734D01*
X0373650Y0038735D02*
X0348850Y0038735D01*
X0348850Y0037737D02*
X0373650Y0037737D01*
X0373650Y0036738D02*
X0348850Y0036738D01*
X0348850Y0035740D02*
X0373650Y0035740D01*
X0373650Y0034741D02*
X0348850Y0034741D01*
X0348850Y0033743D02*
X0373650Y0033743D01*
X0373650Y0032744D02*
X0348850Y0032744D01*
X0348850Y0031746D02*
X0373650Y0031746D01*
X0368021Y0060702D02*
X0354048Y0060702D01*
X0356008Y0061701D02*
X0365991Y0061701D01*
X0316150Y0073350D02*
X0316150Y0093750D01*
X0315945Y0095423D01*
X0315503Y0097050D01*
X0314834Y0098598D01*
X0313952Y0100034D01*
X0312875Y0101331D01*
X0311624Y0102461D01*
X0310225Y0103401D01*
X0308706Y0104133D01*
X0307099Y0104641D01*
X0305435Y0104915D01*
X0303750Y0104950D01*
X0302150Y0104996D01*
X0300560Y0104816D01*
X0299011Y0104412D01*
X0297535Y0103793D01*
X0296162Y0102971D01*
X0294918Y0101963D01*
X0293830Y0100790D01*
X0292919Y0099474D01*
X0292203Y0098043D01*
X0291697Y0096524D01*
X0291410Y0094949D01*
X0291350Y0093350D01*
X0291350Y0073350D01*
X0316150Y0073350D01*
X0316150Y0073683D02*
X0291350Y0073683D01*
X0291350Y0074682D02*
X0316150Y0074682D01*
X0316150Y0075680D02*
X0291350Y0075680D01*
X0291350Y0076679D02*
X0316150Y0076679D01*
X0316150Y0077677D02*
X0291350Y0077677D01*
X0291350Y0078676D02*
X0316150Y0078676D01*
X0316150Y0079674D02*
X0291350Y0079674D01*
X0291350Y0080673D02*
X0316150Y0080673D01*
X0316150Y0081671D02*
X0291350Y0081671D01*
X0291350Y0082670D02*
X0316150Y0082670D01*
X0316150Y0083668D02*
X0291350Y0083668D01*
X0291350Y0084667D02*
X0316150Y0084667D01*
X0316150Y0085665D02*
X0291350Y0085665D01*
X0291350Y0086664D02*
X0316150Y0086664D01*
X0316150Y0087662D02*
X0291350Y0087662D01*
X0291350Y0088661D02*
X0316150Y0088661D01*
X0316150Y0089659D02*
X0291350Y0089659D01*
X0291350Y0090658D02*
X0316150Y0090658D01*
X0316150Y0091656D02*
X0291350Y0091656D01*
X0291350Y0092655D02*
X0316150Y0092655D01*
X0316150Y0093653D02*
X0291361Y0093653D01*
X0291399Y0094652D02*
X0316039Y0094652D01*
X0315883Y0095650D02*
X0291538Y0095650D01*
X0291738Y0096649D02*
X0315612Y0096649D01*
X0315245Y0097647D02*
X0292071Y0097647D01*
X0292504Y0098646D02*
X0314805Y0098646D01*
X0314192Y0099644D02*
X0293036Y0099644D01*
X0293728Y0100643D02*
X0313447Y0100643D01*
X0312531Y0101641D02*
X0294620Y0101641D01*
X0295753Y0102640D02*
X0311357Y0102640D01*
X0309733Y0103638D02*
X0297277Y0103638D01*
X0299874Y0104637D02*
X0307112Y0104637D01*
X0336973Y0294354D02*
X0360372Y0294354D01*
X0359940Y0295353D02*
X0337358Y0295353D01*
X0337857Y0296351D02*
X0359372Y0296351D01*
X0358690Y0297350D02*
X0338525Y0297350D01*
X0339348Y0298348D02*
X0357856Y0298348D01*
X0356750Y0299347D02*
X0340391Y0299347D01*
X0341787Y0300345D02*
X0355308Y0300345D01*
X0353040Y0301344D02*
X0343849Y0301344D01*
X0330989Y0340088D02*
X0329440Y0339684D01*
X0327850Y0339504D01*
X0326250Y0339550D01*
X0324565Y0339585D01*
X0322901Y0339859D01*
X0321294Y0340367D01*
X0319775Y0341099D01*
X0318376Y0342039D01*
X0317125Y0343169D01*
X0316048Y0344466D01*
X0315166Y0345902D01*
X0314497Y0347450D01*
X0314055Y0349077D01*
X0313850Y0350750D01*
X0313850Y0391150D01*
X0338650Y0391150D01*
X0338650Y0351150D01*
X0338590Y0349551D01*
X0338303Y0347976D01*
X0337797Y0346457D01*
X0337081Y0345026D01*
X0336170Y0343710D01*
X0335082Y0342537D01*
X0333838Y0341529D01*
X0332465Y0340707D01*
X0330989Y0340088D01*
X0331459Y0340286D02*
X0321552Y0340286D01*
X0319500Y0341284D02*
X0333429Y0341284D01*
X0334768Y0342283D02*
X0318107Y0342283D01*
X0317032Y0343281D02*
X0335772Y0343281D01*
X0336565Y0344280D02*
X0316202Y0344280D01*
X0315549Y0345278D02*
X0337208Y0345278D01*
X0337707Y0346277D02*
X0315004Y0346277D01*
X0314573Y0347275D02*
X0338070Y0347275D01*
X0338358Y0348274D02*
X0314273Y0348274D01*
X0314032Y0349272D02*
X0338539Y0349272D01*
X0338617Y0350271D02*
X0313909Y0350271D01*
X0313850Y0351269D02*
X0338650Y0351269D01*
X0338650Y0352268D02*
X0313850Y0352268D01*
X0313850Y0353266D02*
X0338650Y0353266D01*
X0338650Y0354265D02*
X0313850Y0354265D01*
X0313850Y0355263D02*
X0338650Y0355263D01*
X0338650Y0356262D02*
X0313850Y0356262D01*
X0313850Y0357260D02*
X0338650Y0357260D01*
X0338650Y0358259D02*
X0313850Y0358259D01*
X0313850Y0359257D02*
X0338650Y0359257D01*
X0338650Y0360256D02*
X0313850Y0360256D01*
X0313850Y0361254D02*
X0338650Y0361254D01*
X0338650Y0362253D02*
X0313850Y0362253D01*
X0313850Y0363251D02*
X0338650Y0363251D01*
X0338650Y0364250D02*
X0313850Y0364250D01*
X0313850Y0365248D02*
X0338650Y0365248D01*
X0338650Y0366247D02*
X0313850Y0366247D01*
X0313850Y0367245D02*
X0338650Y0367245D01*
X0338650Y0368244D02*
X0313850Y0368244D01*
X0313850Y0369242D02*
X0338650Y0369242D01*
X0338650Y0370241D02*
X0313850Y0370241D01*
X0313850Y0371239D02*
X0338650Y0371239D01*
X0338650Y0372238D02*
X0313850Y0372238D01*
X0313850Y0373236D02*
X0338650Y0373236D01*
X0338650Y0374235D02*
X0313850Y0374235D01*
X0313850Y0375233D02*
X0338650Y0375233D01*
X0338650Y0376232D02*
X0313850Y0376232D01*
X0313850Y0377230D02*
X0338650Y0377230D01*
X0338650Y0378229D02*
X0313850Y0378229D01*
X0313850Y0379227D02*
X0338650Y0379227D01*
X0338650Y0380226D02*
X0313850Y0380226D01*
X0313850Y0381224D02*
X0338650Y0381224D01*
X0338650Y0382223D02*
X0313850Y0382223D01*
X0313850Y0383222D02*
X0338650Y0383222D01*
X0338650Y0384220D02*
X0313850Y0384220D01*
X0313850Y0385219D02*
X0338650Y0385219D01*
X0338650Y0386217D02*
X0313850Y0386217D01*
X0313850Y0387216D02*
X0338650Y0387216D01*
X0338650Y0388214D02*
X0313850Y0388214D01*
X0313850Y0389213D02*
X0338650Y0389213D01*
X0338650Y0390211D02*
X0313850Y0390211D01*
D15*
X0333612Y0323309D03*
X0333612Y0318191D03*
X0333612Y0126309D03*
X0333612Y0121191D03*
D16*
X0038750Y0038750D03*
X0038750Y0235750D03*
X0378750Y0213750D03*
X0378750Y0410750D03*
D17*
X0094990Y0314313D03*
X0091250Y0322581D03*
X0087510Y0314313D03*
X0091250Y0125581D03*
X0087510Y0117313D03*
X0094990Y0117313D03*
D18*
X0203238Y0143396D03*
X0203238Y0149104D03*
X0214262Y0149104D03*
X0214262Y0143396D03*
X0214262Y0340396D03*
X0214262Y0346104D03*
X0203238Y0346104D03*
X0203238Y0340396D03*
D19*
X0055750Y0429000D03*
X0361750Y0429000D03*
D20*
X0052185Y0020500D02*
X0052187Y0020619D01*
X0052193Y0020738D01*
X0052203Y0020857D01*
X0052217Y0020975D01*
X0052235Y0021093D01*
X0052256Y0021210D01*
X0052282Y0021326D01*
X0052312Y0021442D01*
X0052345Y0021556D01*
X0052382Y0021669D01*
X0052423Y0021781D01*
X0052468Y0021892D01*
X0052516Y0022001D01*
X0052568Y0022108D01*
X0052624Y0022213D01*
X0052683Y0022317D01*
X0052745Y0022418D01*
X0052811Y0022518D01*
X0052880Y0022615D01*
X0052952Y0022709D01*
X0053028Y0022802D01*
X0053106Y0022891D01*
X0053187Y0022978D01*
X0053272Y0023063D01*
X0053359Y0023144D01*
X0053448Y0023222D01*
X0053541Y0023298D01*
X0053635Y0023370D01*
X0053732Y0023439D01*
X0053832Y0023505D01*
X0053933Y0023567D01*
X0054037Y0023626D01*
X0054142Y0023682D01*
X0054249Y0023734D01*
X0054358Y0023782D01*
X0054469Y0023827D01*
X0054581Y0023868D01*
X0054694Y0023905D01*
X0054808Y0023938D01*
X0054924Y0023968D01*
X0055040Y0023994D01*
X0055157Y0024015D01*
X0055275Y0024033D01*
X0055393Y0024047D01*
X0055512Y0024057D01*
X0055631Y0024063D01*
X0055750Y0024065D01*
X0055869Y0024063D01*
X0055988Y0024057D01*
X0056107Y0024047D01*
X0056225Y0024033D01*
X0056343Y0024015D01*
X0056460Y0023994D01*
X0056576Y0023968D01*
X0056692Y0023938D01*
X0056806Y0023905D01*
X0056919Y0023868D01*
X0057031Y0023827D01*
X0057142Y0023782D01*
X0057251Y0023734D01*
X0057358Y0023682D01*
X0057463Y0023626D01*
X0057567Y0023567D01*
X0057668Y0023505D01*
X0057768Y0023439D01*
X0057865Y0023370D01*
X0057959Y0023298D01*
X0058052Y0023222D01*
X0058141Y0023144D01*
X0058228Y0023063D01*
X0058313Y0022978D01*
X0058394Y0022891D01*
X0058472Y0022802D01*
X0058548Y0022709D01*
X0058620Y0022615D01*
X0058689Y0022518D01*
X0058755Y0022418D01*
X0058817Y0022317D01*
X0058876Y0022213D01*
X0058932Y0022108D01*
X0058984Y0022001D01*
X0059032Y0021892D01*
X0059077Y0021781D01*
X0059118Y0021669D01*
X0059155Y0021556D01*
X0059188Y0021442D01*
X0059218Y0021326D01*
X0059244Y0021210D01*
X0059265Y0021093D01*
X0059283Y0020975D01*
X0059297Y0020857D01*
X0059307Y0020738D01*
X0059313Y0020619D01*
X0059315Y0020500D01*
X0059313Y0020381D01*
X0059307Y0020262D01*
X0059297Y0020143D01*
X0059283Y0020025D01*
X0059265Y0019907D01*
X0059244Y0019790D01*
X0059218Y0019674D01*
X0059188Y0019558D01*
X0059155Y0019444D01*
X0059118Y0019331D01*
X0059077Y0019219D01*
X0059032Y0019108D01*
X0058984Y0018999D01*
X0058932Y0018892D01*
X0058876Y0018787D01*
X0058817Y0018683D01*
X0058755Y0018582D01*
X0058689Y0018482D01*
X0058620Y0018385D01*
X0058548Y0018291D01*
X0058472Y0018198D01*
X0058394Y0018109D01*
X0058313Y0018022D01*
X0058228Y0017937D01*
X0058141Y0017856D01*
X0058052Y0017778D01*
X0057959Y0017702D01*
X0057865Y0017630D01*
X0057768Y0017561D01*
X0057668Y0017495D01*
X0057567Y0017433D01*
X0057463Y0017374D01*
X0057358Y0017318D01*
X0057251Y0017266D01*
X0057142Y0017218D01*
X0057031Y0017173D01*
X0056919Y0017132D01*
X0056806Y0017095D01*
X0056692Y0017062D01*
X0056576Y0017032D01*
X0056460Y0017006D01*
X0056343Y0016985D01*
X0056225Y0016967D01*
X0056107Y0016953D01*
X0055988Y0016943D01*
X0055869Y0016937D01*
X0055750Y0016935D01*
X0055631Y0016937D01*
X0055512Y0016943D01*
X0055393Y0016953D01*
X0055275Y0016967D01*
X0055157Y0016985D01*
X0055040Y0017006D01*
X0054924Y0017032D01*
X0054808Y0017062D01*
X0054694Y0017095D01*
X0054581Y0017132D01*
X0054469Y0017173D01*
X0054358Y0017218D01*
X0054249Y0017266D01*
X0054142Y0017318D01*
X0054037Y0017374D01*
X0053933Y0017433D01*
X0053832Y0017495D01*
X0053732Y0017561D01*
X0053635Y0017630D01*
X0053541Y0017702D01*
X0053448Y0017778D01*
X0053359Y0017856D01*
X0053272Y0017937D01*
X0053187Y0018022D01*
X0053106Y0018109D01*
X0053028Y0018198D01*
X0052952Y0018291D01*
X0052880Y0018385D01*
X0052811Y0018482D01*
X0052745Y0018582D01*
X0052683Y0018683D01*
X0052624Y0018787D01*
X0052568Y0018892D01*
X0052516Y0018999D01*
X0052468Y0019108D01*
X0052423Y0019219D01*
X0052382Y0019331D01*
X0052345Y0019444D01*
X0052312Y0019558D01*
X0052282Y0019674D01*
X0052256Y0019790D01*
X0052235Y0019907D01*
X0052217Y0020025D01*
X0052203Y0020143D01*
X0052193Y0020262D01*
X0052187Y0020381D01*
X0052185Y0020500D01*
D21*
X0055750Y0020500D03*
M02*
