%
M48
M72
T01C0.0150
T02C0.0200
T03C0.1575
%
T01
X8925Y7025
X9325Y7025
X9125Y10625
X4875Y12875
X4875Y13275
X8925Y19675
X9325Y19675
X13375Y13325
X13375Y12925
X15875Y12925
X15875Y13325
X21975Y13375
X21975Y14875
X25875Y13325
X25875Y12925
X28325Y12925
X28325Y13325
X32425Y7075
X32825Y7075
X36925Y12925
X36925Y13325
X32825Y19725
X32425Y19725
X32425Y26775
X32825Y26775
X36925Y32625
X36925Y33025
X32825Y39425
X32425Y39425
X28325Y33025
X28325Y32625
X25875Y32625
X25875Y33025
X21975Y33075
X21975Y34575
X21075Y39925
X20675Y39925
X15875Y33025
X15875Y32625
X13375Y32625
X13375Y33025
X9125Y30325
X9325Y26725
X8925Y26725
X4875Y32575
X4875Y32975
X8925Y39375
X9325Y39375
X20675Y26025
X21075Y26025
X21075Y20225
X20675Y20225
X20675Y6325
X21075Y6325
T02
X33975Y11575
X33975Y31275
T03
X5625Y5025
X6875Y9275
X11375Y9275
X17625Y8175
X17625Y10475
X20875Y10475
X20875Y8175
X24125Y8175
X24125Y10475
X30375Y9275
X34875Y9275
X36125Y5025
X32625Y15475
X32625Y17775
X36125Y24725
X34875Y28975
X30375Y28975
X24125Y27875
X24125Y30175
X20875Y30175
X20875Y27875
X17625Y27875
X17625Y30175
X11375Y28975
X6875Y28975
X5625Y24725
X9125Y17475
X20875Y17975
X32625Y35175
X32625Y37475
X20875Y37675
X9125Y37175
M30
