G75*
%MOIN*%
%OFA0B0*%
%FSLAX25Y25*%
%IPPOS*%
%LPD*%
%AMOC8*
5,1,8,0,0,1.08239X$1,22.5*
%
%ADD10R,0.00079X0.00079*%
%ADD11R,0.00118X0.00079*%
%ADD12R,0.00315X0.00118*%
%ADD13R,0.00276X0.00079*%
%ADD14R,0.00709X0.00079*%
%ADD15R,0.01063X0.00118*%
%ADD16R,0.01063X0.00079*%
%ADD17R,0.01181X0.00118*%
%ADD18R,0.00669X0.00079*%
%ADD19R,0.01260X0.00079*%
%ADD20R,0.02047X0.00118*%
%ADD21R,0.02008X0.00079*%
%ADD22R,0.00709X0.00118*%
%ADD23R,0.03189X0.00079*%
%ADD24R,0.00394X0.00079*%
%ADD25R,0.03228X0.00079*%
%ADD26R,0.00866X0.00118*%
%ADD27R,0.03189X0.00118*%
%ADD28R,0.04488X0.00079*%
%ADD29R,0.00512X0.00118*%
%ADD30R,0.04449X0.00118*%
%ADD31R,0.00984X0.00079*%
%ADD32R,0.04449X0.00079*%
%ADD33R,0.05748X0.00118*%
%ADD34R,0.05827X0.00079*%
%ADD35R,0.00591X0.00118*%
%ADD36R,0.05709X0.00118*%
%ADD37R,0.06614X0.00079*%
%ADD38R,0.06496X0.00118*%
%ADD39R,0.06496X0.00079*%
%ADD40R,0.00591X0.00079*%
%ADD41R,0.06417X0.00079*%
%ADD42R,0.07480X0.00118*%
%ADD43R,0.07362X0.00079*%
%ADD44R,0.07205X0.00118*%
%ADD45R,0.06969X0.00079*%
%ADD46R,0.06811X0.00079*%
%ADD47R,0.06929X0.00118*%
%ADD48R,0.07205X0.00079*%
%ADD49R,0.07008X0.00118*%
%ADD50R,0.06575X0.00118*%
%ADD51R,0.06299X0.00118*%
%ADD52R,0.06142X0.00079*%
%ADD53R,0.05906X0.00118*%
%ADD54R,0.05748X0.00079*%
%ADD55R,0.05512X0.00118*%
%ADD56R,0.05433X0.00079*%
%ADD57R,0.05236X0.00118*%
%ADD58R,0.04961X0.00079*%
%ADD59R,0.04764X0.00118*%
%ADD60R,0.04646X0.00079*%
%ADD61R,0.04370X0.00079*%
%ADD62R,0.01535X0.00079*%
%ADD63R,0.04291X0.00118*%
%ADD64R,0.01850X0.00118*%
%ADD65R,0.04094X0.00079*%
%ADD66R,0.02244X0.00079*%
%ADD67R,0.03976X0.00118*%
%ADD68R,0.02402X0.00118*%
%ADD69R,0.03780X0.00079*%
%ADD70R,0.02598X0.00079*%
%ADD71R,0.03701X0.00118*%
%ADD72R,0.02913X0.00118*%
%ADD73R,0.03701X0.00079*%
%ADD74R,0.03031X0.00079*%
%ADD75R,0.00197X0.00118*%
%ADD76R,0.03504X0.00118*%
%ADD77R,0.03307X0.00118*%
%ADD78R,0.03425X0.00079*%
%ADD79R,0.03504X0.00079*%
%ADD80R,0.03583X0.00118*%
%ADD81R,0.00197X0.00079*%
%ADD82R,0.00276X0.00118*%
%ADD83R,0.00866X0.00079*%
%ADD84R,0.04055X0.00079*%
%ADD85R,0.00394X0.00118*%
%ADD86R,0.03110X0.00118*%
%ADD87R,0.02717X0.00118*%
%ADD88R,0.04173X0.00118*%
%ADD89R,0.02992X0.00079*%
%ADD90R,0.02913X0.00079*%
%ADD91R,0.04685X0.00079*%
%ADD92R,0.02835X0.00118*%
%ADD93R,0.04961X0.00118*%
%ADD94R,0.02717X0.00079*%
%ADD95R,0.05551X0.00079*%
%ADD96R,0.05157X0.00079*%
%ADD97R,0.02559X0.00118*%
%ADD98R,0.06102X0.00118*%
%ADD99R,0.05433X0.00118*%
%ADD100R,0.02559X0.00079*%
%ADD101R,0.05630X0.00079*%
%ADD102R,0.02441X0.00118*%
%ADD103R,0.05827X0.00118*%
%ADD104R,0.02441X0.00079*%
%ADD105R,0.07402X0.00079*%
%ADD106R,0.05945X0.00079*%
%ADD107R,0.00669X0.00118*%
%ADD108R,0.07795X0.00118*%
%ADD109R,0.10787X0.00079*%
%ADD110R,0.06102X0.00079*%
%ADD111R,0.00906X0.00118*%
%ADD112R,0.10984X0.00118*%
%ADD113R,0.00906X0.00079*%
%ADD114R,0.11181X0.00079*%
%ADD115R,0.06339X0.00079*%
%ADD116R,0.11181X0.00118*%
%ADD117R,0.11378X0.00079*%
%ADD118R,0.11457X0.00118*%
%ADD119R,0.01181X0.00079*%
%ADD120R,0.11575X0.00079*%
%ADD121R,0.05118X0.00079*%
%ADD122R,0.07402X0.00118*%
%ADD123R,0.04016X0.00118*%
%ADD124R,0.05276X0.00118*%
%ADD125R,0.03307X0.00079*%
%ADD126R,0.03583X0.00079*%
%ADD127R,0.04016X0.00079*%
%ADD128R,0.01378X0.00079*%
%ADD129R,0.03976X0.00079*%
%ADD130R,0.01457X0.00118*%
%ADD131R,0.03228X0.00118*%
%ADD132R,0.03031X0.00118*%
%ADD133R,0.03858X0.00118*%
%ADD134R,0.01457X0.00079*%
%ADD135R,0.03110X0.00079*%
%ADD136R,0.02835X0.00079*%
%ADD137R,0.03858X0.00079*%
%ADD138R,0.01575X0.00118*%
%ADD139R,0.02992X0.00118*%
%ADD140R,0.02520X0.00118*%
%ADD141R,0.03780X0.00118*%
%ADD142R,0.06417X0.00118*%
%ADD143R,0.01654X0.00079*%
%ADD144R,0.02402X0.00079*%
%ADD145R,0.01772X0.00118*%
%ADD146R,0.02126X0.00118*%
%ADD147R,0.03898X0.00118*%
%ADD148R,0.06890X0.00118*%
%ADD149R,0.01929X0.00079*%
%ADD150R,0.02638X0.00079*%
%ADD151R,0.03898X0.00079*%
%ADD152R,0.01654X0.00118*%
%ADD153R,0.00472X0.00118*%
%ADD154R,0.02126X0.00079*%
%ADD155R,0.01575X0.00079*%
%ADD156R,0.02323X0.00118*%
%ADD157R,0.01260X0.00118*%
%ADD158R,0.04646X0.00118*%
%ADD159R,0.02520X0.00079*%
%ADD160R,0.00787X0.00079*%
%ADD161R,0.01299X0.00118*%
%ADD162R,0.00118X0.00118*%
%ADD163R,0.00787X0.00118*%
%ADD164R,0.00079X0.00118*%
%ADD165R,0.05354X0.00118*%
%ADD166R,0.00315X0.00079*%
%ADD167R,0.00551X0.00079*%
%ADD168R,0.04843X0.00079*%
%ADD169R,0.03622X0.00079*%
%ADD170R,0.00748X0.00079*%
%ADD171R,0.05039X0.00079*%
%ADD172R,0.04764X0.00079*%
%ADD173R,0.02047X0.00079*%
%ADD174R,0.05354X0.00079*%
%ADD175R,0.04409X0.00118*%
%ADD176R,0.04567X0.00118*%
%ADD177R,0.02638X0.00118*%
%ADD178R,0.05551X0.00118*%
%ADD179R,0.01535X0.00118*%
%ADD180R,0.01850X0.00079*%
%ADD181R,0.01811X0.00118*%
%ADD182R,0.01732X0.00118*%
%ADD183R,0.04055X0.00118*%
%ADD184R,0.01969X0.00118*%
%ADD185R,0.02244X0.00118*%
%ADD186R,0.02165X0.00079*%
%ADD187R,0.02362X0.00079*%
%ADD188R,0.01772X0.00079*%
%ADD189R,0.00512X0.00079*%
%ADD190R,0.02362X0.00118*%
%ADD191R,0.04094X0.00118*%
%ADD192R,0.02795X0.00118*%
%ADD193R,0.01339X0.00118*%
%ADD194R,0.10039X0.00079*%
%ADD195R,0.10236X0.00118*%
%ADD196R,0.10394X0.00079*%
%ADD197R,0.10709X0.00118*%
%ADD198R,0.11063X0.00079*%
%ADD199R,0.11378X0.00118*%
%ADD200R,0.00157X0.00118*%
%ADD201R,0.12087X0.00079*%
%ADD202R,0.05276X0.00079*%
%ADD203R,0.00472X0.00079*%
%ADD204R,0.05866X0.00079*%
%ADD205R,0.10591X0.00079*%
%ADD206R,0.06220X0.00079*%
%ADD207R,0.10591X0.00118*%
%ADD208R,0.06614X0.00118*%
%ADD209R,0.18583X0.00079*%
%ADD210R,0.01378X0.00118*%
%ADD211R,0.19331X0.00118*%
%ADD212R,0.19528X0.00079*%
%ADD213R,0.04843X0.00118*%
%ADD214R,0.19606X0.00118*%
%ADD215R,0.04567X0.00079*%
%ADD216R,0.19803X0.00079*%
%ADD217R,0.04252X0.00118*%
%ADD218R,0.19921X0.00118*%
%ADD219R,0.04173X0.00079*%
%ADD220R,0.20000X0.00079*%
%ADD221R,0.08583X0.00118*%
%ADD222R,0.01339X0.00079*%
%ADD223R,0.03819X0.00079*%
%ADD224R,0.03386X0.00118*%
%ADD225R,0.02323X0.00079*%
%ADD226R,0.02756X0.00079*%
%ADD227R,0.03386X0.00079*%
%ADD228R,0.03425X0.00118*%
%ADD229R,0.02598X0.00118*%
%ADD230R,0.00157X0.00079*%
%ADD231C,0.00300*%
%ADD232C,0.00591*%
%ADD233R,0.33858X0.00157*%
%ADD234R,0.34803X0.00157*%
%ADD235R,0.35433X0.00157*%
%ADD236R,0.36063X0.00157*%
%ADD237R,0.02520X0.00157*%
%ADD238R,0.01260X0.00157*%
%ADD239R,0.04252X0.00157*%
%ADD240R,0.26614X0.00157*%
%ADD241R,0.01102X0.00157*%
%ADD242R,0.03937X0.00157*%
%ADD243R,0.02677X0.00157*%
%ADD244R,0.00945X0.00157*%
%ADD245R,0.03780X0.00157*%
%ADD246R,0.26772X0.00157*%
%ADD247R,0.02835X0.00157*%
%ADD248R,0.23150X0.00157*%
%ADD249R,0.02992X0.00157*%
%ADD250R,0.23307X0.00157*%
%ADD251R,0.03150X0.00157*%
%ADD252R,0.05669X0.00157*%
%ADD253R,0.23465X0.00157*%
%ADD254R,0.03307X0.00157*%
%ADD255R,0.23622X0.00157*%
%ADD256R,0.01417X0.00157*%
%ADD257R,0.00472X0.00157*%
%ADD258R,0.00630X0.00157*%
%ADD259R,0.00315X0.00157*%
%ADD260R,0.02362X0.00157*%
%ADD261R,0.01732X0.00157*%
%ADD262R,0.01890X0.00157*%
%ADD263R,0.00157X0.00157*%
%ADD264R,0.02047X0.00157*%
%ADD265R,0.00787X0.00157*%
%ADD266R,0.03465X0.00157*%
%ADD267R,0.04409X0.00157*%
%ADD268R,0.04567X0.00157*%
%ADD269R,0.02205X0.00157*%
%ADD270R,0.01575X0.00157*%
%ADD271R,0.08031X0.00157*%
%ADD272R,0.28661X0.00157*%
%ADD273R,0.06457X0.00157*%
%ADD274R,0.28504X0.00157*%
%ADD275R,0.06142X0.00157*%
%ADD276R,0.28346X0.00157*%
%ADD277R,0.05984X0.00157*%
%ADD278R,0.05827X0.00157*%
%ADD279R,0.28189X0.00157*%
%ADD280R,0.28031X0.00157*%
%ADD281R,0.35118X0.00157*%
%ADD282R,0.36693X0.00157*%
%ADD283R,0.37323X0.00157*%
%ADD284R,0.37638X0.00157*%
%ADD285R,0.37953X0.00157*%
%ADD286R,0.38268X0.00157*%
%ADD287R,0.34488X0.00157*%
%ADD288R,0.34646X0.00157*%
%ADD289R,0.03622X0.00157*%
%ADD290R,0.34961X0.00157*%
%ADD291R,0.04094X0.00157*%
%ADD292R,0.13543X0.00157*%
%ADD293R,0.24409X0.00157*%
%ADD294R,0.13386X0.00157*%
%ADD295R,0.24252X0.00157*%
%ADD296R,0.13228X0.00157*%
%ADD297R,0.24094X0.00157*%
%ADD298R,0.13071X0.00157*%
%ADD299R,0.23937X0.00157*%
%ADD300R,0.12913X0.00157*%
%ADD301R,0.23780X0.00157*%
%ADD302R,0.12756X0.00157*%
%ADD303R,0.12441X0.00157*%
%ADD304R,0.12126X0.00157*%
%ADD305R,0.37008X0.00157*%
%ADD306R,0.38583X0.00157*%
%ADD307R,0.39213X0.00157*%
%ADD308R,0.07559X0.00157*%
%ADD309R,0.09606X0.00157*%
%ADD310R,0.21102X0.00157*%
%ADD311R,0.09291X0.00157*%
%ADD312R,0.21260X0.00157*%
%ADD313R,0.07717X0.00157*%
%ADD314R,0.08346X0.00157*%
%ADD315R,0.14016X0.00157*%
%ADD316R,0.40787X0.00157*%
%ADD317R,0.40472X0.00157*%
%ADD318R,0.40157X0.00157*%
%ADD319R,0.39843X0.00157*%
%ADD320R,0.39528X0.00157*%
%ADD321R,0.18307X0.00197*%
%ADD322R,0.19094X0.00197*%
%ADD323R,0.19882X0.00197*%
%ADD324R,0.20669X0.00197*%
%ADD325R,0.21063X0.00197*%
%ADD326R,0.21457X0.00197*%
%ADD327R,0.21850X0.00197*%
%ADD328R,0.04921X0.00197*%
%ADD329R,0.10433X0.00197*%
%ADD330R,0.04528X0.00197*%
%ADD331R,0.04134X0.00197*%
%ADD332R,0.01378X0.00197*%
%ADD333R,0.02953X0.00197*%
%ADD334R,0.03740X0.00197*%
%ADD335R,0.04331X0.00197*%
%ADD336R,0.03346X0.00197*%
%ADD337R,0.00984X0.00197*%
%ADD338R,0.03543X0.00197*%
%ADD339R,0.00787X0.00197*%
%ADD340R,0.02559X0.00197*%
%ADD341R,0.02756X0.00197*%
%ADD342R,0.00591X0.00197*%
%ADD343R,0.02362X0.00197*%
%ADD344R,0.00394X0.00197*%
%ADD345R,0.02165X0.00197*%
%ADD346R,0.01181X0.00197*%
%ADD347R,0.01969X0.00197*%
%ADD348R,0.01772X0.00197*%
%ADD349R,0.01575X0.00197*%
%ADD350R,0.04724X0.00197*%
%ADD351R,0.05709X0.00197*%
%ADD352R,0.03937X0.00197*%
%ADD353R,0.05118X0.00197*%
%ADD354R,0.05709X0.00236*%
%ADD355R,0.03937X0.00236*%
%ADD356R,0.01575X0.00236*%
%ADD357R,0.00591X0.00236*%
%ADD358R,0.05315X0.00236*%
%ADD359R,0.06496X0.00197*%
%ADD360R,0.00197X0.00197*%
%ADD361R,0.05315X0.00197*%
%ADD362R,0.05512X0.00197*%
%ADD363R,0.04134X0.00236*%
%ADD364R,0.00984X0.00236*%
%ADD365R,0.00787X0.00236*%
%ADD366R,0.01181X0.00236*%
%ADD367R,0.01772X0.00236*%
%ADD368R,0.05512X0.00236*%
%ADD369R,0.04331X0.00236*%
%ADD370R,0.03150X0.00236*%
%ADD371R,0.20669X0.00236*%
%ADD372R,0.19094X0.00157*%
%ADD373R,0.17126X0.00197*%
%ADD374R,0.20276X0.00197*%
%ADD375R,0.14961X0.00197*%
%ADD376R,0.00394X0.00236*%
%ADD377R,0.01969X0.00236*%
%ADD378R,0.04921X0.00236*%
%ADD379R,0.02165X0.00236*%
%ADD380R,0.19882X0.00236*%
%ADD381R,0.18307X0.00157*%
D10*
X0070850Y0130270D03*
X0072898Y0129876D03*
X0072504Y0135506D03*
X0079197Y0130663D03*
X0082031Y0132986D03*
X0081244Y0139207D03*
X0066953Y0144837D03*
X0205703Y0132337D03*
X0211254Y0123006D03*
X0209600Y0117770D03*
X0211648Y0117376D03*
X0217947Y0118163D03*
X0220781Y0120486D03*
X0219994Y0126707D03*
X0324453Y0129837D03*
X0330004Y0120506D03*
X0328350Y0115270D03*
X0330398Y0114876D03*
X0336697Y0115663D03*
X0339531Y0117986D03*
X0338744Y0124207D03*
X0330398Y0311876D03*
X0328350Y0312270D03*
X0330004Y0317506D03*
X0336697Y0312663D03*
X0339531Y0314986D03*
X0338744Y0321207D03*
X0324453Y0326837D03*
X0220781Y0317486D03*
X0217947Y0315163D03*
X0211648Y0314376D03*
X0209600Y0314770D03*
X0211254Y0320006D03*
X0219994Y0323707D03*
X0205703Y0329337D03*
X0082031Y0329986D03*
X0079197Y0327663D03*
X0072898Y0326876D03*
X0070850Y0327270D03*
X0072504Y0332506D03*
X0081244Y0336207D03*
X0066953Y0341837D03*
D11*
X0067051Y0341758D03*
X0056461Y0331049D03*
X0081146Y0336404D03*
X0195211Y0318549D03*
X0205801Y0329258D03*
X0219896Y0323904D03*
X0313961Y0316049D03*
X0324551Y0326758D03*
X0338646Y0321404D03*
X0205801Y0132258D03*
X0195211Y0121549D03*
X0219896Y0126904D03*
X0313961Y0119049D03*
X0324551Y0129758D03*
X0338646Y0124404D03*
X0081146Y0139404D03*
X0067051Y0144758D03*
X0056461Y0134049D03*
D12*
X0067150Y0144659D03*
X0067346Y0144463D03*
X0069591Y0143872D03*
X0070850Y0130368D03*
X0205900Y0132159D03*
X0206096Y0131963D03*
X0208341Y0131372D03*
X0209600Y0117868D03*
X0324650Y0129659D03*
X0324846Y0129463D03*
X0327091Y0128872D03*
X0328350Y0115368D03*
X0328350Y0312368D03*
X0327091Y0325872D03*
X0324846Y0326463D03*
X0324650Y0326659D03*
X0209600Y0314868D03*
X0208341Y0328372D03*
X0206096Y0328963D03*
X0205900Y0329159D03*
X0070850Y0327368D03*
X0069591Y0340872D03*
X0067346Y0341463D03*
X0067150Y0341659D03*
D13*
X0067248Y0341561D03*
X0070949Y0340577D03*
X0076185Y0332506D03*
X0079217Y0327742D03*
X0081343Y0335813D03*
X0056854Y0331640D03*
X0054020Y0331246D03*
X0192770Y0318746D03*
X0195604Y0319140D03*
X0205998Y0329061D03*
X0209699Y0328077D03*
X0214935Y0320006D03*
X0217967Y0315242D03*
X0220093Y0323313D03*
X0311520Y0316246D03*
X0314354Y0316640D03*
X0324748Y0326561D03*
X0328449Y0325577D03*
X0333685Y0317506D03*
X0336717Y0312742D03*
X0338843Y0320813D03*
X0324748Y0129561D03*
X0328449Y0128577D03*
X0333685Y0120506D03*
X0336717Y0115742D03*
X0338843Y0123813D03*
X0314354Y0119640D03*
X0311520Y0119246D03*
X0220093Y0126313D03*
X0214935Y0123006D03*
X0217967Y0118242D03*
X0209699Y0131077D03*
X0205998Y0132061D03*
X0195604Y0122140D03*
X0192770Y0121746D03*
X0081343Y0138813D03*
X0076185Y0135506D03*
X0079217Y0130742D03*
X0070949Y0143577D03*
X0067248Y0144561D03*
X0056854Y0134640D03*
X0054020Y0134246D03*
D14*
X0067543Y0144364D03*
X0206293Y0131864D03*
X0325043Y0129364D03*
X0325043Y0326364D03*
X0206293Y0328864D03*
X0067543Y0341364D03*
D15*
X0067839Y0341266D03*
X0068035Y0341069D03*
X0081539Y0334258D03*
X0206589Y0328766D03*
X0206785Y0328569D03*
X0220289Y0321758D03*
X0325339Y0326266D03*
X0325535Y0326069D03*
X0339039Y0319258D03*
X0325339Y0129266D03*
X0325535Y0129069D03*
X0339039Y0122258D03*
X0220289Y0124758D03*
X0206785Y0131569D03*
X0206589Y0131766D03*
X0081539Y0137258D03*
X0068035Y0144069D03*
X0067839Y0144266D03*
D16*
X0067917Y0144167D03*
X0068114Y0143970D03*
X0071028Y0135230D03*
X0073075Y0135900D03*
X0054531Y0132789D03*
X0193281Y0120289D03*
X0209778Y0122730D03*
X0211825Y0123400D03*
X0206864Y0131470D03*
X0206667Y0131667D03*
X0312031Y0117789D03*
X0328528Y0120230D03*
X0330575Y0120900D03*
X0325614Y0128970D03*
X0325417Y0129167D03*
X0312031Y0314789D03*
X0328528Y0317230D03*
X0330575Y0317900D03*
X0325614Y0325970D03*
X0325417Y0326167D03*
X0211825Y0320400D03*
X0209778Y0319730D03*
X0206864Y0328470D03*
X0206667Y0328667D03*
X0193281Y0317289D03*
X0073075Y0332900D03*
X0071028Y0332230D03*
X0068114Y0340970D03*
X0067917Y0341167D03*
X0054531Y0329789D03*
D17*
X0053685Y0331344D03*
X0063803Y0332998D03*
X0068173Y0340872D03*
X0074394Y0332329D03*
X0081480Y0334061D03*
X0192435Y0318844D03*
X0202553Y0320498D03*
X0206923Y0328372D03*
X0213144Y0319829D03*
X0220230Y0321561D03*
X0311185Y0316344D03*
X0321303Y0317998D03*
X0325673Y0325872D03*
X0331894Y0317329D03*
X0338980Y0319061D03*
X0325673Y0128872D03*
X0321303Y0120998D03*
X0311185Y0119344D03*
X0331894Y0120329D03*
X0338980Y0122061D03*
X0220230Y0124561D03*
X0213144Y0122829D03*
X0206923Y0131372D03*
X0202553Y0123498D03*
X0192435Y0121844D03*
X0081480Y0137061D03*
X0074394Y0135329D03*
X0068173Y0143872D03*
X0063803Y0135998D03*
X0053685Y0134344D03*
D18*
X0066382Y0134443D03*
X0069492Y0143774D03*
X0081539Y0137947D03*
X0081539Y0137750D03*
X0081933Y0133852D03*
X0081933Y0133774D03*
X0205132Y0121943D03*
X0208242Y0131274D03*
X0220289Y0125447D03*
X0220289Y0125250D03*
X0220683Y0121352D03*
X0220683Y0121274D03*
X0323882Y0119443D03*
X0326992Y0128774D03*
X0339039Y0122947D03*
X0339039Y0122750D03*
X0339433Y0118852D03*
X0339433Y0118774D03*
X0339433Y0315774D03*
X0339433Y0315852D03*
X0339039Y0319750D03*
X0339039Y0319947D03*
X0326992Y0325774D03*
X0323882Y0316443D03*
X0220683Y0318274D03*
X0220683Y0318352D03*
X0220289Y0322250D03*
X0220289Y0322447D03*
X0208242Y0328274D03*
X0205132Y0318943D03*
X0081933Y0330774D03*
X0081933Y0330852D03*
X0081539Y0334750D03*
X0081539Y0334947D03*
X0069492Y0340774D03*
X0066382Y0331443D03*
D19*
X0065614Y0333096D03*
X0068331Y0340774D03*
X0074236Y0332230D03*
X0080575Y0329986D03*
X0081441Y0333963D03*
X0053724Y0331443D03*
X0192474Y0318943D03*
X0204364Y0320596D03*
X0207081Y0328274D03*
X0212986Y0319730D03*
X0219325Y0317486D03*
X0220191Y0321463D03*
X0311224Y0316443D03*
X0323114Y0318096D03*
X0325831Y0325774D03*
X0331736Y0317230D03*
X0338075Y0314986D03*
X0338941Y0318963D03*
X0325831Y0128774D03*
X0323114Y0121096D03*
X0331736Y0120230D03*
X0338075Y0117986D03*
X0338941Y0121963D03*
X0311224Y0119443D03*
X0220191Y0124463D03*
X0219325Y0120486D03*
X0212986Y0122730D03*
X0207081Y0131274D03*
X0204364Y0123596D03*
X0192474Y0121943D03*
X0081441Y0136963D03*
X0080575Y0132986D03*
X0074236Y0135230D03*
X0065614Y0136096D03*
X0068331Y0143774D03*
X0053724Y0134443D03*
D20*
X0054118Y0134541D03*
X0063764Y0134344D03*
X0069000Y0143478D03*
X0068803Y0143675D03*
X0081244Y0136195D03*
X0192868Y0122041D03*
X0202514Y0121844D03*
X0207750Y0130978D03*
X0207553Y0131175D03*
X0219994Y0123695D03*
X0311618Y0119541D03*
X0321264Y0119344D03*
X0326500Y0128478D03*
X0326303Y0128675D03*
X0338744Y0121195D03*
X0321264Y0316344D03*
X0311618Y0316541D03*
X0326303Y0325675D03*
X0326500Y0325478D03*
X0338744Y0318195D03*
X0219994Y0320695D03*
X0207750Y0327978D03*
X0207553Y0328175D03*
X0202514Y0318844D03*
X0192868Y0319041D03*
X0081244Y0333195D03*
X0069000Y0340478D03*
X0068803Y0340675D03*
X0063764Y0331344D03*
X0054118Y0331541D03*
D21*
X0068902Y0340577D03*
X0073665Y0331837D03*
X0207652Y0328077D03*
X0212415Y0319337D03*
X0326402Y0325577D03*
X0331165Y0316837D03*
X0326402Y0128577D03*
X0331165Y0119837D03*
X0212415Y0122337D03*
X0207652Y0131077D03*
X0073665Y0134837D03*
X0068902Y0143577D03*
D22*
X0070850Y0143478D03*
X0209600Y0130978D03*
X0328350Y0128478D03*
X0328350Y0325478D03*
X0209600Y0327978D03*
X0070850Y0340478D03*
D23*
X0069689Y0340380D03*
X0066657Y0331837D03*
X0072406Y0328726D03*
X0079020Y0335813D03*
X0205407Y0319337D03*
X0211156Y0316226D03*
X0217770Y0323313D03*
X0208439Y0327880D03*
X0324157Y0316837D03*
X0329906Y0313726D03*
X0336520Y0320813D03*
X0327189Y0325380D03*
X0327189Y0128380D03*
X0324157Y0119837D03*
X0329906Y0116726D03*
X0336520Y0123813D03*
X0217770Y0126313D03*
X0211156Y0119226D03*
X0205407Y0122337D03*
X0208439Y0130880D03*
X0079020Y0138813D03*
X0072406Y0131726D03*
X0066657Y0134837D03*
X0069689Y0143380D03*
D24*
X0072465Y0143301D03*
X0081402Y0138616D03*
X0081480Y0138537D03*
X0081480Y0138341D03*
X0081992Y0133380D03*
X0071756Y0130073D03*
X0064079Y0135703D03*
X0059315Y0135033D03*
X0198065Y0122533D03*
X0202829Y0123203D03*
X0210506Y0117573D03*
X0220742Y0120880D03*
X0220230Y0125841D03*
X0220230Y0126037D03*
X0220152Y0126116D03*
X0211215Y0130801D03*
X0316815Y0120033D03*
X0321579Y0120703D03*
X0329256Y0115073D03*
X0338980Y0123341D03*
X0338980Y0123537D03*
X0338902Y0123616D03*
X0339492Y0118380D03*
X0329965Y0128301D03*
X0329256Y0312073D03*
X0321579Y0317703D03*
X0316815Y0317033D03*
X0329965Y0325301D03*
X0338902Y0320616D03*
X0338980Y0320537D03*
X0338980Y0320341D03*
X0339492Y0315380D03*
X0220742Y0317880D03*
X0220230Y0322841D03*
X0220230Y0323037D03*
X0220152Y0323116D03*
X0211215Y0327801D03*
X0202829Y0320203D03*
X0198065Y0319533D03*
X0210506Y0314573D03*
X0081992Y0330380D03*
X0081480Y0335341D03*
X0081480Y0335537D03*
X0081402Y0335616D03*
X0072465Y0340301D03*
X0064079Y0332703D03*
X0059315Y0332033D03*
X0071756Y0327073D03*
D25*
X0078331Y0333884D03*
X0078921Y0336010D03*
X0069866Y0340301D03*
X0208616Y0327801D03*
X0217671Y0323510D03*
X0217081Y0321384D03*
X0327366Y0325301D03*
X0336421Y0321010D03*
X0335831Y0318884D03*
X0327366Y0128301D03*
X0336421Y0124010D03*
X0335831Y0121884D03*
X0217671Y0126510D03*
X0217081Y0124384D03*
X0208616Y0130801D03*
X0078921Y0139010D03*
X0078331Y0136884D03*
X0069866Y0143301D03*
D26*
X0072307Y0143203D03*
X0071126Y0135329D03*
X0209876Y0122829D03*
X0211057Y0130703D03*
X0328626Y0120329D03*
X0329807Y0128203D03*
X0328626Y0317329D03*
X0329807Y0325203D03*
X0211057Y0327703D03*
X0209876Y0319829D03*
X0072307Y0340203D03*
X0071126Y0332329D03*
D27*
X0072012Y0328037D03*
X0080673Y0332604D03*
X0079020Y0335911D03*
X0069965Y0340203D03*
X0208715Y0327703D03*
X0217770Y0323411D03*
X0219423Y0320104D03*
X0210762Y0315537D03*
X0327465Y0325203D03*
X0336520Y0320911D03*
X0338173Y0317604D03*
X0329512Y0313037D03*
X0327465Y0128203D03*
X0336520Y0123911D03*
X0338173Y0120604D03*
X0329512Y0116037D03*
X0219423Y0123104D03*
X0217770Y0126411D03*
X0208715Y0130703D03*
X0210762Y0118537D03*
X0080673Y0135604D03*
X0079020Y0138911D03*
X0069965Y0143203D03*
X0072012Y0131037D03*
D28*
X0070693Y0143104D03*
X0209443Y0130604D03*
X0328193Y0128104D03*
X0328193Y0325104D03*
X0209443Y0327604D03*
X0070693Y0340104D03*
D29*
X0074059Y0340006D03*
X0081933Y0330478D03*
X0212809Y0327506D03*
X0220683Y0317978D03*
X0331559Y0325006D03*
X0339433Y0315478D03*
X0331559Y0128006D03*
X0339433Y0118478D03*
X0220683Y0120978D03*
X0212809Y0130506D03*
X0081933Y0133478D03*
X0074059Y0143006D03*
D30*
X0070791Y0143006D03*
X0209541Y0130506D03*
X0328291Y0128006D03*
X0328291Y0325006D03*
X0209541Y0327506D03*
X0070791Y0340006D03*
D31*
X0074020Y0339907D03*
X0081500Y0334356D03*
X0076618Y0332703D03*
X0067681Y0337073D03*
X0206431Y0324573D03*
X0212770Y0327407D03*
X0215368Y0320203D03*
X0220250Y0321856D03*
X0325181Y0322073D03*
X0331520Y0324907D03*
X0339000Y0319356D03*
X0334118Y0317703D03*
X0331520Y0127907D03*
X0325181Y0125073D03*
X0334118Y0120703D03*
X0339000Y0122356D03*
X0220250Y0124856D03*
X0215368Y0123203D03*
X0212770Y0130407D03*
X0206431Y0127573D03*
X0081500Y0137356D03*
X0076618Y0135703D03*
X0074020Y0142907D03*
X0067681Y0140073D03*
D32*
X0070988Y0142907D03*
X0209738Y0130407D03*
X0328488Y0127907D03*
X0328488Y0324907D03*
X0209738Y0327407D03*
X0070988Y0339907D03*
D33*
X0071717Y0339809D03*
X0210467Y0327309D03*
X0329217Y0324809D03*
X0329217Y0127809D03*
X0210467Y0130309D03*
X0071717Y0142809D03*
D34*
X0071874Y0142711D03*
X0210624Y0130211D03*
X0329374Y0127711D03*
X0329374Y0324711D03*
X0210624Y0327211D03*
X0071874Y0339711D03*
D35*
X0075555Y0339612D03*
X0081500Y0335242D03*
X0081500Y0335045D03*
X0081972Y0330675D03*
X0071776Y0327171D03*
X0063980Y0332801D03*
X0059217Y0332132D03*
X0056815Y0331738D03*
X0195565Y0319238D03*
X0197967Y0319632D03*
X0202730Y0320301D03*
X0210526Y0314671D03*
X0220722Y0318175D03*
X0220250Y0322545D03*
X0220250Y0322742D03*
X0214305Y0327112D03*
X0314315Y0316738D03*
X0316717Y0317132D03*
X0321480Y0317801D03*
X0329276Y0312171D03*
X0339000Y0320045D03*
X0339000Y0320242D03*
X0339472Y0315675D03*
X0333055Y0324612D03*
X0333055Y0127612D03*
X0339000Y0123242D03*
X0339000Y0123045D03*
X0339472Y0118675D03*
X0329276Y0115171D03*
X0321480Y0120801D03*
X0316717Y0120132D03*
X0314315Y0119738D03*
X0220722Y0121175D03*
X0220250Y0125545D03*
X0220250Y0125742D03*
X0214305Y0130112D03*
X0210526Y0117671D03*
X0202730Y0123301D03*
X0197967Y0122632D03*
X0195565Y0122238D03*
X0081972Y0133675D03*
X0081500Y0138045D03*
X0081500Y0138242D03*
X0075555Y0142612D03*
X0063980Y0135801D03*
X0059217Y0135132D03*
X0056815Y0134738D03*
X0071776Y0130171D03*
D36*
X0072012Y0142612D03*
X0210762Y0130112D03*
X0329512Y0127612D03*
X0329512Y0324612D03*
X0210762Y0327112D03*
X0072012Y0339612D03*
D37*
X0072661Y0339514D03*
X0061165Y0333490D03*
X0199915Y0320990D03*
X0211411Y0327014D03*
X0318665Y0318490D03*
X0330161Y0324514D03*
X0330161Y0127514D03*
X0318665Y0121490D03*
X0211411Y0130014D03*
X0199915Y0123990D03*
X0072661Y0142514D03*
X0061165Y0136490D03*
D38*
X0072799Y0142415D03*
X0073075Y0142219D03*
X0211549Y0129915D03*
X0211825Y0129719D03*
X0330299Y0127415D03*
X0330575Y0127219D03*
X0330575Y0324219D03*
X0330299Y0324415D03*
X0211825Y0326719D03*
X0211549Y0326915D03*
X0073075Y0339219D03*
X0072799Y0339415D03*
D39*
X0072996Y0339317D03*
X0073862Y0335144D03*
X0211746Y0326817D03*
X0212612Y0322644D03*
X0330496Y0324317D03*
X0331362Y0320144D03*
X0330496Y0127317D03*
X0331362Y0123144D03*
X0212612Y0125644D03*
X0211746Y0129817D03*
X0073862Y0138144D03*
X0072996Y0142317D03*
D40*
X0077327Y0142120D03*
X0081500Y0138144D03*
X0081972Y0133577D03*
X0071382Y0135506D03*
X0210132Y0123006D03*
X0216077Y0129620D03*
X0220250Y0125644D03*
X0220722Y0121077D03*
X0328882Y0120506D03*
X0334827Y0127120D03*
X0339000Y0123144D03*
X0339472Y0118577D03*
X0339472Y0315577D03*
X0339000Y0320144D03*
X0334827Y0324120D03*
X0328882Y0317506D03*
X0220722Y0318077D03*
X0220250Y0322644D03*
X0216077Y0326620D03*
X0210132Y0320006D03*
X0081972Y0330577D03*
X0081500Y0335144D03*
X0077327Y0339120D03*
X0071382Y0332506D03*
D41*
X0073232Y0339120D03*
X0076146Y0338057D03*
X0211982Y0326620D03*
X0214896Y0325557D03*
X0330732Y0324120D03*
X0333646Y0323057D03*
X0214896Y0128557D03*
X0211982Y0129620D03*
X0330732Y0127120D03*
X0333646Y0126057D03*
X0076146Y0141057D03*
X0073232Y0142120D03*
D42*
X0073961Y0142022D03*
X0212711Y0129522D03*
X0331461Y0127022D03*
X0331461Y0324022D03*
X0212711Y0326522D03*
X0073961Y0339022D03*
D43*
X0074098Y0338923D03*
X0212848Y0326423D03*
X0331598Y0323923D03*
X0212848Y0129423D03*
X0331598Y0126923D03*
X0074098Y0141923D03*
D44*
X0074295Y0141825D03*
X0213045Y0129325D03*
X0331795Y0126825D03*
X0331795Y0323825D03*
X0213045Y0326325D03*
X0074295Y0338825D03*
D45*
X0074492Y0338726D03*
X0213242Y0326226D03*
X0331992Y0323726D03*
X0213242Y0129226D03*
X0331992Y0126726D03*
X0074492Y0141726D03*
D46*
X0074689Y0141648D03*
X0075752Y0141254D03*
X0213439Y0129148D03*
X0214502Y0128754D03*
X0332189Y0126648D03*
X0333252Y0126254D03*
X0333252Y0323254D03*
X0332189Y0323648D03*
X0214502Y0325754D03*
X0213439Y0326148D03*
X0075752Y0338254D03*
X0074689Y0338648D03*
D47*
X0075024Y0338549D03*
X0213774Y0326049D03*
X0332524Y0323549D03*
X0213774Y0129049D03*
X0332524Y0126549D03*
X0075024Y0141549D03*
D48*
X0075358Y0141451D03*
X0060870Y0136293D03*
X0199620Y0123793D03*
X0214108Y0128951D03*
X0318370Y0121293D03*
X0332858Y0126451D03*
X0318370Y0318293D03*
X0332858Y0323451D03*
X0214108Y0325951D03*
X0199620Y0320793D03*
X0075358Y0338451D03*
X0060870Y0333293D03*
D49*
X0073803Y0335045D03*
X0075575Y0338352D03*
X0212553Y0322545D03*
X0214325Y0325852D03*
X0331303Y0320045D03*
X0333075Y0323352D03*
X0214325Y0128852D03*
X0212553Y0125545D03*
X0331303Y0123045D03*
X0333075Y0126352D03*
X0075575Y0141352D03*
X0073803Y0138045D03*
D50*
X0075949Y0141156D03*
X0214699Y0128656D03*
X0333449Y0126156D03*
X0333449Y0323156D03*
X0214699Y0325656D03*
X0075949Y0338156D03*
D51*
X0076283Y0337959D03*
X0064630Y0334652D03*
X0203380Y0322152D03*
X0215033Y0325459D03*
X0322130Y0319652D03*
X0333783Y0322959D03*
X0215033Y0128459D03*
X0203380Y0125152D03*
X0322130Y0122652D03*
X0333783Y0125959D03*
X0076283Y0140959D03*
X0064630Y0137652D03*
D52*
X0061520Y0136687D03*
X0076480Y0140860D03*
X0200270Y0124187D03*
X0215230Y0128360D03*
X0319020Y0121687D03*
X0333980Y0125860D03*
X0319020Y0318687D03*
X0333980Y0322860D03*
X0215230Y0325360D03*
X0200270Y0321187D03*
X0076480Y0337860D03*
X0061520Y0333687D03*
D53*
X0061717Y0333785D03*
X0076677Y0337762D03*
X0200467Y0321285D03*
X0215427Y0325262D03*
X0319217Y0318785D03*
X0334177Y0322762D03*
X0215427Y0128262D03*
X0200467Y0124285D03*
X0319217Y0121785D03*
X0334177Y0125762D03*
X0076677Y0140762D03*
X0061717Y0136785D03*
D54*
X0061913Y0136884D03*
X0076874Y0140663D03*
X0200663Y0124384D03*
X0215624Y0128163D03*
X0319413Y0121884D03*
X0334374Y0125663D03*
X0319413Y0318884D03*
X0334374Y0322663D03*
X0215624Y0325163D03*
X0200663Y0321384D03*
X0076874Y0337663D03*
X0061913Y0333884D03*
D55*
X0067740Y0332998D03*
X0077071Y0337565D03*
X0206490Y0320498D03*
X0215821Y0325065D03*
X0325240Y0317998D03*
X0334571Y0322565D03*
X0215821Y0128065D03*
X0206490Y0123498D03*
X0325240Y0120998D03*
X0334571Y0125565D03*
X0077071Y0140565D03*
X0067740Y0135998D03*
D56*
X0067701Y0135900D03*
X0062150Y0136963D03*
X0077228Y0140467D03*
X0200900Y0124463D03*
X0206451Y0123400D03*
X0215978Y0127967D03*
X0319650Y0121963D03*
X0325201Y0120900D03*
X0334728Y0125467D03*
X0325201Y0317900D03*
X0319650Y0318963D03*
X0334728Y0322467D03*
X0215978Y0324967D03*
X0206451Y0320400D03*
X0200900Y0321463D03*
X0077228Y0337467D03*
X0067701Y0332900D03*
X0062150Y0333963D03*
D57*
X0077406Y0337368D03*
X0216156Y0324868D03*
X0334906Y0322368D03*
X0216156Y0127868D03*
X0334906Y0125368D03*
X0077406Y0140368D03*
D58*
X0077543Y0140270D03*
X0076677Y0133380D03*
X0215427Y0120880D03*
X0216293Y0127770D03*
X0334177Y0118380D03*
X0335043Y0125270D03*
X0334177Y0315380D03*
X0335043Y0322270D03*
X0216293Y0324770D03*
X0215427Y0317880D03*
X0077543Y0337270D03*
X0076677Y0330380D03*
D59*
X0077760Y0337171D03*
X0058114Y0332801D03*
X0196864Y0320301D03*
X0216510Y0324671D03*
X0315614Y0317801D03*
X0335260Y0322171D03*
X0216510Y0127671D03*
X0196864Y0123301D03*
X0315614Y0120801D03*
X0335260Y0125171D03*
X0077760Y0140171D03*
X0058114Y0135801D03*
D60*
X0077898Y0140073D03*
X0216648Y0127573D03*
X0335398Y0125073D03*
X0335398Y0322073D03*
X0216648Y0324573D03*
X0077898Y0337073D03*
D61*
X0078035Y0336994D03*
X0073941Y0335537D03*
X0068508Y0333096D03*
X0066972Y0332230D03*
X0066776Y0335616D03*
X0205526Y0323116D03*
X0207258Y0320596D03*
X0205722Y0319730D03*
X0212691Y0323037D03*
X0216785Y0324494D03*
X0324276Y0320616D03*
X0326008Y0318096D03*
X0324472Y0317230D03*
X0331441Y0320537D03*
X0335535Y0321994D03*
X0216785Y0127494D03*
X0212691Y0126037D03*
X0207258Y0123596D03*
X0205722Y0122730D03*
X0205526Y0126116D03*
X0324276Y0123616D03*
X0326008Y0121096D03*
X0324472Y0120230D03*
X0331441Y0123537D03*
X0335535Y0124994D03*
X0078035Y0139994D03*
X0073941Y0138537D03*
X0068508Y0136096D03*
X0066972Y0135230D03*
X0066776Y0138616D03*
D62*
X0067681Y0139994D03*
X0077012Y0135900D03*
X0072248Y0130270D03*
X0206431Y0127494D03*
X0215762Y0123400D03*
X0210998Y0117770D03*
X0325181Y0124994D03*
X0334512Y0120900D03*
X0329748Y0115270D03*
X0329748Y0312270D03*
X0334512Y0317900D03*
X0325181Y0321994D03*
X0215762Y0320400D03*
X0210998Y0314770D03*
X0206431Y0324494D03*
X0077012Y0332900D03*
X0072248Y0327270D03*
X0067681Y0336994D03*
D63*
X0078193Y0336896D03*
X0216943Y0324396D03*
X0335693Y0321896D03*
X0216943Y0127396D03*
X0335693Y0124896D03*
X0078193Y0139896D03*
D64*
X0077248Y0135998D03*
X0081461Y0135132D03*
X0070555Y0134738D03*
X0067642Y0139896D03*
X0063547Y0134541D03*
X0063075Y0134935D03*
X0201825Y0122435D03*
X0202297Y0122041D03*
X0209305Y0122238D03*
X0215998Y0123498D03*
X0220211Y0122632D03*
X0206392Y0127396D03*
X0320575Y0119935D03*
X0321047Y0119541D03*
X0325142Y0124896D03*
X0328055Y0119738D03*
X0334748Y0120998D03*
X0338961Y0120132D03*
X0328055Y0316738D03*
X0325142Y0321896D03*
X0321047Y0316541D03*
X0320575Y0316935D03*
X0334748Y0317998D03*
X0338961Y0317132D03*
X0220211Y0319632D03*
X0215998Y0320498D03*
X0209305Y0319238D03*
X0206392Y0324396D03*
X0202297Y0319041D03*
X0201825Y0319435D03*
X0081461Y0332132D03*
X0077248Y0332998D03*
X0070555Y0331738D03*
X0067642Y0336896D03*
X0063547Y0331541D03*
X0063075Y0331935D03*
D65*
X0055142Y0331837D03*
X0078291Y0336797D03*
X0193892Y0319337D03*
X0217041Y0324297D03*
X0312642Y0316837D03*
X0335791Y0321797D03*
X0217041Y0127297D03*
X0193892Y0122337D03*
X0078291Y0139797D03*
X0055142Y0134837D03*
X0312642Y0119837D03*
X0335791Y0124797D03*
D66*
X0334945Y0121096D03*
X0325142Y0124797D03*
X0311638Y0119640D03*
X0216195Y0123596D03*
X0206392Y0127297D03*
X0192888Y0122140D03*
X0077445Y0136096D03*
X0067642Y0139797D03*
X0054138Y0134640D03*
X0192888Y0319140D03*
X0206392Y0324297D03*
X0216195Y0320596D03*
X0311638Y0316640D03*
X0325142Y0321797D03*
X0334945Y0318096D03*
X0077445Y0333096D03*
X0067642Y0336797D03*
X0054138Y0331640D03*
D67*
X0055594Y0332132D03*
X0067051Y0335911D03*
X0068902Y0333195D03*
X0076579Y0329888D03*
X0078429Y0336699D03*
X0194344Y0319632D03*
X0205801Y0323411D03*
X0207652Y0320695D03*
X0215329Y0317388D03*
X0217179Y0324199D03*
X0313094Y0317132D03*
X0324551Y0320911D03*
X0326402Y0318195D03*
X0334079Y0314888D03*
X0335929Y0321699D03*
X0335929Y0124699D03*
X0334079Y0117888D03*
X0326402Y0121195D03*
X0324551Y0123911D03*
X0313094Y0120132D03*
X0217179Y0127199D03*
X0215329Y0120388D03*
X0207652Y0123695D03*
X0205801Y0126411D03*
X0194344Y0122632D03*
X0078429Y0139699D03*
X0076579Y0132888D03*
X0068902Y0136195D03*
X0067051Y0138911D03*
X0055594Y0135132D03*
D68*
X0067642Y0139699D03*
X0206392Y0127199D03*
X0325142Y0124699D03*
X0325142Y0321699D03*
X0206392Y0324199D03*
X0067642Y0336699D03*
D69*
X0067150Y0336010D03*
X0069472Y0333490D03*
X0077346Y0331640D03*
X0078528Y0336600D03*
X0205900Y0323510D03*
X0208222Y0320990D03*
X0216096Y0319140D03*
X0217278Y0324100D03*
X0324650Y0321010D03*
X0326972Y0318490D03*
X0334846Y0316640D03*
X0336028Y0321600D03*
X0336028Y0124600D03*
X0334846Y0119640D03*
X0326972Y0121490D03*
X0324650Y0124010D03*
X0217278Y0127100D03*
X0216096Y0122140D03*
X0208222Y0123990D03*
X0205900Y0126510D03*
X0078528Y0139600D03*
X0077346Y0134640D03*
X0069472Y0136490D03*
X0067150Y0139010D03*
D70*
X0067543Y0139600D03*
X0080181Y0132120D03*
X0206293Y0127100D03*
X0218931Y0119620D03*
X0325043Y0124600D03*
X0337681Y0117120D03*
X0337681Y0314120D03*
X0325043Y0321600D03*
X0218931Y0316620D03*
X0206293Y0324100D03*
X0080181Y0329120D03*
X0067543Y0336600D03*
D71*
X0078567Y0336502D03*
X0076520Y0329691D03*
X0215270Y0317191D03*
X0217317Y0324002D03*
X0334020Y0314691D03*
X0336067Y0321502D03*
X0336067Y0124502D03*
X0334020Y0117691D03*
X0217317Y0127002D03*
X0215270Y0120191D03*
X0078567Y0139502D03*
X0076520Y0132691D03*
D72*
X0072661Y0132022D03*
X0071953Y0130841D03*
X0067504Y0139502D03*
X0206254Y0127002D03*
X0211411Y0119522D03*
X0210703Y0118341D03*
X0325004Y0124502D03*
X0330161Y0117022D03*
X0329453Y0115841D03*
X0329453Y0312841D03*
X0330161Y0314022D03*
X0325004Y0321502D03*
X0211411Y0316522D03*
X0210703Y0315341D03*
X0206254Y0324002D03*
X0072661Y0329022D03*
X0071953Y0327841D03*
X0067504Y0336502D03*
D73*
X0073921Y0335616D03*
X0078685Y0336404D03*
X0212671Y0323116D03*
X0217435Y0323904D03*
X0331421Y0320616D03*
X0336185Y0321404D03*
X0336185Y0124404D03*
X0331421Y0123616D03*
X0217435Y0126904D03*
X0212671Y0126116D03*
X0078685Y0139404D03*
X0073921Y0138616D03*
D74*
X0076579Y0132199D03*
X0067445Y0139404D03*
X0062091Y0135230D03*
X0200841Y0122730D03*
X0206195Y0126904D03*
X0215329Y0119699D03*
X0319591Y0120230D03*
X0324945Y0124404D03*
X0334079Y0117199D03*
X0334079Y0314199D03*
X0324945Y0321404D03*
X0319591Y0317230D03*
X0215329Y0316699D03*
X0206195Y0323904D03*
X0200841Y0319730D03*
X0076579Y0329199D03*
X0067445Y0336404D03*
X0062091Y0332230D03*
D75*
X0055909Y0331541D03*
X0054965Y0331344D03*
X0053311Y0331148D03*
X0081185Y0336305D03*
X0081303Y0336108D03*
X0081972Y0330085D03*
X0192061Y0318648D03*
X0193715Y0318844D03*
X0194659Y0319041D03*
X0219935Y0323805D03*
X0220053Y0323608D03*
X0220722Y0317585D03*
X0310811Y0316148D03*
X0312465Y0316344D03*
X0313409Y0316541D03*
X0338685Y0321305D03*
X0338803Y0321108D03*
X0339472Y0315085D03*
X0338685Y0124305D03*
X0338803Y0124108D03*
X0339472Y0118085D03*
X0313409Y0119541D03*
X0312465Y0119344D03*
X0310811Y0119148D03*
X0220722Y0120585D03*
X0220053Y0126608D03*
X0219935Y0126805D03*
X0194659Y0122041D03*
X0193715Y0121844D03*
X0192061Y0121648D03*
X0081972Y0133085D03*
X0081303Y0139108D03*
X0081185Y0139305D03*
X0055909Y0134541D03*
X0054965Y0134344D03*
X0053311Y0134148D03*
D76*
X0076539Y0132494D03*
X0078783Y0139305D03*
X0215289Y0119994D03*
X0217533Y0126805D03*
X0334039Y0117494D03*
X0336283Y0124305D03*
X0334039Y0314494D03*
X0336283Y0321305D03*
X0217533Y0323805D03*
X0215289Y0316994D03*
X0078783Y0336305D03*
X0076539Y0329494D03*
D77*
X0076520Y0329297D03*
X0072346Y0328628D03*
X0067386Y0336305D03*
X0062150Y0332132D03*
X0054669Y0331738D03*
X0078882Y0336108D03*
X0193419Y0319238D03*
X0200900Y0319632D03*
X0206136Y0323805D03*
X0211096Y0316128D03*
X0215270Y0316797D03*
X0217632Y0323608D03*
X0312169Y0316738D03*
X0319650Y0317132D03*
X0324886Y0321305D03*
X0329846Y0313628D03*
X0334020Y0314297D03*
X0336382Y0321108D03*
X0336382Y0124108D03*
X0334020Y0117297D03*
X0329846Y0116628D03*
X0324886Y0124305D03*
X0319650Y0120132D03*
X0312169Y0119738D03*
X0217632Y0126608D03*
X0215270Y0119797D03*
X0211096Y0119128D03*
X0206136Y0126805D03*
X0200900Y0122632D03*
X0193419Y0122238D03*
X0078882Y0139108D03*
X0076520Y0132297D03*
X0072346Y0131628D03*
X0067386Y0139305D03*
X0062150Y0135132D03*
X0054669Y0134738D03*
D78*
X0078823Y0139207D03*
X0217573Y0126707D03*
X0336323Y0124207D03*
X0336323Y0321207D03*
X0217573Y0323707D03*
X0078823Y0336207D03*
D79*
X0076539Y0329593D03*
X0067287Y0336207D03*
X0062130Y0332033D03*
X0200880Y0319533D03*
X0206037Y0323707D03*
X0215289Y0317093D03*
X0319630Y0317033D03*
X0324787Y0321207D03*
X0334039Y0314593D03*
X0324787Y0124207D03*
X0334039Y0117593D03*
X0319630Y0120033D03*
X0215289Y0120093D03*
X0206037Y0126707D03*
X0200880Y0122533D03*
X0076539Y0132593D03*
X0067287Y0139207D03*
X0062130Y0135033D03*
D80*
X0066776Y0134935D03*
X0067248Y0139108D03*
X0077563Y0134738D03*
X0205526Y0122435D03*
X0205998Y0126608D03*
X0216313Y0122238D03*
X0324276Y0119935D03*
X0324748Y0124108D03*
X0335063Y0119738D03*
X0335063Y0316738D03*
X0324748Y0321108D03*
X0324276Y0316935D03*
X0216313Y0319238D03*
X0205526Y0319435D03*
X0205998Y0323608D03*
X0077563Y0331738D03*
X0066776Y0331935D03*
X0067248Y0336108D03*
D81*
X0065161Y0333293D03*
X0071579Y0332703D03*
X0071854Y0326876D03*
X0080043Y0327467D03*
X0081303Y0336010D03*
X0054650Y0330774D03*
X0053783Y0330577D03*
X0053311Y0331246D03*
X0192061Y0318746D03*
X0192533Y0318077D03*
X0193400Y0318274D03*
X0203911Y0320793D03*
X0210329Y0320203D03*
X0210604Y0314376D03*
X0218793Y0314967D03*
X0220053Y0323510D03*
X0310811Y0316246D03*
X0311283Y0315577D03*
X0312150Y0315774D03*
X0322661Y0318293D03*
X0329079Y0317703D03*
X0329354Y0311876D03*
X0337543Y0312467D03*
X0338803Y0321010D03*
X0338803Y0124010D03*
X0337543Y0115467D03*
X0329354Y0114876D03*
X0329079Y0120703D03*
X0322661Y0121293D03*
X0312150Y0118774D03*
X0311283Y0118577D03*
X0310811Y0119246D03*
X0220053Y0126510D03*
X0218793Y0117967D03*
X0210604Y0117376D03*
X0210329Y0123203D03*
X0203911Y0123793D03*
X0193400Y0121274D03*
X0192533Y0121077D03*
X0192061Y0121746D03*
X0081303Y0139010D03*
X0080043Y0130467D03*
X0071854Y0129876D03*
X0071579Y0135703D03*
X0065161Y0136293D03*
X0054650Y0133774D03*
X0053783Y0133577D03*
X0053311Y0134246D03*
D82*
X0071815Y0129974D03*
X0072799Y0129974D03*
X0080870Y0130565D03*
X0081343Y0138911D03*
X0210565Y0117474D03*
X0211549Y0117474D03*
X0219620Y0118065D03*
X0220093Y0126411D03*
X0329315Y0114974D03*
X0330299Y0114974D03*
X0338370Y0115565D03*
X0338843Y0123911D03*
X0330299Y0311974D03*
X0329315Y0311974D03*
X0338370Y0312565D03*
X0338843Y0320911D03*
X0220093Y0323411D03*
X0219620Y0315065D03*
X0211549Y0314474D03*
X0210565Y0314474D03*
X0080870Y0327565D03*
X0072799Y0326974D03*
X0071815Y0326974D03*
X0081343Y0335911D03*
D83*
X0074157Y0335813D03*
X0074551Y0332427D03*
X0059197Y0332230D03*
X0197947Y0319730D03*
X0213301Y0319927D03*
X0212907Y0323313D03*
X0316697Y0317230D03*
X0332051Y0317427D03*
X0331657Y0320813D03*
X0331657Y0123813D03*
X0332051Y0120427D03*
X0316697Y0120230D03*
X0213301Y0122927D03*
X0212907Y0126313D03*
X0197947Y0122730D03*
X0074551Y0135427D03*
X0074157Y0138813D03*
X0059197Y0135230D03*
D84*
X0067012Y0138813D03*
X0205762Y0126313D03*
X0324512Y0123813D03*
X0324512Y0320813D03*
X0205762Y0323313D03*
X0067012Y0335813D03*
D85*
X0071480Y0332604D03*
X0072661Y0332604D03*
X0080024Y0327565D03*
X0081992Y0330281D03*
X0081480Y0335439D03*
X0081402Y0335715D03*
X0057583Y0331148D03*
X0056520Y0330951D03*
X0195270Y0318451D03*
X0196333Y0318648D03*
X0210230Y0320104D03*
X0211411Y0320104D03*
X0218774Y0315065D03*
X0220742Y0317781D03*
X0220230Y0322939D03*
X0220152Y0323215D03*
X0314020Y0315951D03*
X0315083Y0316148D03*
X0328980Y0317604D03*
X0330161Y0317604D03*
X0337524Y0312565D03*
X0339492Y0315281D03*
X0338980Y0320439D03*
X0338902Y0320715D03*
X0338902Y0123715D03*
X0338980Y0123439D03*
X0339492Y0118281D03*
X0337524Y0115565D03*
X0330161Y0120604D03*
X0328980Y0120604D03*
X0315083Y0119148D03*
X0314020Y0118951D03*
X0220742Y0120781D03*
X0218774Y0118065D03*
X0220230Y0125939D03*
X0220152Y0126215D03*
X0211411Y0123104D03*
X0210230Y0123104D03*
X0196333Y0121648D03*
X0195270Y0121451D03*
X0081992Y0133281D03*
X0080024Y0130565D03*
X0081480Y0138439D03*
X0081402Y0138715D03*
X0072661Y0135604D03*
X0071480Y0135604D03*
X0057583Y0134148D03*
X0056520Y0133951D03*
D86*
X0078075Y0134935D03*
X0079059Y0138715D03*
X0216825Y0122435D03*
X0217809Y0126215D03*
X0335575Y0119935D03*
X0336559Y0123715D03*
X0335575Y0316935D03*
X0336559Y0320715D03*
X0217809Y0323215D03*
X0216825Y0319435D03*
X0079059Y0335715D03*
X0078075Y0331935D03*
D87*
X0080909Y0332801D03*
X0080122Y0329022D03*
X0080122Y0328825D03*
X0080122Y0328431D03*
X0074020Y0335715D03*
X0063980Y0330951D03*
X0202730Y0318451D03*
X0212770Y0323215D03*
X0219659Y0320301D03*
X0218872Y0316522D03*
X0218872Y0316325D03*
X0218872Y0315931D03*
X0321480Y0315951D03*
X0331520Y0320715D03*
X0338409Y0317801D03*
X0337622Y0314022D03*
X0337622Y0313825D03*
X0337622Y0313431D03*
X0331520Y0123715D03*
X0338409Y0120801D03*
X0337622Y0117022D03*
X0337622Y0116825D03*
X0337622Y0116431D03*
X0321480Y0118951D03*
X0219659Y0123301D03*
X0218872Y0119522D03*
X0218872Y0119325D03*
X0218872Y0118931D03*
X0212770Y0126215D03*
X0202730Y0121451D03*
X0080909Y0135801D03*
X0080122Y0132022D03*
X0080122Y0131825D03*
X0080122Y0131431D03*
X0074020Y0138715D03*
X0063980Y0133951D03*
D88*
X0066874Y0135132D03*
X0066874Y0138715D03*
X0059276Y0133951D03*
X0198026Y0121451D03*
X0205624Y0122632D03*
X0205624Y0126215D03*
X0316776Y0118951D03*
X0324374Y0120132D03*
X0324374Y0123715D03*
X0316776Y0315951D03*
X0324374Y0317132D03*
X0324374Y0320715D03*
X0205624Y0319632D03*
X0205624Y0323215D03*
X0198026Y0318451D03*
X0066874Y0332132D03*
X0066874Y0335715D03*
X0059276Y0330951D03*
D89*
X0079118Y0335616D03*
X0217868Y0323116D03*
X0336618Y0320616D03*
X0336618Y0123616D03*
X0217868Y0126116D03*
X0079118Y0138616D03*
D90*
X0079157Y0138537D03*
X0077976Y0136490D03*
X0078370Y0135033D03*
X0080811Y0135703D03*
X0071953Y0130742D03*
X0210703Y0118242D03*
X0217120Y0122533D03*
X0216726Y0123990D03*
X0217907Y0126037D03*
X0219561Y0123203D03*
X0329453Y0115742D03*
X0335870Y0120033D03*
X0335476Y0121490D03*
X0336657Y0123537D03*
X0338311Y0120703D03*
X0329453Y0312742D03*
X0335870Y0317033D03*
X0335476Y0318490D03*
X0336657Y0320537D03*
X0338311Y0317703D03*
X0219561Y0320203D03*
X0217120Y0319533D03*
X0216726Y0320990D03*
X0217907Y0323037D03*
X0210703Y0315242D03*
X0080811Y0332703D03*
X0078370Y0332033D03*
X0077976Y0333490D03*
X0079157Y0335537D03*
X0071953Y0327742D03*
D91*
X0066618Y0335537D03*
X0058941Y0333096D03*
X0058350Y0332900D03*
X0197100Y0320400D03*
X0197691Y0320596D03*
X0205368Y0323037D03*
X0315850Y0317900D03*
X0316441Y0318096D03*
X0324118Y0320537D03*
X0324118Y0123537D03*
X0316441Y0121096D03*
X0315850Y0120900D03*
X0205368Y0126037D03*
X0197691Y0123596D03*
X0197100Y0123400D03*
X0066618Y0138537D03*
X0058941Y0136096D03*
X0058350Y0135900D03*
D92*
X0066559Y0134738D03*
X0072504Y0132494D03*
X0077937Y0136392D03*
X0078724Y0135132D03*
X0079197Y0138439D03*
X0080181Y0131628D03*
X0205309Y0122238D03*
X0211254Y0119994D03*
X0216687Y0123892D03*
X0217474Y0122632D03*
X0217947Y0125939D03*
X0218931Y0119128D03*
X0324059Y0119738D03*
X0330004Y0117494D03*
X0335437Y0121392D03*
X0336224Y0120132D03*
X0336697Y0123439D03*
X0337681Y0116628D03*
X0337681Y0313628D03*
X0336224Y0317132D03*
X0335437Y0318392D03*
X0336697Y0320439D03*
X0330004Y0314494D03*
X0324059Y0316738D03*
X0218931Y0316128D03*
X0217474Y0319632D03*
X0216687Y0320892D03*
X0217947Y0322939D03*
X0211254Y0316994D03*
X0205309Y0319238D03*
X0080181Y0328628D03*
X0078724Y0332132D03*
X0077937Y0333392D03*
X0079197Y0335439D03*
X0072504Y0329494D03*
X0066559Y0331738D03*
D93*
X0067346Y0332604D03*
X0066362Y0335439D03*
X0073961Y0335439D03*
X0076598Y0330478D03*
X0057622Y0332604D03*
X0196372Y0320104D03*
X0205112Y0322939D03*
X0206096Y0320104D03*
X0212711Y0322939D03*
X0215348Y0317978D03*
X0315122Y0317604D03*
X0323862Y0320439D03*
X0324846Y0317604D03*
X0331461Y0320439D03*
X0334098Y0315478D03*
X0331461Y0123439D03*
X0334098Y0118478D03*
X0324846Y0120604D03*
X0323862Y0123439D03*
X0315122Y0120604D03*
X0215348Y0120978D03*
X0212711Y0125939D03*
X0206096Y0123104D03*
X0205112Y0125939D03*
X0196372Y0123104D03*
X0076598Y0133478D03*
X0073961Y0138439D03*
X0067346Y0135604D03*
X0066362Y0138439D03*
X0057622Y0135604D03*
D94*
X0071972Y0130663D03*
X0080122Y0131333D03*
X0080122Y0131530D03*
X0080122Y0131923D03*
X0079256Y0138341D03*
X0210722Y0118163D03*
X0218872Y0118833D03*
X0218872Y0119030D03*
X0218872Y0119423D03*
X0218006Y0125841D03*
X0329472Y0115663D03*
X0337622Y0116333D03*
X0337622Y0116530D03*
X0337622Y0116923D03*
X0336756Y0123341D03*
X0329472Y0312663D03*
X0337622Y0313333D03*
X0337622Y0313530D03*
X0337622Y0313923D03*
X0336756Y0320341D03*
X0218872Y0316423D03*
X0218872Y0316030D03*
X0218872Y0315833D03*
X0218006Y0322841D03*
X0210722Y0315163D03*
X0080122Y0328333D03*
X0080122Y0328530D03*
X0080122Y0328923D03*
X0079256Y0335341D03*
X0071972Y0327663D03*
D95*
X0073862Y0335341D03*
X0212612Y0322841D03*
X0331362Y0320341D03*
X0331362Y0123341D03*
X0212612Y0125841D03*
X0073862Y0138341D03*
D96*
X0076500Y0133577D03*
X0067445Y0135703D03*
X0066185Y0138341D03*
X0204935Y0125841D03*
X0206195Y0123203D03*
X0215250Y0121077D03*
X0323685Y0123341D03*
X0324945Y0120703D03*
X0334000Y0118577D03*
X0334000Y0315577D03*
X0324945Y0317703D03*
X0323685Y0320341D03*
X0215250Y0318077D03*
X0206195Y0320203D03*
X0204935Y0322841D03*
X0076500Y0330577D03*
X0067445Y0332703D03*
X0066185Y0335341D03*
D97*
X0079256Y0335242D03*
X0079256Y0334848D03*
X0081106Y0331344D03*
X0218006Y0322742D03*
X0218006Y0322348D03*
X0219856Y0318844D03*
X0336756Y0319848D03*
X0336756Y0320242D03*
X0338606Y0316344D03*
X0336756Y0123242D03*
X0336756Y0122848D03*
X0338606Y0119344D03*
X0219856Y0121844D03*
X0218006Y0125348D03*
X0218006Y0125742D03*
X0081106Y0134344D03*
X0079256Y0137848D03*
X0079256Y0138242D03*
D98*
X0073862Y0138242D03*
X0065201Y0137848D03*
X0063941Y0137455D03*
X0202691Y0124955D03*
X0203951Y0125348D03*
X0212612Y0125742D03*
X0321441Y0122455D03*
X0322701Y0122848D03*
X0331362Y0123242D03*
X0321441Y0319455D03*
X0322701Y0319848D03*
X0331362Y0320242D03*
X0212612Y0322742D03*
X0203951Y0322348D03*
X0202691Y0321955D03*
X0073862Y0335242D03*
X0065201Y0334848D03*
X0063941Y0334455D03*
D99*
X0063016Y0334258D03*
X0066047Y0335242D03*
X0201766Y0321758D03*
X0204797Y0322742D03*
X0320516Y0319258D03*
X0323547Y0320242D03*
X0323547Y0123242D03*
X0320516Y0122258D03*
X0204797Y0125742D03*
X0201766Y0124758D03*
X0066047Y0138242D03*
X0063016Y0137258D03*
D100*
X0079256Y0138144D03*
X0218006Y0125644D03*
X0336756Y0123144D03*
X0336756Y0320144D03*
X0218006Y0322644D03*
X0079256Y0335144D03*
D101*
X0065831Y0335144D03*
X0204581Y0322644D03*
X0323331Y0320144D03*
X0323331Y0123144D03*
X0204581Y0125644D03*
X0065831Y0138144D03*
D102*
X0077661Y0136195D03*
X0079315Y0138045D03*
X0080181Y0132297D03*
X0216411Y0123695D03*
X0218065Y0125545D03*
X0218931Y0119797D03*
X0335161Y0121195D03*
X0336815Y0123045D03*
X0337681Y0117297D03*
X0337681Y0314297D03*
X0335161Y0318195D03*
X0336815Y0320045D03*
X0218931Y0316797D03*
X0216411Y0320695D03*
X0218065Y0322545D03*
X0080181Y0329297D03*
X0077661Y0333195D03*
X0079315Y0335045D03*
D103*
X0065654Y0335045D03*
X0204404Y0322545D03*
X0323154Y0320045D03*
X0323154Y0123045D03*
X0204404Y0125545D03*
X0065654Y0138045D03*
D104*
X0073370Y0134640D03*
X0079315Y0137947D03*
X0081165Y0134443D03*
X0212120Y0122140D03*
X0218065Y0125447D03*
X0219915Y0121943D03*
X0330870Y0119640D03*
X0336815Y0122947D03*
X0338665Y0119443D03*
X0338665Y0316443D03*
X0336815Y0319947D03*
X0330870Y0316640D03*
X0219915Y0318943D03*
X0218065Y0322447D03*
X0212120Y0319140D03*
X0081165Y0331443D03*
X0079315Y0334947D03*
X0073370Y0331640D03*
D105*
X0073803Y0334947D03*
X0212553Y0322447D03*
X0331303Y0319947D03*
X0331303Y0122947D03*
X0212553Y0125447D03*
X0073803Y0137947D03*
D106*
X0065398Y0137947D03*
X0063547Y0137356D03*
X0202297Y0124856D03*
X0204148Y0125447D03*
X0321047Y0122356D03*
X0322898Y0122947D03*
X0321047Y0319356D03*
X0322898Y0319947D03*
X0204148Y0322447D03*
X0202297Y0321856D03*
X0065398Y0334947D03*
X0063547Y0334356D03*
D107*
X0072681Y0327171D03*
X0076382Y0332604D03*
X0081539Y0334848D03*
X0211431Y0314671D03*
X0215132Y0320104D03*
X0220289Y0322348D03*
X0330181Y0312171D03*
X0333882Y0317604D03*
X0339039Y0319848D03*
X0339039Y0122848D03*
X0333882Y0120604D03*
X0330181Y0115171D03*
X0220289Y0125348D03*
X0215132Y0123104D03*
X0211431Y0117671D03*
X0081539Y0137848D03*
X0076382Y0135604D03*
X0072681Y0130171D03*
D108*
X0073803Y0137848D03*
X0212553Y0125348D03*
X0331303Y0122848D03*
X0331303Y0319848D03*
X0212553Y0322348D03*
X0073803Y0334848D03*
D109*
X0075024Y0334750D03*
X0213774Y0322250D03*
X0332524Y0319750D03*
X0332524Y0122750D03*
X0213774Y0125250D03*
X0075024Y0137750D03*
D110*
X0064925Y0137750D03*
X0203675Y0125250D03*
X0322425Y0122750D03*
X0322425Y0319750D03*
X0203675Y0322250D03*
X0064925Y0334750D03*
D111*
X0081539Y0334652D03*
X0081539Y0334455D03*
X0220289Y0322152D03*
X0220289Y0321955D03*
X0339039Y0319652D03*
X0339039Y0319455D03*
X0339039Y0122652D03*
X0339039Y0122455D03*
X0220289Y0124955D03*
X0220289Y0125152D03*
X0081539Y0137455D03*
X0081539Y0137652D03*
D112*
X0074925Y0137652D03*
X0213675Y0125152D03*
X0332425Y0122652D03*
X0332425Y0319652D03*
X0213675Y0322152D03*
X0074925Y0334652D03*
D113*
X0081539Y0334553D03*
X0220289Y0322053D03*
X0339039Y0319553D03*
X0339039Y0122553D03*
X0220289Y0125053D03*
X0081539Y0137553D03*
D114*
X0074827Y0137553D03*
X0213577Y0125053D03*
X0332327Y0122553D03*
X0332327Y0319553D03*
X0213577Y0322053D03*
X0074827Y0334553D03*
D115*
X0064335Y0334553D03*
X0203085Y0322053D03*
X0321835Y0319553D03*
X0321835Y0122553D03*
X0203085Y0125053D03*
X0064335Y0137553D03*
D116*
X0074748Y0137455D03*
X0213498Y0124955D03*
X0332248Y0122455D03*
X0332248Y0319455D03*
X0213498Y0321955D03*
X0074748Y0334455D03*
D117*
X0074650Y0334356D03*
X0213400Y0321856D03*
X0332150Y0319356D03*
X0332150Y0122356D03*
X0213400Y0124856D03*
X0074650Y0137356D03*
D118*
X0074492Y0137258D03*
X0213242Y0124758D03*
X0331992Y0122258D03*
X0331992Y0319258D03*
X0213242Y0321758D03*
X0074492Y0334258D03*
D119*
X0081480Y0334159D03*
X0057858Y0331049D03*
X0196608Y0318549D03*
X0220230Y0321659D03*
X0315358Y0316049D03*
X0338980Y0319159D03*
X0220230Y0124659D03*
X0196608Y0121549D03*
X0081480Y0137159D03*
X0057858Y0134049D03*
X0315358Y0119049D03*
X0338980Y0122159D03*
D120*
X0331933Y0122159D03*
X0213183Y0124659D03*
X0074433Y0137159D03*
X0213183Y0321659D03*
X0331933Y0319159D03*
X0074433Y0334159D03*
D121*
X0062583Y0334159D03*
X0201333Y0321659D03*
X0320083Y0319159D03*
X0201333Y0124659D03*
X0320083Y0122159D03*
X0062583Y0137159D03*
D122*
X0060693Y0136195D03*
X0076441Y0137061D03*
X0199443Y0123695D03*
X0215191Y0124561D03*
X0318193Y0121195D03*
X0333941Y0122061D03*
X0318193Y0318195D03*
X0333941Y0319061D03*
X0215191Y0321561D03*
X0199443Y0320695D03*
X0076441Y0334061D03*
X0060693Y0333195D03*
D123*
X0070457Y0334061D03*
X0209207Y0321561D03*
X0327957Y0319061D03*
X0209207Y0124561D03*
X0327957Y0122061D03*
X0070457Y0137061D03*
D124*
X0062346Y0137061D03*
X0201096Y0124561D03*
X0319846Y0122061D03*
X0319846Y0319061D03*
X0201096Y0321561D03*
X0062346Y0334061D03*
D125*
X0072150Y0328333D03*
X0072071Y0328136D03*
X0076520Y0329396D03*
X0077780Y0331837D03*
X0078370Y0333963D03*
X0074394Y0333884D03*
X0210821Y0315636D03*
X0210900Y0315833D03*
X0215270Y0316896D03*
X0216530Y0319337D03*
X0217120Y0321463D03*
X0213144Y0321384D03*
X0329571Y0313136D03*
X0329650Y0313333D03*
X0334020Y0314396D03*
X0335280Y0316837D03*
X0335870Y0318963D03*
X0331894Y0318884D03*
X0217120Y0124463D03*
X0216530Y0122337D03*
X0215270Y0119896D03*
X0210900Y0118833D03*
X0210821Y0118636D03*
X0213144Y0124384D03*
X0329571Y0116136D03*
X0329650Y0116333D03*
X0334020Y0117396D03*
X0335280Y0119837D03*
X0335870Y0121963D03*
X0331894Y0121884D03*
X0078370Y0136963D03*
X0077780Y0134837D03*
X0076520Y0132396D03*
X0072150Y0131333D03*
X0072071Y0131136D03*
X0074394Y0136884D03*
D126*
X0074531Y0136963D03*
X0213281Y0124463D03*
X0332031Y0121963D03*
X0332031Y0318963D03*
X0213281Y0321463D03*
X0074531Y0333963D03*
D127*
X0070260Y0333963D03*
X0080378Y0332427D03*
X0209010Y0321463D03*
X0219128Y0319927D03*
X0327760Y0318963D03*
X0337878Y0317427D03*
X0219128Y0122927D03*
X0209010Y0124463D03*
X0327760Y0121963D03*
X0337878Y0120427D03*
X0080378Y0135427D03*
X0070260Y0136963D03*
D128*
X0062051Y0135506D03*
X0080516Y0133380D03*
X0080516Y0133183D03*
X0081500Y0136884D03*
X0200801Y0123006D03*
X0219266Y0120880D03*
X0219266Y0120683D03*
X0220250Y0124384D03*
X0319551Y0120506D03*
X0338016Y0118380D03*
X0338016Y0118183D03*
X0339000Y0121884D03*
X0338016Y0315183D03*
X0338016Y0315380D03*
X0339000Y0318884D03*
X0319551Y0317506D03*
X0220250Y0321384D03*
X0219266Y0317880D03*
X0219266Y0317683D03*
X0200801Y0320006D03*
X0081500Y0333884D03*
X0080516Y0330380D03*
X0080516Y0330183D03*
X0062051Y0332506D03*
D129*
X0055398Y0332033D03*
X0070161Y0333884D03*
X0071815Y0329789D03*
X0194148Y0319533D03*
X0208911Y0321384D03*
X0210565Y0317289D03*
X0312898Y0317033D03*
X0327661Y0318884D03*
X0329315Y0314789D03*
X0208911Y0124384D03*
X0210565Y0120289D03*
X0194148Y0122533D03*
X0312898Y0120033D03*
X0327661Y0121884D03*
X0329315Y0117789D03*
X0071815Y0132789D03*
X0070161Y0136884D03*
X0055398Y0135033D03*
D130*
X0060831Y0134738D03*
X0070752Y0134935D03*
X0080476Y0133675D03*
X0081461Y0136785D03*
X0199581Y0122238D03*
X0209502Y0122435D03*
X0219226Y0121175D03*
X0220211Y0124285D03*
X0318331Y0119738D03*
X0328252Y0119935D03*
X0337976Y0118675D03*
X0338961Y0121785D03*
X0337976Y0315675D03*
X0338961Y0318785D03*
X0328252Y0316935D03*
X0318331Y0316738D03*
X0220211Y0321285D03*
X0219226Y0318175D03*
X0209502Y0319435D03*
X0199581Y0319238D03*
X0081461Y0333785D03*
X0080476Y0330675D03*
X0070752Y0331935D03*
X0060831Y0331738D03*
D131*
X0072504Y0328825D03*
X0078331Y0333785D03*
X0211254Y0316325D03*
X0217081Y0321285D03*
X0330004Y0313825D03*
X0335831Y0318785D03*
X0217081Y0124285D03*
X0211254Y0119325D03*
X0330004Y0116825D03*
X0335831Y0121785D03*
X0078331Y0136785D03*
X0072504Y0131825D03*
D132*
X0074256Y0136785D03*
X0213006Y0124285D03*
X0331756Y0121785D03*
X0331756Y0318785D03*
X0213006Y0321285D03*
X0074256Y0333785D03*
D133*
X0070024Y0333785D03*
X0208774Y0321285D03*
X0327524Y0318785D03*
X0208774Y0124285D03*
X0327524Y0121785D03*
X0070024Y0136785D03*
D134*
X0070831Y0135033D03*
X0080476Y0133774D03*
X0080476Y0133577D03*
X0080555Y0132593D03*
X0081461Y0136687D03*
X0060949Y0134837D03*
X0060752Y0134640D03*
X0060634Y0134443D03*
X0199384Y0121943D03*
X0199502Y0122140D03*
X0199699Y0122337D03*
X0209581Y0122533D03*
X0219226Y0121274D03*
X0219226Y0121077D03*
X0219305Y0120093D03*
X0220211Y0124187D03*
X0318134Y0119443D03*
X0318252Y0119640D03*
X0318449Y0119837D03*
X0328331Y0120033D03*
X0337976Y0118774D03*
X0337976Y0118577D03*
X0338055Y0117593D03*
X0338961Y0121687D03*
X0338055Y0314593D03*
X0337976Y0315577D03*
X0337976Y0315774D03*
X0338961Y0318687D03*
X0328331Y0317033D03*
X0318449Y0316837D03*
X0318252Y0316640D03*
X0318134Y0316443D03*
X0220211Y0321187D03*
X0219226Y0318274D03*
X0219226Y0318077D03*
X0219305Y0317093D03*
X0209581Y0319533D03*
X0199699Y0319337D03*
X0199502Y0319140D03*
X0199384Y0318943D03*
X0081461Y0333687D03*
X0080476Y0330774D03*
X0080476Y0330577D03*
X0080555Y0329593D03*
X0070831Y0332033D03*
X0060949Y0331837D03*
X0060752Y0331640D03*
X0060634Y0331443D03*
D135*
X0064177Y0330852D03*
X0072366Y0329593D03*
X0072563Y0328923D03*
X0071972Y0327939D03*
X0078193Y0333687D03*
X0202927Y0318352D03*
X0211116Y0317093D03*
X0211313Y0316423D03*
X0210722Y0315439D03*
X0216943Y0321187D03*
X0321677Y0315852D03*
X0329472Y0312939D03*
X0330063Y0313923D03*
X0329866Y0314593D03*
X0335693Y0318687D03*
X0216943Y0124187D03*
X0211116Y0120093D03*
X0211313Y0119423D03*
X0210722Y0118439D03*
X0202927Y0121352D03*
X0321677Y0118852D03*
X0329472Y0115939D03*
X0330063Y0116923D03*
X0329866Y0117593D03*
X0335693Y0121687D03*
X0078193Y0136687D03*
X0072366Y0132593D03*
X0072563Y0131923D03*
X0071972Y0130939D03*
X0064177Y0133852D03*
D136*
X0074157Y0136687D03*
X0080181Y0131726D03*
X0212907Y0124187D03*
X0218931Y0119226D03*
X0331657Y0121687D03*
X0337681Y0116726D03*
X0337681Y0313726D03*
X0331657Y0318687D03*
X0218931Y0316226D03*
X0212907Y0321187D03*
X0080181Y0328726D03*
X0074157Y0333687D03*
D137*
X0069827Y0333687D03*
X0208577Y0321187D03*
X0327327Y0318687D03*
X0208577Y0124187D03*
X0327327Y0121687D03*
X0069827Y0136687D03*
D138*
X0081402Y0136589D03*
X0220152Y0124089D03*
X0338902Y0121589D03*
X0338902Y0318589D03*
X0220152Y0321089D03*
X0081402Y0333589D03*
D139*
X0078134Y0333589D03*
X0216884Y0321089D03*
X0335634Y0318589D03*
X0216884Y0124089D03*
X0335634Y0121589D03*
X0078134Y0136589D03*
D140*
X0081008Y0134148D03*
X0080142Y0131234D03*
X0074000Y0136589D03*
X0212750Y0124089D03*
X0219758Y0121648D03*
X0218892Y0118734D03*
X0331500Y0121589D03*
X0338508Y0119148D03*
X0337642Y0116234D03*
X0337642Y0313234D03*
X0338508Y0316148D03*
X0331500Y0318589D03*
X0219758Y0318648D03*
X0218892Y0315734D03*
X0212750Y0321089D03*
X0081008Y0331148D03*
X0080142Y0328234D03*
X0074000Y0333589D03*
D141*
X0069669Y0333589D03*
X0208419Y0321089D03*
X0327169Y0318589D03*
X0208419Y0124089D03*
X0327169Y0121589D03*
X0069669Y0136589D03*
D142*
X0061382Y0136589D03*
X0056894Y0132888D03*
X0195644Y0120388D03*
X0200132Y0124089D03*
X0314394Y0117888D03*
X0318882Y0121589D03*
X0314394Y0314888D03*
X0318882Y0318589D03*
X0200132Y0321089D03*
X0195644Y0317388D03*
X0061382Y0333589D03*
X0056894Y0329888D03*
D143*
X0060535Y0331246D03*
X0063252Y0331837D03*
X0070654Y0331837D03*
X0073961Y0332033D03*
X0081362Y0333490D03*
X0199285Y0318746D03*
X0202002Y0319337D03*
X0209404Y0319337D03*
X0212711Y0319533D03*
X0220112Y0320990D03*
X0318035Y0316246D03*
X0320752Y0316837D03*
X0328154Y0316837D03*
X0331461Y0317033D03*
X0338862Y0318490D03*
X0220112Y0123990D03*
X0212711Y0122533D03*
X0209404Y0122337D03*
X0202002Y0122337D03*
X0199285Y0121746D03*
X0318035Y0119246D03*
X0320752Y0119837D03*
X0328154Y0119837D03*
X0331461Y0120033D03*
X0338862Y0121490D03*
X0081362Y0136490D03*
X0073961Y0135033D03*
X0070654Y0134837D03*
X0063252Y0134837D03*
X0060535Y0134246D03*
D144*
X0063941Y0134049D03*
X0073862Y0136490D03*
X0202691Y0121549D03*
X0212612Y0123990D03*
X0321441Y0119049D03*
X0331362Y0121490D03*
X0321441Y0316049D03*
X0331362Y0318490D03*
X0212612Y0320990D03*
X0202691Y0318549D03*
X0073862Y0333490D03*
X0063941Y0331049D03*
D145*
X0066421Y0331541D03*
X0072248Y0327368D03*
X0081500Y0331935D03*
X0081303Y0333392D03*
X0205171Y0319041D03*
X0210998Y0314868D03*
X0220250Y0319435D03*
X0220053Y0320892D03*
X0323921Y0316541D03*
X0329748Y0312368D03*
X0339000Y0316935D03*
X0338803Y0318392D03*
X0220053Y0123892D03*
X0220250Y0122435D03*
X0210998Y0117868D03*
X0205171Y0122041D03*
X0323921Y0119541D03*
X0329748Y0115368D03*
X0339000Y0119935D03*
X0338803Y0121392D03*
X0081500Y0134935D03*
X0081303Y0136392D03*
X0072248Y0130368D03*
X0066421Y0134541D03*
D146*
X0073724Y0136392D03*
X0080142Y0130841D03*
X0212474Y0123892D03*
X0218892Y0118341D03*
X0331224Y0121392D03*
X0337642Y0115841D03*
X0337642Y0312841D03*
X0331224Y0318392D03*
X0218892Y0315341D03*
X0212474Y0320892D03*
X0080142Y0327841D03*
X0073724Y0333392D03*
D147*
X0069335Y0333392D03*
X0208085Y0320892D03*
X0326835Y0318392D03*
X0208085Y0123892D03*
X0326835Y0121392D03*
X0069335Y0136392D03*
D148*
X0061028Y0136392D03*
X0199778Y0123892D03*
X0318528Y0121392D03*
X0318528Y0318392D03*
X0199778Y0320892D03*
X0061028Y0333392D03*
D149*
X0060398Y0331049D03*
X0063705Y0331443D03*
X0073626Y0333293D03*
X0081303Y0333293D03*
X0199148Y0318549D03*
X0202455Y0318943D03*
X0212376Y0320793D03*
X0220053Y0320793D03*
X0317898Y0316049D03*
X0321205Y0316443D03*
X0331126Y0318293D03*
X0338803Y0318293D03*
X0220053Y0123793D03*
X0212376Y0123793D03*
X0202455Y0121943D03*
X0199148Y0121549D03*
X0081303Y0136293D03*
X0073626Y0136293D03*
X0063705Y0134443D03*
X0060398Y0134049D03*
X0317898Y0119049D03*
X0321205Y0119443D03*
X0331126Y0121293D03*
X0338803Y0121293D03*
D150*
X0338567Y0119246D03*
X0338449Y0119049D03*
X0335260Y0121293D03*
X0330181Y0117396D03*
X0330299Y0117199D03*
X0219817Y0121746D03*
X0219699Y0121549D03*
X0216510Y0123793D03*
X0211549Y0119699D03*
X0211431Y0119896D03*
X0081067Y0134246D03*
X0080949Y0134049D03*
X0077760Y0136293D03*
X0072681Y0132396D03*
X0072799Y0132199D03*
X0211549Y0316699D03*
X0211431Y0316896D03*
X0216510Y0320793D03*
X0219817Y0318746D03*
X0219699Y0318549D03*
X0330181Y0314396D03*
X0330299Y0314199D03*
X0335260Y0318293D03*
X0338567Y0316246D03*
X0338449Y0316049D03*
X0081067Y0331246D03*
X0080949Y0331049D03*
X0077760Y0333293D03*
X0072681Y0329396D03*
X0072799Y0329199D03*
D151*
X0069138Y0333293D03*
X0066815Y0332033D03*
X0055831Y0332230D03*
X0194581Y0319730D03*
X0205565Y0319533D03*
X0207888Y0320793D03*
X0313331Y0317230D03*
X0324315Y0317033D03*
X0326638Y0318293D03*
X0207888Y0123793D03*
X0205565Y0122533D03*
X0194581Y0122730D03*
X0313331Y0120230D03*
X0324315Y0120033D03*
X0326638Y0121293D03*
X0069138Y0136293D03*
X0066815Y0135033D03*
X0055831Y0135230D03*
D152*
X0073488Y0136195D03*
X0080457Y0133951D03*
X0080575Y0132494D03*
X0212238Y0123695D03*
X0219207Y0121451D03*
X0219325Y0119994D03*
X0330988Y0121195D03*
X0337957Y0118951D03*
X0338075Y0117494D03*
X0338075Y0314494D03*
X0337957Y0315951D03*
X0330988Y0318195D03*
X0219325Y0316994D03*
X0219207Y0318451D03*
X0212238Y0320695D03*
X0080575Y0329494D03*
X0080457Y0330951D03*
X0073488Y0333195D03*
D153*
X0074827Y0332604D03*
X0065299Y0333195D03*
X0054709Y0330675D03*
X0193459Y0318175D03*
X0204049Y0320695D03*
X0213577Y0320104D03*
X0312209Y0315675D03*
X0322799Y0318195D03*
X0332327Y0317604D03*
X0213577Y0123104D03*
X0204049Y0123695D03*
X0193459Y0121175D03*
X0312209Y0118675D03*
X0322799Y0121195D03*
X0332327Y0120604D03*
X0074827Y0135604D03*
X0065299Y0136195D03*
X0054709Y0133675D03*
D154*
X0063803Y0134246D03*
X0081205Y0136096D03*
X0202553Y0121746D03*
X0219955Y0123596D03*
X0321303Y0119246D03*
X0338705Y0121096D03*
X0321303Y0316246D03*
X0338705Y0318096D03*
X0219955Y0320596D03*
X0202553Y0318746D03*
X0081205Y0333096D03*
X0063803Y0331246D03*
D155*
X0063606Y0333096D03*
X0073331Y0333096D03*
X0080417Y0330852D03*
X0202356Y0320596D03*
X0212081Y0320596D03*
X0219167Y0318352D03*
X0321106Y0318096D03*
X0330831Y0318096D03*
X0337917Y0315852D03*
X0212081Y0123596D03*
X0219167Y0121352D03*
X0202356Y0123596D03*
X0321106Y0121096D03*
X0330831Y0121096D03*
X0337917Y0118852D03*
X0080417Y0133852D03*
X0073331Y0136096D03*
X0063606Y0136096D03*
D156*
X0063902Y0134148D03*
X0080122Y0131037D03*
X0081106Y0135998D03*
X0202652Y0121648D03*
X0218872Y0118537D03*
X0219856Y0123498D03*
X0321402Y0119148D03*
X0337622Y0116037D03*
X0338606Y0120998D03*
X0337622Y0313037D03*
X0338606Y0317998D03*
X0321402Y0316148D03*
X0219856Y0320498D03*
X0218872Y0315537D03*
X0202652Y0318648D03*
X0081106Y0332998D03*
X0080122Y0328037D03*
X0063902Y0331148D03*
D157*
X0070929Y0332132D03*
X0073173Y0332998D03*
X0080575Y0330085D03*
X0080575Y0329888D03*
X0209679Y0319632D03*
X0211923Y0320498D03*
X0219325Y0317585D03*
X0219325Y0317388D03*
X0328429Y0317132D03*
X0330673Y0317998D03*
X0338075Y0315085D03*
X0338075Y0314888D03*
X0211923Y0123498D03*
X0209679Y0122632D03*
X0219325Y0120585D03*
X0219325Y0120388D03*
X0328429Y0120132D03*
X0330673Y0120998D03*
X0338075Y0118085D03*
X0338075Y0117888D03*
X0080575Y0132888D03*
X0080575Y0133085D03*
X0073173Y0135998D03*
X0070929Y0135132D03*
D158*
X0058646Y0135998D03*
X0197396Y0123498D03*
X0316146Y0120998D03*
X0316146Y0317998D03*
X0197396Y0320498D03*
X0058646Y0332998D03*
D159*
X0080142Y0329199D03*
X0080142Y0328136D03*
X0081008Y0332900D03*
X0218892Y0316699D03*
X0218892Y0315636D03*
X0219758Y0320400D03*
X0337642Y0314199D03*
X0337642Y0313136D03*
X0338508Y0317900D03*
X0219758Y0123400D03*
X0218892Y0119699D03*
X0218892Y0118636D03*
X0337642Y0117199D03*
X0337642Y0116136D03*
X0338508Y0120900D03*
X0081008Y0135900D03*
X0080142Y0132199D03*
X0080142Y0131136D03*
D160*
X0071283Y0135427D03*
X0063882Y0135900D03*
X0202632Y0123400D03*
X0210033Y0122927D03*
X0321382Y0120900D03*
X0328783Y0120427D03*
X0328783Y0317427D03*
X0321382Y0317900D03*
X0210033Y0319927D03*
X0202632Y0320400D03*
X0071283Y0332427D03*
X0063882Y0332900D03*
D161*
X0076776Y0332801D03*
X0215526Y0320301D03*
X0334276Y0317801D03*
X0215526Y0123301D03*
X0334276Y0120801D03*
X0076776Y0135801D03*
D162*
X0075122Y0135801D03*
X0064138Y0135604D03*
X0059374Y0134935D03*
X0198124Y0122435D03*
X0202888Y0123104D03*
X0213872Y0123301D03*
X0316874Y0119935D03*
X0321638Y0120604D03*
X0332622Y0120801D03*
X0316874Y0316935D03*
X0321638Y0317604D03*
X0332622Y0317801D03*
X0213872Y0320301D03*
X0202888Y0320104D03*
X0198124Y0319435D03*
X0075122Y0332801D03*
X0064138Y0332604D03*
X0059374Y0331935D03*
D163*
X0072937Y0332801D03*
X0081874Y0330951D03*
X0211687Y0320301D03*
X0220624Y0318451D03*
X0330437Y0317801D03*
X0339374Y0315951D03*
X0211687Y0123301D03*
X0220624Y0121451D03*
X0330437Y0120801D03*
X0339374Y0118951D03*
X0081874Y0133951D03*
X0072937Y0135801D03*
D164*
X0071717Y0135801D03*
X0079984Y0130368D03*
X0080850Y0130368D03*
X0082031Y0132888D03*
X0210467Y0123301D03*
X0218734Y0117868D03*
X0219600Y0117868D03*
X0220781Y0120388D03*
X0329217Y0120801D03*
X0337484Y0115368D03*
X0338350Y0115368D03*
X0339531Y0117888D03*
X0338350Y0312368D03*
X0337484Y0312368D03*
X0339531Y0314888D03*
X0329217Y0317801D03*
X0220781Y0317388D03*
X0219600Y0314868D03*
X0218734Y0314868D03*
X0210467Y0320301D03*
X0082031Y0329888D03*
X0080850Y0327368D03*
X0079984Y0327368D03*
X0071717Y0332801D03*
D165*
X0067543Y0332801D03*
X0076402Y0330675D03*
X0206293Y0320301D03*
X0215152Y0318175D03*
X0325043Y0317801D03*
X0333902Y0315675D03*
X0206293Y0123301D03*
X0215152Y0121175D03*
X0325043Y0120801D03*
X0333902Y0118675D03*
X0076402Y0133675D03*
X0067543Y0135801D03*
D166*
X0070850Y0130467D03*
X0075024Y0135703D03*
X0082031Y0133183D03*
X0054906Y0134443D03*
X0193656Y0121943D03*
X0209600Y0117967D03*
X0213774Y0123203D03*
X0220781Y0120683D03*
X0312406Y0119443D03*
X0328350Y0115467D03*
X0332524Y0120703D03*
X0339531Y0118183D03*
X0328350Y0312467D03*
X0332524Y0317703D03*
X0339531Y0315183D03*
X0312406Y0316443D03*
X0220781Y0317683D03*
X0213774Y0320203D03*
X0209600Y0314967D03*
X0193656Y0318943D03*
X0082031Y0330183D03*
X0075024Y0332703D03*
X0070850Y0327467D03*
X0054906Y0331443D03*
D167*
X0072740Y0332703D03*
X0211490Y0320203D03*
X0330240Y0317703D03*
X0211490Y0123203D03*
X0330240Y0120703D03*
X0072740Y0135703D03*
D168*
X0067209Y0135506D03*
X0057878Y0135703D03*
X0196628Y0123203D03*
X0205959Y0123006D03*
X0315378Y0120703D03*
X0324709Y0120506D03*
X0324709Y0317506D03*
X0315378Y0317703D03*
X0205959Y0320006D03*
X0196628Y0320203D03*
X0067209Y0332506D03*
X0057878Y0332703D03*
D169*
X0080575Y0332506D03*
X0219325Y0320006D03*
X0338075Y0317506D03*
X0219325Y0123006D03*
X0338075Y0120506D03*
X0080575Y0135506D03*
D170*
X0074689Y0135506D03*
X0213439Y0123006D03*
X0332189Y0120506D03*
X0332189Y0317506D03*
X0213439Y0320006D03*
X0074689Y0332506D03*
D171*
X0057386Y0332506D03*
X0196136Y0320006D03*
X0314886Y0317506D03*
X0196136Y0123006D03*
X0314886Y0120506D03*
X0057386Y0135506D03*
D172*
X0067169Y0135427D03*
X0080004Y0135230D03*
X0205919Y0122927D03*
X0218754Y0122730D03*
X0324669Y0120427D03*
X0337504Y0120230D03*
X0337504Y0317230D03*
X0324669Y0317427D03*
X0218754Y0319730D03*
X0205919Y0319927D03*
X0080004Y0332230D03*
X0067169Y0332427D03*
D173*
X0070457Y0331640D03*
X0062110Y0332427D03*
X0200860Y0319927D03*
X0209207Y0319140D03*
X0319610Y0317427D03*
X0327957Y0316640D03*
X0200860Y0122927D03*
X0209207Y0122140D03*
X0319610Y0120427D03*
X0327957Y0119640D03*
X0070457Y0134640D03*
X0062110Y0135427D03*
D174*
X0057150Y0135427D03*
X0195900Y0122927D03*
X0314650Y0120427D03*
X0314650Y0317427D03*
X0195900Y0319927D03*
X0057150Y0332427D03*
D175*
X0080181Y0332329D03*
X0218931Y0319829D03*
X0337681Y0317329D03*
X0218931Y0122829D03*
X0337681Y0120329D03*
X0080181Y0135329D03*
D176*
X0067071Y0135329D03*
X0205821Y0122829D03*
X0324571Y0120329D03*
X0324571Y0317329D03*
X0205821Y0319829D03*
X0067071Y0332329D03*
D177*
X0062091Y0332329D03*
X0072681Y0329297D03*
X0200841Y0319829D03*
X0211431Y0316797D03*
X0319591Y0317329D03*
X0330181Y0314297D03*
X0200841Y0122829D03*
X0211431Y0119797D03*
X0319591Y0120329D03*
X0330181Y0117297D03*
X0072681Y0132297D03*
X0062091Y0135329D03*
D178*
X0056933Y0135329D03*
X0195683Y0122829D03*
X0314433Y0120329D03*
X0314433Y0317329D03*
X0195683Y0319829D03*
X0056933Y0332329D03*
D179*
X0060594Y0331344D03*
X0074098Y0332132D03*
X0199344Y0318844D03*
X0212848Y0319632D03*
X0318094Y0316344D03*
X0331598Y0317132D03*
X0212848Y0122632D03*
X0199344Y0121844D03*
X0318094Y0119344D03*
X0331598Y0120132D03*
X0074098Y0135132D03*
X0060594Y0134344D03*
D180*
X0081461Y0134837D03*
X0081461Y0135033D03*
X0220211Y0122533D03*
X0220211Y0122337D03*
X0338961Y0120033D03*
X0338961Y0119837D03*
X0338961Y0316837D03*
X0338961Y0317033D03*
X0220211Y0319337D03*
X0220211Y0319533D03*
X0081461Y0331837D03*
X0081461Y0332033D03*
D181*
X0073764Y0331935D03*
X0212514Y0319435D03*
X0331264Y0316935D03*
X0212514Y0122435D03*
X0331264Y0119935D03*
X0073764Y0134935D03*
D182*
X0063409Y0134738D03*
X0061165Y0134935D03*
X0060496Y0134148D03*
X0199246Y0121648D03*
X0199915Y0122435D03*
X0202159Y0122238D03*
X0317996Y0119148D03*
X0318665Y0119935D03*
X0320909Y0119738D03*
X0317996Y0316148D03*
X0318665Y0316935D03*
X0320909Y0316738D03*
X0202159Y0319238D03*
X0199915Y0319435D03*
X0199246Y0318648D03*
X0063409Y0331738D03*
X0061165Y0331935D03*
X0060496Y0331148D03*
D183*
X0055240Y0331935D03*
X0193990Y0319435D03*
X0312740Y0316935D03*
X0193990Y0122435D03*
X0312740Y0119935D03*
X0055240Y0134935D03*
D184*
X0081402Y0134738D03*
X0220152Y0122238D03*
X0338902Y0119738D03*
X0338902Y0316738D03*
X0220152Y0319238D03*
X0081402Y0331738D03*
D185*
X0073469Y0331738D03*
X0070358Y0331541D03*
X0209108Y0319041D03*
X0212219Y0319238D03*
X0327858Y0316541D03*
X0330969Y0316738D03*
X0330969Y0119738D03*
X0327858Y0119541D03*
X0212219Y0122238D03*
X0209108Y0122041D03*
X0073469Y0134738D03*
X0070358Y0134541D03*
D186*
X0081303Y0134640D03*
X0220053Y0122140D03*
X0338803Y0119640D03*
X0338803Y0316640D03*
X0220053Y0319140D03*
X0081303Y0331640D03*
D187*
X0066520Y0331640D03*
X0205270Y0319140D03*
X0324020Y0316640D03*
X0324020Y0119640D03*
X0205270Y0122140D03*
X0066520Y0134640D03*
D188*
X0063508Y0134640D03*
X0072248Y0130467D03*
X0202258Y0122140D03*
X0210998Y0117967D03*
X0321008Y0119640D03*
X0329748Y0115467D03*
X0329748Y0312467D03*
X0321008Y0316640D03*
X0210998Y0314967D03*
X0202258Y0319140D03*
X0072248Y0327467D03*
X0063508Y0331640D03*
D189*
X0055870Y0331640D03*
X0080083Y0327663D03*
X0194620Y0319140D03*
X0218833Y0315163D03*
X0313370Y0316640D03*
X0337583Y0312663D03*
X0313370Y0119640D03*
X0337583Y0115663D03*
X0218833Y0118163D03*
X0194620Y0122140D03*
X0080083Y0130663D03*
X0055870Y0134640D03*
D190*
X0081205Y0134541D03*
X0219955Y0122041D03*
X0338705Y0119541D03*
X0338705Y0316541D03*
X0219955Y0319041D03*
X0081205Y0331541D03*
D191*
X0077110Y0331541D03*
X0215860Y0319041D03*
X0334610Y0316541D03*
X0334610Y0119541D03*
X0215860Y0122041D03*
X0077110Y0134541D03*
D192*
X0073272Y0134541D03*
X0212022Y0122041D03*
X0330772Y0119541D03*
X0330772Y0316541D03*
X0212022Y0319041D03*
X0073272Y0331541D03*
D193*
X0080614Y0329691D03*
X0060693Y0331541D03*
X0199443Y0319041D03*
X0219364Y0317191D03*
X0318193Y0316541D03*
X0338114Y0314691D03*
X0318193Y0119541D03*
X0338114Y0117691D03*
X0219364Y0120191D03*
X0199443Y0122041D03*
X0080614Y0132691D03*
X0060693Y0134541D03*
D194*
X0074059Y0134443D03*
X0212809Y0121943D03*
X0331559Y0119443D03*
X0331559Y0316443D03*
X0212809Y0318943D03*
X0074059Y0331443D03*
D195*
X0073961Y0331344D03*
X0212711Y0318844D03*
X0331461Y0316344D03*
X0331461Y0119344D03*
X0212711Y0121844D03*
X0073961Y0134344D03*
D196*
X0073764Y0134246D03*
X0212514Y0121746D03*
X0331264Y0119246D03*
X0331264Y0316246D03*
X0212514Y0318746D03*
X0073764Y0331246D03*
D197*
X0073606Y0331148D03*
X0212356Y0318648D03*
X0331106Y0316148D03*
X0331106Y0119148D03*
X0212356Y0121648D03*
X0073606Y0134148D03*
D198*
X0073429Y0134049D03*
X0212179Y0121549D03*
X0330929Y0119049D03*
X0330929Y0316049D03*
X0212179Y0318549D03*
X0073429Y0331049D03*
D199*
X0073272Y0330951D03*
X0212022Y0318451D03*
X0330772Y0315951D03*
X0330772Y0118951D03*
X0212022Y0121451D03*
X0073272Y0133951D03*
D200*
X0055535Y0133951D03*
X0194285Y0121451D03*
X0313035Y0118951D03*
X0313035Y0315951D03*
X0194285Y0318451D03*
X0055535Y0330951D03*
D201*
X0073035Y0330852D03*
X0211785Y0318352D03*
X0330535Y0315852D03*
X0330535Y0118852D03*
X0211785Y0121352D03*
X0073035Y0133852D03*
D202*
X0058843Y0133852D03*
X0197593Y0121352D03*
X0316343Y0118852D03*
X0316343Y0315852D03*
X0197593Y0318352D03*
X0058843Y0330852D03*
D203*
X0055575Y0330852D03*
X0072780Y0327073D03*
X0080850Y0327663D03*
X0194325Y0318352D03*
X0211530Y0314573D03*
X0219600Y0315163D03*
X0313075Y0315852D03*
X0330280Y0312073D03*
X0338350Y0312663D03*
X0313075Y0118852D03*
X0330280Y0115073D03*
X0338350Y0115663D03*
X0219600Y0118163D03*
X0211530Y0117573D03*
X0194325Y0121352D03*
X0080850Y0130663D03*
X0072780Y0130073D03*
X0055575Y0133852D03*
D204*
X0076146Y0133774D03*
X0214896Y0121274D03*
X0333646Y0118774D03*
X0333646Y0315774D03*
X0214896Y0318274D03*
X0076146Y0330774D03*
D205*
X0067839Y0330774D03*
X0206589Y0318274D03*
X0325339Y0315774D03*
X0325339Y0118774D03*
X0206589Y0121274D03*
X0067839Y0133774D03*
D206*
X0058370Y0133774D03*
X0197120Y0121274D03*
X0315870Y0118774D03*
X0315870Y0315774D03*
X0197120Y0318274D03*
X0058370Y0330774D03*
D207*
X0067642Y0330675D03*
X0206392Y0318175D03*
X0325142Y0315675D03*
X0325142Y0118675D03*
X0206392Y0121175D03*
X0067642Y0133675D03*
D208*
X0058370Y0133675D03*
X0197120Y0121175D03*
X0315870Y0118675D03*
X0315870Y0315675D03*
X0197120Y0318175D03*
X0058370Y0330675D03*
D209*
X0063646Y0330577D03*
X0202396Y0318077D03*
X0321146Y0315577D03*
X0321146Y0118577D03*
X0202396Y0121077D03*
X0063646Y0133577D03*
D210*
X0080516Y0133478D03*
X0080516Y0133281D03*
X0219266Y0120978D03*
X0219266Y0120781D03*
X0338016Y0118478D03*
X0338016Y0118281D03*
X0338016Y0315281D03*
X0338016Y0315478D03*
X0219266Y0317781D03*
X0219266Y0317978D03*
X0080516Y0330281D03*
X0080516Y0330478D03*
D211*
X0063272Y0330478D03*
X0202022Y0317978D03*
X0320772Y0315478D03*
X0320772Y0118478D03*
X0202022Y0120978D03*
X0063272Y0133478D03*
D212*
X0063370Y0133380D03*
X0202120Y0120880D03*
X0320870Y0118380D03*
X0320870Y0315380D03*
X0202120Y0317880D03*
X0063370Y0330380D03*
D213*
X0076736Y0330281D03*
X0215486Y0317781D03*
X0334236Y0315281D03*
X0334236Y0118281D03*
X0215486Y0120781D03*
X0076736Y0133281D03*
D214*
X0063409Y0133281D03*
X0202159Y0120781D03*
X0320909Y0118281D03*
X0320909Y0315281D03*
X0202159Y0317781D03*
X0063409Y0330281D03*
D215*
X0076677Y0330183D03*
X0215427Y0317683D03*
X0334177Y0315183D03*
X0334177Y0118183D03*
X0215427Y0120683D03*
X0076677Y0133183D03*
D216*
X0063508Y0133183D03*
X0202258Y0120683D03*
X0321008Y0118183D03*
X0321008Y0315183D03*
X0202258Y0317683D03*
X0063508Y0330183D03*
D217*
X0076638Y0330085D03*
X0215388Y0317585D03*
X0334138Y0315085D03*
X0334138Y0118085D03*
X0215388Y0120585D03*
X0076638Y0133085D03*
D218*
X0063567Y0133085D03*
X0202317Y0120585D03*
X0321067Y0118085D03*
X0321067Y0315085D03*
X0202317Y0317585D03*
X0063567Y0330085D03*
D219*
X0076598Y0329986D03*
X0215348Y0317486D03*
X0334098Y0314986D03*
X0334098Y0117986D03*
X0215348Y0120486D03*
X0076598Y0132986D03*
D220*
X0063606Y0132986D03*
X0202356Y0120486D03*
X0321106Y0117986D03*
X0321106Y0314986D03*
X0202356Y0317486D03*
X0063606Y0329986D03*
D221*
X0069433Y0329888D03*
X0208183Y0317388D03*
X0326933Y0314888D03*
X0326933Y0117888D03*
X0208183Y0120388D03*
X0069433Y0132888D03*
D222*
X0080614Y0132789D03*
X0080417Y0130742D03*
X0219167Y0118242D03*
X0219364Y0120289D03*
X0337917Y0115742D03*
X0338114Y0117789D03*
X0337917Y0312742D03*
X0338114Y0314789D03*
X0219364Y0317289D03*
X0219167Y0315242D03*
X0080417Y0327742D03*
X0080614Y0329789D03*
D223*
X0076579Y0329789D03*
X0215329Y0317289D03*
X0334079Y0314789D03*
X0334079Y0117789D03*
X0215329Y0120289D03*
X0076579Y0132789D03*
D224*
X0072110Y0132691D03*
X0072110Y0131234D03*
X0210860Y0120191D03*
X0210860Y0118734D03*
X0329610Y0117691D03*
X0329610Y0116234D03*
X0329610Y0313234D03*
X0329610Y0314691D03*
X0210860Y0315734D03*
X0210860Y0317191D03*
X0072110Y0328234D03*
X0072110Y0329691D03*
D225*
X0080240Y0329396D03*
X0080122Y0327939D03*
X0218990Y0316896D03*
X0218872Y0315439D03*
X0337622Y0312939D03*
X0337740Y0314396D03*
X0218990Y0119896D03*
X0218872Y0118439D03*
X0337622Y0115939D03*
X0337740Y0117396D03*
X0080240Y0132396D03*
X0080122Y0130939D03*
D226*
X0072740Y0132120D03*
X0211490Y0119620D03*
X0330240Y0117120D03*
X0330240Y0314120D03*
X0211490Y0316620D03*
X0072740Y0329120D03*
D227*
X0072307Y0328530D03*
X0211057Y0316030D03*
X0329807Y0313530D03*
X0211057Y0119030D03*
X0329807Y0116530D03*
X0072307Y0131530D03*
D228*
X0072209Y0131431D03*
X0210959Y0118931D03*
X0329709Y0116431D03*
X0329709Y0313431D03*
X0210959Y0315931D03*
X0072209Y0328431D03*
D229*
X0071913Y0327565D03*
X0210663Y0315065D03*
X0329413Y0312565D03*
X0210663Y0118065D03*
X0329413Y0115565D03*
X0071913Y0130565D03*
D230*
X0080811Y0130467D03*
X0219561Y0117967D03*
X0338311Y0115467D03*
X0338311Y0312467D03*
X0219561Y0314967D03*
X0080811Y0327467D03*
D231*
X0108955Y0318728D02*
X0109152Y0319319D01*
X0109427Y0319752D01*
X0109742Y0320106D01*
X0110057Y0320303D01*
X0110057Y0319949D01*
X0110096Y0319831D01*
X0110136Y0319752D01*
X0110254Y0319634D01*
X0110372Y0319594D01*
X0110490Y0319594D01*
X0110805Y0319673D01*
X0110963Y0319752D01*
X0111081Y0319831D01*
X0111238Y0319949D01*
X0111474Y0320185D01*
X0111632Y0320421D01*
X0111671Y0320579D01*
X0111671Y0320815D01*
X0111632Y0320933D01*
X0111593Y0321012D01*
X0111514Y0321130D01*
X0111356Y0321248D01*
X0111199Y0321327D01*
X0111002Y0321366D01*
X0110844Y0321406D01*
X0110608Y0321406D01*
X0110530Y0321366D01*
X0110490Y0321366D01*
X0110530Y0321406D01*
X0110687Y0321524D01*
X0111238Y0321799D01*
X0111593Y0321878D01*
X0111986Y0321878D01*
X0112419Y0321799D01*
X0112852Y0321563D01*
X0113207Y0321287D01*
X0113404Y0320972D01*
X0113522Y0320618D01*
X0113522Y0320303D01*
X0113443Y0319949D01*
X0113246Y0319594D01*
X0112970Y0319280D01*
X0112656Y0318925D01*
X0112380Y0318650D01*
X0112262Y0318335D01*
X0112262Y0318059D01*
X0112341Y0317823D01*
X0112498Y0317626D01*
X0112734Y0317469D01*
X0113049Y0317390D01*
X0113364Y0317390D01*
X0113561Y0317429D01*
X0113758Y0317508D01*
X0113994Y0317744D01*
X0114073Y0317862D01*
X0114112Y0317980D01*
X0114112Y0318138D01*
X0114073Y0318256D01*
X0113837Y0318492D01*
X0113719Y0318531D01*
X0113561Y0318610D01*
X0113522Y0318650D01*
X0113679Y0318728D01*
X0114152Y0318728D01*
X0114388Y0318689D01*
X0114585Y0318650D01*
X0114781Y0318571D01*
X0114939Y0318453D01*
X0115136Y0318295D01*
X0115372Y0317902D01*
X0115451Y0317626D01*
X0115490Y0317311D01*
X0115490Y0311917D01*
X0115293Y0312114D01*
X0115175Y0312311D01*
X0114978Y0312508D01*
X0114781Y0312744D01*
X0114309Y0313217D01*
X0113837Y0313768D01*
X0113443Y0314161D01*
X0113049Y0314398D01*
X0112813Y0314437D01*
X0112065Y0314437D01*
X0111593Y0314516D01*
X0111159Y0314634D01*
X0110766Y0314791D01*
X0110372Y0315028D01*
X0110057Y0315303D01*
X0109742Y0315618D01*
X0109467Y0315972D01*
X0109073Y0316681D01*
X0108876Y0317429D01*
X0108837Y0318098D01*
X0108955Y0318728D01*
X0108931Y0318604D02*
X0112363Y0318604D01*
X0112262Y0318306D02*
X0108876Y0318306D01*
X0108842Y0318007D02*
X0112279Y0318007D01*
X0112432Y0317709D02*
X0108860Y0317709D01*
X0108881Y0317410D02*
X0112966Y0317410D01*
X0113468Y0317410D02*
X0115478Y0317410D01*
X0115490Y0317112D02*
X0108959Y0317112D01*
X0109038Y0316813D02*
X0115490Y0316813D01*
X0115490Y0316515D02*
X0109165Y0316515D01*
X0109331Y0316216D02*
X0115490Y0316216D01*
X0115490Y0315918D02*
X0109509Y0315918D01*
X0109741Y0315619D02*
X0115490Y0315619D01*
X0115490Y0315321D02*
X0110039Y0315321D01*
X0110381Y0315022D02*
X0115490Y0315022D01*
X0115490Y0314724D02*
X0110934Y0314724D01*
X0112883Y0314425D02*
X0115490Y0314425D01*
X0115490Y0314127D02*
X0113478Y0314127D01*
X0113776Y0313828D02*
X0115490Y0313828D01*
X0115490Y0313530D02*
X0114041Y0313530D01*
X0114296Y0313231D02*
X0115490Y0313231D01*
X0115490Y0312933D02*
X0114593Y0312933D01*
X0114873Y0312634D02*
X0115490Y0312634D01*
X0115490Y0312336D02*
X0115150Y0312336D01*
X0115370Y0312037D02*
X0115490Y0312037D01*
X0115427Y0317709D02*
X0113959Y0317709D01*
X0114112Y0318007D02*
X0115309Y0318007D01*
X0115122Y0318306D02*
X0114023Y0318306D01*
X0113573Y0318604D02*
X0114697Y0318604D01*
X0113163Y0319500D02*
X0109267Y0319500D01*
X0109112Y0319202D02*
X0112901Y0319202D01*
X0112633Y0318903D02*
X0109013Y0318903D01*
X0109469Y0319799D02*
X0110113Y0319799D01*
X0110057Y0320097D02*
X0109734Y0320097D01*
X0111032Y0319799D02*
X0113359Y0319799D01*
X0113476Y0320097D02*
X0111386Y0320097D01*
X0111615Y0320396D02*
X0113522Y0320396D01*
X0113496Y0320694D02*
X0111671Y0320694D01*
X0111602Y0320993D02*
X0113391Y0320993D01*
X0113202Y0321291D02*
X0111270Y0321291D01*
X0110819Y0321590D02*
X0112804Y0321590D01*
X0233876Y0343679D02*
X0233837Y0344348D01*
X0233955Y0344978D01*
X0234152Y0345569D01*
X0234427Y0346002D01*
X0234742Y0346356D01*
X0235057Y0346553D01*
X0235057Y0346199D01*
X0235096Y0346081D01*
X0235136Y0346002D01*
X0235254Y0345884D01*
X0235372Y0345844D01*
X0235490Y0345844D01*
X0235805Y0345923D01*
X0235963Y0346002D01*
X0236081Y0346081D01*
X0236238Y0346199D01*
X0236474Y0346435D01*
X0236632Y0346671D01*
X0236671Y0346829D01*
X0236671Y0347065D01*
X0236632Y0347183D01*
X0236593Y0347262D01*
X0236514Y0347380D01*
X0236356Y0347498D01*
X0236199Y0347577D01*
X0236002Y0347616D01*
X0235844Y0347656D01*
X0235608Y0347656D01*
X0235530Y0347616D01*
X0235490Y0347616D01*
X0235530Y0347656D01*
X0235687Y0347774D01*
X0236238Y0348049D01*
X0236593Y0348128D01*
X0236986Y0348128D01*
X0237419Y0348049D01*
X0237852Y0347813D01*
X0238207Y0347537D01*
X0238404Y0347222D01*
X0238522Y0346868D01*
X0238522Y0346553D01*
X0238443Y0346199D01*
X0238246Y0345844D01*
X0237970Y0345530D01*
X0237656Y0345175D01*
X0237380Y0344900D01*
X0237262Y0344585D01*
X0237262Y0344309D01*
X0237341Y0344073D01*
X0237498Y0343876D01*
X0237734Y0343719D01*
X0238049Y0343640D01*
X0238364Y0343640D01*
X0238561Y0343679D01*
X0238758Y0343758D01*
X0238994Y0343994D01*
X0239073Y0344112D01*
X0239112Y0344230D01*
X0239112Y0344388D01*
X0239073Y0344506D01*
X0238837Y0344742D01*
X0238719Y0344781D01*
X0238561Y0344860D01*
X0238522Y0344900D01*
X0238679Y0344978D01*
X0239152Y0344978D01*
X0239388Y0344939D01*
X0239585Y0344900D01*
X0239781Y0344821D01*
X0239939Y0344703D01*
X0240136Y0344545D01*
X0240372Y0344152D01*
X0240451Y0343876D01*
X0240490Y0343561D01*
X0240490Y0338167D01*
X0240293Y0338364D01*
X0240175Y0338561D01*
X0239978Y0338758D01*
X0239781Y0338994D01*
X0239309Y0339467D01*
X0238837Y0340018D01*
X0238443Y0340411D01*
X0238049Y0340648D01*
X0237813Y0340687D01*
X0237065Y0340687D01*
X0236593Y0340766D01*
X0236159Y0340884D01*
X0235766Y0341041D01*
X0235372Y0341278D01*
X0235057Y0341553D01*
X0234742Y0341868D01*
X0234467Y0342222D01*
X0234073Y0342931D01*
X0233876Y0343679D01*
X0237891Y0343679D01*
X0237416Y0343978D02*
X0233858Y0343978D01*
X0233841Y0344276D02*
X0237273Y0344276D01*
X0237262Y0344575D02*
X0233879Y0344575D01*
X0233935Y0344873D02*
X0237370Y0344873D01*
X0237652Y0345172D02*
X0234019Y0345172D01*
X0234119Y0345471D02*
X0237918Y0345471D01*
X0238180Y0345769D02*
X0234279Y0345769D01*
X0234485Y0346068D02*
X0235103Y0346068D01*
X0235057Y0346366D02*
X0234758Y0346366D01*
X0236061Y0346068D02*
X0238370Y0346068D01*
X0238480Y0346366D02*
X0236405Y0346366D01*
X0236627Y0346665D02*
X0238522Y0346665D01*
X0238490Y0346963D02*
X0236671Y0346963D01*
X0236593Y0347262D02*
X0238379Y0347262D01*
X0238178Y0347560D02*
X0236232Y0347560D01*
X0235857Y0347859D02*
X0237769Y0347859D01*
X0238548Y0344873D02*
X0239650Y0344873D01*
X0240099Y0344575D02*
X0239004Y0344575D01*
X0239112Y0344276D02*
X0240297Y0344276D01*
X0240422Y0343978D02*
X0238978Y0343978D01*
X0238562Y0343679D02*
X0240475Y0343679D01*
X0240490Y0343381D02*
X0233954Y0343381D01*
X0234033Y0343082D02*
X0240490Y0343082D01*
X0240490Y0342784D02*
X0234155Y0342784D01*
X0234320Y0342485D02*
X0240490Y0342485D01*
X0240490Y0342187D02*
X0234494Y0342187D01*
X0234726Y0341888D02*
X0240490Y0341888D01*
X0240490Y0341590D02*
X0235020Y0341590D01*
X0235356Y0341291D02*
X0240490Y0341291D01*
X0240490Y0340993D02*
X0235887Y0340993D01*
X0237021Y0340694D02*
X0240490Y0340694D01*
X0240490Y0340396D02*
X0238459Y0340396D01*
X0238757Y0340097D02*
X0240490Y0340097D01*
X0240490Y0339799D02*
X0239024Y0339799D01*
X0239280Y0339500D02*
X0240490Y0339500D01*
X0240490Y0339202D02*
X0239574Y0339202D01*
X0239857Y0338903D02*
X0240490Y0338903D01*
X0240490Y0338605D02*
X0240131Y0338605D01*
X0240351Y0338306D02*
X0240490Y0338306D01*
X0350087Y0320598D02*
X0350205Y0321228D01*
X0350402Y0321819D01*
X0350677Y0322252D01*
X0350992Y0322606D01*
X0351307Y0322803D01*
X0351307Y0322449D01*
X0351346Y0322331D01*
X0351386Y0322252D01*
X0351504Y0322134D01*
X0351622Y0322094D01*
X0351740Y0322094D01*
X0352055Y0322173D01*
X0352213Y0322252D01*
X0352331Y0322331D01*
X0352488Y0322449D01*
X0352724Y0322685D01*
X0352882Y0322921D01*
X0352921Y0323079D01*
X0352921Y0323315D01*
X0352882Y0323433D01*
X0352843Y0323512D01*
X0352764Y0323630D01*
X0352606Y0323748D01*
X0352449Y0323827D01*
X0352252Y0323866D01*
X0352094Y0323906D01*
X0351858Y0323906D01*
X0351780Y0323866D01*
X0351740Y0323866D01*
X0351780Y0323906D01*
X0351937Y0324024D01*
X0352488Y0324299D01*
X0352843Y0324378D01*
X0353236Y0324378D01*
X0353669Y0324299D01*
X0354102Y0324063D01*
X0354457Y0323787D01*
X0354654Y0323472D01*
X0354772Y0323118D01*
X0354772Y0322803D01*
X0354693Y0322449D01*
X0354496Y0322094D01*
X0354220Y0321780D01*
X0353906Y0321425D01*
X0353630Y0321150D01*
X0353512Y0320835D01*
X0353512Y0320559D01*
X0353591Y0320323D01*
X0353748Y0320126D01*
X0353984Y0319969D01*
X0354299Y0319890D01*
X0354614Y0319890D01*
X0354811Y0319929D01*
X0355008Y0320008D01*
X0355244Y0320244D01*
X0355323Y0320362D01*
X0355362Y0320480D01*
X0355362Y0320638D01*
X0355323Y0320756D01*
X0355087Y0320992D01*
X0354969Y0321031D01*
X0354811Y0321110D01*
X0354772Y0321150D01*
X0354929Y0321228D01*
X0355402Y0321228D01*
X0355638Y0321189D01*
X0355835Y0321150D01*
X0356031Y0321071D01*
X0356189Y0320953D01*
X0356386Y0320795D01*
X0356622Y0320402D01*
X0356701Y0320126D01*
X0356740Y0319811D01*
X0356740Y0314417D01*
X0356543Y0314614D01*
X0356425Y0314811D01*
X0356228Y0315008D01*
X0356031Y0315244D01*
X0355559Y0315717D01*
X0355087Y0316268D01*
X0354693Y0316661D01*
X0354299Y0316898D01*
X0354063Y0316937D01*
X0353315Y0316937D01*
X0352843Y0317016D01*
X0352409Y0317134D01*
X0352016Y0317291D01*
X0351622Y0317528D01*
X0351307Y0317803D01*
X0350992Y0318118D01*
X0350717Y0318472D01*
X0350323Y0319181D01*
X0350126Y0319929D01*
X0350087Y0320598D01*
X0350105Y0320694D02*
X0353512Y0320694D01*
X0353566Y0320396D02*
X0350099Y0320396D01*
X0350116Y0320097D02*
X0353791Y0320097D01*
X0353571Y0320993D02*
X0350161Y0320993D01*
X0350226Y0321291D02*
X0353771Y0321291D01*
X0354052Y0321590D02*
X0350325Y0321590D01*
X0350446Y0321888D02*
X0354315Y0321888D01*
X0354547Y0322187D02*
X0352082Y0322187D01*
X0352525Y0322485D02*
X0354701Y0322485D01*
X0354767Y0322784D02*
X0352790Y0322784D01*
X0352921Y0323082D02*
X0354772Y0323082D01*
X0354684Y0323381D02*
X0352899Y0323381D01*
X0352698Y0323679D02*
X0354524Y0323679D01*
X0354212Y0323978D02*
X0351876Y0323978D01*
X0352442Y0324276D02*
X0353711Y0324276D01*
X0351307Y0322784D02*
X0351276Y0322784D01*
X0351307Y0322485D02*
X0350884Y0322485D01*
X0350636Y0322187D02*
X0351451Y0322187D01*
X0350160Y0319799D02*
X0356740Y0319799D01*
X0356740Y0319500D02*
X0350239Y0319500D01*
X0350317Y0319202D02*
X0356740Y0319202D01*
X0356740Y0318903D02*
X0350477Y0318903D01*
X0350643Y0318604D02*
X0356740Y0318604D01*
X0356740Y0318306D02*
X0350846Y0318306D01*
X0351103Y0318007D02*
X0356740Y0318007D01*
X0356740Y0317709D02*
X0351415Y0317709D01*
X0351817Y0317410D02*
X0356740Y0317410D01*
X0356740Y0317112D02*
X0352490Y0317112D01*
X0354440Y0316813D02*
X0356740Y0316813D01*
X0356740Y0316515D02*
X0354839Y0316515D01*
X0355131Y0316216D02*
X0356740Y0316216D01*
X0356740Y0315918D02*
X0355386Y0315918D01*
X0355656Y0315619D02*
X0356740Y0315619D01*
X0356740Y0315321D02*
X0355955Y0315321D01*
X0356216Y0315022D02*
X0356740Y0315022D01*
X0356740Y0314724D02*
X0356478Y0314724D01*
X0356732Y0314425D02*
X0356740Y0314425D01*
X0356704Y0320097D02*
X0355097Y0320097D01*
X0355334Y0320396D02*
X0356624Y0320396D01*
X0356447Y0320694D02*
X0355343Y0320694D01*
X0355085Y0320993D02*
X0356136Y0320993D01*
X0237852Y0150813D02*
X0238207Y0150537D01*
X0238404Y0150222D01*
X0238522Y0149868D01*
X0238522Y0149553D01*
X0238443Y0149199D01*
X0238246Y0148844D01*
X0237970Y0148530D01*
X0237656Y0148175D01*
X0237380Y0147900D01*
X0237262Y0147585D01*
X0237262Y0147309D01*
X0237341Y0147073D01*
X0237498Y0146876D01*
X0237734Y0146719D01*
X0238049Y0146640D01*
X0238364Y0146640D01*
X0238561Y0146679D01*
X0238758Y0146758D01*
X0238994Y0146994D01*
X0239073Y0147112D01*
X0239112Y0147230D01*
X0239112Y0147388D01*
X0239073Y0147506D01*
X0238837Y0147742D01*
X0238719Y0147781D01*
X0238561Y0147860D01*
X0238522Y0147900D01*
X0238679Y0147978D01*
X0239152Y0147978D01*
X0239388Y0147939D01*
X0239585Y0147900D01*
X0239781Y0147821D01*
X0239939Y0147703D01*
X0240136Y0147545D01*
X0240372Y0147152D01*
X0240451Y0146876D01*
X0240490Y0146561D01*
X0240490Y0141167D01*
X0240293Y0141364D01*
X0240175Y0141561D01*
X0239978Y0141758D01*
X0239781Y0141994D01*
X0239309Y0142467D01*
X0238837Y0143018D01*
X0238443Y0143411D01*
X0238049Y0143648D01*
X0237813Y0143687D01*
X0237065Y0143687D01*
X0236593Y0143766D01*
X0236159Y0143884D01*
X0235766Y0144041D01*
X0235372Y0144278D01*
X0235057Y0144553D01*
X0234742Y0144868D01*
X0234467Y0145222D01*
X0234073Y0145931D01*
X0233876Y0146679D01*
X0233837Y0147348D01*
X0233955Y0147978D01*
X0234152Y0148569D01*
X0234427Y0149002D01*
X0234742Y0149356D01*
X0235057Y0149553D01*
X0235057Y0149199D01*
X0235096Y0149081D01*
X0235136Y0149002D01*
X0235254Y0148884D01*
X0235372Y0148844D01*
X0235490Y0148844D01*
X0235805Y0148923D01*
X0235963Y0149002D01*
X0236081Y0149081D01*
X0236238Y0149199D01*
X0236474Y0149435D01*
X0236632Y0149671D01*
X0236671Y0149829D01*
X0236671Y0150065D01*
X0236632Y0150183D01*
X0236593Y0150262D01*
X0236514Y0150380D01*
X0236356Y0150498D01*
X0236199Y0150577D01*
X0236002Y0150616D01*
X0235844Y0150656D01*
X0235608Y0150656D01*
X0235530Y0150616D01*
X0235490Y0150616D01*
X0235530Y0150656D01*
X0235687Y0150774D01*
X0236238Y0151049D01*
X0236593Y0151128D01*
X0236986Y0151128D01*
X0237419Y0151049D01*
X0237852Y0150813D01*
X0237801Y0150841D02*
X0235822Y0150841D01*
X0236267Y0150543D02*
X0238200Y0150543D01*
X0238390Y0150244D02*
X0236601Y0150244D01*
X0236671Y0149946D02*
X0238496Y0149946D01*
X0238522Y0149647D02*
X0236616Y0149647D01*
X0236388Y0149349D02*
X0238476Y0149349D01*
X0238360Y0149050D02*
X0236035Y0149050D01*
X0235112Y0149050D02*
X0234470Y0149050D01*
X0234268Y0148752D02*
X0238165Y0148752D01*
X0237902Y0148453D02*
X0234113Y0148453D01*
X0234013Y0148155D02*
X0237635Y0148155D01*
X0237364Y0147856D02*
X0233932Y0147856D01*
X0233876Y0147558D02*
X0237262Y0147558D01*
X0237278Y0147259D02*
X0233842Y0147259D01*
X0233859Y0146960D02*
X0237430Y0146960D01*
X0237960Y0146662D02*
X0233881Y0146662D01*
X0233959Y0146363D02*
X0240490Y0146363D01*
X0240490Y0146065D02*
X0234038Y0146065D01*
X0234164Y0145766D02*
X0240490Y0145766D01*
X0240490Y0145468D02*
X0234330Y0145468D01*
X0234508Y0145169D02*
X0240490Y0145169D01*
X0240490Y0144871D02*
X0234740Y0144871D01*
X0235038Y0144572D02*
X0240490Y0144572D01*
X0240490Y0144274D02*
X0235378Y0144274D01*
X0235931Y0143975D02*
X0240490Y0143975D01*
X0240490Y0143677D02*
X0237874Y0143677D01*
X0238476Y0143378D02*
X0240490Y0143378D01*
X0240490Y0143080D02*
X0238774Y0143080D01*
X0239039Y0142781D02*
X0240490Y0142781D01*
X0240490Y0142483D02*
X0239295Y0142483D01*
X0239591Y0142184D02*
X0240490Y0142184D01*
X0240490Y0141886D02*
X0239872Y0141886D01*
X0240149Y0141587D02*
X0240490Y0141587D01*
X0240490Y0141289D02*
X0240369Y0141289D01*
X0240478Y0146662D02*
X0238475Y0146662D01*
X0238960Y0146960D02*
X0240427Y0146960D01*
X0240308Y0147259D02*
X0239112Y0147259D01*
X0239021Y0147558D02*
X0240121Y0147558D01*
X0239694Y0147856D02*
X0238569Y0147856D01*
X0235057Y0149349D02*
X0234735Y0149349D01*
X0350205Y0124228D02*
X0350402Y0124819D01*
X0350677Y0125252D01*
X0350992Y0125606D01*
X0351307Y0125803D01*
X0351307Y0125449D01*
X0351346Y0125331D01*
X0351386Y0125252D01*
X0351504Y0125134D01*
X0351622Y0125094D01*
X0351740Y0125094D01*
X0352055Y0125173D01*
X0352213Y0125252D01*
X0352331Y0125331D01*
X0352488Y0125449D01*
X0352724Y0125685D01*
X0352882Y0125921D01*
X0352921Y0126079D01*
X0352921Y0126315D01*
X0352882Y0126433D01*
X0352843Y0126512D01*
X0352764Y0126630D01*
X0352606Y0126748D01*
X0352449Y0126827D01*
X0352252Y0126866D01*
X0352094Y0126906D01*
X0351858Y0126906D01*
X0351780Y0126866D01*
X0351740Y0126866D01*
X0351780Y0126906D01*
X0351937Y0127024D01*
X0352488Y0127299D01*
X0352843Y0127378D01*
X0353236Y0127378D01*
X0353669Y0127299D01*
X0354102Y0127063D01*
X0354457Y0126787D01*
X0354654Y0126472D01*
X0354772Y0126118D01*
X0354772Y0125803D01*
X0354693Y0125449D01*
X0354496Y0125094D01*
X0354220Y0124780D01*
X0353906Y0124425D01*
X0353630Y0124150D01*
X0353512Y0123835D01*
X0353512Y0123559D01*
X0353591Y0123323D01*
X0353748Y0123126D01*
X0353984Y0122969D01*
X0354299Y0122890D01*
X0354614Y0122890D01*
X0354811Y0122929D01*
X0355008Y0123008D01*
X0355244Y0123244D01*
X0355323Y0123362D01*
X0355362Y0123480D01*
X0355362Y0123638D01*
X0355323Y0123756D01*
X0355087Y0123992D01*
X0354969Y0124031D01*
X0354811Y0124110D01*
X0354772Y0124150D01*
X0354929Y0124228D01*
X0355402Y0124228D01*
X0355638Y0124189D01*
X0355835Y0124150D01*
X0356031Y0124071D01*
X0356189Y0123953D01*
X0356386Y0123795D01*
X0356622Y0123402D01*
X0356701Y0123126D01*
X0356740Y0122811D01*
X0356740Y0117417D01*
X0356543Y0117614D01*
X0356425Y0117811D01*
X0356228Y0118008D01*
X0356031Y0118244D01*
X0355559Y0118717D01*
X0355087Y0119268D01*
X0354693Y0119661D01*
X0354299Y0119898D01*
X0354063Y0119937D01*
X0353315Y0119937D01*
X0352843Y0120016D01*
X0352409Y0120134D01*
X0352016Y0120291D01*
X0351622Y0120528D01*
X0351307Y0120803D01*
X0350992Y0121118D01*
X0350717Y0121472D01*
X0350323Y0122181D01*
X0350126Y0122929D01*
X0350087Y0123598D01*
X0350205Y0124228D01*
X0350220Y0124274D02*
X0353754Y0124274D01*
X0353564Y0123975D02*
X0350157Y0123975D01*
X0350101Y0123677D02*
X0353512Y0123677D01*
X0353572Y0123378D02*
X0350100Y0123378D01*
X0350117Y0123080D02*
X0353818Y0123080D01*
X0355080Y0123080D02*
X0356707Y0123080D01*
X0356740Y0122781D02*
X0350165Y0122781D01*
X0350244Y0122483D02*
X0356740Y0122483D01*
X0356740Y0122184D02*
X0350322Y0122184D01*
X0350487Y0121886D02*
X0356740Y0121886D01*
X0356740Y0121587D02*
X0350653Y0121587D01*
X0350860Y0121289D02*
X0356740Y0121289D01*
X0356740Y0120990D02*
X0351120Y0120990D01*
X0351435Y0120691D02*
X0356740Y0120691D01*
X0356740Y0120393D02*
X0351846Y0120393D01*
X0352554Y0120094D02*
X0356740Y0120094D01*
X0356740Y0119796D02*
X0354469Y0119796D01*
X0354857Y0119497D02*
X0356740Y0119497D01*
X0356740Y0119199D02*
X0355146Y0119199D01*
X0355401Y0118900D02*
X0356740Y0118900D01*
X0356740Y0118602D02*
X0355674Y0118602D01*
X0355972Y0118303D02*
X0356740Y0118303D01*
X0356740Y0118005D02*
X0356231Y0118005D01*
X0356488Y0117706D02*
X0356740Y0117706D01*
X0356629Y0123378D02*
X0355328Y0123378D01*
X0355349Y0123677D02*
X0356457Y0123677D01*
X0356159Y0123975D02*
X0355104Y0123975D01*
X0354300Y0124871D02*
X0350434Y0124871D01*
X0350319Y0124572D02*
X0354036Y0124572D01*
X0354538Y0125169D02*
X0352039Y0125169D01*
X0352507Y0125468D02*
X0354697Y0125468D01*
X0354763Y0125766D02*
X0352778Y0125766D01*
X0352918Y0126065D02*
X0354772Y0126065D01*
X0354690Y0126363D02*
X0352905Y0126363D01*
X0352721Y0126662D02*
X0354535Y0126662D01*
X0354234Y0126960D02*
X0351852Y0126960D01*
X0352407Y0127259D02*
X0353743Y0127259D01*
X0351307Y0125766D02*
X0351248Y0125766D01*
X0351307Y0125468D02*
X0350869Y0125468D01*
X0350624Y0125169D02*
X0351469Y0125169D01*
X0115490Y0120311D02*
X0115490Y0114917D01*
X0115293Y0115114D01*
X0115175Y0115311D01*
X0114978Y0115508D01*
X0114781Y0115744D01*
X0114309Y0116217D01*
X0113837Y0116768D01*
X0113443Y0117161D01*
X0113049Y0117398D01*
X0112813Y0117437D01*
X0112065Y0117437D01*
X0111593Y0117516D01*
X0111159Y0117634D01*
X0110766Y0117791D01*
X0110372Y0118028D01*
X0110057Y0118303D01*
X0109742Y0118618D01*
X0109467Y0118972D01*
X0109073Y0119681D01*
X0108876Y0120429D01*
X0108837Y0121098D01*
X0108955Y0121728D01*
X0109152Y0122319D01*
X0109427Y0122752D01*
X0109742Y0123106D01*
X0110057Y0123303D01*
X0110057Y0122949D01*
X0110096Y0122831D01*
X0110136Y0122752D01*
X0110254Y0122634D01*
X0110372Y0122594D01*
X0110490Y0122594D01*
X0110805Y0122673D01*
X0110963Y0122752D01*
X0111081Y0122831D01*
X0111238Y0122949D01*
X0111474Y0123185D01*
X0111632Y0123421D01*
X0111671Y0123579D01*
X0111671Y0123815D01*
X0111632Y0123933D01*
X0111593Y0124012D01*
X0111514Y0124130D01*
X0111356Y0124248D01*
X0111199Y0124327D01*
X0111002Y0124366D01*
X0110844Y0124406D01*
X0110608Y0124406D01*
X0110530Y0124366D01*
X0110490Y0124366D01*
X0110530Y0124406D01*
X0110687Y0124524D01*
X0111238Y0124799D01*
X0111593Y0124878D01*
X0111986Y0124878D01*
X0112419Y0124799D01*
X0112852Y0124563D01*
X0113207Y0124287D01*
X0113404Y0123972D01*
X0113522Y0123618D01*
X0113522Y0123303D01*
X0113443Y0122949D01*
X0113246Y0122594D01*
X0112970Y0122280D01*
X0112656Y0121925D01*
X0112380Y0121650D01*
X0112262Y0121335D01*
X0112262Y0121059D01*
X0112341Y0120823D01*
X0112498Y0120626D01*
X0112734Y0120469D01*
X0113049Y0120390D01*
X0113364Y0120390D01*
X0113561Y0120429D01*
X0113758Y0120508D01*
X0113994Y0120744D01*
X0114073Y0120862D01*
X0114112Y0120980D01*
X0114112Y0121138D01*
X0114073Y0121256D01*
X0113837Y0121492D01*
X0113719Y0121531D01*
X0113561Y0121610D01*
X0113522Y0121650D01*
X0113679Y0121728D01*
X0114152Y0121728D01*
X0114388Y0121689D01*
X0114585Y0121650D01*
X0114781Y0121571D01*
X0114939Y0121453D01*
X0115136Y0121295D01*
X0115372Y0120902D01*
X0115451Y0120626D01*
X0115490Y0120311D01*
X0115480Y0120393D02*
X0113380Y0120393D01*
X0113036Y0120393D02*
X0108886Y0120393D01*
X0108861Y0120691D02*
X0112446Y0120691D01*
X0112285Y0120990D02*
X0108843Y0120990D01*
X0108872Y0121289D02*
X0112262Y0121289D01*
X0112356Y0121587D02*
X0108928Y0121587D01*
X0109007Y0121886D02*
X0112616Y0121886D01*
X0112886Y0122184D02*
X0109107Y0122184D01*
X0109256Y0122483D02*
X0113148Y0122483D01*
X0113350Y0122781D02*
X0111006Y0122781D01*
X0111369Y0123080D02*
X0113472Y0123080D01*
X0113522Y0123378D02*
X0111603Y0123378D01*
X0111671Y0123677D02*
X0113502Y0123677D01*
X0113402Y0123975D02*
X0111611Y0123975D01*
X0111305Y0124274D02*
X0113215Y0124274D01*
X0112836Y0124572D02*
X0110784Y0124572D01*
X0111560Y0124871D02*
X0112026Y0124871D01*
X0110057Y0123080D02*
X0109718Y0123080D01*
X0109453Y0122781D02*
X0110121Y0122781D01*
X0108964Y0120094D02*
X0115490Y0120094D01*
X0115490Y0119796D02*
X0109043Y0119796D01*
X0109175Y0119497D02*
X0115490Y0119497D01*
X0115490Y0119199D02*
X0109341Y0119199D01*
X0109523Y0118900D02*
X0115490Y0118900D01*
X0115490Y0118602D02*
X0109758Y0118602D01*
X0110057Y0118303D02*
X0115490Y0118303D01*
X0115490Y0118005D02*
X0110410Y0118005D01*
X0110978Y0117706D02*
X0115490Y0117706D01*
X0115490Y0117408D02*
X0112988Y0117408D01*
X0113495Y0117109D02*
X0115490Y0117109D01*
X0115490Y0116811D02*
X0113793Y0116811D01*
X0114056Y0116512D02*
X0115490Y0116512D01*
X0115490Y0116214D02*
X0114312Y0116214D01*
X0114610Y0115915D02*
X0115490Y0115915D01*
X0115490Y0115617D02*
X0114888Y0115617D01*
X0115168Y0115318D02*
X0115490Y0115318D01*
X0115490Y0115020D02*
X0115388Y0115020D01*
X0115432Y0120691D02*
X0113941Y0120691D01*
X0114112Y0120990D02*
X0115319Y0120990D01*
X0115140Y0121289D02*
X0114040Y0121289D01*
X0113607Y0121587D02*
X0114741Y0121587D01*
D232*
X0074111Y0120720D02*
X0074111Y0119280D01*
X0072206Y0119087D01*
X0072001Y0118446D01*
X0071693Y0117848D01*
X0072904Y0116364D01*
X0071886Y0115346D01*
X0070402Y0116557D01*
X0069804Y0116249D01*
X0068956Y0118295D01*
X0069335Y0118507D01*
X0069653Y0118801D01*
X0069895Y0119162D01*
X0070045Y0119569D01*
X0070096Y0120000D01*
X0070043Y0120439D01*
X0069887Y0120852D01*
X0069638Y0121217D01*
X0069309Y0121511D01*
X0068919Y0121720D01*
X0068491Y0121829D01*
X0068049Y0121834D01*
X0067619Y0121734D01*
X0067225Y0121534D01*
X0066890Y0121246D01*
X0066632Y0120887D01*
X0066468Y0120477D01*
X0066405Y0120040D01*
X0066449Y0119600D01*
X0066595Y0119184D01*
X0066836Y0118814D01*
X0067159Y0118512D01*
X0067544Y0118295D01*
X0066696Y0116249D01*
X0066098Y0116557D01*
X0064614Y0115346D01*
X0063596Y0116364D01*
X0064807Y0117848D01*
X0064499Y0118446D01*
X0064294Y0119087D01*
X0062389Y0119280D01*
X0062389Y0120720D01*
X0064294Y0120913D01*
X0064499Y0121554D01*
X0064807Y0122152D01*
X0063596Y0123636D01*
X0064614Y0124654D01*
X0066098Y0123443D01*
X0066696Y0123751D01*
X0067337Y0123956D01*
X0067530Y0125861D01*
X0068970Y0125861D01*
X0069163Y0123956D01*
X0069804Y0123751D01*
X0070402Y0123443D01*
X0071886Y0124654D01*
X0072904Y0123636D01*
X0071693Y0122152D01*
X0072001Y0121554D01*
X0072206Y0120913D01*
X0074111Y0120720D01*
X0074111Y0120644D02*
X0069965Y0120644D01*
X0070089Y0120055D02*
X0074111Y0120055D01*
X0074111Y0119466D02*
X0070007Y0119466D01*
X0069704Y0118877D02*
X0072139Y0118877D01*
X0071919Y0118287D02*
X0068959Y0118287D01*
X0069203Y0117698D02*
X0071816Y0117698D01*
X0072296Y0117109D02*
X0069447Y0117109D01*
X0069691Y0116520D02*
X0070331Y0116520D01*
X0070446Y0116520D02*
X0072776Y0116520D01*
X0072471Y0115931D02*
X0071169Y0115931D01*
X0067297Y0117698D02*
X0064684Y0117698D01*
X0064581Y0118287D02*
X0067541Y0118287D01*
X0066795Y0118877D02*
X0064361Y0118877D01*
X0064204Y0117109D02*
X0067053Y0117109D01*
X0066809Y0116520D02*
X0066169Y0116520D01*
X0066054Y0116520D02*
X0063724Y0116520D01*
X0064029Y0115931D02*
X0065331Y0115931D01*
X0066496Y0119466D02*
X0062389Y0119466D01*
X0062389Y0120055D02*
X0066407Y0120055D01*
X0066535Y0120644D02*
X0062389Y0120644D01*
X0064396Y0121233D02*
X0066880Y0121233D01*
X0067997Y0121822D02*
X0064637Y0121822D01*
X0064595Y0122411D02*
X0071905Y0122411D01*
X0071863Y0121822D02*
X0068520Y0121822D01*
X0069619Y0121233D02*
X0072104Y0121233D01*
X0072385Y0123000D02*
X0064115Y0123000D01*
X0063635Y0123589D02*
X0065920Y0123589D01*
X0066381Y0123589D02*
X0070119Y0123589D01*
X0070580Y0123589D02*
X0072865Y0123589D01*
X0072361Y0124178D02*
X0071303Y0124178D01*
X0069141Y0124178D02*
X0067359Y0124178D01*
X0067419Y0124767D02*
X0069081Y0124767D01*
X0069021Y0125356D02*
X0067479Y0125356D01*
X0065197Y0124178D02*
X0064139Y0124178D01*
X0172389Y0135530D02*
X0172389Y0136970D01*
X0174294Y0137163D01*
X0174499Y0137804D01*
X0174807Y0138402D01*
X0173596Y0139886D01*
X0174614Y0140904D01*
X0176098Y0139693D01*
X0176696Y0140001D01*
X0177337Y0140206D01*
X0177530Y0142111D01*
X0178970Y0142111D01*
X0179163Y0140206D01*
X0179804Y0140001D01*
X0180402Y0139693D01*
X0181886Y0140904D01*
X0182904Y0139886D01*
X0181693Y0138402D01*
X0182001Y0137804D01*
X0182206Y0137163D01*
X0184111Y0136970D01*
X0184111Y0135530D01*
X0182206Y0135337D01*
X0182001Y0134696D01*
X0181693Y0134098D01*
X0182904Y0132614D01*
X0181886Y0131596D01*
X0180402Y0132807D01*
X0179804Y0132499D01*
X0178956Y0134545D01*
X0179335Y0134757D01*
X0179653Y0135051D01*
X0179895Y0135412D01*
X0180045Y0135819D01*
X0180096Y0136250D01*
X0180043Y0136689D01*
X0179887Y0137102D01*
X0179638Y0137467D01*
X0179309Y0137761D01*
X0178919Y0137970D01*
X0178491Y0138079D01*
X0178049Y0138084D01*
X0177619Y0137984D01*
X0177225Y0137784D01*
X0176890Y0137496D01*
X0176632Y0137137D01*
X0176468Y0136727D01*
X0176405Y0136290D01*
X0176449Y0135850D01*
X0176595Y0135434D01*
X0176836Y0135064D01*
X0177159Y0134762D01*
X0177544Y0134545D01*
X0176696Y0132499D01*
X0176098Y0132807D01*
X0174614Y0131596D01*
X0173596Y0132614D01*
X0174807Y0134098D01*
X0174499Y0134696D01*
X0174294Y0135337D01*
X0172389Y0135530D01*
X0172389Y0135959D02*
X0176438Y0135959D01*
X0176442Y0136548D02*
X0172389Y0136548D01*
X0174039Y0137138D02*
X0176633Y0137138D01*
X0177158Y0137727D02*
X0174474Y0137727D01*
X0174762Y0138316D02*
X0181738Y0138316D01*
X0182026Y0137727D02*
X0179347Y0137727D01*
X0179863Y0137138D02*
X0182461Y0137138D01*
X0184111Y0136548D02*
X0180060Y0136548D01*
X0180061Y0135959D02*
X0184111Y0135959D01*
X0182538Y0135370D02*
X0179867Y0135370D01*
X0179361Y0134781D02*
X0182028Y0134781D01*
X0181742Y0134192D02*
X0179102Y0134192D01*
X0179346Y0133603D02*
X0182097Y0133603D01*
X0182577Y0133014D02*
X0179590Y0133014D01*
X0180870Y0132425D02*
X0182714Y0132425D01*
X0182125Y0131836D02*
X0181592Y0131836D01*
X0177154Y0133603D02*
X0174403Y0133603D01*
X0174758Y0134192D02*
X0177398Y0134192D01*
X0177138Y0134781D02*
X0174472Y0134781D01*
X0173962Y0135370D02*
X0176636Y0135370D01*
X0176910Y0133014D02*
X0173923Y0133014D01*
X0173786Y0132425D02*
X0175630Y0132425D01*
X0174908Y0131836D02*
X0174375Y0131836D01*
X0174396Y0138905D02*
X0182104Y0138905D01*
X0182584Y0139494D02*
X0173916Y0139494D01*
X0173793Y0140083D02*
X0175621Y0140083D01*
X0174898Y0140672D02*
X0174383Y0140672D01*
X0176951Y0140083D02*
X0179549Y0140083D01*
X0179116Y0140672D02*
X0177384Y0140672D01*
X0177444Y0141261D02*
X0179056Y0141261D01*
X0178996Y0141850D02*
X0177504Y0141850D01*
X0180879Y0140083D02*
X0182707Y0140083D01*
X0182117Y0140672D02*
X0181602Y0140672D01*
X0291139Y0121970D02*
X0293044Y0122163D01*
X0293249Y0122804D01*
X0293557Y0123402D01*
X0292346Y0124886D01*
X0293364Y0125904D01*
X0294848Y0124693D01*
X0295446Y0125001D01*
X0296087Y0125206D01*
X0296280Y0127111D01*
X0297720Y0127111D01*
X0297913Y0125206D01*
X0298554Y0125001D01*
X0299152Y0124693D01*
X0300636Y0125904D01*
X0301654Y0124886D01*
X0300443Y0123402D01*
X0300751Y0122804D01*
X0300956Y0122163D01*
X0302861Y0121970D01*
X0302861Y0120530D01*
X0300956Y0120337D01*
X0300751Y0119696D01*
X0300443Y0119098D01*
X0301654Y0117614D01*
X0300636Y0116596D01*
X0299152Y0117807D01*
X0298554Y0117499D01*
X0297706Y0119545D01*
X0298085Y0119757D01*
X0298403Y0120051D01*
X0298645Y0120412D01*
X0298795Y0120819D01*
X0298846Y0121250D01*
X0298793Y0121689D01*
X0298637Y0122102D01*
X0298388Y0122467D01*
X0298059Y0122761D01*
X0297669Y0122970D01*
X0297241Y0123079D01*
X0296799Y0123084D01*
X0296369Y0122984D01*
X0295975Y0122784D01*
X0295640Y0122496D01*
X0295382Y0122137D01*
X0295218Y0121727D01*
X0295155Y0121290D01*
X0295199Y0120850D01*
X0295345Y0120434D01*
X0295586Y0120064D01*
X0295909Y0119762D01*
X0296294Y0119545D01*
X0295446Y0117499D01*
X0294848Y0117807D01*
X0293364Y0116596D01*
X0292346Y0117614D01*
X0293557Y0119098D01*
X0293249Y0119696D01*
X0293044Y0120337D01*
X0291139Y0120530D01*
X0291139Y0121970D01*
X0291139Y0121822D02*
X0295256Y0121822D01*
X0295161Y0121233D02*
X0291139Y0121233D01*
X0291139Y0120644D02*
X0295271Y0120644D01*
X0295596Y0120055D02*
X0293134Y0120055D01*
X0293368Y0119466D02*
X0296261Y0119466D01*
X0296017Y0118877D02*
X0293376Y0118877D01*
X0292895Y0118287D02*
X0295773Y0118287D01*
X0295529Y0117698D02*
X0295059Y0117698D01*
X0294716Y0117698D02*
X0292415Y0117698D01*
X0292851Y0117109D02*
X0293993Y0117109D01*
X0297983Y0118877D02*
X0300624Y0118877D01*
X0300632Y0119466D02*
X0297739Y0119466D01*
X0298406Y0120055D02*
X0300866Y0120055D01*
X0301105Y0118287D02*
X0298227Y0118287D01*
X0298471Y0117698D02*
X0298941Y0117698D01*
X0299284Y0117698D02*
X0301585Y0117698D01*
X0301149Y0117109D02*
X0300007Y0117109D01*
X0298730Y0120644D02*
X0302861Y0120644D01*
X0302861Y0121233D02*
X0298844Y0121233D01*
X0298743Y0121822D02*
X0302861Y0121822D01*
X0300877Y0122411D02*
X0298426Y0122411D01*
X0297550Y0123000D02*
X0300650Y0123000D01*
X0300596Y0123589D02*
X0293404Y0123589D01*
X0293350Y0123000D02*
X0296439Y0123000D01*
X0295579Y0122411D02*
X0293123Y0122411D01*
X0292924Y0124178D02*
X0301077Y0124178D01*
X0301557Y0124767D02*
X0299242Y0124767D01*
X0299008Y0124767D02*
X0294992Y0124767D01*
X0294758Y0124767D02*
X0292443Y0124767D01*
X0292817Y0125356D02*
X0294035Y0125356D01*
X0296102Y0125356D02*
X0297898Y0125356D01*
X0297838Y0125945D02*
X0296162Y0125945D01*
X0296222Y0126534D02*
X0297778Y0126534D01*
X0299965Y0125356D02*
X0301183Y0125356D01*
X0300636Y0313596D02*
X0299152Y0314807D01*
X0298554Y0314499D01*
X0297706Y0316545D01*
X0298085Y0316757D01*
X0298403Y0317051D01*
X0298645Y0317412D01*
X0298795Y0317819D01*
X0298846Y0318250D01*
X0298793Y0318689D01*
X0298637Y0319102D01*
X0298388Y0319467D01*
X0298059Y0319761D01*
X0297669Y0319970D01*
X0297241Y0320079D01*
X0296799Y0320084D01*
X0296369Y0319984D01*
X0295975Y0319784D01*
X0295640Y0319496D01*
X0295382Y0319137D01*
X0295218Y0318727D01*
X0295155Y0318290D01*
X0295199Y0317850D01*
X0295345Y0317434D01*
X0295586Y0317064D01*
X0295909Y0316762D01*
X0296294Y0316545D01*
X0295446Y0314499D01*
X0294848Y0314807D01*
X0293364Y0313596D01*
X0292346Y0314614D01*
X0293557Y0316098D01*
X0293249Y0316696D01*
X0293044Y0317337D01*
X0291139Y0317530D01*
X0291139Y0318970D01*
X0293044Y0319163D01*
X0293249Y0319804D01*
X0293557Y0320402D01*
X0292346Y0321886D01*
X0293364Y0322904D01*
X0294848Y0321693D01*
X0295446Y0322001D01*
X0296087Y0322206D01*
X0296280Y0324111D01*
X0297720Y0324111D01*
X0297913Y0322206D01*
X0298554Y0322001D01*
X0299152Y0321693D01*
X0300636Y0322904D01*
X0301654Y0321886D01*
X0300443Y0320402D01*
X0300751Y0319804D01*
X0300956Y0319163D01*
X0302861Y0318970D01*
X0302861Y0317530D01*
X0300956Y0317337D01*
X0300751Y0316696D01*
X0300443Y0316098D01*
X0301654Y0314614D01*
X0300636Y0313596D01*
X0300896Y0313856D02*
X0300317Y0313856D01*
X0299595Y0314445D02*
X0301485Y0314445D01*
X0301311Y0315034D02*
X0298332Y0315034D01*
X0298088Y0315623D02*
X0300831Y0315623D01*
X0300502Y0316213D02*
X0297844Y0316213D01*
X0298133Y0316802D02*
X0300785Y0316802D01*
X0301488Y0317391D02*
X0298630Y0317391D01*
X0298814Y0317980D02*
X0302861Y0317980D01*
X0302861Y0318569D02*
X0298807Y0318569D01*
X0298599Y0319158D02*
X0301011Y0319158D01*
X0300769Y0319747D02*
X0298075Y0319747D01*
X0295932Y0319747D02*
X0293231Y0319747D01*
X0292989Y0319158D02*
X0295397Y0319158D01*
X0295195Y0318569D02*
X0291139Y0318569D01*
X0291139Y0317980D02*
X0295186Y0317980D01*
X0295373Y0317391D02*
X0292512Y0317391D01*
X0293215Y0316802D02*
X0295866Y0316802D01*
X0296156Y0316213D02*
X0293498Y0316213D01*
X0293169Y0315623D02*
X0295912Y0315623D01*
X0295668Y0315034D02*
X0292689Y0315034D01*
X0292515Y0314445D02*
X0294405Y0314445D01*
X0293683Y0313856D02*
X0293104Y0313856D01*
X0293523Y0320336D02*
X0300477Y0320336D01*
X0300870Y0320925D02*
X0293130Y0320925D01*
X0292650Y0321514D02*
X0301350Y0321514D01*
X0301436Y0322103D02*
X0299654Y0322103D01*
X0300377Y0322692D02*
X0300847Y0322692D01*
X0298236Y0322103D02*
X0295764Y0322103D01*
X0296136Y0322692D02*
X0297864Y0322692D01*
X0297804Y0323281D02*
X0296196Y0323281D01*
X0296256Y0323870D02*
X0297744Y0323870D01*
X0294346Y0322103D02*
X0292564Y0322103D01*
X0293153Y0322692D02*
X0293623Y0322692D01*
X0184111Y0332530D02*
X0182206Y0332337D01*
X0182001Y0331696D01*
X0181693Y0331098D01*
X0182904Y0329614D01*
X0181886Y0328596D01*
X0180402Y0329807D01*
X0179804Y0329499D01*
X0178956Y0331545D01*
X0179335Y0331757D01*
X0179653Y0332051D01*
X0179895Y0332412D01*
X0180045Y0332819D01*
X0180096Y0333250D01*
X0180043Y0333689D01*
X0179887Y0334102D01*
X0179638Y0334467D01*
X0179309Y0334761D01*
X0178919Y0334970D01*
X0178491Y0335079D01*
X0178049Y0335084D01*
X0177619Y0334984D01*
X0177225Y0334784D01*
X0176890Y0334496D01*
X0176632Y0334137D01*
X0176468Y0333727D01*
X0176405Y0333290D01*
X0176449Y0332850D01*
X0176595Y0332434D01*
X0176836Y0332064D01*
X0177159Y0331762D01*
X0177544Y0331545D01*
X0176696Y0329499D01*
X0176098Y0329807D01*
X0174614Y0328596D01*
X0173596Y0329614D01*
X0174807Y0331098D01*
X0174499Y0331696D01*
X0174294Y0332337D01*
X0172389Y0332530D01*
X0172389Y0333970D01*
X0174294Y0334163D01*
X0174499Y0334804D01*
X0174807Y0335402D01*
X0173596Y0336886D01*
X0174614Y0337904D01*
X0176098Y0336693D01*
X0176696Y0337001D01*
X0177337Y0337206D01*
X0177530Y0339111D01*
X0178970Y0339111D01*
X0179163Y0337206D01*
X0179804Y0337001D01*
X0180402Y0336693D01*
X0181886Y0337904D01*
X0182904Y0336886D01*
X0181693Y0335402D01*
X0182001Y0334804D01*
X0182206Y0334163D01*
X0184111Y0333970D01*
X0184111Y0332530D01*
X0184111Y0332706D02*
X0180003Y0332706D01*
X0180090Y0333295D02*
X0184111Y0333295D01*
X0184111Y0333884D02*
X0179969Y0333884D01*
X0179630Y0334473D02*
X0182107Y0334473D01*
X0181868Y0335063D02*
X0178556Y0335063D01*
X0177957Y0335063D02*
X0174632Y0335063D01*
X0174603Y0335652D02*
X0181897Y0335652D01*
X0182377Y0336241D02*
X0174123Y0336241D01*
X0173642Y0336830D02*
X0175931Y0336830D01*
X0176363Y0336830D02*
X0180137Y0336830D01*
X0180569Y0336830D02*
X0182858Y0336830D01*
X0182371Y0337419D02*
X0181291Y0337419D01*
X0179142Y0337419D02*
X0177358Y0337419D01*
X0177418Y0338008D02*
X0179082Y0338008D01*
X0179022Y0338597D02*
X0177478Y0338597D01*
X0175209Y0337419D02*
X0174129Y0337419D01*
X0174393Y0334473D02*
X0176873Y0334473D01*
X0176531Y0333884D02*
X0172389Y0333884D01*
X0172389Y0333295D02*
X0176406Y0333295D01*
X0176499Y0332706D02*
X0172389Y0332706D01*
X0174364Y0332117D02*
X0176802Y0332117D01*
X0177537Y0331528D02*
X0174585Y0331528D01*
X0174677Y0330939D02*
X0177293Y0330939D01*
X0177049Y0330350D02*
X0174196Y0330350D01*
X0173716Y0329761D02*
X0176042Y0329761D01*
X0176187Y0329761D02*
X0176805Y0329761D01*
X0175320Y0329172D02*
X0174039Y0329172D01*
X0178963Y0331528D02*
X0181915Y0331528D01*
X0181823Y0330939D02*
X0179207Y0330939D01*
X0179451Y0330350D02*
X0182304Y0330350D01*
X0182784Y0329761D02*
X0180458Y0329761D01*
X0180313Y0329761D02*
X0179695Y0329761D01*
X0181180Y0329172D02*
X0182461Y0329172D01*
X0182136Y0332117D02*
X0179698Y0332117D01*
X0074111Y0317720D02*
X0074111Y0316280D01*
X0072206Y0316087D01*
X0072001Y0315446D01*
X0071693Y0314848D01*
X0072904Y0313364D01*
X0071886Y0312346D01*
X0070402Y0313557D01*
X0069804Y0313249D01*
X0068956Y0315295D01*
X0069335Y0315507D01*
X0069653Y0315801D01*
X0069895Y0316162D01*
X0070045Y0316569D01*
X0070096Y0317000D01*
X0070043Y0317439D01*
X0069887Y0317852D01*
X0069638Y0318217D01*
X0069309Y0318511D01*
X0068919Y0318720D01*
X0068491Y0318829D01*
X0068049Y0318834D01*
X0067619Y0318734D01*
X0067225Y0318534D01*
X0066890Y0318246D01*
X0066632Y0317887D01*
X0066468Y0317477D01*
X0066405Y0317040D01*
X0066449Y0316600D01*
X0066595Y0316184D01*
X0066836Y0315814D01*
X0067159Y0315512D01*
X0067544Y0315295D01*
X0066696Y0313249D01*
X0066098Y0313557D01*
X0064614Y0312346D01*
X0063596Y0313364D01*
X0064807Y0314848D01*
X0064499Y0315446D01*
X0064294Y0316087D01*
X0062389Y0316280D01*
X0062389Y0317720D01*
X0064294Y0317913D01*
X0064499Y0318554D01*
X0064807Y0319152D01*
X0063596Y0320636D01*
X0064614Y0321654D01*
X0066098Y0320443D01*
X0066696Y0320751D01*
X0067337Y0320956D01*
X0067530Y0322861D01*
X0068970Y0322861D01*
X0069163Y0320956D01*
X0069804Y0320751D01*
X0070402Y0320443D01*
X0071886Y0321654D01*
X0072904Y0320636D01*
X0071693Y0319152D01*
X0072001Y0318554D01*
X0072206Y0317913D01*
X0074111Y0317720D01*
X0074111Y0317391D02*
X0070048Y0317391D01*
X0070072Y0316802D02*
X0074111Y0316802D01*
X0073444Y0316213D02*
X0069913Y0316213D01*
X0069461Y0315623D02*
X0072058Y0315623D01*
X0071789Y0315034D02*
X0069064Y0315034D01*
X0069308Y0314445D02*
X0072022Y0314445D01*
X0072502Y0313856D02*
X0069552Y0313856D01*
X0069796Y0313267D02*
X0069840Y0313267D01*
X0070757Y0313267D02*
X0072807Y0313267D01*
X0072217Y0312678D02*
X0071479Y0312678D01*
X0067192Y0314445D02*
X0064478Y0314445D01*
X0064711Y0315034D02*
X0067436Y0315034D01*
X0067039Y0315623D02*
X0064442Y0315623D01*
X0063056Y0316213D02*
X0066585Y0316213D01*
X0066429Y0316802D02*
X0062389Y0316802D01*
X0062389Y0317391D02*
X0066455Y0317391D01*
X0066699Y0317980D02*
X0064315Y0317980D01*
X0064506Y0318569D02*
X0067294Y0318569D01*
X0069201Y0318569D02*
X0071994Y0318569D01*
X0072185Y0317980D02*
X0069800Y0317980D01*
X0071698Y0319158D02*
X0064802Y0319158D01*
X0064321Y0319747D02*
X0072179Y0319747D01*
X0072659Y0320336D02*
X0063841Y0320336D01*
X0063886Y0320925D02*
X0065508Y0320925D01*
X0064785Y0321514D02*
X0064475Y0321514D01*
X0067239Y0320925D02*
X0069261Y0320925D01*
X0069107Y0321514D02*
X0067393Y0321514D01*
X0067453Y0322103D02*
X0069047Y0322103D01*
X0068987Y0322692D02*
X0067513Y0322692D01*
X0070992Y0320925D02*
X0072614Y0320925D01*
X0072025Y0321514D02*
X0071715Y0321514D01*
X0066948Y0313856D02*
X0063998Y0313856D01*
X0063693Y0313267D02*
X0065743Y0313267D01*
X0066660Y0313267D02*
X0066704Y0313267D01*
X0065021Y0312678D02*
X0064283Y0312678D01*
D233*
X0326644Y0330100D03*
X0326644Y0336400D03*
X0326644Y0139400D03*
X0326644Y0133100D03*
D234*
X0326644Y0139242D03*
X0326644Y0336242D03*
X0105059Y0333575D03*
X0105059Y0333417D03*
X0105059Y0136575D03*
X0105059Y0136417D03*
D235*
X0326644Y0139085D03*
X0326644Y0336085D03*
D236*
X0326644Y0335927D03*
X0326644Y0138927D03*
X0107264Y0137992D03*
X0107264Y0334992D03*
D237*
X0109075Y0331370D03*
X0200699Y0351705D03*
X0343573Y0335770D03*
X0343730Y0335612D03*
X0200699Y0154705D03*
X0109075Y0134370D03*
X0343573Y0138770D03*
X0343730Y0138612D03*
D238*
X0341053Y0138770D03*
X0334439Y0134518D03*
X0332392Y0134675D03*
X0322943Y0137352D03*
X0319478Y0137195D03*
X0316329Y0134675D03*
X0215502Y0150925D03*
X0215502Y0153445D03*
X0212510Y0150925D03*
X0209990Y0150768D03*
X0210463Y0153287D03*
X0196447Y0152343D03*
X0194242Y0153602D03*
X0121043Y0136102D03*
X0118524Y0136102D03*
X0121201Y0133268D03*
X0113799Y0136102D03*
X0105768Y0135945D03*
X0102933Y0136102D03*
X0101043Y0133268D03*
X0099469Y0135945D03*
X0096319Y0135945D03*
X0096319Y0133425D03*
X0101043Y0330268D03*
X0099469Y0332945D03*
X0096319Y0332945D03*
X0096319Y0330425D03*
X0102933Y0333102D03*
X0105768Y0332945D03*
X0113799Y0333102D03*
X0118524Y0333102D03*
X0121043Y0333102D03*
X0121201Y0330268D03*
X0194242Y0350602D03*
X0196447Y0349343D03*
X0209990Y0347768D03*
X0212510Y0347925D03*
X0215502Y0347925D03*
X0215502Y0350445D03*
X0210463Y0350287D03*
X0316329Y0331675D03*
X0319478Y0334195D03*
X0322943Y0334352D03*
X0332392Y0331675D03*
X0334439Y0331518D03*
X0341053Y0335770D03*
D239*
X0337825Y0335770D03*
X0309951Y0331518D03*
X0309793Y0331675D03*
X0309793Y0331833D03*
X0191644Y0347768D03*
X0089941Y0330268D03*
X0089783Y0330425D03*
X0089783Y0330583D03*
X0191644Y0150768D03*
X0089941Y0133268D03*
X0089783Y0133425D03*
X0089783Y0133583D03*
X0309793Y0134675D03*
X0309793Y0134833D03*
X0309951Y0134518D03*
X0337825Y0138770D03*
D240*
X0321762Y0138770D03*
X0321604Y0138612D03*
X0321604Y0335612D03*
X0321762Y0335770D03*
D241*
X0320974Y0333093D03*
X0320974Y0332935D03*
X0320974Y0332778D03*
X0320974Y0332620D03*
X0320974Y0332463D03*
X0320974Y0332305D03*
X0320974Y0332148D03*
X0320974Y0331990D03*
X0320974Y0331833D03*
X0320974Y0331675D03*
X0318927Y0332620D03*
X0319400Y0334037D03*
X0316250Y0334195D03*
X0314833Y0333093D03*
X0314833Y0332935D03*
X0314833Y0332778D03*
X0313415Y0331675D03*
X0313415Y0334195D03*
X0325699Y0334195D03*
X0325856Y0331675D03*
X0334360Y0331675D03*
X0339085Y0331675D03*
X0341132Y0335612D03*
X0225502Y0348713D03*
X0225502Y0348870D03*
X0225502Y0349028D03*
X0225502Y0349185D03*
X0225502Y0349343D03*
X0225502Y0349500D03*
X0225502Y0349657D03*
X0214006Y0349343D03*
X0214006Y0349185D03*
X0214006Y0349028D03*
X0212589Y0350445D03*
X0210541Y0350130D03*
X0208809Y0349343D03*
X0208809Y0349185D03*
X0208809Y0349028D03*
X0196368Y0349500D03*
X0196368Y0349657D03*
X0196368Y0349815D03*
X0196368Y0349972D03*
X0196368Y0350130D03*
X0194321Y0348870D03*
X0121909Y0332000D03*
X0121909Y0331843D03*
X0121909Y0331685D03*
X0121909Y0331528D03*
X0121909Y0331370D03*
X0116713Y0330268D03*
X0106319Y0332000D03*
X0105846Y0330425D03*
X0100965Y0330425D03*
X0098917Y0331370D03*
X0096870Y0332000D03*
X0094823Y0331843D03*
X0094823Y0331685D03*
X0094823Y0331528D03*
X0093406Y0330425D03*
X0093406Y0332945D03*
X0196368Y0153130D03*
X0196368Y0152972D03*
X0196368Y0152815D03*
X0196368Y0152657D03*
X0196368Y0152500D03*
X0194321Y0151870D03*
X0208809Y0152028D03*
X0208809Y0152185D03*
X0208809Y0152343D03*
X0210541Y0153130D03*
X0212589Y0153445D03*
X0214006Y0152343D03*
X0214006Y0152185D03*
X0214006Y0152028D03*
X0225502Y0152028D03*
X0225502Y0152185D03*
X0225502Y0152343D03*
X0225502Y0152500D03*
X0225502Y0152657D03*
X0225502Y0151870D03*
X0225502Y0151713D03*
X0313415Y0137195D03*
X0314833Y0136093D03*
X0314833Y0135935D03*
X0314833Y0135778D03*
X0313415Y0134675D03*
X0316250Y0137195D03*
X0318927Y0135620D03*
X0319400Y0137037D03*
X0320974Y0136093D03*
X0320974Y0135935D03*
X0320974Y0135778D03*
X0320974Y0135620D03*
X0320974Y0135463D03*
X0320974Y0135305D03*
X0320974Y0135148D03*
X0320974Y0134990D03*
X0320974Y0134833D03*
X0320974Y0134675D03*
X0325856Y0134675D03*
X0325699Y0137195D03*
X0334360Y0134675D03*
X0339085Y0134675D03*
X0341132Y0138612D03*
X0121909Y0135000D03*
X0121909Y0134843D03*
X0121909Y0134685D03*
X0121909Y0134528D03*
X0121909Y0134370D03*
X0116713Y0133268D03*
X0106319Y0135000D03*
X0105846Y0133425D03*
X0100965Y0133425D03*
X0098917Y0134370D03*
X0096870Y0135000D03*
X0094823Y0134843D03*
X0094823Y0134685D03*
X0094823Y0134528D03*
X0093406Y0133425D03*
X0093406Y0135945D03*
D242*
X0191329Y0150925D03*
X0219518Y0150768D03*
X0219518Y0153602D03*
X0224242Y0154390D03*
X0224242Y0154547D03*
X0228337Y0150768D03*
X0329163Y0135463D03*
X0337825Y0137982D03*
X0337825Y0138612D03*
X0329163Y0332463D03*
X0337825Y0334982D03*
X0337825Y0335612D03*
X0228337Y0347768D03*
X0224242Y0351390D03*
X0224242Y0351547D03*
X0219518Y0350602D03*
X0219518Y0347768D03*
X0191329Y0347925D03*
D243*
X0197156Y0348713D03*
X0197156Y0348870D03*
X0197156Y0349028D03*
X0197156Y0349185D03*
X0197156Y0350287D03*
X0197156Y0350445D03*
X0197156Y0350602D03*
X0197156Y0350760D03*
X0109626Y0332945D03*
X0109783Y0330425D03*
X0197156Y0153760D03*
X0197156Y0153602D03*
X0197156Y0153445D03*
X0197156Y0153287D03*
X0197156Y0152185D03*
X0197156Y0152028D03*
X0197156Y0151870D03*
X0197156Y0151713D03*
X0109626Y0135945D03*
X0109783Y0133425D03*
X0329793Y0136250D03*
X0329793Y0136407D03*
X0343809Y0138455D03*
X0329793Y0333250D03*
X0329793Y0333407D03*
X0343809Y0335455D03*
D244*
X0341053Y0335455D03*
X0341053Y0335297D03*
X0341053Y0335140D03*
X0341053Y0334982D03*
X0341053Y0334352D03*
X0341053Y0334195D03*
X0341053Y0334037D03*
X0341053Y0333880D03*
X0341053Y0333722D03*
X0341053Y0333565D03*
X0341053Y0333407D03*
X0341053Y0333250D03*
X0341053Y0333093D03*
X0341053Y0332935D03*
X0341053Y0332778D03*
X0341053Y0332620D03*
X0341053Y0332463D03*
X0339163Y0334195D03*
X0337904Y0333093D03*
X0337904Y0332935D03*
X0337904Y0332778D03*
X0337904Y0331203D03*
X0334439Y0331833D03*
X0334439Y0331990D03*
X0334439Y0332148D03*
X0334439Y0332305D03*
X0334439Y0332463D03*
X0334439Y0332620D03*
X0334439Y0332778D03*
X0334439Y0332935D03*
X0334439Y0333093D03*
X0333022Y0334195D03*
X0332549Y0333407D03*
X0332549Y0333250D03*
X0332392Y0331990D03*
X0332392Y0331833D03*
X0327195Y0333565D03*
X0326250Y0333250D03*
X0326093Y0333565D03*
X0325778Y0334037D03*
X0324045Y0332305D03*
X0322943Y0332620D03*
X0322785Y0331518D03*
X0319163Y0331518D03*
X0317746Y0333565D03*
X0316801Y0333250D03*
X0316644Y0333565D03*
X0316329Y0334037D03*
X0314754Y0333250D03*
X0314754Y0332620D03*
X0316329Y0331833D03*
X0216919Y0349500D03*
X0214085Y0349500D03*
X0214085Y0348870D03*
X0212510Y0348083D03*
X0212510Y0350287D03*
X0210620Y0349972D03*
X0210620Y0349815D03*
X0208730Y0349500D03*
X0208730Y0348870D03*
X0207313Y0347925D03*
X0207313Y0350445D03*
X0210148Y0347925D03*
X0194400Y0350760D03*
X0121831Y0332157D03*
X0121831Y0331213D03*
X0119626Y0331055D03*
X0118524Y0331370D03*
X0118366Y0330268D03*
X0115059Y0330268D03*
X0115531Y0333102D03*
X0113642Y0332945D03*
X0111752Y0331843D03*
X0111752Y0331685D03*
X0111752Y0331528D03*
X0107185Y0332315D03*
X0106083Y0332315D03*
X0105768Y0332787D03*
X0104035Y0331055D03*
X0102933Y0331370D03*
X0102776Y0330268D03*
X0101043Y0330583D03*
X0101043Y0330740D03*
X0101043Y0330898D03*
X0101043Y0331055D03*
X0101043Y0331213D03*
X0101043Y0331370D03*
X0101043Y0331528D03*
X0101043Y0331685D03*
X0101043Y0331843D03*
X0099469Y0332787D03*
X0097736Y0332315D03*
X0096634Y0332315D03*
X0096319Y0332787D03*
X0094744Y0332000D03*
X0094744Y0331370D03*
X0096319Y0330583D03*
X0099154Y0330268D03*
X0194400Y0153760D03*
X0207313Y0153445D03*
X0208730Y0152500D03*
X0208730Y0151870D03*
X0207313Y0150925D03*
X0210148Y0150925D03*
X0210620Y0152815D03*
X0210620Y0152972D03*
X0212510Y0153287D03*
X0214085Y0152500D03*
X0214085Y0151870D03*
X0212510Y0151083D03*
X0216919Y0152500D03*
X0314754Y0136250D03*
X0314754Y0135620D03*
X0316329Y0134833D03*
X0316801Y0136250D03*
X0316644Y0136565D03*
X0316329Y0137037D03*
X0317746Y0136565D03*
X0319163Y0134518D03*
X0322785Y0134518D03*
X0322943Y0135620D03*
X0324045Y0135305D03*
X0326250Y0136250D03*
X0326093Y0136565D03*
X0325778Y0137037D03*
X0327195Y0136565D03*
X0332549Y0136407D03*
X0332549Y0136250D03*
X0333022Y0137195D03*
X0334439Y0136093D03*
X0334439Y0135935D03*
X0334439Y0135778D03*
X0334439Y0135620D03*
X0334439Y0135463D03*
X0334439Y0135305D03*
X0334439Y0135148D03*
X0334439Y0134990D03*
X0334439Y0134833D03*
X0332392Y0134833D03*
X0332392Y0134990D03*
X0337904Y0134203D03*
X0337904Y0135778D03*
X0337904Y0135935D03*
X0337904Y0136093D03*
X0339163Y0137195D03*
X0341053Y0137195D03*
X0341053Y0137352D03*
X0341053Y0137037D03*
X0341053Y0136880D03*
X0341053Y0136722D03*
X0341053Y0136565D03*
X0341053Y0136407D03*
X0341053Y0136250D03*
X0341053Y0136093D03*
X0341053Y0135935D03*
X0341053Y0135778D03*
X0341053Y0135620D03*
X0341053Y0135463D03*
X0341053Y0137982D03*
X0341053Y0138140D03*
X0341053Y0138297D03*
X0341053Y0138455D03*
X0121831Y0135157D03*
X0121831Y0134213D03*
X0119626Y0134055D03*
X0118524Y0134370D03*
X0118366Y0133268D03*
X0115059Y0133268D03*
X0115531Y0136102D03*
X0113642Y0135945D03*
X0111752Y0134843D03*
X0111752Y0134685D03*
X0111752Y0134528D03*
X0107185Y0135315D03*
X0106083Y0135315D03*
X0105768Y0135787D03*
X0104035Y0134055D03*
X0102933Y0134370D03*
X0102776Y0133268D03*
X0101043Y0133583D03*
X0101043Y0133740D03*
X0101043Y0133898D03*
X0101043Y0134055D03*
X0101043Y0134213D03*
X0101043Y0134370D03*
X0101043Y0134528D03*
X0101043Y0134685D03*
X0101043Y0134843D03*
X0099469Y0135787D03*
X0097736Y0135315D03*
X0096634Y0135315D03*
X0096319Y0135787D03*
X0094744Y0135000D03*
X0094744Y0134370D03*
X0096319Y0133583D03*
X0099154Y0133268D03*
D245*
X0124980Y0133425D03*
X0125138Y0133740D03*
X0125138Y0133898D03*
X0125295Y0134213D03*
X0125295Y0134370D03*
X0125295Y0134528D03*
X0125295Y0134685D03*
X0125295Y0134843D03*
X0125295Y0135000D03*
X0125295Y0135157D03*
X0191093Y0151240D03*
X0191250Y0151083D03*
X0191722Y0154705D03*
X0224163Y0154232D03*
X0228573Y0150925D03*
X0337746Y0138455D03*
X0337746Y0138297D03*
X0337746Y0138140D03*
X0337746Y0335140D03*
X0337746Y0335297D03*
X0337746Y0335455D03*
X0228573Y0347925D03*
X0224163Y0351232D03*
X0191722Y0351705D03*
X0191093Y0348240D03*
X0191250Y0348083D03*
X0125295Y0332157D03*
X0125295Y0332000D03*
X0125295Y0331843D03*
X0125295Y0331685D03*
X0125295Y0331528D03*
X0125295Y0331370D03*
X0125295Y0331213D03*
X0125138Y0330898D03*
X0125138Y0330740D03*
X0124980Y0330425D03*
D246*
X0321526Y0335455D03*
X0321526Y0138455D03*
D247*
X0329715Y0136093D03*
X0329715Y0135935D03*
X0333494Y0137510D03*
X0333494Y0137667D03*
X0333494Y0137825D03*
X0333494Y0137982D03*
X0333494Y0138140D03*
X0333494Y0138297D03*
X0343888Y0138297D03*
X0219911Y0152500D03*
X0219911Y0152657D03*
X0329715Y0332935D03*
X0329715Y0333093D03*
X0333494Y0334510D03*
X0333494Y0334667D03*
X0333494Y0334825D03*
X0333494Y0334982D03*
X0333494Y0335140D03*
X0333494Y0335297D03*
X0343888Y0335297D03*
X0219911Y0349500D03*
X0219911Y0349657D03*
D248*
X0319557Y0335297D03*
X0319557Y0138297D03*
X0100807Y0132008D03*
X0100807Y0329008D03*
D249*
X0204242Y0349657D03*
X0219833Y0349815D03*
X0219833Y0349972D03*
X0219833Y0348398D03*
X0229124Y0350445D03*
X0329636Y0332778D03*
X0343967Y0334982D03*
X0343967Y0335140D03*
X0229124Y0153445D03*
X0219833Y0152972D03*
X0219833Y0152815D03*
X0219833Y0151398D03*
X0204242Y0152657D03*
X0329636Y0135778D03*
X0343967Y0137982D03*
X0343967Y0138140D03*
D250*
X0319478Y0138140D03*
X0319478Y0137982D03*
X0319478Y0334982D03*
X0319478Y0335140D03*
D251*
X0309085Y0334195D03*
X0344045Y0334667D03*
X0344045Y0334825D03*
X0344045Y0331833D03*
X0229203Y0349815D03*
X0229203Y0349972D03*
X0229203Y0350130D03*
X0229203Y0350287D03*
X0229045Y0350602D03*
X0228730Y0351232D03*
X0228730Y0351390D03*
X0228573Y0351547D03*
X0219754Y0350130D03*
X0219754Y0348240D03*
X0204321Y0348240D03*
X0204321Y0348083D03*
X0204321Y0347925D03*
X0204321Y0348398D03*
X0204321Y0348555D03*
X0204321Y0348713D03*
X0204321Y0348870D03*
X0204321Y0349028D03*
X0204321Y0349185D03*
X0204321Y0349343D03*
X0204321Y0349500D03*
X0190935Y0350917D03*
X0190778Y0350602D03*
X0190778Y0350445D03*
X0190620Y0350130D03*
X0190620Y0349972D03*
X0190620Y0349815D03*
X0190620Y0349657D03*
X0190620Y0349500D03*
X0125453Y0332945D03*
X0108917Y0331213D03*
X0089075Y0332945D03*
X0190935Y0153917D03*
X0190778Y0153602D03*
X0190778Y0153445D03*
X0190620Y0153130D03*
X0190620Y0152972D03*
X0190620Y0152815D03*
X0190620Y0152657D03*
X0190620Y0152500D03*
X0204321Y0152500D03*
X0204321Y0152343D03*
X0204321Y0152185D03*
X0204321Y0152028D03*
X0204321Y0151870D03*
X0204321Y0151713D03*
X0204321Y0151555D03*
X0204321Y0151398D03*
X0204321Y0151240D03*
X0204321Y0151083D03*
X0204321Y0150925D03*
X0219754Y0151240D03*
X0219754Y0153130D03*
X0228573Y0154547D03*
X0228730Y0154390D03*
X0228730Y0154232D03*
X0229045Y0153602D03*
X0229203Y0153287D03*
X0229203Y0153130D03*
X0229203Y0152972D03*
X0229203Y0152815D03*
X0309085Y0137195D03*
X0344045Y0137667D03*
X0344045Y0137825D03*
X0344045Y0134833D03*
X0125453Y0135945D03*
X0108917Y0134213D03*
X0089075Y0135945D03*
D252*
X0338691Y0137510D03*
X0338691Y0137667D03*
X0338691Y0137825D03*
X0341211Y0133258D03*
X0341526Y0133415D03*
X0341841Y0133573D03*
X0341211Y0330258D03*
X0341526Y0330415D03*
X0341841Y0330573D03*
X0338691Y0334510D03*
X0338691Y0334667D03*
X0338691Y0334825D03*
D253*
X0319400Y0334825D03*
X0319400Y0334667D03*
X0319400Y0137825D03*
X0319400Y0137667D03*
X0100650Y0132165D03*
X0100650Y0329165D03*
D254*
X0109626Y0333102D03*
X0124902Y0334047D03*
X0125059Y0333890D03*
X0125059Y0333732D03*
X0125374Y0333102D03*
X0125531Y0332787D03*
X0125531Y0332630D03*
X0125531Y0332472D03*
X0125531Y0332315D03*
X0089154Y0333102D03*
X0088996Y0332787D03*
X0088996Y0332630D03*
X0088996Y0332472D03*
X0190699Y0349028D03*
X0190699Y0349185D03*
X0190699Y0349343D03*
X0190699Y0350287D03*
X0190856Y0350760D03*
X0191014Y0351075D03*
X0191171Y0351232D03*
X0204400Y0347768D03*
X0219675Y0348083D03*
X0219675Y0350287D03*
X0228809Y0350917D03*
X0228809Y0351075D03*
X0309006Y0334037D03*
X0309006Y0333880D03*
X0309006Y0333722D03*
X0309163Y0334352D03*
X0329478Y0332620D03*
X0343967Y0331675D03*
X0344124Y0331990D03*
X0344124Y0332148D03*
X0344124Y0332305D03*
X0344124Y0334195D03*
X0344124Y0334352D03*
X0344124Y0334510D03*
X0228809Y0154075D03*
X0228809Y0153917D03*
X0219675Y0153287D03*
X0219675Y0151083D03*
X0204400Y0150768D03*
X0191171Y0154232D03*
X0191014Y0154075D03*
X0190856Y0153760D03*
X0190699Y0153287D03*
X0190699Y0152343D03*
X0190699Y0152185D03*
X0190699Y0152028D03*
X0125531Y0135787D03*
X0125531Y0135630D03*
X0125531Y0135472D03*
X0125531Y0135315D03*
X0125374Y0136102D03*
X0125059Y0136732D03*
X0125059Y0136890D03*
X0124902Y0137047D03*
X0109626Y0136102D03*
X0089154Y0136102D03*
X0088996Y0135787D03*
X0088996Y0135630D03*
X0088996Y0135472D03*
X0309006Y0136722D03*
X0309006Y0136880D03*
X0309006Y0137037D03*
X0309163Y0137352D03*
X0329478Y0135620D03*
X0343967Y0134675D03*
X0344124Y0134990D03*
X0344124Y0135148D03*
X0344124Y0135305D03*
X0344124Y0137195D03*
X0344124Y0137352D03*
X0344124Y0137510D03*
D255*
X0319321Y0137510D03*
X0319321Y0334510D03*
X0100413Y0329323D03*
X0100413Y0132323D03*
D256*
X0093406Y0133268D03*
X0093406Y0136102D03*
X0194163Y0152028D03*
X0194163Y0152185D03*
X0194163Y0153445D03*
X0207392Y0153602D03*
X0207392Y0150768D03*
X0210384Y0153445D03*
X0212746Y0153602D03*
X0222982Y0152657D03*
X0313415Y0137352D03*
X0313415Y0134518D03*
X0320974Y0134518D03*
X0333100Y0137352D03*
X0339085Y0137352D03*
X0320974Y0331518D03*
X0313415Y0331518D03*
X0313415Y0334352D03*
X0333100Y0334352D03*
X0339085Y0334352D03*
X0222982Y0349657D03*
X0212746Y0350602D03*
X0210384Y0350445D03*
X0207392Y0350602D03*
X0207392Y0347768D03*
X0194163Y0349028D03*
X0194163Y0349185D03*
X0194163Y0350445D03*
X0093406Y0333102D03*
X0093406Y0330268D03*
D257*
X0093091Y0331055D03*
X0093091Y0331213D03*
X0093091Y0331370D03*
X0093091Y0331528D03*
X0093091Y0331685D03*
X0093091Y0331843D03*
X0093091Y0332000D03*
X0093091Y0332157D03*
X0093091Y0332315D03*
X0091831Y0333102D03*
X0094823Y0331213D03*
X0096398Y0331055D03*
X0096398Y0330898D03*
X0096555Y0331370D03*
X0096555Y0331528D03*
X0096555Y0331685D03*
X0099232Y0331843D03*
X0099232Y0331055D03*
X0100965Y0332157D03*
X0101437Y0333102D03*
X0102697Y0332472D03*
X0102697Y0332315D03*
X0102697Y0332157D03*
X0102697Y0332000D03*
X0102697Y0331843D03*
X0102697Y0331685D03*
X0102697Y0330583D03*
X0105846Y0330898D03*
X0105846Y0331055D03*
X0106004Y0331370D03*
X0106004Y0331528D03*
X0106004Y0331685D03*
X0111831Y0332157D03*
X0112146Y0333102D03*
X0115610Y0332945D03*
X0117028Y0333102D03*
X0118287Y0332472D03*
X0118287Y0332315D03*
X0118287Y0332157D03*
X0118287Y0332000D03*
X0118287Y0331843D03*
X0118287Y0331685D03*
X0118287Y0330583D03*
X0121437Y0330898D03*
X0121437Y0332315D03*
X0121280Y0332630D03*
X0196053Y0347925D03*
X0196053Y0348083D03*
X0196053Y0348240D03*
X0196053Y0348398D03*
X0196053Y0348555D03*
X0196053Y0351075D03*
X0196053Y0351232D03*
X0196053Y0351390D03*
X0196053Y0351547D03*
X0196053Y0351705D03*
X0199675Y0348398D03*
X0199675Y0348240D03*
X0199675Y0348083D03*
X0199675Y0347925D03*
X0205817Y0350602D03*
X0207077Y0349815D03*
X0207077Y0349657D03*
X0207077Y0349500D03*
X0207077Y0348870D03*
X0207077Y0348713D03*
X0207077Y0348555D03*
X0210384Y0348555D03*
X0210384Y0348398D03*
X0212274Y0348713D03*
X0212274Y0348870D03*
X0212274Y0349028D03*
X0212274Y0349185D03*
X0212274Y0349343D03*
X0212274Y0349500D03*
X0212274Y0349657D03*
X0215581Y0350130D03*
X0215738Y0349815D03*
X0215738Y0348555D03*
X0215581Y0348398D03*
X0216998Y0348713D03*
X0216998Y0349657D03*
X0221093Y0349185D03*
X0221093Y0348555D03*
X0222510Y0349815D03*
X0222510Y0349972D03*
X0222510Y0350445D03*
X0223770Y0350602D03*
X0225030Y0350445D03*
X0225187Y0348398D03*
X0225187Y0348240D03*
X0225187Y0348083D03*
X0225187Y0347925D03*
X0311841Y0334352D03*
X0313100Y0333565D03*
X0313100Y0333407D03*
X0313100Y0333250D03*
X0313100Y0333093D03*
X0313100Y0332935D03*
X0313100Y0332778D03*
X0313100Y0332620D03*
X0313100Y0332463D03*
X0313100Y0332305D03*
X0314833Y0332463D03*
X0316407Y0332305D03*
X0316407Y0332148D03*
X0316565Y0332935D03*
X0319242Y0333250D03*
X0319242Y0332305D03*
X0319242Y0332148D03*
X0319242Y0331675D03*
X0320974Y0333407D03*
X0321447Y0334352D03*
X0322707Y0333722D03*
X0322707Y0333565D03*
X0322707Y0333407D03*
X0322707Y0333250D03*
X0322707Y0333093D03*
X0322707Y0332935D03*
X0322707Y0331833D03*
X0325856Y0332148D03*
X0325856Y0332305D03*
X0326014Y0332935D03*
X0332785Y0333565D03*
X0334360Y0333407D03*
X0336093Y0333407D03*
X0336093Y0333250D03*
X0336093Y0333093D03*
X0336093Y0332935D03*
X0336093Y0332778D03*
X0336093Y0332620D03*
X0336093Y0332463D03*
X0336093Y0332305D03*
X0336093Y0332148D03*
X0336093Y0331990D03*
X0336093Y0331833D03*
X0336093Y0331675D03*
X0336093Y0333565D03*
X0336093Y0333722D03*
X0336093Y0333880D03*
X0336093Y0334037D03*
X0337510Y0334352D03*
X0337825Y0333407D03*
X0339400Y0333565D03*
X0339400Y0333722D03*
X0339400Y0332463D03*
X0339400Y0332305D03*
X0340817Y0332305D03*
X0340817Y0332148D03*
X0340817Y0331990D03*
X0340817Y0331833D03*
X0340817Y0331675D03*
X0340817Y0331518D03*
X0225030Y0153445D03*
X0223770Y0153602D03*
X0222510Y0153445D03*
X0222510Y0152972D03*
X0222510Y0152815D03*
X0221093Y0152185D03*
X0221093Y0151555D03*
X0225187Y0151398D03*
X0225187Y0151240D03*
X0225187Y0151083D03*
X0225187Y0150925D03*
X0216998Y0151713D03*
X0216998Y0152657D03*
X0215738Y0152815D03*
X0215581Y0153130D03*
X0215738Y0151555D03*
X0215581Y0151398D03*
X0212274Y0151713D03*
X0212274Y0151870D03*
X0212274Y0152028D03*
X0212274Y0152185D03*
X0212274Y0152343D03*
X0212274Y0152500D03*
X0212274Y0152657D03*
X0210384Y0151555D03*
X0210384Y0151398D03*
X0207077Y0151555D03*
X0207077Y0151713D03*
X0207077Y0151870D03*
X0207077Y0152500D03*
X0207077Y0152657D03*
X0207077Y0152815D03*
X0205817Y0153602D03*
X0199675Y0151398D03*
X0199675Y0151240D03*
X0199675Y0151083D03*
X0199675Y0150925D03*
X0196053Y0150925D03*
X0196053Y0151083D03*
X0196053Y0151240D03*
X0196053Y0151398D03*
X0196053Y0151555D03*
X0196053Y0154075D03*
X0196053Y0154232D03*
X0196053Y0154390D03*
X0196053Y0154547D03*
X0196053Y0154705D03*
X0121437Y0135315D03*
X0121280Y0135630D03*
X0121437Y0133898D03*
X0118287Y0133583D03*
X0118287Y0134685D03*
X0118287Y0134843D03*
X0118287Y0135000D03*
X0118287Y0135157D03*
X0118287Y0135315D03*
X0118287Y0135472D03*
X0117028Y0136102D03*
X0115610Y0135945D03*
X0112146Y0136102D03*
X0111831Y0135157D03*
X0106004Y0134685D03*
X0106004Y0134528D03*
X0106004Y0134370D03*
X0105846Y0134055D03*
X0105846Y0133898D03*
X0102697Y0133583D03*
X0102697Y0134685D03*
X0102697Y0134843D03*
X0102697Y0135000D03*
X0102697Y0135157D03*
X0102697Y0135315D03*
X0102697Y0135472D03*
X0101437Y0136102D03*
X0100965Y0135157D03*
X0099232Y0134843D03*
X0099232Y0134055D03*
X0096555Y0134370D03*
X0096555Y0134528D03*
X0096555Y0134685D03*
X0096398Y0134055D03*
X0096398Y0133898D03*
X0094823Y0134213D03*
X0093091Y0134213D03*
X0093091Y0134370D03*
X0093091Y0134528D03*
X0093091Y0134685D03*
X0093091Y0134843D03*
X0093091Y0135000D03*
X0093091Y0135157D03*
X0093091Y0135315D03*
X0093091Y0134055D03*
X0091831Y0136102D03*
X0311841Y0137352D03*
X0313100Y0136565D03*
X0313100Y0136407D03*
X0313100Y0136250D03*
X0313100Y0136093D03*
X0313100Y0135935D03*
X0313100Y0135778D03*
X0313100Y0135620D03*
X0313100Y0135463D03*
X0313100Y0135305D03*
X0314833Y0135463D03*
X0316407Y0135305D03*
X0316407Y0135148D03*
X0316565Y0135935D03*
X0319242Y0136250D03*
X0319242Y0135305D03*
X0319242Y0135148D03*
X0319242Y0134675D03*
X0320974Y0136407D03*
X0321447Y0137352D03*
X0322707Y0136722D03*
X0322707Y0136565D03*
X0322707Y0136407D03*
X0322707Y0136250D03*
X0322707Y0136093D03*
X0322707Y0135935D03*
X0322707Y0134833D03*
X0325856Y0135148D03*
X0325856Y0135305D03*
X0326014Y0135935D03*
X0332785Y0136565D03*
X0334360Y0136407D03*
X0336093Y0136407D03*
X0336093Y0136250D03*
X0336093Y0136093D03*
X0336093Y0135935D03*
X0336093Y0135778D03*
X0336093Y0135620D03*
X0336093Y0135463D03*
X0336093Y0135305D03*
X0336093Y0135148D03*
X0336093Y0134990D03*
X0336093Y0134833D03*
X0336093Y0134675D03*
X0336093Y0136565D03*
X0336093Y0136722D03*
X0336093Y0136880D03*
X0336093Y0137037D03*
X0337510Y0137352D03*
X0337825Y0136407D03*
X0339400Y0136565D03*
X0339400Y0136722D03*
X0339400Y0135463D03*
X0339400Y0135305D03*
X0340817Y0135305D03*
X0340817Y0135148D03*
X0340817Y0134990D03*
X0340817Y0134833D03*
X0340817Y0134675D03*
X0340817Y0134518D03*
D258*
X0339321Y0134990D03*
X0339321Y0135148D03*
X0337904Y0135620D03*
X0339321Y0136880D03*
X0336171Y0137195D03*
X0336171Y0137352D03*
X0336014Y0134518D03*
X0332864Y0136722D03*
X0332864Y0136880D03*
X0326093Y0136093D03*
X0325778Y0134990D03*
X0322785Y0134990D03*
X0322785Y0135148D03*
X0322785Y0134675D03*
X0322785Y0135778D03*
X0322785Y0136880D03*
X0322785Y0137037D03*
X0319321Y0136722D03*
X0319321Y0136565D03*
X0319321Y0136407D03*
X0319163Y0136093D03*
X0319163Y0135935D03*
X0316644Y0136093D03*
X0316329Y0134990D03*
X0314754Y0136407D03*
X0313179Y0136722D03*
X0313179Y0135148D03*
X0225266Y0151555D03*
X0225108Y0153602D03*
X0222431Y0153602D03*
X0221014Y0152343D03*
X0218809Y0152343D03*
X0218652Y0151555D03*
X0215817Y0151713D03*
X0215502Y0151240D03*
X0215817Y0152657D03*
X0215659Y0152972D03*
X0214085Y0152657D03*
X0214085Y0151713D03*
X0212352Y0151555D03*
X0212352Y0151398D03*
X0212352Y0152815D03*
X0212352Y0152972D03*
X0210305Y0151240D03*
X0208730Y0151713D03*
X0208730Y0152657D03*
X0207156Y0152972D03*
X0207156Y0153130D03*
X0207156Y0151398D03*
X0207156Y0151240D03*
X0196132Y0153917D03*
X0121201Y0135787D03*
X0121516Y0134055D03*
X0121358Y0133740D03*
X0121358Y0133583D03*
X0118366Y0133740D03*
X0118366Y0133898D03*
X0118366Y0133425D03*
X0118366Y0134528D03*
X0118366Y0135630D03*
X0118366Y0135787D03*
X0116791Y0135000D03*
X0115059Y0135000D03*
X0115059Y0134843D03*
X0115059Y0134685D03*
X0115059Y0134528D03*
X0115059Y0134370D03*
X0115059Y0134213D03*
X0115059Y0134055D03*
X0115059Y0133898D03*
X0115059Y0133740D03*
X0115059Y0133583D03*
X0115059Y0133425D03*
X0113484Y0133425D03*
X0113484Y0133268D03*
X0113484Y0133583D03*
X0113484Y0133740D03*
X0113484Y0133898D03*
X0113484Y0134055D03*
X0113484Y0134213D03*
X0113484Y0134370D03*
X0113484Y0134528D03*
X0113484Y0134685D03*
X0113484Y0134843D03*
X0113484Y0135000D03*
X0113484Y0135157D03*
X0113484Y0135315D03*
X0113484Y0135472D03*
X0111752Y0134370D03*
X0106083Y0134843D03*
X0102776Y0134528D03*
X0102776Y0133898D03*
X0102776Y0133740D03*
X0102776Y0133425D03*
X0102776Y0135630D03*
X0102776Y0135787D03*
X0099311Y0135315D03*
X0099311Y0135157D03*
X0099311Y0135000D03*
X0099154Y0134685D03*
X0099311Y0133425D03*
X0096634Y0134843D03*
X0094744Y0135157D03*
X0093169Y0135472D03*
X0093169Y0133898D03*
X0091437Y0135157D03*
X0099311Y0330425D03*
X0099154Y0331685D03*
X0099311Y0332000D03*
X0099311Y0332157D03*
X0099311Y0332315D03*
X0096634Y0331843D03*
X0094744Y0332157D03*
X0093169Y0332472D03*
X0093169Y0330898D03*
X0091437Y0332157D03*
X0102776Y0332630D03*
X0102776Y0332787D03*
X0102776Y0331528D03*
X0102776Y0330898D03*
X0102776Y0330740D03*
X0102776Y0330425D03*
X0106083Y0331843D03*
X0111752Y0331370D03*
X0113484Y0331370D03*
X0113484Y0331213D03*
X0113484Y0331055D03*
X0113484Y0330898D03*
X0113484Y0330740D03*
X0113484Y0330583D03*
X0113484Y0330425D03*
X0113484Y0330268D03*
X0113484Y0331528D03*
X0113484Y0331685D03*
X0113484Y0331843D03*
X0113484Y0332000D03*
X0113484Y0332157D03*
X0113484Y0332315D03*
X0113484Y0332472D03*
X0115059Y0332000D03*
X0115059Y0331843D03*
X0115059Y0331685D03*
X0115059Y0331528D03*
X0115059Y0331370D03*
X0115059Y0331213D03*
X0115059Y0331055D03*
X0115059Y0330898D03*
X0115059Y0330740D03*
X0115059Y0330583D03*
X0115059Y0330425D03*
X0116791Y0332000D03*
X0118366Y0331528D03*
X0118366Y0330898D03*
X0118366Y0330740D03*
X0118366Y0330425D03*
X0118366Y0332630D03*
X0118366Y0332787D03*
X0121201Y0332787D03*
X0121516Y0331055D03*
X0121358Y0330740D03*
X0121358Y0330583D03*
X0196132Y0350917D03*
X0207156Y0350130D03*
X0207156Y0349972D03*
X0207156Y0348398D03*
X0207156Y0348240D03*
X0208730Y0348713D03*
X0208730Y0349657D03*
X0210305Y0348240D03*
X0212352Y0348398D03*
X0212352Y0348555D03*
X0212352Y0349815D03*
X0212352Y0349972D03*
X0214085Y0349657D03*
X0214085Y0348713D03*
X0215502Y0348240D03*
X0215817Y0348713D03*
X0215817Y0349657D03*
X0215659Y0349972D03*
X0218809Y0349343D03*
X0218652Y0348555D03*
X0221014Y0349343D03*
X0222431Y0350602D03*
X0225108Y0350602D03*
X0225266Y0348555D03*
X0313179Y0333722D03*
X0313179Y0332148D03*
X0314754Y0333407D03*
X0316644Y0333093D03*
X0316329Y0331990D03*
X0319163Y0332935D03*
X0319163Y0333093D03*
X0319321Y0333407D03*
X0319321Y0333565D03*
X0319321Y0333722D03*
X0322785Y0333880D03*
X0322785Y0334037D03*
X0322785Y0332778D03*
X0322785Y0332148D03*
X0322785Y0331990D03*
X0322785Y0331675D03*
X0325778Y0331990D03*
X0326093Y0333093D03*
X0332864Y0333722D03*
X0332864Y0333880D03*
X0336171Y0334195D03*
X0336171Y0334352D03*
X0337904Y0332620D03*
X0339321Y0332148D03*
X0339321Y0331990D03*
X0339321Y0333880D03*
X0336014Y0331518D03*
D259*
X0337431Y0331675D03*
X0339478Y0332620D03*
X0339478Y0332778D03*
X0339478Y0332935D03*
X0339478Y0333093D03*
X0339478Y0333250D03*
X0339478Y0333407D03*
X0334754Y0334352D03*
X0325935Y0332778D03*
X0325935Y0332620D03*
X0325935Y0332463D03*
X0324203Y0333565D03*
X0319321Y0331990D03*
X0319321Y0331833D03*
X0316486Y0332463D03*
X0316486Y0332620D03*
X0316486Y0332778D03*
X0225108Y0349815D03*
X0225108Y0349972D03*
X0225108Y0350130D03*
X0225108Y0350287D03*
X0222431Y0350287D03*
X0222431Y0350130D03*
X0221171Y0349028D03*
X0221171Y0348870D03*
X0221171Y0348713D03*
X0218652Y0348713D03*
X0218652Y0348870D03*
X0218652Y0349028D03*
X0218652Y0349185D03*
X0206998Y0349185D03*
X0206998Y0349028D03*
X0206998Y0349343D03*
X0121358Y0332472D03*
X0119783Y0332315D03*
X0116791Y0332157D03*
X0115059Y0332157D03*
X0105925Y0331213D03*
X0104193Y0332315D03*
X0099311Y0330898D03*
X0099311Y0330740D03*
X0099311Y0330583D03*
X0096476Y0331213D03*
X0206998Y0152343D03*
X0206998Y0152185D03*
X0206998Y0152028D03*
X0218652Y0152028D03*
X0218652Y0152185D03*
X0218652Y0151870D03*
X0218652Y0151713D03*
X0221171Y0151713D03*
X0221171Y0151870D03*
X0221171Y0152028D03*
X0222431Y0153130D03*
X0222431Y0153287D03*
X0225108Y0153287D03*
X0225108Y0153130D03*
X0225108Y0152972D03*
X0225108Y0152815D03*
X0316486Y0135778D03*
X0316486Y0135620D03*
X0316486Y0135463D03*
X0319321Y0134990D03*
X0319321Y0134833D03*
X0324203Y0136565D03*
X0325935Y0135778D03*
X0325935Y0135620D03*
X0325935Y0135463D03*
X0334754Y0137352D03*
X0337431Y0134675D03*
X0339478Y0135620D03*
X0339478Y0135778D03*
X0339478Y0135935D03*
X0339478Y0136093D03*
X0339478Y0136250D03*
X0339478Y0136407D03*
X0121358Y0135472D03*
X0119783Y0135315D03*
X0116791Y0135157D03*
X0115059Y0135157D03*
X0105925Y0134213D03*
X0104193Y0135315D03*
X0099311Y0133898D03*
X0099311Y0133740D03*
X0099311Y0133583D03*
X0096476Y0134213D03*
D260*
X0109626Y0135787D03*
X0200620Y0151555D03*
X0200620Y0151713D03*
X0200620Y0151870D03*
X0200620Y0152028D03*
X0200620Y0152185D03*
X0200620Y0152343D03*
X0200620Y0152500D03*
X0200620Y0152657D03*
X0200620Y0152815D03*
X0200620Y0152972D03*
X0200620Y0153130D03*
X0200620Y0153287D03*
X0200620Y0153445D03*
X0200620Y0153602D03*
X0200620Y0153760D03*
X0200620Y0153917D03*
X0200620Y0154075D03*
X0200620Y0154232D03*
X0200620Y0154390D03*
X0200620Y0154547D03*
X0329163Y0137352D03*
X0329321Y0134518D03*
X0338612Y0134518D03*
X0338612Y0331518D03*
X0329321Y0331518D03*
X0329163Y0334352D03*
X0200620Y0348555D03*
X0200620Y0348713D03*
X0200620Y0348870D03*
X0200620Y0349028D03*
X0200620Y0349185D03*
X0200620Y0349343D03*
X0200620Y0349500D03*
X0200620Y0349657D03*
X0200620Y0349815D03*
X0200620Y0349972D03*
X0200620Y0350130D03*
X0200620Y0350287D03*
X0200620Y0350445D03*
X0200620Y0350602D03*
X0200620Y0350760D03*
X0200620Y0350917D03*
X0200620Y0351075D03*
X0200620Y0351232D03*
X0200620Y0351390D03*
X0200620Y0351547D03*
X0109626Y0332787D03*
D261*
X0106634Y0332157D03*
X0105689Y0333102D03*
X0105846Y0330268D03*
X0097185Y0332157D03*
X0096240Y0333102D03*
X0210226Y0350602D03*
X0215581Y0350602D03*
X0215581Y0347768D03*
X0223140Y0347925D03*
X0316250Y0334352D03*
X0317195Y0333407D03*
X0318612Y0332463D03*
X0316250Y0331518D03*
X0325699Y0334352D03*
X0326644Y0333407D03*
X0329321Y0333880D03*
X0329478Y0331990D03*
X0329478Y0331833D03*
X0215581Y0153602D03*
X0215581Y0150768D03*
X0210226Y0153602D03*
X0223140Y0150925D03*
X0316250Y0137352D03*
X0317195Y0136407D03*
X0318612Y0135463D03*
X0316250Y0134518D03*
X0325699Y0137352D03*
X0326644Y0136407D03*
X0329321Y0136880D03*
X0329478Y0134990D03*
X0329478Y0134833D03*
X0106634Y0135157D03*
X0105689Y0136102D03*
X0105846Y0133268D03*
X0097185Y0135157D03*
X0096240Y0136102D03*
D262*
X0096319Y0133268D03*
X0099469Y0136102D03*
X0109390Y0135157D03*
X0109390Y0135000D03*
X0109390Y0134843D03*
X0203691Y0152972D03*
X0203691Y0153130D03*
X0203691Y0153287D03*
X0203691Y0153445D03*
X0212510Y0150768D03*
X0216447Y0151870D03*
X0216604Y0152185D03*
X0223061Y0150768D03*
X0319478Y0137352D03*
X0329242Y0137037D03*
X0329400Y0136722D03*
X0329400Y0136565D03*
X0329400Y0333565D03*
X0329400Y0333722D03*
X0329242Y0334037D03*
X0319478Y0334352D03*
X0223061Y0347768D03*
X0216604Y0349185D03*
X0216447Y0348870D03*
X0212510Y0347768D03*
X0203691Y0349972D03*
X0203691Y0350130D03*
X0203691Y0350287D03*
X0203691Y0350445D03*
X0109390Y0332157D03*
X0109390Y0332000D03*
X0109390Y0331843D03*
X0099469Y0333102D03*
X0096319Y0330268D03*
D263*
X0101437Y0332945D03*
X0115610Y0332787D03*
X0117028Y0332945D03*
X0205817Y0350445D03*
X0311841Y0334195D03*
X0321447Y0334195D03*
X0334833Y0334195D03*
X0205817Y0153445D03*
X0117028Y0135945D03*
X0115610Y0135787D03*
X0101437Y0135945D03*
X0311841Y0137195D03*
X0321447Y0137195D03*
X0334833Y0137195D03*
D264*
X0329321Y0137195D03*
X0329478Y0135305D03*
X0329478Y0135148D03*
X0329478Y0134675D03*
X0216526Y0152028D03*
X0216526Y0152343D03*
X0203770Y0152815D03*
X0203770Y0153602D03*
X0109469Y0135472D03*
X0109469Y0135315D03*
X0109311Y0134685D03*
X0109469Y0134055D03*
X0109626Y0133898D03*
X0109626Y0133740D03*
X0109626Y0330740D03*
X0109626Y0330898D03*
X0109469Y0331055D03*
X0109311Y0331685D03*
X0109469Y0332315D03*
X0109469Y0332472D03*
X0203770Y0349815D03*
X0203770Y0350602D03*
X0216526Y0349343D03*
X0216526Y0349028D03*
X0329321Y0334195D03*
X0329478Y0332305D03*
X0329478Y0332148D03*
X0329478Y0331675D03*
D265*
X0327431Y0332305D03*
X0325856Y0331833D03*
X0326014Y0333722D03*
X0325856Y0333880D03*
X0324281Y0333407D03*
X0324281Y0333250D03*
X0322864Y0334195D03*
X0322864Y0332305D03*
X0320974Y0333250D03*
X0319400Y0333880D03*
X0319085Y0332778D03*
X0317982Y0332305D03*
X0316565Y0333722D03*
X0316407Y0333880D03*
X0313258Y0333880D03*
X0313258Y0334037D03*
X0313258Y0331990D03*
X0313258Y0331833D03*
X0332470Y0332148D03*
X0332470Y0332305D03*
X0332470Y0332463D03*
X0332470Y0332620D03*
X0332470Y0332778D03*
X0332470Y0332935D03*
X0332470Y0333093D03*
X0332943Y0334037D03*
X0334360Y0333250D03*
X0337825Y0333250D03*
X0339242Y0334037D03*
X0339242Y0331833D03*
X0225187Y0347768D03*
X0215896Y0349500D03*
X0215581Y0350287D03*
X0215581Y0348083D03*
X0212431Y0348240D03*
X0210699Y0348713D03*
X0210699Y0348870D03*
X0210699Y0349028D03*
X0210699Y0349185D03*
X0210699Y0349343D03*
X0210699Y0349500D03*
X0210699Y0349657D03*
X0210226Y0348083D03*
X0207234Y0348083D03*
X0207234Y0350287D03*
X0212431Y0350130D03*
X0199675Y0347768D03*
X0196053Y0347768D03*
X0194478Y0348713D03*
X0121122Y0332945D03*
X0119862Y0332157D03*
X0119862Y0332000D03*
X0118445Y0331055D03*
X0116713Y0331055D03*
X0116713Y0330898D03*
X0116713Y0330740D03*
X0116713Y0330583D03*
X0116713Y0330425D03*
X0116713Y0331213D03*
X0116713Y0331370D03*
X0116713Y0331528D03*
X0116713Y0331685D03*
X0116713Y0331843D03*
X0118445Y0332945D03*
X0121280Y0330425D03*
X0113563Y0332630D03*
X0113563Y0332787D03*
X0111831Y0332000D03*
X0107421Y0331055D03*
X0105846Y0330740D03*
X0105846Y0330583D03*
X0106004Y0332472D03*
X0105846Y0332630D03*
X0104272Y0332157D03*
X0104272Y0332000D03*
X0102854Y0332945D03*
X0102854Y0331055D03*
X0100965Y0332000D03*
X0099390Y0332472D03*
X0099390Y0332630D03*
X0099075Y0331528D03*
X0097972Y0331055D03*
X0096398Y0330740D03*
X0096555Y0332472D03*
X0096398Y0332630D03*
X0093248Y0332630D03*
X0093248Y0332787D03*
X0093248Y0330740D03*
X0093248Y0330583D03*
X0194478Y0151713D03*
X0196053Y0150768D03*
X0199675Y0150768D03*
X0207234Y0151083D03*
X0207234Y0153287D03*
X0210699Y0152657D03*
X0210699Y0152500D03*
X0210699Y0152343D03*
X0210699Y0152185D03*
X0210699Y0152028D03*
X0210699Y0151870D03*
X0210699Y0151713D03*
X0210226Y0151083D03*
X0212431Y0151240D03*
X0212431Y0153130D03*
X0215581Y0153287D03*
X0215896Y0152500D03*
X0215581Y0151083D03*
X0225187Y0150768D03*
X0313258Y0137037D03*
X0313258Y0136880D03*
X0313258Y0134990D03*
X0313258Y0134833D03*
X0316407Y0136880D03*
X0316565Y0136722D03*
X0317982Y0135305D03*
X0319085Y0135778D03*
X0319400Y0136880D03*
X0320974Y0136250D03*
X0322864Y0135305D03*
X0324281Y0136250D03*
X0324281Y0136407D03*
X0322864Y0137195D03*
X0325856Y0136880D03*
X0326014Y0136722D03*
X0325856Y0134833D03*
X0327431Y0135305D03*
X0332470Y0135305D03*
X0332470Y0135148D03*
X0332470Y0135463D03*
X0332470Y0135620D03*
X0332470Y0135778D03*
X0332470Y0135935D03*
X0332470Y0136093D03*
X0332943Y0137037D03*
X0334360Y0136250D03*
X0337825Y0136250D03*
X0339242Y0137037D03*
X0339242Y0134833D03*
X0121280Y0133425D03*
X0119862Y0135000D03*
X0119862Y0135157D03*
X0121122Y0135945D03*
X0118445Y0135945D03*
X0118445Y0134055D03*
X0116713Y0134055D03*
X0116713Y0133898D03*
X0116713Y0133740D03*
X0116713Y0133583D03*
X0116713Y0133425D03*
X0116713Y0134213D03*
X0116713Y0134370D03*
X0116713Y0134528D03*
X0116713Y0134685D03*
X0116713Y0134843D03*
X0113563Y0135630D03*
X0113563Y0135787D03*
X0111831Y0135000D03*
X0107421Y0134055D03*
X0105846Y0133740D03*
X0105846Y0133583D03*
X0106004Y0135472D03*
X0105846Y0135630D03*
X0104272Y0135157D03*
X0104272Y0135000D03*
X0102854Y0134055D03*
X0102854Y0135945D03*
X0100965Y0135000D03*
X0099390Y0135472D03*
X0099390Y0135630D03*
X0099075Y0134528D03*
X0097972Y0134055D03*
X0096398Y0133740D03*
X0096555Y0135472D03*
X0096398Y0135630D03*
X0093248Y0135630D03*
X0093248Y0135787D03*
X0093248Y0133740D03*
X0093248Y0133583D03*
D266*
X0089075Y0135315D03*
X0125138Y0136417D03*
X0125138Y0136575D03*
X0190778Y0151713D03*
X0190778Y0151870D03*
X0190935Y0151555D03*
X0191250Y0154390D03*
X0219596Y0153445D03*
X0219596Y0150925D03*
X0228888Y0153760D03*
X0309085Y0136565D03*
X0343730Y0134518D03*
X0344203Y0135463D03*
X0344203Y0135620D03*
X0344203Y0135778D03*
X0344203Y0135935D03*
X0344203Y0136093D03*
X0344203Y0136250D03*
X0344203Y0136407D03*
X0344203Y0136565D03*
X0344203Y0136722D03*
X0344203Y0136880D03*
X0344203Y0137037D03*
X0343730Y0331518D03*
X0344203Y0332463D03*
X0344203Y0332620D03*
X0344203Y0332778D03*
X0344203Y0332935D03*
X0344203Y0333093D03*
X0344203Y0333250D03*
X0344203Y0333407D03*
X0344203Y0333565D03*
X0344203Y0333722D03*
X0344203Y0333880D03*
X0344203Y0334037D03*
X0309085Y0333565D03*
X0228888Y0350760D03*
X0219596Y0350445D03*
X0219596Y0347925D03*
X0191250Y0351390D03*
X0190778Y0348870D03*
X0190778Y0348713D03*
X0190935Y0348555D03*
X0125138Y0333575D03*
X0125138Y0333417D03*
X0089075Y0332315D03*
D267*
X0089705Y0331055D03*
X0089705Y0330898D03*
X0089705Y0330740D03*
X0089705Y0134055D03*
X0089705Y0133898D03*
X0089705Y0133740D03*
X0309557Y0136407D03*
X0309715Y0135305D03*
X0309715Y0135148D03*
X0309715Y0134990D03*
X0309715Y0331990D03*
X0309715Y0332148D03*
X0309715Y0332305D03*
X0309557Y0333407D03*
D268*
X0309636Y0333250D03*
X0309636Y0333093D03*
X0309636Y0332935D03*
X0309636Y0332778D03*
X0309636Y0332620D03*
X0309636Y0332463D03*
X0309636Y0136250D03*
X0309636Y0136093D03*
X0309636Y0135935D03*
X0309636Y0135778D03*
X0309636Y0135620D03*
X0309636Y0135463D03*
X0089626Y0135000D03*
X0089626Y0134843D03*
X0089626Y0134685D03*
X0089626Y0134528D03*
X0089626Y0134370D03*
X0089626Y0134213D03*
X0089626Y0331213D03*
X0089626Y0331370D03*
X0089626Y0331528D03*
X0089626Y0331685D03*
X0089626Y0331843D03*
X0089626Y0332000D03*
D269*
X0103563Y0331213D03*
X0109232Y0331528D03*
X0109705Y0330583D03*
X0109547Y0332630D03*
X0119154Y0331213D03*
X0109547Y0135630D03*
X0109232Y0134528D03*
X0109705Y0133583D03*
X0103563Y0134213D03*
X0119154Y0134213D03*
X0323573Y0135463D03*
X0323573Y0332463D03*
D270*
X0325778Y0331518D03*
X0332234Y0331518D03*
X0223061Y0348083D03*
X0223061Y0348240D03*
X0223061Y0348398D03*
X0223061Y0348555D03*
X0223061Y0348713D03*
X0223061Y0348870D03*
X0223061Y0349028D03*
X0223061Y0349185D03*
X0223061Y0349343D03*
X0223061Y0349500D03*
X0194085Y0349500D03*
X0194085Y0349343D03*
X0194085Y0349657D03*
X0194085Y0349815D03*
X0194085Y0349972D03*
X0194085Y0350130D03*
X0194085Y0350287D03*
X0098681Y0331213D03*
X0194085Y0153287D03*
X0194085Y0153130D03*
X0194085Y0152972D03*
X0194085Y0152815D03*
X0194085Y0152657D03*
X0194085Y0152500D03*
X0194085Y0152343D03*
X0223061Y0152343D03*
X0223061Y0152500D03*
X0223061Y0152185D03*
X0223061Y0152028D03*
X0223061Y0151870D03*
X0223061Y0151713D03*
X0223061Y0151555D03*
X0223061Y0151398D03*
X0223061Y0151240D03*
X0223061Y0151083D03*
X0325778Y0134518D03*
X0332234Y0134518D03*
X0098681Y0134213D03*
D271*
X0341447Y0134360D03*
X0341447Y0331360D03*
D272*
X0322156Y0331360D03*
X0322156Y0134360D03*
D273*
X0342077Y0134203D03*
X0342077Y0331203D03*
D274*
X0322234Y0331203D03*
X0322234Y0134203D03*
D275*
X0342077Y0134045D03*
X0342077Y0331045D03*
D276*
X0322470Y0330888D03*
X0322313Y0331045D03*
X0322313Y0134045D03*
X0322470Y0133888D03*
D277*
X0341998Y0133888D03*
X0341998Y0330888D03*
D278*
X0341919Y0330730D03*
X0341919Y0133730D03*
D279*
X0322707Y0133573D03*
X0322549Y0133730D03*
X0322707Y0330573D03*
X0322549Y0330730D03*
D280*
X0322943Y0330415D03*
X0323258Y0330258D03*
X0322943Y0133415D03*
X0323258Y0133258D03*
D281*
X0107264Y0131850D03*
X0107264Y0138150D03*
X0107264Y0328850D03*
X0107264Y0335150D03*
D282*
X0107264Y0334835D03*
X0107264Y0137835D03*
D283*
X0107264Y0137677D03*
X0107264Y0334677D03*
D284*
X0107264Y0334520D03*
X0107264Y0137520D03*
D285*
X0107264Y0137362D03*
X0209911Y0149508D03*
X0209911Y0155492D03*
X0107264Y0334362D03*
X0209911Y0346508D03*
X0209911Y0352492D03*
D286*
X0107264Y0334205D03*
X0107264Y0137205D03*
D287*
X0105217Y0137047D03*
X0105217Y0334047D03*
D288*
X0105138Y0333890D03*
X0105138Y0333732D03*
X0105138Y0136890D03*
X0105138Y0136732D03*
D289*
X0089154Y0135157D03*
X0125059Y0133583D03*
X0125217Y0134055D03*
X0125217Y0136260D03*
X0191014Y0151398D03*
X0191486Y0154547D03*
X0228652Y0151083D03*
X0228809Y0151240D03*
X0228809Y0151398D03*
X0228809Y0151555D03*
X0228967Y0151713D03*
X0228967Y0151870D03*
X0228967Y0152028D03*
X0228967Y0152185D03*
X0228967Y0152343D03*
X0228967Y0152500D03*
X0228967Y0152657D03*
X0125059Y0330583D03*
X0125217Y0331055D03*
X0125217Y0333260D03*
X0089154Y0332157D03*
X0191014Y0348398D03*
X0191486Y0351547D03*
X0228652Y0348083D03*
X0228809Y0348240D03*
X0228809Y0348398D03*
X0228809Y0348555D03*
X0228967Y0348713D03*
X0228967Y0348870D03*
X0228967Y0349028D03*
X0228967Y0349185D03*
X0228967Y0349343D03*
X0228967Y0349500D03*
X0228967Y0349657D03*
D290*
X0104980Y0333260D03*
X0104980Y0136260D03*
D291*
X0110177Y0133268D03*
X0124665Y0133268D03*
X0124665Y0330268D03*
X0110177Y0330268D03*
D292*
X0119941Y0330110D03*
X0119941Y0133110D03*
D293*
X0100020Y0133110D03*
X0100020Y0330110D03*
D294*
X0119862Y0329953D03*
X0119862Y0132953D03*
D295*
X0100098Y0132953D03*
X0100098Y0329953D03*
D296*
X0119783Y0329795D03*
X0119783Y0132795D03*
D297*
X0100177Y0132795D03*
X0100177Y0329795D03*
D298*
X0119705Y0329638D03*
X0119705Y0132638D03*
D299*
X0100256Y0132638D03*
X0100256Y0329638D03*
D300*
X0119626Y0329480D03*
X0119626Y0132480D03*
D301*
X0100335Y0132480D03*
X0100335Y0329480D03*
D302*
X0119547Y0329323D03*
X0119547Y0132323D03*
D303*
X0119390Y0132165D03*
X0119390Y0329165D03*
D304*
X0119232Y0329008D03*
X0119232Y0132008D03*
D305*
X0209911Y0149350D03*
X0209911Y0155650D03*
X0209911Y0346350D03*
X0209911Y0352650D03*
D306*
X0209911Y0352335D03*
X0209911Y0346665D03*
X0209911Y0155335D03*
X0209911Y0149665D03*
D307*
X0209911Y0149823D03*
X0209911Y0155177D03*
X0209911Y0346823D03*
X0209911Y0352177D03*
D308*
X0225896Y0352020D03*
X0226053Y0351862D03*
X0225896Y0155020D03*
X0226053Y0154862D03*
D309*
X0216683Y0155020D03*
X0216683Y0352020D03*
D310*
X0200699Y0352020D03*
X0200699Y0155020D03*
D311*
X0216683Y0154862D03*
X0216683Y0154705D03*
X0216683Y0154547D03*
X0216683Y0154390D03*
X0216683Y0154232D03*
X0216683Y0351232D03*
X0216683Y0351390D03*
X0216683Y0351547D03*
X0216683Y0351705D03*
X0216683Y0351862D03*
D312*
X0200620Y0351862D03*
X0200620Y0154862D03*
D313*
X0226132Y0154705D03*
X0226132Y0351705D03*
D314*
X0206919Y0351705D03*
X0206919Y0351547D03*
X0206919Y0351390D03*
X0206919Y0351232D03*
X0206919Y0351075D03*
X0206919Y0350917D03*
X0206919Y0350760D03*
X0206919Y0154705D03*
X0206919Y0154547D03*
X0206919Y0154390D03*
X0206919Y0154232D03*
X0206919Y0154075D03*
X0206919Y0153917D03*
X0206919Y0153760D03*
D315*
X0219045Y0153760D03*
X0219045Y0153917D03*
X0219045Y0154075D03*
X0219045Y0350760D03*
X0219045Y0350917D03*
X0219045Y0351075D03*
D316*
X0209911Y0347610D03*
X0209911Y0150610D03*
D317*
X0209911Y0150453D03*
X0209911Y0347453D03*
D318*
X0209911Y0347295D03*
X0209911Y0150295D03*
D319*
X0209911Y0150138D03*
X0209911Y0347138D03*
D320*
X0209911Y0346980D03*
X0209911Y0149980D03*
D321*
X0083947Y0239333D03*
X0083947Y0247207D03*
X0083947Y0050207D03*
X0083947Y0042333D03*
X0333841Y0050010D03*
X0333841Y0247010D03*
D322*
X0333841Y0246813D03*
X0333841Y0239687D03*
X0333841Y0049813D03*
X0333841Y0042687D03*
X0083947Y0050010D03*
X0083947Y0247010D03*
D323*
X0083947Y0246813D03*
X0083947Y0239687D03*
X0083947Y0049813D03*
X0083947Y0042687D03*
X0333841Y0049616D03*
X0333841Y0246616D03*
D324*
X0333841Y0246222D03*
X0333841Y0240317D03*
X0333841Y0049222D03*
X0333841Y0043317D03*
X0083947Y0049616D03*
X0083947Y0246616D03*
D325*
X0083947Y0246419D03*
X0083947Y0240120D03*
X0083947Y0049419D03*
X0083947Y0043120D03*
X0333841Y0043474D03*
X0333841Y0049026D03*
X0333841Y0240474D03*
X0333841Y0246026D03*
D326*
X0083947Y0246222D03*
X0083947Y0240317D03*
X0083947Y0049222D03*
X0083947Y0043317D03*
D327*
X0083947Y0043474D03*
X0083947Y0049026D03*
X0083947Y0240474D03*
X0083947Y0246026D03*
D328*
X0086703Y0245829D03*
X0092608Y0245829D03*
X0093396Y0244057D03*
X0074498Y0243663D03*
X0074498Y0243467D03*
X0086703Y0048829D03*
X0092608Y0048829D03*
X0093396Y0047057D03*
X0074498Y0046663D03*
X0074498Y0046467D03*
D329*
X0078041Y0048829D03*
X0078041Y0245829D03*
D330*
X0074301Y0244451D03*
X0074301Y0244254D03*
X0085522Y0242640D03*
X0093002Y0245632D03*
X0093593Y0244451D03*
X0093593Y0244254D03*
X0093002Y0048632D03*
X0093593Y0047451D03*
X0093593Y0047254D03*
X0085522Y0045640D03*
X0074301Y0047254D03*
X0074301Y0047451D03*
X0324785Y0047844D03*
X0324982Y0048041D03*
X0324982Y0044301D03*
X0325179Y0044104D03*
X0342502Y0044104D03*
X0342699Y0044301D03*
X0342896Y0047844D03*
X0342502Y0241104D03*
X0342699Y0241301D03*
X0342896Y0244844D03*
X0324982Y0245041D03*
X0324785Y0244844D03*
X0324982Y0241301D03*
X0325179Y0241104D03*
D331*
X0324589Y0242089D03*
X0324392Y0242443D03*
X0324392Y0242640D03*
X0324392Y0243073D03*
X0324392Y0243270D03*
X0324392Y0243467D03*
X0324392Y0243663D03*
X0324392Y0243860D03*
X0324392Y0244057D03*
X0324589Y0244451D03*
X0343093Y0244451D03*
X0343289Y0243860D03*
X0343289Y0243663D03*
X0343289Y0243467D03*
X0343289Y0243270D03*
X0343289Y0243073D03*
X0343289Y0242640D03*
X0343093Y0242089D03*
X0343093Y0047451D03*
X0343289Y0046860D03*
X0343289Y0046663D03*
X0343289Y0046467D03*
X0343289Y0046270D03*
X0343289Y0046073D03*
X0343289Y0045640D03*
X0343093Y0045089D03*
X0324589Y0045089D03*
X0324392Y0045443D03*
X0324392Y0045640D03*
X0324392Y0046073D03*
X0324392Y0046270D03*
X0324392Y0046467D03*
X0324392Y0046663D03*
X0324392Y0046860D03*
X0324392Y0047057D03*
X0324589Y0047451D03*
X0093789Y0045285D03*
X0093789Y0045089D03*
X0093593Y0044656D03*
X0093396Y0044301D03*
X0093199Y0044104D03*
X0093593Y0047648D03*
X0093396Y0048041D03*
X0086703Y0048632D03*
X0086309Y0046270D03*
X0074301Y0047648D03*
X0074301Y0047844D03*
X0093199Y0241104D03*
X0093396Y0241301D03*
X0093593Y0241656D03*
X0093789Y0242089D03*
X0093789Y0242285D03*
X0093593Y0244648D03*
X0093396Y0245041D03*
X0086703Y0245632D03*
X0086309Y0243270D03*
X0074301Y0244648D03*
X0074301Y0244844D03*
D332*
X0078829Y0243860D03*
X0078829Y0243663D03*
X0081388Y0243663D03*
X0081978Y0245632D03*
X0083750Y0242089D03*
X0089656Y0242089D03*
X0089852Y0244057D03*
X0081978Y0048632D03*
X0081388Y0046663D03*
X0078829Y0046663D03*
X0078829Y0046860D03*
X0083750Y0045089D03*
X0089656Y0045089D03*
X0089852Y0047057D03*
X0328919Y0047254D03*
X0328919Y0045089D03*
X0334037Y0044656D03*
X0333447Y0047648D03*
X0338565Y0047451D03*
X0339352Y0046663D03*
X0334037Y0241656D03*
X0333447Y0244648D03*
X0328919Y0244254D03*
X0328919Y0242089D03*
X0338565Y0244451D03*
X0339352Y0243663D03*
D333*
X0086703Y0245238D03*
X0078829Y0245435D03*
X0078829Y0245632D03*
X0078829Y0048632D03*
X0078829Y0048435D03*
X0086703Y0048238D03*
D334*
X0086112Y0046663D03*
X0080994Y0043671D03*
X0074301Y0048041D03*
X0074301Y0048238D03*
X0074498Y0048632D03*
X0080994Y0240671D03*
X0086112Y0243663D03*
X0074498Y0245632D03*
X0074301Y0245238D03*
X0074301Y0245041D03*
X0337974Y0244057D03*
X0337974Y0243860D03*
X0337974Y0047057D03*
X0337974Y0046860D03*
D335*
X0342797Y0048041D03*
X0342994Y0047648D03*
X0343191Y0047254D03*
X0343191Y0047057D03*
X0343191Y0045443D03*
X0343191Y0045285D03*
X0342994Y0044656D03*
X0342797Y0044459D03*
X0324884Y0044459D03*
X0324687Y0044656D03*
X0324490Y0045285D03*
X0324490Y0047254D03*
X0324687Y0047648D03*
X0324884Y0241459D03*
X0324687Y0241656D03*
X0324490Y0242285D03*
X0324490Y0244254D03*
X0324687Y0244648D03*
X0342797Y0245041D03*
X0342994Y0244648D03*
X0343191Y0244254D03*
X0343191Y0244057D03*
X0343191Y0242443D03*
X0343191Y0242285D03*
X0342994Y0241656D03*
X0342797Y0241459D03*
X0093691Y0242443D03*
X0092904Y0240671D03*
X0093494Y0244844D03*
X0093297Y0245238D03*
X0093100Y0245435D03*
X0093100Y0048435D03*
X0093297Y0048238D03*
X0093494Y0047844D03*
X0093691Y0045443D03*
X0092904Y0043671D03*
D336*
X0086703Y0048435D03*
X0086703Y0245435D03*
D337*
X0089656Y0244451D03*
X0081978Y0245435D03*
X0081388Y0244057D03*
X0081388Y0243860D03*
X0078829Y0243467D03*
X0078829Y0243270D03*
X0081978Y0048435D03*
X0081388Y0047057D03*
X0081388Y0046860D03*
X0078829Y0046467D03*
X0078829Y0046270D03*
X0089656Y0047451D03*
X0331281Y0043671D03*
X0334234Y0045089D03*
X0334234Y0045285D03*
X0333250Y0047057D03*
X0336596Y0047451D03*
X0336596Y0048435D03*
X0331281Y0240671D03*
X0334234Y0242089D03*
X0334234Y0242285D03*
X0333250Y0244057D03*
X0336596Y0244451D03*
X0336596Y0245435D03*
D338*
X0337876Y0244254D03*
X0337876Y0047254D03*
X0074400Y0048435D03*
X0074400Y0245435D03*
D339*
X0081486Y0244451D03*
X0081486Y0244254D03*
X0081880Y0245238D03*
X0085620Y0241104D03*
X0087785Y0241104D03*
X0081880Y0048238D03*
X0081486Y0047451D03*
X0081486Y0047254D03*
X0085620Y0044104D03*
X0087785Y0044104D03*
X0331183Y0048632D03*
X0333152Y0046860D03*
X0334333Y0045443D03*
X0336498Y0046663D03*
X0336498Y0047648D03*
X0336498Y0047844D03*
X0336498Y0048041D03*
X0336498Y0048238D03*
X0336498Y0044104D03*
X0336498Y0241104D03*
X0334333Y0242443D03*
X0333152Y0243860D03*
X0331183Y0245632D03*
X0336498Y0245238D03*
X0336498Y0245041D03*
X0336498Y0244844D03*
X0336498Y0244648D03*
X0336498Y0243663D03*
D340*
X0086703Y0244648D03*
X0086703Y0244844D03*
X0086506Y0244254D03*
X0080797Y0241301D03*
X0078829Y0245041D03*
X0078829Y0245238D03*
X0078829Y0048238D03*
X0078829Y0048041D03*
X0080797Y0044301D03*
X0086506Y0047254D03*
X0086703Y0047648D03*
X0086703Y0047844D03*
D341*
X0086604Y0048041D03*
X0086407Y0047057D03*
X0080896Y0044104D03*
X0080896Y0241104D03*
X0086407Y0244057D03*
X0086604Y0245041D03*
D342*
X0089656Y0244648D03*
X0087490Y0241656D03*
X0087687Y0241459D03*
X0087687Y0241301D03*
X0085719Y0241301D03*
X0085719Y0241459D03*
X0081585Y0244648D03*
X0081585Y0244844D03*
X0081781Y0245041D03*
X0078829Y0243073D03*
X0081781Y0048041D03*
X0081585Y0047844D03*
X0081585Y0047648D03*
X0078829Y0046073D03*
X0085719Y0044459D03*
X0085719Y0044301D03*
X0087490Y0044656D03*
X0087687Y0044459D03*
X0087687Y0044301D03*
X0089656Y0047648D03*
X0331281Y0047648D03*
X0331281Y0047844D03*
X0331281Y0048041D03*
X0331281Y0048238D03*
X0331281Y0048435D03*
X0331281Y0047451D03*
X0331281Y0047254D03*
X0331281Y0047057D03*
X0331281Y0046860D03*
X0331281Y0046663D03*
X0331281Y0046467D03*
X0331281Y0046270D03*
X0331281Y0046073D03*
X0331281Y0045640D03*
X0331281Y0045443D03*
X0331281Y0045285D03*
X0331281Y0045089D03*
X0331281Y0044656D03*
X0331281Y0044459D03*
X0331281Y0044301D03*
X0331281Y0044104D03*
X0333053Y0046467D03*
X0333053Y0046663D03*
X0334431Y0045640D03*
X0336400Y0045640D03*
X0336400Y0045443D03*
X0336400Y0045285D03*
X0336400Y0045089D03*
X0336400Y0044656D03*
X0336400Y0044459D03*
X0336400Y0044301D03*
X0336400Y0046073D03*
X0336400Y0046270D03*
X0336400Y0046467D03*
X0331281Y0241104D03*
X0331281Y0241301D03*
X0331281Y0241459D03*
X0331281Y0241656D03*
X0331281Y0242089D03*
X0331281Y0242285D03*
X0331281Y0242443D03*
X0331281Y0242640D03*
X0331281Y0243073D03*
X0331281Y0243270D03*
X0331281Y0243467D03*
X0331281Y0243663D03*
X0331281Y0243860D03*
X0331281Y0244057D03*
X0331281Y0244254D03*
X0331281Y0244451D03*
X0331281Y0244648D03*
X0331281Y0244844D03*
X0331281Y0245041D03*
X0331281Y0245238D03*
X0331281Y0245435D03*
X0333053Y0243663D03*
X0333053Y0243467D03*
X0334431Y0242640D03*
X0336400Y0242640D03*
X0336400Y0242443D03*
X0336400Y0242285D03*
X0336400Y0242089D03*
X0336400Y0241656D03*
X0336400Y0241459D03*
X0336400Y0241301D03*
X0336400Y0243073D03*
X0336400Y0243270D03*
X0336400Y0243467D03*
D343*
X0333742Y0245632D03*
X0333742Y0240671D03*
X0333742Y0048632D03*
X0333742Y0043671D03*
X0086604Y0045443D03*
X0086604Y0047451D03*
X0078730Y0047844D03*
X0086604Y0242443D03*
X0086604Y0244451D03*
X0078730Y0244844D03*
D344*
X0083652Y0244648D03*
X0085817Y0241656D03*
X0083652Y0047648D03*
X0085817Y0044656D03*
X0332955Y0046270D03*
X0334530Y0046073D03*
X0334530Y0243073D03*
X0332955Y0243270D03*
D345*
X0086703Y0242285D03*
X0086703Y0242089D03*
X0080797Y0241656D03*
X0080797Y0241459D03*
X0078829Y0244648D03*
X0078829Y0047648D03*
X0080797Y0044656D03*
X0080797Y0044459D03*
X0086703Y0045089D03*
X0086703Y0045285D03*
D346*
X0083848Y0047057D03*
X0083652Y0047254D03*
X0083652Y0047451D03*
X0089754Y0047254D03*
X0083848Y0244057D03*
X0083652Y0244254D03*
X0083652Y0244451D03*
X0089754Y0244254D03*
X0329018Y0244451D03*
X0333348Y0244451D03*
X0333348Y0244254D03*
X0339451Y0243467D03*
X0339451Y0243270D03*
X0339451Y0243073D03*
X0333348Y0047451D03*
X0333348Y0047254D03*
X0329018Y0047451D03*
X0339451Y0046467D03*
X0339451Y0046270D03*
X0339451Y0046073D03*
D347*
X0338860Y0045640D03*
X0338860Y0045443D03*
X0333742Y0048435D03*
X0328624Y0046663D03*
X0328624Y0046467D03*
X0328624Y0046270D03*
X0328624Y0046073D03*
X0338860Y0242443D03*
X0338860Y0242640D03*
X0333742Y0245435D03*
X0328624Y0243663D03*
X0328624Y0243467D03*
X0328624Y0243270D03*
X0328624Y0243073D03*
X0078730Y0244451D03*
X0078730Y0047451D03*
D348*
X0078829Y0047254D03*
X0081388Y0046270D03*
X0080797Y0045089D03*
X0080797Y0242089D03*
X0081388Y0243270D03*
X0078829Y0244254D03*
X0328722Y0243860D03*
X0328722Y0242640D03*
X0328722Y0242443D03*
X0333841Y0241104D03*
X0333644Y0245041D03*
X0333644Y0245238D03*
X0338762Y0242285D03*
X0333644Y0048238D03*
X0333644Y0048041D03*
X0333841Y0044104D03*
X0338762Y0045285D03*
X0328722Y0045443D03*
X0328722Y0045640D03*
X0328722Y0046860D03*
D349*
X0328821Y0047057D03*
X0328821Y0045285D03*
X0333939Y0044459D03*
X0333939Y0044301D03*
X0336695Y0043671D03*
X0338663Y0045089D03*
X0336695Y0048632D03*
X0333545Y0047844D03*
X0336695Y0240671D03*
X0338663Y0242089D03*
X0336695Y0245632D03*
X0333545Y0244844D03*
X0333939Y0241459D03*
X0333939Y0241301D03*
X0328821Y0242285D03*
X0328821Y0244057D03*
X0089754Y0242443D03*
X0089754Y0242285D03*
X0087982Y0240671D03*
X0085423Y0240671D03*
X0083848Y0242443D03*
X0083652Y0242285D03*
X0081486Y0243467D03*
X0081289Y0243073D03*
X0081093Y0242640D03*
X0080896Y0242443D03*
X0080896Y0242285D03*
X0078730Y0244057D03*
X0078730Y0047057D03*
X0080896Y0045443D03*
X0080896Y0045285D03*
X0081093Y0045640D03*
X0081289Y0046073D03*
X0081486Y0046467D03*
X0083652Y0045285D03*
X0083848Y0045443D03*
X0085423Y0043671D03*
X0087982Y0043671D03*
X0089754Y0045285D03*
X0089754Y0045443D03*
D350*
X0074400Y0046860D03*
X0074400Y0047057D03*
X0074400Y0243860D03*
X0074400Y0244057D03*
X0325081Y0245238D03*
X0325278Y0245435D03*
X0342404Y0245435D03*
X0342600Y0245238D03*
X0342404Y0048435D03*
X0342600Y0048238D03*
X0325278Y0048435D03*
X0325081Y0048238D03*
D351*
X0093002Y0046860D03*
X0093002Y0046663D03*
X0093002Y0046467D03*
X0093002Y0046270D03*
X0093002Y0046073D03*
X0075679Y0043671D03*
X0075285Y0044301D03*
X0075089Y0044656D03*
X0074892Y0045089D03*
X0075679Y0240671D03*
X0075285Y0241301D03*
X0075089Y0241656D03*
X0074892Y0242089D03*
X0093002Y0243073D03*
X0093002Y0243270D03*
X0093002Y0243467D03*
X0093002Y0243663D03*
X0093002Y0243860D03*
D352*
X0093494Y0241459D03*
X0086211Y0243073D03*
X0086211Y0243467D03*
X0086014Y0243860D03*
X0086014Y0046860D03*
X0086211Y0046467D03*
X0086211Y0046073D03*
X0093494Y0044459D03*
D353*
X0074596Y0046073D03*
X0074596Y0046270D03*
X0074596Y0243073D03*
X0074596Y0243270D03*
X0325474Y0245632D03*
X0342207Y0245632D03*
X0342010Y0240671D03*
X0342207Y0048632D03*
X0342010Y0043671D03*
X0325474Y0048632D03*
D354*
X0075482Y0043888D03*
X0093002Y0045856D03*
X0075482Y0240888D03*
X0093002Y0242856D03*
D355*
X0086014Y0242856D03*
X0086014Y0045856D03*
D356*
X0081093Y0045856D03*
X0081093Y0242856D03*
D357*
X0078829Y0242856D03*
X0078829Y0045856D03*
X0331281Y0045856D03*
X0331281Y0044872D03*
X0336400Y0044872D03*
X0336400Y0045856D03*
X0336400Y0241872D03*
X0336400Y0242856D03*
X0331281Y0242856D03*
X0331281Y0241872D03*
D358*
X0074695Y0242856D03*
X0074695Y0045856D03*
D359*
X0092608Y0045640D03*
X0092608Y0242640D03*
D360*
X0078829Y0242640D03*
X0078829Y0242443D03*
X0078829Y0045640D03*
X0078829Y0045443D03*
X0332856Y0046073D03*
X0334628Y0046270D03*
X0332856Y0243073D03*
X0334628Y0243270D03*
D361*
X0341911Y0245829D03*
X0325770Y0240671D03*
X0341911Y0048829D03*
X0325770Y0043671D03*
X0074695Y0045640D03*
X0074695Y0242640D03*
D362*
X0074793Y0242443D03*
X0074793Y0242285D03*
X0075187Y0241459D03*
X0075384Y0241104D03*
X0074793Y0045443D03*
X0074793Y0045285D03*
X0075187Y0044459D03*
X0075384Y0044104D03*
D363*
X0093593Y0044872D03*
X0093593Y0241872D03*
X0324392Y0242856D03*
X0343289Y0242856D03*
X0343289Y0045856D03*
X0324392Y0045856D03*
D364*
X0338565Y0044872D03*
X0338565Y0241872D03*
X0089656Y0241872D03*
X0085522Y0240888D03*
X0089656Y0044872D03*
X0085522Y0043888D03*
D365*
X0086014Y0044872D03*
X0087392Y0044872D03*
X0087392Y0241872D03*
X0086014Y0241872D03*
X0329215Y0241872D03*
X0331183Y0240888D03*
X0329215Y0044872D03*
X0331183Y0043888D03*
D366*
X0334136Y0044872D03*
X0336498Y0043888D03*
X0339451Y0045856D03*
X0336498Y0240888D03*
X0334136Y0241872D03*
X0339451Y0242856D03*
X0087785Y0240888D03*
X0083652Y0241872D03*
X0083652Y0044872D03*
X0087785Y0043888D03*
D367*
X0080797Y0044872D03*
X0080797Y0241872D03*
D368*
X0074990Y0241872D03*
X0074990Y0044872D03*
D369*
X0093100Y0043888D03*
X0093100Y0240888D03*
X0324687Y0241872D03*
X0342994Y0241872D03*
X0342994Y0044872D03*
X0324687Y0044872D03*
D370*
X0080896Y0043888D03*
X0080896Y0240888D03*
D371*
X0083947Y0239904D03*
X0083947Y0042904D03*
D372*
X0083947Y0042510D03*
X0083947Y0239510D03*
D373*
X0333841Y0239333D03*
X0333841Y0247207D03*
X0333841Y0050207D03*
X0333841Y0042333D03*
D374*
X0333841Y0043120D03*
X0333841Y0049419D03*
X0333841Y0240120D03*
X0333841Y0246419D03*
D375*
X0330593Y0245829D03*
X0330593Y0048829D03*
D376*
X0334530Y0045856D03*
X0334530Y0242856D03*
D377*
X0328624Y0242856D03*
X0328624Y0045856D03*
D378*
X0325376Y0043888D03*
X0342305Y0043888D03*
X0342305Y0240888D03*
X0325376Y0240888D03*
D379*
X0333841Y0240888D03*
X0333841Y0043888D03*
D380*
X0333841Y0042904D03*
X0333841Y0239904D03*
D381*
X0333841Y0239510D03*
X0333841Y0042510D03*
M02*
