G75*
%MOIN*%
%OFA0B0*%
%FSLAX25Y25*%
%IPPOS*%
%LPD*%
%AMOC8*
5,1,8,0,0,1.08239X$1,22.5*
%
%ADD10C,0.02300*%
%ADD11C,0.20800*%
%ADD12C,0.01000*%
%ADD13C,0.03300*%
D10*
X0089250Y0070250D03*
X0093250Y0070250D03*
X0133750Y0129250D03*
X0133750Y0133250D03*
X0158750Y0133250D03*
X0158750Y0129250D03*
X0206750Y0063250D03*
X0210750Y0063250D03*
X0258750Y0129250D03*
X0258750Y0133250D03*
X0283250Y0133250D03*
X0283250Y0129250D03*
X0324250Y0070750D03*
X0328250Y0070750D03*
X0369250Y0129250D03*
X0369250Y0133250D03*
X0328250Y0197250D03*
X0324250Y0197250D03*
X0324250Y0267750D03*
X0328250Y0267750D03*
X0369250Y0326250D03*
X0369250Y0330250D03*
X0328250Y0394250D03*
X0324250Y0394250D03*
X0283250Y0330250D03*
X0283250Y0326250D03*
X0258750Y0326250D03*
X0258750Y0330250D03*
X0210750Y0399250D03*
X0206750Y0399250D03*
X0158750Y0330250D03*
X0158750Y0326250D03*
X0133750Y0326250D03*
X0133750Y0330250D03*
X0093250Y0267250D03*
X0089250Y0267250D03*
X0048750Y0325750D03*
X0048750Y0329750D03*
X0089250Y0393750D03*
X0093250Y0393750D03*
X0206750Y0260250D03*
X0210750Y0260250D03*
X0210750Y0202250D03*
X0206750Y0202250D03*
X0093250Y0196750D03*
X0089250Y0196750D03*
X0048750Y0132750D03*
X0048750Y0128750D03*
D11*
X0068750Y0092750D03*
X0056250Y0050250D03*
X0113750Y0092750D03*
X0176250Y0081750D03*
X0176250Y0104750D03*
X0208750Y0104750D03*
X0208750Y0081750D03*
X0241250Y0081750D03*
X0241250Y0104750D03*
X0303750Y0092750D03*
X0348750Y0092750D03*
X0361250Y0050250D03*
X0326250Y0154750D03*
X0326250Y0177750D03*
X0361250Y0247250D03*
X0348750Y0289750D03*
X0303750Y0289750D03*
X0241250Y0278750D03*
X0241250Y0301750D03*
X0208750Y0301750D03*
X0208750Y0278750D03*
X0176250Y0278750D03*
X0176250Y0301750D03*
X0113750Y0289750D03*
X0068750Y0289750D03*
X0056250Y0247250D03*
X0091250Y0174750D03*
X0208750Y0179750D03*
X0326250Y0351750D03*
X0326250Y0374750D03*
X0208750Y0376750D03*
X0091250Y0371750D03*
D12*
X0103550Y0372238D02*
X0078750Y0372238D01*
X0078750Y0373236D02*
X0103550Y0373236D01*
X0103550Y0374235D02*
X0078750Y0374235D01*
X0078750Y0375233D02*
X0103550Y0375233D01*
X0103550Y0376232D02*
X0078750Y0376232D01*
X0078750Y0377230D02*
X0103550Y0377230D01*
X0103550Y0378229D02*
X0078750Y0378229D01*
X0078750Y0379227D02*
X0103550Y0379227D01*
X0103550Y0380226D02*
X0078750Y0380226D01*
X0078750Y0381224D02*
X0103550Y0381224D01*
X0103550Y0382223D02*
X0078750Y0382223D01*
X0078750Y0383222D02*
X0103550Y0383222D01*
X0103550Y0384220D02*
X0078750Y0384220D01*
X0078750Y0385219D02*
X0103550Y0385219D01*
X0103550Y0386217D02*
X0078750Y0386217D01*
X0078750Y0387216D02*
X0103550Y0387216D01*
X0103550Y0388214D02*
X0078750Y0388214D01*
X0078750Y0389213D02*
X0103550Y0389213D01*
X0103550Y0390211D02*
X0078750Y0390211D01*
X0078750Y0390950D02*
X0078750Y0370550D01*
X0078955Y0368877D01*
X0079397Y0367250D01*
X0080066Y0365702D01*
X0080948Y0364266D01*
X0082025Y0362969D01*
X0083276Y0361839D01*
X0084675Y0360899D01*
X0086194Y0360167D01*
X0087801Y0359659D01*
X0089465Y0359385D01*
X0091150Y0359350D01*
X0092750Y0359304D01*
X0094340Y0359484D01*
X0095889Y0359888D01*
X0097365Y0360507D01*
X0098738Y0361329D01*
X0099982Y0362337D01*
X0101070Y0363510D01*
X0101981Y0364826D01*
X0102697Y0366257D01*
X0103203Y0367776D01*
X0103490Y0369351D01*
X0103550Y0370950D01*
X0103550Y0390950D01*
X0078750Y0390950D01*
X0078750Y0371239D02*
X0103550Y0371239D01*
X0103523Y0370241D02*
X0078788Y0370241D01*
X0078911Y0369242D02*
X0103470Y0369242D01*
X0103288Y0368244D02*
X0079127Y0368244D01*
X0079399Y0367245D02*
X0103027Y0367245D01*
X0102692Y0366247D02*
X0079830Y0366247D01*
X0080344Y0365248D02*
X0102193Y0365248D01*
X0101582Y0364250D02*
X0080961Y0364250D01*
X0081791Y0363251D02*
X0100830Y0363251D01*
X0099878Y0362253D02*
X0082818Y0362253D01*
X0084146Y0361254D02*
X0098614Y0361254D01*
X0096765Y0360256D02*
X0086010Y0360256D01*
X0072199Y0301841D02*
X0073806Y0301333D01*
X0075325Y0300601D01*
X0076724Y0299661D01*
X0077975Y0298531D01*
X0079052Y0297234D01*
X0079934Y0295798D01*
X0080603Y0294250D01*
X0081045Y0292623D01*
X0081250Y0290950D01*
X0081250Y0270550D01*
X0056450Y0270550D01*
X0056450Y0290550D01*
X0056510Y0292149D01*
X0056797Y0293724D01*
X0057303Y0295243D01*
X0058019Y0296674D01*
X0058930Y0297990D01*
X0060018Y0299163D01*
X0061262Y0300171D01*
X0062635Y0300993D01*
X0064111Y0301612D01*
X0065660Y0302016D01*
X0067250Y0302196D01*
X0068850Y0302150D01*
X0070535Y0302115D01*
X0072199Y0301841D01*
X0073772Y0301344D02*
X0063472Y0301344D01*
X0061552Y0300345D02*
X0075706Y0300345D01*
X0077072Y0299347D02*
X0060244Y0299347D01*
X0059262Y0298348D02*
X0078127Y0298348D01*
X0078957Y0297350D02*
X0058486Y0297350D01*
X0057857Y0296351D02*
X0079595Y0296351D01*
X0080127Y0295353D02*
X0057358Y0295353D01*
X0057006Y0294354D02*
X0080558Y0294354D01*
X0080846Y0293355D02*
X0056730Y0293355D01*
X0056548Y0292357D02*
X0081077Y0292357D01*
X0081200Y0291358D02*
X0056481Y0291358D01*
X0056450Y0290360D02*
X0081250Y0290360D01*
X0081250Y0289361D02*
X0056450Y0289361D01*
X0056450Y0288363D02*
X0081250Y0288363D01*
X0081250Y0287364D02*
X0056450Y0287364D01*
X0056450Y0286366D02*
X0081250Y0286366D01*
X0081250Y0285367D02*
X0056450Y0285367D01*
X0056450Y0284369D02*
X0081250Y0284369D01*
X0081250Y0283370D02*
X0056450Y0283370D01*
X0056450Y0282372D02*
X0081250Y0282372D01*
X0081250Y0281373D02*
X0056450Y0281373D01*
X0056450Y0280375D02*
X0081250Y0280375D01*
X0081250Y0279376D02*
X0056450Y0279376D01*
X0056450Y0278378D02*
X0081250Y0278378D01*
X0081250Y0277379D02*
X0056450Y0277379D01*
X0056450Y0276381D02*
X0081250Y0276381D01*
X0081250Y0275382D02*
X0056450Y0275382D01*
X0056450Y0274384D02*
X0081250Y0274384D01*
X0081250Y0273385D02*
X0056450Y0273385D01*
X0056450Y0272387D02*
X0081250Y0272387D01*
X0081250Y0271388D02*
X0056450Y0271388D01*
X0056350Y0259650D02*
X0058035Y0259615D01*
X0059699Y0259341D01*
X0061306Y0258833D01*
X0062825Y0258101D01*
X0064224Y0257161D01*
X0065475Y0256031D01*
X0066552Y0254734D01*
X0067434Y0253298D01*
X0068103Y0251750D01*
X0068545Y0250123D01*
X0068750Y0248450D01*
X0068750Y0228050D01*
X0043950Y0228050D01*
X0043950Y0248050D01*
X0044010Y0249649D01*
X0044297Y0251224D01*
X0044803Y0252743D01*
X0045519Y0254174D01*
X0046430Y0255490D01*
X0047518Y0256663D01*
X0048762Y0257671D01*
X0050135Y0258493D01*
X0051611Y0259112D01*
X0053160Y0259516D01*
X0054750Y0259696D01*
X0056350Y0259650D01*
X0059304Y0259406D02*
X0052740Y0259406D01*
X0049993Y0258408D02*
X0062189Y0258408D01*
X0063854Y0257409D02*
X0048438Y0257409D01*
X0047284Y0256411D02*
X0065054Y0256411D01*
X0065989Y0255412D02*
X0046376Y0255412D01*
X0045684Y0254414D02*
X0066749Y0254414D01*
X0067362Y0253415D02*
X0045139Y0253415D01*
X0044694Y0252417D02*
X0067815Y0252417D01*
X0068193Y0251418D02*
X0044361Y0251418D01*
X0044150Y0250420D02*
X0068464Y0250420D01*
X0068631Y0249421D02*
X0044002Y0249421D01*
X0043964Y0248422D02*
X0068750Y0248422D01*
X0068750Y0247424D02*
X0043950Y0247424D01*
X0043950Y0246425D02*
X0068750Y0246425D01*
X0068750Y0245427D02*
X0043950Y0245427D01*
X0043950Y0244428D02*
X0068750Y0244428D01*
X0068750Y0243430D02*
X0043950Y0243430D01*
X0043950Y0242431D02*
X0068750Y0242431D01*
X0068750Y0241433D02*
X0043950Y0241433D01*
X0043950Y0240434D02*
X0068750Y0240434D01*
X0068750Y0239436D02*
X0043950Y0239436D01*
X0043950Y0238437D02*
X0068750Y0238437D01*
X0068750Y0237439D02*
X0043950Y0237439D01*
X0043950Y0236440D02*
X0068750Y0236440D01*
X0068750Y0235442D02*
X0043950Y0235442D01*
X0043950Y0234443D02*
X0068750Y0234443D01*
X0068750Y0233445D02*
X0043950Y0233445D01*
X0043950Y0232446D02*
X0068750Y0232446D01*
X0068750Y0231448D02*
X0043950Y0231448D01*
X0043950Y0230449D02*
X0068750Y0230449D01*
X0068750Y0229451D02*
X0043950Y0229451D01*
X0043950Y0228452D02*
X0068750Y0228452D01*
X0078750Y0193950D02*
X0078750Y0173550D01*
X0078955Y0171877D01*
X0079397Y0170250D01*
X0080066Y0168702D01*
X0080948Y0167266D01*
X0082025Y0165969D01*
X0083276Y0164839D01*
X0084675Y0163899D01*
X0086194Y0163167D01*
X0087801Y0162659D01*
X0089465Y0162385D01*
X0091150Y0162350D01*
X0092750Y0162304D01*
X0094340Y0162484D01*
X0095889Y0162888D01*
X0097365Y0163507D01*
X0098738Y0164329D01*
X0099982Y0165337D01*
X0101070Y0166510D01*
X0101981Y0167826D01*
X0102697Y0169257D01*
X0103203Y0170776D01*
X0103490Y0172351D01*
X0103550Y0173950D01*
X0103550Y0193950D01*
X0078750Y0193950D01*
X0078750Y0193504D02*
X0103550Y0193504D01*
X0103550Y0192506D02*
X0078750Y0192506D01*
X0078750Y0191507D02*
X0103550Y0191507D01*
X0103550Y0190509D02*
X0078750Y0190509D01*
X0078750Y0189510D02*
X0103550Y0189510D01*
X0103550Y0188512D02*
X0078750Y0188512D01*
X0078750Y0187513D02*
X0103550Y0187513D01*
X0103550Y0186515D02*
X0078750Y0186515D01*
X0078750Y0185516D02*
X0103550Y0185516D01*
X0103550Y0184518D02*
X0078750Y0184518D01*
X0078750Y0183519D02*
X0103550Y0183519D01*
X0103550Y0182521D02*
X0078750Y0182521D01*
X0078750Y0181522D02*
X0103550Y0181522D01*
X0103550Y0180524D02*
X0078750Y0180524D01*
X0078750Y0179525D02*
X0103550Y0179525D01*
X0103550Y0178527D02*
X0078750Y0178527D01*
X0078750Y0177528D02*
X0103550Y0177528D01*
X0103550Y0176530D02*
X0078750Y0176530D01*
X0078750Y0175531D02*
X0103550Y0175531D01*
X0103550Y0174533D02*
X0078750Y0174533D01*
X0078752Y0173534D02*
X0103534Y0173534D01*
X0103497Y0172536D02*
X0078875Y0172536D01*
X0079048Y0171537D02*
X0103342Y0171537D01*
X0103124Y0170539D02*
X0079319Y0170539D01*
X0079704Y0169540D02*
X0102792Y0169540D01*
X0102339Y0168542D02*
X0080164Y0168542D01*
X0080777Y0167543D02*
X0101786Y0167543D01*
X0101094Y0166545D02*
X0081547Y0166545D01*
X0082494Y0165546D02*
X0100176Y0165546D01*
X0099008Y0164548D02*
X0083710Y0164548D01*
X0085401Y0163549D02*
X0097435Y0163549D01*
X0094594Y0162551D02*
X0088459Y0162551D01*
X0072199Y0104841D02*
X0073806Y0104333D01*
X0075325Y0103601D01*
X0076724Y0102661D01*
X0077975Y0101531D01*
X0079052Y0100234D01*
X0079934Y0098798D01*
X0080603Y0097250D01*
X0081045Y0095623D01*
X0081250Y0093950D01*
X0081250Y0073550D01*
X0056450Y0073550D01*
X0056450Y0093550D01*
X0056510Y0095149D01*
X0056797Y0096724D01*
X0057303Y0098243D01*
X0058019Y0099674D01*
X0058930Y0100990D01*
X0060018Y0102163D01*
X0061262Y0103171D01*
X0062635Y0103993D01*
X0064111Y0104612D01*
X0065660Y0105016D01*
X0067250Y0105196D01*
X0068850Y0105150D01*
X0070535Y0105115D01*
X0072199Y0104841D01*
X0072845Y0104637D02*
X0064207Y0104637D01*
X0062043Y0103638D02*
X0075248Y0103638D01*
X0076747Y0102640D02*
X0060606Y0102640D01*
X0059534Y0101641D02*
X0077853Y0101641D01*
X0078713Y0100643D02*
X0058690Y0100643D01*
X0058004Y0099644D02*
X0079415Y0099644D01*
X0080000Y0098646D02*
X0057504Y0098646D01*
X0057104Y0097647D02*
X0080431Y0097647D01*
X0080766Y0096649D02*
X0056783Y0096649D01*
X0056601Y0095650D02*
X0081037Y0095650D01*
X0081164Y0094652D02*
X0056492Y0094652D01*
X0056454Y0093653D02*
X0081250Y0093653D01*
X0081250Y0092655D02*
X0056450Y0092655D01*
X0056450Y0091656D02*
X0081250Y0091656D01*
X0081250Y0090658D02*
X0056450Y0090658D01*
X0056450Y0089659D02*
X0081250Y0089659D01*
X0081250Y0088661D02*
X0056450Y0088661D01*
X0056450Y0087662D02*
X0081250Y0087662D01*
X0081250Y0086664D02*
X0056450Y0086664D01*
X0056450Y0085665D02*
X0081250Y0085665D01*
X0081250Y0084667D02*
X0056450Y0084667D01*
X0056450Y0083668D02*
X0081250Y0083668D01*
X0081250Y0082670D02*
X0056450Y0082670D01*
X0056450Y0081671D02*
X0081250Y0081671D01*
X0081250Y0080673D02*
X0056450Y0080673D01*
X0056450Y0079674D02*
X0081250Y0079674D01*
X0081250Y0078676D02*
X0056450Y0078676D01*
X0056450Y0077677D02*
X0081250Y0077677D01*
X0081250Y0076679D02*
X0056450Y0076679D01*
X0056450Y0075680D02*
X0081250Y0075680D01*
X0081250Y0074682D02*
X0056450Y0074682D01*
X0056450Y0073683D02*
X0081250Y0073683D01*
X0065475Y0059031D02*
X0066552Y0057734D01*
X0067434Y0056298D01*
X0068103Y0054750D01*
X0068545Y0053123D01*
X0068750Y0051450D01*
X0068750Y0031050D01*
X0043950Y0031050D01*
X0043950Y0051050D01*
X0044010Y0052649D01*
X0044297Y0054224D01*
X0044803Y0055743D01*
X0045519Y0057174D01*
X0046430Y0058490D01*
X0047518Y0059663D01*
X0048762Y0060671D01*
X0050135Y0061493D01*
X0051611Y0062112D01*
X0053160Y0062516D01*
X0054750Y0062696D01*
X0056350Y0062650D01*
X0058035Y0062615D01*
X0059699Y0062341D01*
X0061306Y0061833D01*
X0062825Y0061101D01*
X0064224Y0060161D01*
X0065475Y0059031D01*
X0065745Y0058705D02*
X0046630Y0058705D01*
X0045888Y0057707D02*
X0066569Y0057707D01*
X0067182Y0056708D02*
X0045286Y0056708D01*
X0044792Y0055710D02*
X0067688Y0055710D01*
X0068114Y0054711D02*
X0044459Y0054711D01*
X0044204Y0053713D02*
X0068384Y0053713D01*
X0068595Y0052714D02*
X0044022Y0052714D01*
X0043975Y0051716D02*
X0068717Y0051716D01*
X0068750Y0050717D02*
X0043950Y0050717D01*
X0043950Y0049719D02*
X0068750Y0049719D01*
X0068750Y0048720D02*
X0043950Y0048720D01*
X0043950Y0047722D02*
X0068750Y0047722D01*
X0068750Y0046723D02*
X0043950Y0046723D01*
X0043950Y0045725D02*
X0068750Y0045725D01*
X0068750Y0044726D02*
X0043950Y0044726D01*
X0043950Y0043728D02*
X0068750Y0043728D01*
X0068750Y0042729D02*
X0043950Y0042729D01*
X0043950Y0041731D02*
X0068750Y0041731D01*
X0068750Y0040732D02*
X0043950Y0040732D01*
X0043950Y0039734D02*
X0068750Y0039734D01*
X0068750Y0038735D02*
X0043950Y0038735D01*
X0043950Y0037737D02*
X0068750Y0037737D01*
X0068750Y0036738D02*
X0043950Y0036738D01*
X0043950Y0035740D02*
X0068750Y0035740D01*
X0068750Y0034741D02*
X0043950Y0034741D01*
X0043950Y0033743D02*
X0068750Y0033743D01*
X0068750Y0032744D02*
X0043950Y0032744D01*
X0043950Y0031746D02*
X0068750Y0031746D01*
X0064730Y0059704D02*
X0047568Y0059704D01*
X0048814Y0060702D02*
X0063418Y0060702D01*
X0061580Y0061701D02*
X0050631Y0061701D01*
X0101450Y0073550D02*
X0101450Y0093550D01*
X0101510Y0095149D01*
X0101797Y0096724D01*
X0102303Y0098243D01*
X0103019Y0099674D01*
X0103930Y0100990D01*
X0105018Y0102163D01*
X0106262Y0103171D01*
X0107635Y0103993D01*
X0109111Y0104612D01*
X0110660Y0105016D01*
X0112250Y0105196D01*
X0113850Y0105150D01*
X0115535Y0105115D01*
X0117199Y0104841D01*
X0118806Y0104333D01*
X0120325Y0103601D01*
X0121724Y0102661D01*
X0122975Y0101531D01*
X0124052Y0100234D01*
X0124934Y0098798D01*
X0125603Y0097250D01*
X0126045Y0095623D01*
X0126250Y0093950D01*
X0126250Y0073550D01*
X0101450Y0073550D01*
X0101450Y0073683D02*
X0126250Y0073683D01*
X0126250Y0074682D02*
X0101450Y0074682D01*
X0101450Y0075680D02*
X0126250Y0075680D01*
X0126250Y0076679D02*
X0101450Y0076679D01*
X0101450Y0077677D02*
X0126250Y0077677D01*
X0126250Y0078676D02*
X0101450Y0078676D01*
X0101450Y0079674D02*
X0126250Y0079674D01*
X0126250Y0080673D02*
X0101450Y0080673D01*
X0101450Y0081671D02*
X0126250Y0081671D01*
X0126250Y0082670D02*
X0101450Y0082670D01*
X0101450Y0083668D02*
X0126250Y0083668D01*
X0126250Y0084667D02*
X0101450Y0084667D01*
X0101450Y0085665D02*
X0126250Y0085665D01*
X0126250Y0086664D02*
X0101450Y0086664D01*
X0101450Y0087662D02*
X0126250Y0087662D01*
X0126250Y0088661D02*
X0101450Y0088661D01*
X0101450Y0089659D02*
X0126250Y0089659D01*
X0126250Y0090658D02*
X0101450Y0090658D01*
X0101450Y0091656D02*
X0126250Y0091656D01*
X0126250Y0092655D02*
X0101450Y0092655D01*
X0101454Y0093653D02*
X0126250Y0093653D01*
X0126164Y0094652D02*
X0101492Y0094652D01*
X0101601Y0095650D02*
X0126037Y0095650D01*
X0125766Y0096649D02*
X0101783Y0096649D01*
X0102104Y0097647D02*
X0125431Y0097647D01*
X0125000Y0098646D02*
X0102504Y0098646D01*
X0103004Y0099644D02*
X0124415Y0099644D01*
X0123713Y0100643D02*
X0103690Y0100643D01*
X0104534Y0101641D02*
X0122853Y0101641D01*
X0121747Y0102640D02*
X0105606Y0102640D01*
X0107043Y0103638D02*
X0120248Y0103638D01*
X0117845Y0104637D02*
X0109207Y0104637D01*
X0163950Y0104637D02*
X0188750Y0104637D01*
X0188750Y0105635D02*
X0163953Y0105635D01*
X0163950Y0105550D02*
X0164010Y0107149D01*
X0164297Y0108724D01*
X0164803Y0110243D01*
X0165519Y0111674D01*
X0166430Y0112990D01*
X0167518Y0114163D01*
X0168762Y0115171D01*
X0170135Y0115993D01*
X0171611Y0116612D01*
X0173160Y0117016D01*
X0174750Y0117196D01*
X0176350Y0117150D01*
X0178035Y0117115D01*
X0179699Y0116841D01*
X0181306Y0116333D01*
X0182825Y0115601D01*
X0184224Y0114661D01*
X0185475Y0113531D01*
X0186552Y0112234D01*
X0187434Y0110798D01*
X0188103Y0109250D01*
X0188545Y0107623D01*
X0188750Y0105950D01*
X0188750Y0065550D01*
X0163950Y0065550D01*
X0163950Y0105550D01*
X0163991Y0106634D02*
X0188666Y0106634D01*
X0188542Y0107632D02*
X0164098Y0107632D01*
X0164280Y0108631D02*
X0188271Y0108631D01*
X0187939Y0109629D02*
X0164598Y0109629D01*
X0164995Y0110628D02*
X0187508Y0110628D01*
X0186926Y0111626D02*
X0165495Y0111626D01*
X0166177Y0112625D02*
X0186228Y0112625D01*
X0185372Y0113623D02*
X0167017Y0113623D01*
X0168084Y0114622D02*
X0184267Y0114622D01*
X0182785Y0115620D02*
X0169513Y0115620D01*
X0171639Y0116619D02*
X0180401Y0116619D01*
X0188750Y0103638D02*
X0163950Y0103638D01*
X0163950Y0102640D02*
X0188750Y0102640D01*
X0188750Y0101641D02*
X0163950Y0101641D01*
X0163950Y0100643D02*
X0188750Y0100643D01*
X0188750Y0099644D02*
X0163950Y0099644D01*
X0163950Y0098646D02*
X0188750Y0098646D01*
X0188750Y0097647D02*
X0163950Y0097647D01*
X0163950Y0096649D02*
X0188750Y0096649D01*
X0188750Y0095650D02*
X0163950Y0095650D01*
X0163950Y0094652D02*
X0188750Y0094652D01*
X0188750Y0093653D02*
X0163950Y0093653D01*
X0163950Y0092655D02*
X0188750Y0092655D01*
X0188750Y0091656D02*
X0163950Y0091656D01*
X0163950Y0090658D02*
X0188750Y0090658D01*
X0188750Y0089659D02*
X0163950Y0089659D01*
X0163950Y0088661D02*
X0188750Y0088661D01*
X0188750Y0087662D02*
X0163950Y0087662D01*
X0163950Y0086664D02*
X0188750Y0086664D01*
X0188750Y0085665D02*
X0163950Y0085665D01*
X0163950Y0084667D02*
X0188750Y0084667D01*
X0188750Y0083668D02*
X0163950Y0083668D01*
X0163950Y0082670D02*
X0188750Y0082670D01*
X0188750Y0081671D02*
X0163950Y0081671D01*
X0163950Y0080673D02*
X0188750Y0080673D01*
X0188750Y0079674D02*
X0163950Y0079674D01*
X0163950Y0078676D02*
X0188750Y0078676D01*
X0188750Y0077677D02*
X0163950Y0077677D01*
X0163950Y0076679D02*
X0188750Y0076679D01*
X0188750Y0075680D02*
X0163950Y0075680D01*
X0163950Y0074682D02*
X0188750Y0074682D01*
X0188750Y0073683D02*
X0163950Y0073683D01*
X0163950Y0072684D02*
X0188750Y0072684D01*
X0188750Y0071686D02*
X0163950Y0071686D01*
X0163950Y0070687D02*
X0188750Y0070687D01*
X0188750Y0069689D02*
X0163950Y0069689D01*
X0163950Y0068690D02*
X0188750Y0068690D01*
X0188750Y0067692D02*
X0163950Y0067692D01*
X0163950Y0066693D02*
X0188750Y0066693D01*
X0188750Y0065695D02*
X0163950Y0065695D01*
X0196450Y0065695D02*
X0221250Y0065695D01*
X0221250Y0065550D02*
X0221250Y0105950D01*
X0221045Y0107623D01*
X0220603Y0109250D01*
X0219934Y0110798D01*
X0219052Y0112234D01*
X0217975Y0113531D01*
X0216724Y0114661D01*
X0215325Y0115601D01*
X0213806Y0116333D01*
X0212199Y0116841D01*
X0210535Y0117115D01*
X0208850Y0117150D01*
X0207250Y0117196D01*
X0205660Y0117016D01*
X0204111Y0116612D01*
X0202635Y0115993D01*
X0201262Y0115171D01*
X0200018Y0114163D01*
X0198930Y0112990D01*
X0198019Y0111674D01*
X0197303Y0110243D01*
X0196797Y0108724D01*
X0196510Y0107149D01*
X0196450Y0105550D01*
X0196450Y0065550D01*
X0221250Y0065550D01*
X0221250Y0066693D02*
X0196450Y0066693D01*
X0196450Y0067692D02*
X0221250Y0067692D01*
X0221250Y0068690D02*
X0196450Y0068690D01*
X0196450Y0069689D02*
X0221250Y0069689D01*
X0221250Y0070687D02*
X0196450Y0070687D01*
X0196450Y0071686D02*
X0221250Y0071686D01*
X0221250Y0072684D02*
X0196450Y0072684D01*
X0196450Y0073683D02*
X0221250Y0073683D01*
X0221250Y0074682D02*
X0196450Y0074682D01*
X0196450Y0075680D02*
X0221250Y0075680D01*
X0221250Y0076679D02*
X0196450Y0076679D01*
X0196450Y0077677D02*
X0221250Y0077677D01*
X0221250Y0078676D02*
X0196450Y0078676D01*
X0196450Y0079674D02*
X0221250Y0079674D01*
X0221250Y0080673D02*
X0196450Y0080673D01*
X0196450Y0081671D02*
X0221250Y0081671D01*
X0221250Y0082670D02*
X0196450Y0082670D01*
X0196450Y0083668D02*
X0221250Y0083668D01*
X0221250Y0084667D02*
X0196450Y0084667D01*
X0196450Y0085665D02*
X0221250Y0085665D01*
X0221250Y0086664D02*
X0196450Y0086664D01*
X0196450Y0087662D02*
X0221250Y0087662D01*
X0221250Y0088661D02*
X0196450Y0088661D01*
X0196450Y0089659D02*
X0221250Y0089659D01*
X0221250Y0090658D02*
X0196450Y0090658D01*
X0196450Y0091656D02*
X0221250Y0091656D01*
X0221250Y0092655D02*
X0196450Y0092655D01*
X0196450Y0093653D02*
X0221250Y0093653D01*
X0221250Y0094652D02*
X0196450Y0094652D01*
X0196450Y0095650D02*
X0221250Y0095650D01*
X0221250Y0096649D02*
X0196450Y0096649D01*
X0196450Y0097647D02*
X0221250Y0097647D01*
X0221250Y0098646D02*
X0196450Y0098646D01*
X0196450Y0099644D02*
X0221250Y0099644D01*
X0221250Y0100643D02*
X0196450Y0100643D01*
X0196450Y0101641D02*
X0221250Y0101641D01*
X0221250Y0102640D02*
X0196450Y0102640D01*
X0196450Y0103638D02*
X0221250Y0103638D01*
X0221250Y0104637D02*
X0196450Y0104637D01*
X0196453Y0105635D02*
X0221250Y0105635D01*
X0221166Y0106634D02*
X0196491Y0106634D01*
X0196598Y0107632D02*
X0221042Y0107632D01*
X0220771Y0108631D02*
X0196780Y0108631D01*
X0197098Y0109629D02*
X0220439Y0109629D01*
X0220008Y0110628D02*
X0197495Y0110628D01*
X0197995Y0111626D02*
X0219426Y0111626D01*
X0218728Y0112625D02*
X0198677Y0112625D01*
X0199517Y0113623D02*
X0217872Y0113623D01*
X0216767Y0114622D02*
X0200584Y0114622D01*
X0202013Y0115620D02*
X0215285Y0115620D01*
X0212901Y0116619D02*
X0204139Y0116619D01*
X0229297Y0108724D02*
X0229010Y0107149D01*
X0228950Y0105550D01*
X0228950Y0065550D01*
X0253750Y0065550D01*
X0253750Y0105950D01*
X0253545Y0107623D01*
X0253103Y0109250D01*
X0252434Y0110798D01*
X0251552Y0112234D01*
X0250475Y0113531D01*
X0249224Y0114661D01*
X0247825Y0115601D01*
X0246306Y0116333D01*
X0244699Y0116841D01*
X0243035Y0117115D01*
X0241350Y0117150D01*
X0239750Y0117196D01*
X0238160Y0117016D01*
X0236611Y0116612D01*
X0235135Y0115993D01*
X0233762Y0115171D01*
X0232518Y0114163D01*
X0231430Y0112990D01*
X0230519Y0111674D01*
X0229803Y0110243D01*
X0229297Y0108724D01*
X0229280Y0108631D02*
X0253271Y0108631D01*
X0253542Y0107632D02*
X0229098Y0107632D01*
X0228991Y0106634D02*
X0253666Y0106634D01*
X0253750Y0105635D02*
X0228953Y0105635D01*
X0228950Y0104637D02*
X0253750Y0104637D01*
X0253750Y0103638D02*
X0228950Y0103638D01*
X0228950Y0102640D02*
X0253750Y0102640D01*
X0253750Y0101641D02*
X0228950Y0101641D01*
X0228950Y0100643D02*
X0253750Y0100643D01*
X0253750Y0099644D02*
X0228950Y0099644D01*
X0228950Y0098646D02*
X0253750Y0098646D01*
X0253750Y0097647D02*
X0228950Y0097647D01*
X0228950Y0096649D02*
X0253750Y0096649D01*
X0253750Y0095650D02*
X0228950Y0095650D01*
X0228950Y0094652D02*
X0253750Y0094652D01*
X0253750Y0093653D02*
X0228950Y0093653D01*
X0228950Y0092655D02*
X0253750Y0092655D01*
X0253750Y0091656D02*
X0228950Y0091656D01*
X0228950Y0090658D02*
X0253750Y0090658D01*
X0253750Y0089659D02*
X0228950Y0089659D01*
X0228950Y0088661D02*
X0253750Y0088661D01*
X0253750Y0087662D02*
X0228950Y0087662D01*
X0228950Y0086664D02*
X0253750Y0086664D01*
X0253750Y0085665D02*
X0228950Y0085665D01*
X0228950Y0084667D02*
X0253750Y0084667D01*
X0253750Y0083668D02*
X0228950Y0083668D01*
X0228950Y0082670D02*
X0253750Y0082670D01*
X0253750Y0081671D02*
X0228950Y0081671D01*
X0228950Y0080673D02*
X0253750Y0080673D01*
X0253750Y0079674D02*
X0228950Y0079674D01*
X0228950Y0078676D02*
X0253750Y0078676D01*
X0253750Y0077677D02*
X0228950Y0077677D01*
X0228950Y0076679D02*
X0253750Y0076679D01*
X0253750Y0075680D02*
X0228950Y0075680D01*
X0228950Y0074682D02*
X0253750Y0074682D01*
X0253750Y0073683D02*
X0228950Y0073683D01*
X0228950Y0072684D02*
X0253750Y0072684D01*
X0253750Y0071686D02*
X0228950Y0071686D01*
X0228950Y0070687D02*
X0253750Y0070687D01*
X0253750Y0069689D02*
X0228950Y0069689D01*
X0228950Y0068690D02*
X0253750Y0068690D01*
X0253750Y0067692D02*
X0228950Y0067692D01*
X0228950Y0066693D02*
X0253750Y0066693D01*
X0253750Y0065695D02*
X0228950Y0065695D01*
X0229598Y0109629D02*
X0252939Y0109629D01*
X0252508Y0110628D02*
X0229995Y0110628D01*
X0230495Y0111626D02*
X0251926Y0111626D01*
X0251228Y0112625D02*
X0231177Y0112625D01*
X0232017Y0113623D02*
X0250372Y0113623D01*
X0249267Y0114622D02*
X0233084Y0114622D01*
X0234513Y0115620D02*
X0247785Y0115620D01*
X0245401Y0116619D02*
X0236639Y0116619D01*
X0214865Y0168507D02*
X0213389Y0167888D01*
X0211840Y0167484D01*
X0210250Y0167304D01*
X0208650Y0167350D01*
X0206965Y0167385D01*
X0205301Y0167659D01*
X0203694Y0168167D01*
X0202175Y0168899D01*
X0200776Y0169839D01*
X0199525Y0170969D01*
X0198448Y0172266D01*
X0197566Y0173702D01*
X0196897Y0175250D01*
X0196455Y0176877D01*
X0196250Y0178550D01*
X0196250Y0198950D01*
X0221050Y0198950D01*
X0221050Y0178950D01*
X0220990Y0177351D01*
X0220703Y0175776D01*
X0220197Y0174257D01*
X0219481Y0172826D01*
X0218570Y0171510D01*
X0217482Y0170337D01*
X0216238Y0169329D01*
X0214865Y0168507D01*
X0214922Y0168542D02*
X0202917Y0168542D01*
X0201221Y0169540D02*
X0216499Y0169540D01*
X0217669Y0170539D02*
X0200002Y0170539D01*
X0199053Y0171537D02*
X0218589Y0171537D01*
X0219280Y0172536D02*
X0198282Y0172536D01*
X0197669Y0173534D02*
X0219836Y0173534D01*
X0220289Y0174533D02*
X0197207Y0174533D01*
X0196821Y0175531D02*
X0220622Y0175531D01*
X0220840Y0176530D02*
X0196550Y0176530D01*
X0196376Y0177528D02*
X0220996Y0177528D01*
X0221034Y0178527D02*
X0196253Y0178527D01*
X0196250Y0179525D02*
X0221050Y0179525D01*
X0221050Y0180524D02*
X0196250Y0180524D01*
X0196250Y0181522D02*
X0221050Y0181522D01*
X0221050Y0182521D02*
X0196250Y0182521D01*
X0196250Y0183519D02*
X0221050Y0183519D01*
X0221050Y0184518D02*
X0196250Y0184518D01*
X0196250Y0185516D02*
X0221050Y0185516D01*
X0221050Y0186515D02*
X0196250Y0186515D01*
X0196250Y0187513D02*
X0221050Y0187513D01*
X0221050Y0188512D02*
X0196250Y0188512D01*
X0196250Y0189510D02*
X0221050Y0189510D01*
X0221050Y0190509D02*
X0196250Y0190509D01*
X0196250Y0191507D02*
X0221050Y0191507D01*
X0221050Y0192506D02*
X0196250Y0192506D01*
X0196250Y0193504D02*
X0221050Y0193504D01*
X0221050Y0194503D02*
X0196250Y0194503D01*
X0196250Y0195501D02*
X0221050Y0195501D01*
X0221050Y0196500D02*
X0196250Y0196500D01*
X0196250Y0197498D02*
X0221050Y0197498D01*
X0221050Y0198497D02*
X0196250Y0198497D01*
X0206004Y0167543D02*
X0212065Y0167543D01*
X0293930Y0100990D02*
X0295018Y0102163D01*
X0296262Y0103171D01*
X0297635Y0103993D01*
X0299111Y0104612D01*
X0300660Y0105016D01*
X0302250Y0105196D01*
X0303850Y0105150D01*
X0305535Y0105115D01*
X0307199Y0104841D01*
X0308806Y0104333D01*
X0310325Y0103601D01*
X0311724Y0102661D01*
X0312975Y0101531D01*
X0314052Y0100234D01*
X0314934Y0098798D01*
X0315603Y0097250D01*
X0316045Y0095623D01*
X0316250Y0093950D01*
X0316250Y0073550D01*
X0291450Y0073550D01*
X0291450Y0093550D01*
X0291510Y0095149D01*
X0291797Y0096724D01*
X0292303Y0098243D01*
X0293019Y0099674D01*
X0293930Y0100990D01*
X0293690Y0100643D02*
X0313713Y0100643D01*
X0314415Y0099644D02*
X0293004Y0099644D01*
X0292504Y0098646D02*
X0315000Y0098646D01*
X0315431Y0097647D02*
X0292104Y0097647D01*
X0291783Y0096649D02*
X0315766Y0096649D01*
X0316037Y0095650D02*
X0291601Y0095650D01*
X0291492Y0094652D02*
X0316164Y0094652D01*
X0316250Y0093653D02*
X0291454Y0093653D01*
X0291450Y0092655D02*
X0316250Y0092655D01*
X0316250Y0091656D02*
X0291450Y0091656D01*
X0291450Y0090658D02*
X0316250Y0090658D01*
X0316250Y0089659D02*
X0291450Y0089659D01*
X0291450Y0088661D02*
X0316250Y0088661D01*
X0316250Y0087662D02*
X0291450Y0087662D01*
X0291450Y0086664D02*
X0316250Y0086664D01*
X0316250Y0085665D02*
X0291450Y0085665D01*
X0291450Y0084667D02*
X0316250Y0084667D01*
X0316250Y0083668D02*
X0291450Y0083668D01*
X0291450Y0082670D02*
X0316250Y0082670D01*
X0316250Y0081671D02*
X0291450Y0081671D01*
X0291450Y0080673D02*
X0316250Y0080673D01*
X0316250Y0079674D02*
X0291450Y0079674D01*
X0291450Y0078676D02*
X0316250Y0078676D01*
X0316250Y0077677D02*
X0291450Y0077677D01*
X0291450Y0076679D02*
X0316250Y0076679D01*
X0316250Y0075680D02*
X0291450Y0075680D01*
X0291450Y0074682D02*
X0316250Y0074682D01*
X0316250Y0073683D02*
X0291450Y0073683D01*
X0294534Y0101641D02*
X0312853Y0101641D01*
X0311747Y0102640D02*
X0295606Y0102640D01*
X0297043Y0103638D02*
X0310248Y0103638D01*
X0307845Y0104637D02*
X0299207Y0104637D01*
X0336797Y0096724D02*
X0337303Y0098243D01*
X0338019Y0099674D01*
X0338930Y0100990D01*
X0340018Y0102163D01*
X0341262Y0103171D01*
X0342635Y0103993D01*
X0344111Y0104612D01*
X0345660Y0105016D01*
X0347250Y0105196D01*
X0348850Y0105150D01*
X0350535Y0105115D01*
X0352199Y0104841D01*
X0353806Y0104333D01*
X0355325Y0103601D01*
X0356724Y0102661D01*
X0357975Y0101531D01*
X0359052Y0100234D01*
X0359934Y0098798D01*
X0360603Y0097250D01*
X0361045Y0095623D01*
X0361250Y0093950D01*
X0361250Y0073550D01*
X0336450Y0073550D01*
X0336450Y0093550D01*
X0336510Y0095149D01*
X0336797Y0096724D01*
X0336783Y0096649D02*
X0360766Y0096649D01*
X0361037Y0095650D02*
X0336601Y0095650D01*
X0336492Y0094652D02*
X0361164Y0094652D01*
X0361250Y0093653D02*
X0336454Y0093653D01*
X0336450Y0092655D02*
X0361250Y0092655D01*
X0361250Y0091656D02*
X0336450Y0091656D01*
X0336450Y0090658D02*
X0361250Y0090658D01*
X0361250Y0089659D02*
X0336450Y0089659D01*
X0336450Y0088661D02*
X0361250Y0088661D01*
X0361250Y0087662D02*
X0336450Y0087662D01*
X0336450Y0086664D02*
X0361250Y0086664D01*
X0361250Y0085665D02*
X0336450Y0085665D01*
X0336450Y0084667D02*
X0361250Y0084667D01*
X0361250Y0083668D02*
X0336450Y0083668D01*
X0336450Y0082670D02*
X0361250Y0082670D01*
X0361250Y0081671D02*
X0336450Y0081671D01*
X0336450Y0080673D02*
X0361250Y0080673D01*
X0361250Y0079674D02*
X0336450Y0079674D01*
X0336450Y0078676D02*
X0361250Y0078676D01*
X0361250Y0077677D02*
X0336450Y0077677D01*
X0336450Y0076679D02*
X0361250Y0076679D01*
X0361250Y0075680D02*
X0336450Y0075680D01*
X0336450Y0074682D02*
X0361250Y0074682D01*
X0361250Y0073683D02*
X0336450Y0073683D01*
X0352518Y0059663D02*
X0353762Y0060671D01*
X0355135Y0061493D01*
X0356611Y0062112D01*
X0358160Y0062516D01*
X0359750Y0062696D01*
X0361350Y0062650D01*
X0363035Y0062615D01*
X0364699Y0062341D01*
X0366306Y0061833D01*
X0367825Y0061101D01*
X0369224Y0060161D01*
X0370475Y0059031D01*
X0371552Y0057734D01*
X0372434Y0056298D01*
X0373103Y0054750D01*
X0373545Y0053123D01*
X0373750Y0051450D01*
X0373750Y0031050D01*
X0348950Y0031050D01*
X0348950Y0051050D01*
X0349010Y0052649D01*
X0349297Y0054224D01*
X0349803Y0055743D01*
X0350519Y0057174D01*
X0351430Y0058490D01*
X0352518Y0059663D01*
X0352568Y0059704D02*
X0369730Y0059704D01*
X0370745Y0058705D02*
X0351630Y0058705D01*
X0350888Y0057707D02*
X0371569Y0057707D01*
X0372182Y0056708D02*
X0350286Y0056708D01*
X0349792Y0055710D02*
X0372688Y0055710D01*
X0373114Y0054711D02*
X0349459Y0054711D01*
X0349204Y0053713D02*
X0373384Y0053713D01*
X0373595Y0052714D02*
X0349022Y0052714D01*
X0348975Y0051716D02*
X0373717Y0051716D01*
X0373750Y0050717D02*
X0348950Y0050717D01*
X0348950Y0049719D02*
X0373750Y0049719D01*
X0373750Y0048720D02*
X0348950Y0048720D01*
X0348950Y0047722D02*
X0373750Y0047722D01*
X0373750Y0046723D02*
X0348950Y0046723D01*
X0348950Y0045725D02*
X0373750Y0045725D01*
X0373750Y0044726D02*
X0348950Y0044726D01*
X0348950Y0043728D02*
X0373750Y0043728D01*
X0373750Y0042729D02*
X0348950Y0042729D01*
X0348950Y0041731D02*
X0373750Y0041731D01*
X0373750Y0040732D02*
X0348950Y0040732D01*
X0348950Y0039734D02*
X0373750Y0039734D01*
X0373750Y0038735D02*
X0348950Y0038735D01*
X0348950Y0037737D02*
X0373750Y0037737D01*
X0373750Y0036738D02*
X0348950Y0036738D01*
X0348950Y0035740D02*
X0373750Y0035740D01*
X0373750Y0034741D02*
X0348950Y0034741D01*
X0348950Y0033743D02*
X0373750Y0033743D01*
X0373750Y0032744D02*
X0348950Y0032744D01*
X0348950Y0031746D02*
X0373750Y0031746D01*
X0368418Y0060702D02*
X0353814Y0060702D01*
X0355631Y0061701D02*
X0366580Y0061701D01*
X0360431Y0097647D02*
X0337104Y0097647D01*
X0337504Y0098646D02*
X0360000Y0098646D01*
X0359415Y0099644D02*
X0338004Y0099644D01*
X0338690Y0100643D02*
X0358713Y0100643D01*
X0357853Y0101641D02*
X0339534Y0101641D01*
X0340606Y0102640D02*
X0356747Y0102640D01*
X0355248Y0103638D02*
X0342043Y0103638D01*
X0344207Y0104637D02*
X0352845Y0104637D01*
X0332365Y0143507D02*
X0330889Y0142888D01*
X0329340Y0142484D01*
X0327750Y0142304D01*
X0326150Y0142350D01*
X0324465Y0142385D01*
X0322801Y0142659D01*
X0321194Y0143167D01*
X0319675Y0143899D01*
X0318276Y0144839D01*
X0317025Y0145969D01*
X0315948Y0147266D01*
X0315066Y0148702D01*
X0314397Y0150250D01*
X0313955Y0151877D01*
X0313750Y0153550D01*
X0313750Y0193950D01*
X0338550Y0193950D01*
X0338550Y0153950D01*
X0338490Y0152351D01*
X0338203Y0150776D01*
X0337697Y0149257D01*
X0336981Y0147826D01*
X0336070Y0146510D01*
X0334982Y0145337D01*
X0333738Y0144329D01*
X0332365Y0143507D01*
X0332484Y0143579D02*
X0320339Y0143579D01*
X0318666Y0144577D02*
X0334045Y0144577D01*
X0335204Y0145576D02*
X0317461Y0145576D01*
X0316522Y0146574D02*
X0336115Y0146574D01*
X0336806Y0147573D02*
X0315759Y0147573D01*
X0315146Y0148571D02*
X0337354Y0148571D01*
X0337801Y0149570D02*
X0314691Y0149570D01*
X0314311Y0150568D02*
X0338134Y0150568D01*
X0338347Y0151567D02*
X0314040Y0151567D01*
X0313871Y0152565D02*
X0338498Y0152565D01*
X0338535Y0153564D02*
X0313750Y0153564D01*
X0313750Y0154562D02*
X0338550Y0154562D01*
X0338550Y0155561D02*
X0313750Y0155561D01*
X0313750Y0156559D02*
X0338550Y0156559D01*
X0338550Y0157558D02*
X0313750Y0157558D01*
X0313750Y0158556D02*
X0338550Y0158556D01*
X0338550Y0159555D02*
X0313750Y0159555D01*
X0313750Y0160553D02*
X0338550Y0160553D01*
X0338550Y0161552D02*
X0313750Y0161552D01*
X0313750Y0162551D02*
X0338550Y0162551D01*
X0338550Y0163549D02*
X0313750Y0163549D01*
X0313750Y0164548D02*
X0338550Y0164548D01*
X0338550Y0165546D02*
X0313750Y0165546D01*
X0313750Y0166545D02*
X0338550Y0166545D01*
X0338550Y0167543D02*
X0313750Y0167543D01*
X0313750Y0168542D02*
X0338550Y0168542D01*
X0338550Y0169540D02*
X0313750Y0169540D01*
X0313750Y0170539D02*
X0338550Y0170539D01*
X0338550Y0171537D02*
X0313750Y0171537D01*
X0313750Y0172536D02*
X0338550Y0172536D01*
X0338550Y0173534D02*
X0313750Y0173534D01*
X0313750Y0174533D02*
X0338550Y0174533D01*
X0338550Y0175531D02*
X0313750Y0175531D01*
X0313750Y0176530D02*
X0338550Y0176530D01*
X0338550Y0177528D02*
X0313750Y0177528D01*
X0313750Y0178527D02*
X0338550Y0178527D01*
X0338550Y0179525D02*
X0313750Y0179525D01*
X0313750Y0180524D02*
X0338550Y0180524D01*
X0338550Y0181522D02*
X0313750Y0181522D01*
X0313750Y0182521D02*
X0338550Y0182521D01*
X0338550Y0183519D02*
X0313750Y0183519D01*
X0313750Y0184518D02*
X0338550Y0184518D01*
X0338550Y0185516D02*
X0313750Y0185516D01*
X0313750Y0186515D02*
X0338550Y0186515D01*
X0338550Y0187513D02*
X0313750Y0187513D01*
X0313750Y0188512D02*
X0338550Y0188512D01*
X0338550Y0189510D02*
X0313750Y0189510D01*
X0313750Y0190509D02*
X0338550Y0190509D01*
X0338550Y0191507D02*
X0313750Y0191507D01*
X0313750Y0192506D02*
X0338550Y0192506D01*
X0338550Y0193504D02*
X0313750Y0193504D01*
X0348950Y0228050D02*
X0348950Y0248050D01*
X0349010Y0249649D01*
X0349297Y0251224D01*
X0349803Y0252743D01*
X0350519Y0254174D01*
X0351430Y0255490D01*
X0352518Y0256663D01*
X0353762Y0257671D01*
X0355135Y0258493D01*
X0356611Y0259112D01*
X0358160Y0259516D01*
X0359750Y0259696D01*
X0361350Y0259650D01*
X0363035Y0259615D01*
X0364699Y0259341D01*
X0366306Y0258833D01*
X0367825Y0258101D01*
X0369224Y0257161D01*
X0370475Y0256031D01*
X0371552Y0254734D01*
X0372434Y0253298D01*
X0373103Y0251750D01*
X0373545Y0250123D01*
X0373750Y0248450D01*
X0373750Y0228050D01*
X0348950Y0228050D01*
X0348950Y0228452D02*
X0373750Y0228452D01*
X0373750Y0229451D02*
X0348950Y0229451D01*
X0348950Y0230449D02*
X0373750Y0230449D01*
X0373750Y0231448D02*
X0348950Y0231448D01*
X0348950Y0232446D02*
X0373750Y0232446D01*
X0373750Y0233445D02*
X0348950Y0233445D01*
X0348950Y0234443D02*
X0373750Y0234443D01*
X0373750Y0235442D02*
X0348950Y0235442D01*
X0348950Y0236440D02*
X0373750Y0236440D01*
X0373750Y0237439D02*
X0348950Y0237439D01*
X0348950Y0238437D02*
X0373750Y0238437D01*
X0373750Y0239436D02*
X0348950Y0239436D01*
X0348950Y0240434D02*
X0373750Y0240434D01*
X0373750Y0241433D02*
X0348950Y0241433D01*
X0348950Y0242431D02*
X0373750Y0242431D01*
X0373750Y0243430D02*
X0348950Y0243430D01*
X0348950Y0244428D02*
X0373750Y0244428D01*
X0373750Y0245427D02*
X0348950Y0245427D01*
X0348950Y0246425D02*
X0373750Y0246425D01*
X0373750Y0247424D02*
X0348950Y0247424D01*
X0348964Y0248422D02*
X0373750Y0248422D01*
X0373631Y0249421D02*
X0349002Y0249421D01*
X0349150Y0250420D02*
X0373464Y0250420D01*
X0373193Y0251418D02*
X0349361Y0251418D01*
X0349694Y0252417D02*
X0372815Y0252417D01*
X0372362Y0253415D02*
X0350139Y0253415D01*
X0350684Y0254414D02*
X0371749Y0254414D01*
X0370989Y0255412D02*
X0351376Y0255412D01*
X0352284Y0256411D02*
X0370054Y0256411D01*
X0368854Y0257409D02*
X0353438Y0257409D01*
X0354993Y0258408D02*
X0367189Y0258408D01*
X0364304Y0259406D02*
X0357740Y0259406D01*
X0361250Y0270550D02*
X0361250Y0290950D01*
X0361045Y0292623D01*
X0360603Y0294250D01*
X0359934Y0295798D01*
X0359052Y0297234D01*
X0357975Y0298531D01*
X0356724Y0299661D01*
X0355325Y0300601D01*
X0353806Y0301333D01*
X0352199Y0301841D01*
X0350535Y0302115D01*
X0348850Y0302150D01*
X0347250Y0302196D01*
X0345660Y0302016D01*
X0344111Y0301612D01*
X0342635Y0300993D01*
X0341262Y0300171D01*
X0340018Y0299163D01*
X0338930Y0297990D01*
X0338019Y0296674D01*
X0337303Y0295243D01*
X0336797Y0293724D01*
X0336510Y0292149D01*
X0336450Y0290550D01*
X0336450Y0270550D01*
X0361250Y0270550D01*
X0361250Y0271388D02*
X0336450Y0271388D01*
X0336450Y0272387D02*
X0361250Y0272387D01*
X0361250Y0273385D02*
X0336450Y0273385D01*
X0336450Y0274384D02*
X0361250Y0274384D01*
X0361250Y0275382D02*
X0336450Y0275382D01*
X0336450Y0276381D02*
X0361250Y0276381D01*
X0361250Y0277379D02*
X0336450Y0277379D01*
X0336450Y0278378D02*
X0361250Y0278378D01*
X0361250Y0279376D02*
X0336450Y0279376D01*
X0336450Y0280375D02*
X0361250Y0280375D01*
X0361250Y0281373D02*
X0336450Y0281373D01*
X0336450Y0282372D02*
X0361250Y0282372D01*
X0361250Y0283370D02*
X0336450Y0283370D01*
X0336450Y0284369D02*
X0361250Y0284369D01*
X0361250Y0285367D02*
X0336450Y0285367D01*
X0336450Y0286366D02*
X0361250Y0286366D01*
X0361250Y0287364D02*
X0336450Y0287364D01*
X0336450Y0288363D02*
X0361250Y0288363D01*
X0361250Y0289361D02*
X0336450Y0289361D01*
X0336450Y0290360D02*
X0361250Y0290360D01*
X0361200Y0291358D02*
X0336481Y0291358D01*
X0336548Y0292357D02*
X0361077Y0292357D01*
X0360846Y0293355D02*
X0336730Y0293355D01*
X0337006Y0294354D02*
X0360558Y0294354D01*
X0360127Y0295353D02*
X0337358Y0295353D01*
X0337857Y0296351D02*
X0359595Y0296351D01*
X0358957Y0297350D02*
X0338486Y0297350D01*
X0339262Y0298348D02*
X0358127Y0298348D01*
X0357072Y0299347D02*
X0340244Y0299347D01*
X0341552Y0300345D02*
X0355706Y0300345D01*
X0353772Y0301344D02*
X0343472Y0301344D01*
X0315603Y0294250D02*
X0316045Y0292623D01*
X0316250Y0290950D01*
X0316250Y0270550D01*
X0291450Y0270550D01*
X0291450Y0290550D01*
X0291510Y0292149D01*
X0291797Y0293724D01*
X0292303Y0295243D01*
X0293019Y0296674D01*
X0293930Y0297990D01*
X0295018Y0299163D01*
X0296262Y0300171D01*
X0297635Y0300993D01*
X0299111Y0301612D01*
X0300660Y0302016D01*
X0302250Y0302196D01*
X0303850Y0302150D01*
X0305535Y0302115D01*
X0307199Y0301841D01*
X0308806Y0301333D01*
X0310325Y0300601D01*
X0311724Y0299661D01*
X0312975Y0298531D01*
X0314052Y0297234D01*
X0314934Y0295798D01*
X0315603Y0294250D01*
X0315558Y0294354D02*
X0292006Y0294354D01*
X0291730Y0293355D02*
X0315846Y0293355D01*
X0316077Y0292357D02*
X0291548Y0292357D01*
X0291481Y0291358D02*
X0316200Y0291358D01*
X0316250Y0290360D02*
X0291450Y0290360D01*
X0291450Y0289361D02*
X0316250Y0289361D01*
X0316250Y0288363D02*
X0291450Y0288363D01*
X0291450Y0287364D02*
X0316250Y0287364D01*
X0316250Y0286366D02*
X0291450Y0286366D01*
X0291450Y0285367D02*
X0316250Y0285367D01*
X0316250Y0284369D02*
X0291450Y0284369D01*
X0291450Y0283370D02*
X0316250Y0283370D01*
X0316250Y0282372D02*
X0291450Y0282372D01*
X0291450Y0281373D02*
X0316250Y0281373D01*
X0316250Y0280375D02*
X0291450Y0280375D01*
X0291450Y0279376D02*
X0316250Y0279376D01*
X0316250Y0278378D02*
X0291450Y0278378D01*
X0291450Y0277379D02*
X0316250Y0277379D01*
X0316250Y0276381D02*
X0291450Y0276381D01*
X0291450Y0275382D02*
X0316250Y0275382D01*
X0316250Y0274384D02*
X0291450Y0274384D01*
X0291450Y0273385D02*
X0316250Y0273385D01*
X0316250Y0272387D02*
X0291450Y0272387D01*
X0291450Y0271388D02*
X0316250Y0271388D01*
X0315127Y0295353D02*
X0292358Y0295353D01*
X0292857Y0296351D02*
X0314595Y0296351D01*
X0313957Y0297350D02*
X0293486Y0297350D01*
X0294262Y0298348D02*
X0313127Y0298348D01*
X0312072Y0299347D02*
X0295244Y0299347D01*
X0296552Y0300345D02*
X0310706Y0300345D01*
X0308772Y0301344D02*
X0298472Y0301344D01*
X0319675Y0340899D02*
X0318276Y0341839D01*
X0317025Y0342969D01*
X0315948Y0344266D01*
X0315066Y0345702D01*
X0314397Y0347250D01*
X0313955Y0348877D01*
X0313750Y0350550D01*
X0313750Y0390950D01*
X0338550Y0390950D01*
X0338550Y0350950D01*
X0338490Y0349351D01*
X0338203Y0347776D01*
X0337697Y0346257D01*
X0336981Y0344826D01*
X0336070Y0343510D01*
X0334982Y0342337D01*
X0333738Y0341329D01*
X0332365Y0340507D01*
X0330889Y0339888D01*
X0329340Y0339484D01*
X0327750Y0339304D01*
X0326150Y0339350D01*
X0324465Y0339385D01*
X0322801Y0339659D01*
X0321194Y0340167D01*
X0319675Y0340899D01*
X0319102Y0341284D02*
X0333663Y0341284D01*
X0334915Y0342283D02*
X0317785Y0342283D01*
X0316766Y0343281D02*
X0335858Y0343281D01*
X0336603Y0344280D02*
X0315939Y0344280D01*
X0315326Y0345278D02*
X0337208Y0345278D01*
X0337704Y0346277D02*
X0314817Y0346277D01*
X0314390Y0347275D02*
X0338037Y0347275D01*
X0338294Y0348274D02*
X0314119Y0348274D01*
X0313907Y0349272D02*
X0338475Y0349272D01*
X0338524Y0350271D02*
X0313784Y0350271D01*
X0313750Y0351269D02*
X0338550Y0351269D01*
X0338550Y0352268D02*
X0313750Y0352268D01*
X0313750Y0353266D02*
X0338550Y0353266D01*
X0338550Y0354265D02*
X0313750Y0354265D01*
X0313750Y0355263D02*
X0338550Y0355263D01*
X0338550Y0356262D02*
X0313750Y0356262D01*
X0313750Y0357260D02*
X0338550Y0357260D01*
X0338550Y0358259D02*
X0313750Y0358259D01*
X0313750Y0359257D02*
X0338550Y0359257D01*
X0338550Y0360256D02*
X0313750Y0360256D01*
X0313750Y0361254D02*
X0338550Y0361254D01*
X0338550Y0362253D02*
X0313750Y0362253D01*
X0313750Y0363251D02*
X0338550Y0363251D01*
X0338550Y0364250D02*
X0313750Y0364250D01*
X0313750Y0365248D02*
X0338550Y0365248D01*
X0338550Y0366247D02*
X0313750Y0366247D01*
X0313750Y0367245D02*
X0338550Y0367245D01*
X0338550Y0368244D02*
X0313750Y0368244D01*
X0313750Y0369242D02*
X0338550Y0369242D01*
X0338550Y0370241D02*
X0313750Y0370241D01*
X0313750Y0371239D02*
X0338550Y0371239D01*
X0338550Y0372238D02*
X0313750Y0372238D01*
X0313750Y0373236D02*
X0338550Y0373236D01*
X0338550Y0374235D02*
X0313750Y0374235D01*
X0313750Y0375233D02*
X0338550Y0375233D01*
X0338550Y0376232D02*
X0313750Y0376232D01*
X0313750Y0377230D02*
X0338550Y0377230D01*
X0338550Y0378229D02*
X0313750Y0378229D01*
X0313750Y0379227D02*
X0338550Y0379227D01*
X0338550Y0380226D02*
X0313750Y0380226D01*
X0313750Y0381224D02*
X0338550Y0381224D01*
X0338550Y0382223D02*
X0313750Y0382223D01*
X0313750Y0383222D02*
X0338550Y0383222D01*
X0338550Y0384220D02*
X0313750Y0384220D01*
X0313750Y0385219D02*
X0338550Y0385219D01*
X0338550Y0386217D02*
X0313750Y0386217D01*
X0313750Y0387216D02*
X0338550Y0387216D01*
X0338550Y0388214D02*
X0313750Y0388214D01*
X0313750Y0389213D02*
X0338550Y0389213D01*
X0338550Y0390211D02*
X0313750Y0390211D01*
X0320948Y0340286D02*
X0331836Y0340286D01*
X0253103Y0306250D02*
X0253545Y0304623D01*
X0253750Y0302950D01*
X0253750Y0262550D01*
X0228950Y0262550D01*
X0228950Y0302550D01*
X0229010Y0304149D01*
X0229297Y0305724D01*
X0229803Y0307243D01*
X0230519Y0308674D01*
X0231430Y0309990D01*
X0232518Y0311163D01*
X0233762Y0312171D01*
X0235135Y0312993D01*
X0236611Y0313612D01*
X0238160Y0314016D01*
X0239750Y0314196D01*
X0241350Y0314150D01*
X0243035Y0314115D01*
X0244699Y0313841D01*
X0246306Y0313333D01*
X0247825Y0312601D01*
X0249224Y0311661D01*
X0250475Y0310531D01*
X0251552Y0309234D01*
X0252434Y0307798D01*
X0253103Y0306250D01*
X0253066Y0306336D02*
X0229501Y0306336D01*
X0229226Y0305338D02*
X0253351Y0305338D01*
X0253579Y0304339D02*
X0229045Y0304339D01*
X0228980Y0303341D02*
X0253702Y0303341D01*
X0253750Y0302342D02*
X0228950Y0302342D01*
X0228950Y0301344D02*
X0253750Y0301344D01*
X0253750Y0300345D02*
X0228950Y0300345D01*
X0228950Y0299347D02*
X0253750Y0299347D01*
X0253750Y0298348D02*
X0228950Y0298348D01*
X0228950Y0297350D02*
X0253750Y0297350D01*
X0253750Y0296351D02*
X0228950Y0296351D01*
X0228950Y0295353D02*
X0253750Y0295353D01*
X0253750Y0294354D02*
X0228950Y0294354D01*
X0228950Y0293355D02*
X0253750Y0293355D01*
X0253750Y0292357D02*
X0228950Y0292357D01*
X0228950Y0291358D02*
X0253750Y0291358D01*
X0253750Y0290360D02*
X0228950Y0290360D01*
X0228950Y0289361D02*
X0253750Y0289361D01*
X0253750Y0288363D02*
X0228950Y0288363D01*
X0228950Y0287364D02*
X0253750Y0287364D01*
X0253750Y0286366D02*
X0228950Y0286366D01*
X0228950Y0285367D02*
X0253750Y0285367D01*
X0253750Y0284369D02*
X0228950Y0284369D01*
X0228950Y0283370D02*
X0253750Y0283370D01*
X0253750Y0282372D02*
X0228950Y0282372D01*
X0228950Y0281373D02*
X0253750Y0281373D01*
X0253750Y0280375D02*
X0228950Y0280375D01*
X0228950Y0279376D02*
X0253750Y0279376D01*
X0253750Y0278378D02*
X0228950Y0278378D01*
X0228950Y0277379D02*
X0253750Y0277379D01*
X0253750Y0276381D02*
X0228950Y0276381D01*
X0228950Y0275382D02*
X0253750Y0275382D01*
X0253750Y0274384D02*
X0228950Y0274384D01*
X0228950Y0273385D02*
X0253750Y0273385D01*
X0253750Y0272387D02*
X0228950Y0272387D01*
X0228950Y0271388D02*
X0253750Y0271388D01*
X0253750Y0270390D02*
X0228950Y0270390D01*
X0228950Y0269391D02*
X0253750Y0269391D01*
X0253750Y0268393D02*
X0228950Y0268393D01*
X0228950Y0267394D02*
X0253750Y0267394D01*
X0253750Y0266396D02*
X0228950Y0266396D01*
X0228950Y0265397D02*
X0253750Y0265397D01*
X0253750Y0264399D02*
X0228950Y0264399D01*
X0228950Y0263400D02*
X0253750Y0263400D01*
X0221250Y0263400D02*
X0196450Y0263400D01*
X0196450Y0262550D02*
X0196450Y0302550D01*
X0196510Y0304149D01*
X0196797Y0305724D01*
X0197303Y0307243D01*
X0198019Y0308674D01*
X0198930Y0309990D01*
X0200018Y0311163D01*
X0201262Y0312171D01*
X0202635Y0312993D01*
X0204111Y0313612D01*
X0205660Y0314016D01*
X0207250Y0314196D01*
X0208850Y0314150D01*
X0210535Y0314115D01*
X0212199Y0313841D01*
X0213806Y0313333D01*
X0215325Y0312601D01*
X0216724Y0311661D01*
X0217975Y0310531D01*
X0219052Y0309234D01*
X0219934Y0307798D01*
X0220603Y0306250D01*
X0221045Y0304623D01*
X0221250Y0302950D01*
X0221250Y0262550D01*
X0196450Y0262550D01*
X0196450Y0264399D02*
X0221250Y0264399D01*
X0221250Y0265397D02*
X0196450Y0265397D01*
X0196450Y0266396D02*
X0221250Y0266396D01*
X0221250Y0267394D02*
X0196450Y0267394D01*
X0196450Y0268393D02*
X0221250Y0268393D01*
X0221250Y0269391D02*
X0196450Y0269391D01*
X0196450Y0270390D02*
X0221250Y0270390D01*
X0221250Y0271388D02*
X0196450Y0271388D01*
X0196450Y0272387D02*
X0221250Y0272387D01*
X0221250Y0273385D02*
X0196450Y0273385D01*
X0196450Y0274384D02*
X0221250Y0274384D01*
X0221250Y0275382D02*
X0196450Y0275382D01*
X0196450Y0276381D02*
X0221250Y0276381D01*
X0221250Y0277379D02*
X0196450Y0277379D01*
X0196450Y0278378D02*
X0221250Y0278378D01*
X0221250Y0279376D02*
X0196450Y0279376D01*
X0196450Y0280375D02*
X0221250Y0280375D01*
X0221250Y0281373D02*
X0196450Y0281373D01*
X0196450Y0282372D02*
X0221250Y0282372D01*
X0221250Y0283370D02*
X0196450Y0283370D01*
X0196450Y0284369D02*
X0221250Y0284369D01*
X0221250Y0285367D02*
X0196450Y0285367D01*
X0196450Y0286366D02*
X0221250Y0286366D01*
X0221250Y0287364D02*
X0196450Y0287364D01*
X0196450Y0288363D02*
X0221250Y0288363D01*
X0221250Y0289361D02*
X0196450Y0289361D01*
X0196450Y0290360D02*
X0221250Y0290360D01*
X0221250Y0291358D02*
X0196450Y0291358D01*
X0196450Y0292357D02*
X0221250Y0292357D01*
X0221250Y0293355D02*
X0196450Y0293355D01*
X0196450Y0294354D02*
X0221250Y0294354D01*
X0221250Y0295353D02*
X0196450Y0295353D01*
X0196450Y0296351D02*
X0221250Y0296351D01*
X0221250Y0297350D02*
X0196450Y0297350D01*
X0196450Y0298348D02*
X0221250Y0298348D01*
X0221250Y0299347D02*
X0196450Y0299347D01*
X0196450Y0300345D02*
X0221250Y0300345D01*
X0221250Y0301344D02*
X0196450Y0301344D01*
X0196450Y0302342D02*
X0221250Y0302342D01*
X0221202Y0303341D02*
X0196480Y0303341D01*
X0196545Y0304339D02*
X0221079Y0304339D01*
X0220851Y0305338D02*
X0196726Y0305338D01*
X0197001Y0306336D02*
X0220566Y0306336D01*
X0220134Y0307335D02*
X0197349Y0307335D01*
X0197848Y0308333D02*
X0219606Y0308333D01*
X0218971Y0309332D02*
X0198474Y0309332D01*
X0199245Y0310330D02*
X0218142Y0310330D01*
X0217092Y0311329D02*
X0200222Y0311329D01*
X0201523Y0312327D02*
X0215732Y0312327D01*
X0213821Y0313326D02*
X0203429Y0313326D01*
X0188066Y0306336D02*
X0164501Y0306336D01*
X0164297Y0305724D02*
X0164803Y0307243D01*
X0165519Y0308674D01*
X0166430Y0309990D01*
X0167518Y0311163D01*
X0168762Y0312171D01*
X0170135Y0312993D01*
X0171611Y0313612D01*
X0173160Y0314016D01*
X0174750Y0314196D01*
X0176350Y0314150D01*
X0178035Y0314115D01*
X0179699Y0313841D01*
X0181306Y0313333D01*
X0182825Y0312601D01*
X0184224Y0311661D01*
X0185475Y0310531D01*
X0186552Y0309234D01*
X0187434Y0307798D01*
X0188103Y0306250D01*
X0188545Y0304623D01*
X0188750Y0302950D01*
X0188750Y0262550D01*
X0163950Y0262550D01*
X0163950Y0302550D01*
X0164010Y0304149D01*
X0164297Y0305724D01*
X0164226Y0305338D02*
X0188351Y0305338D01*
X0188579Y0304339D02*
X0164045Y0304339D01*
X0163980Y0303341D02*
X0188702Y0303341D01*
X0188750Y0302342D02*
X0163950Y0302342D01*
X0163950Y0301344D02*
X0188750Y0301344D01*
X0188750Y0300345D02*
X0163950Y0300345D01*
X0163950Y0299347D02*
X0188750Y0299347D01*
X0188750Y0298348D02*
X0163950Y0298348D01*
X0163950Y0297350D02*
X0188750Y0297350D01*
X0188750Y0296351D02*
X0163950Y0296351D01*
X0163950Y0295353D02*
X0188750Y0295353D01*
X0188750Y0294354D02*
X0163950Y0294354D01*
X0163950Y0293355D02*
X0188750Y0293355D01*
X0188750Y0292357D02*
X0163950Y0292357D01*
X0163950Y0291358D02*
X0188750Y0291358D01*
X0188750Y0290360D02*
X0163950Y0290360D01*
X0163950Y0289361D02*
X0188750Y0289361D01*
X0188750Y0288363D02*
X0163950Y0288363D01*
X0163950Y0287364D02*
X0188750Y0287364D01*
X0188750Y0286366D02*
X0163950Y0286366D01*
X0163950Y0285367D02*
X0188750Y0285367D01*
X0188750Y0284369D02*
X0163950Y0284369D01*
X0163950Y0283370D02*
X0188750Y0283370D01*
X0188750Y0282372D02*
X0163950Y0282372D01*
X0163950Y0281373D02*
X0188750Y0281373D01*
X0188750Y0280375D02*
X0163950Y0280375D01*
X0163950Y0279376D02*
X0188750Y0279376D01*
X0188750Y0278378D02*
X0163950Y0278378D01*
X0163950Y0277379D02*
X0188750Y0277379D01*
X0188750Y0276381D02*
X0163950Y0276381D01*
X0163950Y0275382D02*
X0188750Y0275382D01*
X0188750Y0274384D02*
X0163950Y0274384D01*
X0163950Y0273385D02*
X0188750Y0273385D01*
X0188750Y0272387D02*
X0163950Y0272387D01*
X0163950Y0271388D02*
X0188750Y0271388D01*
X0188750Y0270390D02*
X0163950Y0270390D01*
X0163950Y0269391D02*
X0188750Y0269391D01*
X0188750Y0268393D02*
X0163950Y0268393D01*
X0163950Y0267394D02*
X0188750Y0267394D01*
X0188750Y0266396D02*
X0163950Y0266396D01*
X0163950Y0265397D02*
X0188750Y0265397D01*
X0188750Y0264399D02*
X0163950Y0264399D01*
X0163950Y0263400D02*
X0188750Y0263400D01*
X0187634Y0307335D02*
X0164849Y0307335D01*
X0165348Y0308333D02*
X0187106Y0308333D01*
X0186471Y0309332D02*
X0165974Y0309332D01*
X0166745Y0310330D02*
X0185642Y0310330D01*
X0184592Y0311329D02*
X0167722Y0311329D01*
X0169023Y0312327D02*
X0183232Y0312327D01*
X0181321Y0313326D02*
X0170929Y0313326D01*
X0125603Y0294250D02*
X0126045Y0292623D01*
X0126250Y0290950D01*
X0126250Y0270550D01*
X0101450Y0270550D01*
X0101450Y0290550D01*
X0101510Y0292149D01*
X0101797Y0293724D01*
X0102303Y0295243D01*
X0103019Y0296674D01*
X0103930Y0297990D01*
X0105018Y0299163D01*
X0106262Y0300171D01*
X0107635Y0300993D01*
X0109111Y0301612D01*
X0110660Y0302016D01*
X0112250Y0302196D01*
X0113850Y0302150D01*
X0115535Y0302115D01*
X0117199Y0301841D01*
X0118806Y0301333D01*
X0120325Y0300601D01*
X0121724Y0299661D01*
X0122975Y0298531D01*
X0124052Y0297234D01*
X0124934Y0295798D01*
X0125603Y0294250D01*
X0125558Y0294354D02*
X0102006Y0294354D01*
X0101730Y0293355D02*
X0125846Y0293355D01*
X0126077Y0292357D02*
X0101548Y0292357D01*
X0101481Y0291358D02*
X0126200Y0291358D01*
X0126250Y0290360D02*
X0101450Y0290360D01*
X0101450Y0289361D02*
X0126250Y0289361D01*
X0126250Y0288363D02*
X0101450Y0288363D01*
X0101450Y0287364D02*
X0126250Y0287364D01*
X0126250Y0286366D02*
X0101450Y0286366D01*
X0101450Y0285367D02*
X0126250Y0285367D01*
X0126250Y0284369D02*
X0101450Y0284369D01*
X0101450Y0283370D02*
X0126250Y0283370D01*
X0126250Y0282372D02*
X0101450Y0282372D01*
X0101450Y0281373D02*
X0126250Y0281373D01*
X0126250Y0280375D02*
X0101450Y0280375D01*
X0101450Y0279376D02*
X0126250Y0279376D01*
X0126250Y0278378D02*
X0101450Y0278378D01*
X0101450Y0277379D02*
X0126250Y0277379D01*
X0126250Y0276381D02*
X0101450Y0276381D01*
X0101450Y0275382D02*
X0126250Y0275382D01*
X0126250Y0274384D02*
X0101450Y0274384D01*
X0101450Y0273385D02*
X0126250Y0273385D01*
X0126250Y0272387D02*
X0101450Y0272387D01*
X0101450Y0271388D02*
X0126250Y0271388D01*
X0125127Y0295353D02*
X0102358Y0295353D01*
X0102857Y0296351D02*
X0124595Y0296351D01*
X0123957Y0297350D02*
X0103486Y0297350D01*
X0104262Y0298348D02*
X0123127Y0298348D01*
X0122072Y0299347D02*
X0105244Y0299347D01*
X0106552Y0300345D02*
X0120706Y0300345D01*
X0118772Y0301344D02*
X0108472Y0301344D01*
X0196897Y0372250D02*
X0196455Y0373877D01*
X0196250Y0375550D01*
X0196250Y0395950D01*
X0221050Y0395950D01*
X0221050Y0375950D01*
X0220990Y0374351D01*
X0220703Y0372776D01*
X0220197Y0371257D01*
X0219481Y0369826D01*
X0218570Y0368510D01*
X0217482Y0367337D01*
X0216238Y0366329D01*
X0214865Y0365507D01*
X0213389Y0364888D01*
X0211840Y0364484D01*
X0210250Y0364304D01*
X0208650Y0364350D01*
X0206965Y0364385D01*
X0205301Y0364659D01*
X0203694Y0365167D01*
X0202175Y0365899D01*
X0200776Y0366839D01*
X0199525Y0367969D01*
X0198448Y0369266D01*
X0197566Y0370702D01*
X0196897Y0372250D01*
X0196902Y0372238D02*
X0220524Y0372238D01*
X0220787Y0373236D02*
X0196629Y0373236D01*
X0196412Y0374235D02*
X0220969Y0374235D01*
X0221023Y0375233D02*
X0196289Y0375233D01*
X0196250Y0376232D02*
X0221050Y0376232D01*
X0221050Y0377230D02*
X0196250Y0377230D01*
X0196250Y0378229D02*
X0221050Y0378229D01*
X0221050Y0379227D02*
X0196250Y0379227D01*
X0196250Y0380226D02*
X0221050Y0380226D01*
X0221050Y0381224D02*
X0196250Y0381224D01*
X0196250Y0382223D02*
X0221050Y0382223D01*
X0221050Y0383222D02*
X0196250Y0383222D01*
X0196250Y0384220D02*
X0221050Y0384220D01*
X0221050Y0385219D02*
X0196250Y0385219D01*
X0196250Y0386217D02*
X0221050Y0386217D01*
X0221050Y0387216D02*
X0196250Y0387216D01*
X0196250Y0388214D02*
X0221050Y0388214D01*
X0221050Y0389213D02*
X0196250Y0389213D01*
X0196250Y0390211D02*
X0221050Y0390211D01*
X0221050Y0391210D02*
X0196250Y0391210D01*
X0196250Y0392208D02*
X0221050Y0392208D01*
X0221050Y0393207D02*
X0196250Y0393207D01*
X0196250Y0394205D02*
X0221050Y0394205D01*
X0221050Y0395204D02*
X0196250Y0395204D01*
X0197334Y0371239D02*
X0220188Y0371239D01*
X0219689Y0370241D02*
X0197849Y0370241D01*
X0198467Y0369242D02*
X0219077Y0369242D01*
X0218323Y0368244D02*
X0199297Y0368244D01*
X0200326Y0367245D02*
X0217369Y0367245D01*
X0216101Y0366247D02*
X0201657Y0366247D01*
X0203525Y0365248D02*
X0214247Y0365248D01*
X0235929Y0313326D02*
X0246321Y0313326D01*
X0248232Y0312327D02*
X0234023Y0312327D01*
X0232722Y0311329D02*
X0249592Y0311329D01*
X0250642Y0310330D02*
X0231745Y0310330D01*
X0230974Y0309332D02*
X0251471Y0309332D01*
X0252106Y0308333D02*
X0230348Y0308333D01*
X0229849Y0307335D02*
X0252634Y0307335D01*
X0323278Y0142580D02*
X0329708Y0142580D01*
D13*
X0038750Y0038750D03*
X0038750Y0235750D03*
X0378750Y0213750D03*
X0378750Y0410750D03*
M02*
